<?xml version="1.0" encoding="UTF-8"?>
<svg xmlns="http://www.w3.org/2000/svg" xmlns:xlink="http://www.w3.org/1999/xlink" width="396pt" height="296.999993pt" viewBox="0 0 396 296.999993" version="1.2">
<defs>
<clipPath id="clip1">
  <path d="M 80.175781 56.449219 L 315.675781 56.449219 L 315.675781 240.199219 L 80.175781 240.199219 Z M 80.175781 56.449219 "/>
</clipPath>
</defs>
<g id="surface1">
<g clip-path="url(#clip1)" clip-rule="nonzero">
<path style=" stroke:none;fill-rule:nonzero;fill:rgb(100%,56.858826%,30.198669%);fill-opacity:1;" d="M 132.503906 110.910156 L 80.578125 110.910156 L 119.523438 63.371094 Z M 149.480469 123 L 197.925781 240.140625 L 246.371094 123 Z M 216.203125 227.566406 L 314.09375 123 L 259.472656 123 Z M 81.757812 123 L 179.648438 227.566406 L 136.378906 123 Z M 184.703125 56.511719 L 130.203125 56.511719 L 143.277344 104.414062 Z M 265.648438 56.511719 L 211.148438 56.511719 L 252.574219 104.414062 Z M 315.273438 110.910156 L 276.328125 63.371094 L 263.347656 110.910156 Z M 242.195312 110.910156 L 197.925781 59.714844 L 153.65625 110.910156 Z M 242.195312 110.910156 "/>
</g>
</g>
</svg>
