<?xml version="1.0" encoding="UTF-8"?>
<svg xmlns="http://www.w3.org/2000/svg" xmlns:xlink="http://www.w3.org/1999/xlink" width="396pt" height="296.999993pt" viewBox="0 0 396 296.999993" version="1.2">
<defs>
<clipPath id="clip1">
  <path d="M 71.480469 148 L 324.230469 148 L 324.230469 165 L 71.480469 165 Z M 71.480469 148 "/>
</clipPath>
<clipPath id="clip2">
  <path d="M 126 164 L 269 164 L 269 271.183594 L 126 271.183594 Z M 126 164 "/>
</clipPath>
<clipPath id="clip3">
  <path d="M 126 112 L 269 112 L 269 271.183594 L 126 271.183594 Z M 126 112 "/>
</clipPath>
</defs>
<g id="surface1">
<g clip-path="url(#clip1)" clip-rule="nonzero">
<path style=" stroke:none;fill-rule:nonzero;fill:rgb(0%,0%,0%);fill-opacity:1;" d="M 320.082031 164.554688 C 317.902344 164.554688 316.140625 162.789062 316.140625 160.605469 L 316.140625 152.707031 C 316.140625 150.523438 317.902344 148.757812 320.082031 148.757812 C 322.261719 148.757812 324.023438 150.523438 324.023438 152.707031 L 324.023438 160.605469 C 324.023438 162.789062 322.261719 164.554688 320.082031 164.554688 Z M 300.367188 164.554688 C 298.1875 164.554688 296.425781 162.789062 296.425781 160.605469 L 296.425781 152.707031 C 296.425781 150.523438 298.1875 148.757812 300.367188 148.757812 C 302.546875 148.757812 304.3125 150.523438 304.3125 152.707031 L 304.3125 160.605469 C 304.3125 162.789062 302.546875 164.554688 300.367188 164.554688 Z M 280.65625 164.554688 C 278.472656 164.554688 276.710938 162.789062 276.710938 160.605469 L 276.710938 152.707031 C 276.710938 150.523438 278.472656 148.757812 280.65625 148.757812 C 282.835938 148.757812 284.597656 150.523438 284.597656 152.707031 L 284.597656 160.605469 C 284.597656 162.789062 282.835938 164.554688 280.65625 164.554688 Z M 115.054688 164.554688 C 112.878906 164.554688 111.113281 162.789062 111.113281 160.605469 L 111.113281 152.707031 C 111.113281 150.523438 112.878906 148.757812 115.054688 148.757812 C 117.234375 148.757812 119 150.523438 119 152.707031 L 119 160.605469 C 119 162.789062 117.234375 164.554688 115.054688 164.554688 Z M 95.34375 164.554688 C 93.164062 164.554688 91.398438 162.789062 91.398438 160.605469 L 91.398438 152.707031 C 91.398438 150.523438 93.164062 148.757812 95.34375 148.757812 C 97.519531 148.757812 99.285156 150.523438 99.285156 152.707031 L 99.285156 160.605469 C 99.285156 162.789062 97.519531 164.554688 95.34375 164.554688 Z M 75.628906 164.554688 C 73.453125 164.554688 71.683594 162.789062 71.683594 160.605469 L 71.683594 152.707031 C 71.683594 150.523438 73.453125 148.757812 75.628906 148.757812 C 77.804688 148.757812 79.570312 150.523438 79.570312 152.707031 L 79.570312 160.605469 C 79.570312 162.789062 77.804688 164.554688 75.628906 164.554688 Z M 75.628906 164.554688 "/>
</g>
<path style=" stroke:none;fill-rule:nonzero;fill:rgb(100%,86.669922%,84.709167%);fill-opacity:1;" d="M 130.828125 148.757812 L 197.855469 30.277344 L 264.882812 148.757812 L 197.855469 191.839844 Z M 130.828125 148.757812 "/>
<path style=" stroke:none;fill-rule:nonzero;fill:rgb(36.859131%,14.898682%,100%);fill-opacity:1;" d="M 197.855469 30.277344 L 264.882812 148.757812 L 197.855469 191.839844 Z M 197.855469 30.277344 "/>
<path style=" stroke:none;fill-rule:nonzero;fill:rgb(100%,86.669922%,84.709167%);fill-opacity:1;" d="M 130.828125 168.503906 L 197.855469 207.996094 L 264.882812 168.503906 L 197.855469 267.234375 Z M 130.828125 168.503906 "/>
<path style=" stroke:none;fill-rule:nonzero;fill:rgb(36.859131%,14.898682%,100%);fill-opacity:1;" d="M 197.855469 207.996094 L 264.882812 168.503906 L 197.855469 267.234375 Z M 130.828125 148.757812 L 197.855469 116.445312 L 264.882812 148.757812 L 197.855469 191.839844 Z M 130.828125 148.757812 "/>
<path style=" stroke:none;fill-rule:nonzero;fill:rgb(99.21875%,98.039246%,82.348633%);fill-opacity:1;" d="M 197.855469 116.445312 L 264.882812 148.757812 L 197.855469 191.839844 Z M 197.855469 116.445312 "/>
<path style=" stroke:none;fill-rule:nonzero;fill:rgb(0%,0%,0%);fill-opacity:1;" d="M 197.855469 195.789062 C 197.113281 195.789062 196.375 195.578125 195.726562 195.164062 L 128.699219 152.082031 C 126.9375 150.949219 126.363281 148.632812 127.398438 146.808594 L 194.425781 28.332031 C 195.824219 25.859375 199.886719 25.859375 201.285156 28.332031 L 268.3125 146.808594 C 269.347656 148.632812 268.773438 150.949219 267.011719 152.082031 L 199.984375 195.164062 C 199.335938 195.578125 198.597656 195.789062 197.855469 195.789062 Z M 136.09375 147.449219 L 197.855469 187.148438 L 259.613281 147.453125 L 197.855469 38.289062 Z M 136.09375 147.449219 "/>
<path style=" stroke:none;fill-rule:nonzero;fill:rgb(0%,0%,0%);fill-opacity:1;" d="M 197.855469 195.789062 C 197.203125 195.789062 196.554688 195.625 195.964844 195.304688 C 194.699219 194.613281 193.914062 193.28125 193.914062 191.839844 L 193.914062 30.277344 C 193.914062 28.484375 195.117188 26.917969 196.851562 26.460938 C 198.589844 26 200.402344 26.769531 201.285156 28.332031 L 268.3125 146.808594 C 269.347656 148.632812 268.773438 150.949219 267.011719 152.082031 L 199.984375 195.164062 C 199.335938 195.578125 198.597656 195.789062 197.855469 195.789062 Z M 201.796875 45.257812 L 201.796875 184.613281 L 259.613281 147.449219 Z M 201.796875 45.257812 "/>
<g clip-path="url(#clip2)" clip-rule="nonzero">
<path style=" stroke:none;fill-rule:nonzero;fill:rgb(0%,0%,0%);fill-opacity:1;" d="M 197.855469 271.183594 C 196.550781 271.183594 195.332031 270.539062 194.597656 269.457031 L 127.570312 171.085938 C 126.515625 169.535156 126.695312 167.453125 128 166.105469 C 129.308594 164.761719 131.378906 164.527344 132.957031 165.53125 L 197.855469 207.253906 L 262.753906 165.539062 C 264.328125 164.527344 266.40625 164.765625 267.710938 166.113281 C 269.019531 167.460938 269.195312 169.542969 268.140625 171.09375 L 201.113281 269.464844 C 200.378906 270.539062 199.15625 271.183594 197.855469 271.183594 Z M 145.011719 182.667969 L 197.855469 260.230469 L 250.699219 182.667969 L 199.984375 215.269531 C 198.691406 216.109375 197.027344 216.101562 195.726562 215.269531 Z M 145.011719 182.667969 "/>
</g>
<g clip-path="url(#clip3)" clip-rule="nonzero">
<path style=" stroke:none;fill-rule:nonzero;fill:rgb(0%,0%,0%);fill-opacity:1;" d="M 197.855469 271.183594 C 197.46875 271.183594 197.074219 271.125 196.691406 271.007812 C 195.039062 270.496094 193.914062 268.964844 193.914062 267.234375 L 193.914062 211.945312 C 193.914062 210.597656 194.59375 209.351562 195.726562 208.621094 L 262.753906 165.535156 C 264.328125 164.523438 266.40625 164.761719 267.710938 166.109375 C 269.019531 167.457031 269.195312 169.539062 268.140625 171.089844 L 201.113281 269.460938 C 200.363281 270.558594 199.132812 271.183594 197.855469 271.183594 Z M 201.796875 214.105469 L 201.796875 254.441406 L 250.699219 182.667969 Z M 197.855469 195.789062 C 197.113281 195.789062 196.375 195.578125 195.726562 195.164062 L 128.699219 152.082031 C 127.496094 151.308594 126.804688 149.945312 126.890625 148.515625 C 126.980469 147.089844 127.832031 145.816406 129.117188 145.199219 L 196.144531 112.886719 C 197.222656 112.363281 198.484375 112.363281 199.5625 112.886719 L 266.589844 145.199219 C 267.875 145.816406 268.726562 147.089844 268.8125 148.515625 C 268.902344 149.945312 268.210938 151.308594 267.007812 152.082031 L 199.980469 195.164062 C 199.335938 195.578125 198.597656 195.789062 197.855469 195.789062 Z M 138.894531 149.25 L 197.855469 187.148438 L 256.816406 149.25 L 197.855469 120.828125 Z M 138.894531 149.25 "/>
</g>
<path style=" stroke:none;fill-rule:nonzero;fill:rgb(0%,0%,0%);fill-opacity:1;" d="M 197.855469 195.789062 C 197.203125 195.789062 196.554688 195.625 195.964844 195.304688 C 194.699219 194.613281 193.914062 193.28125 193.914062 191.839844 L 193.914062 116.445312 C 193.914062 115.085938 194.609375 113.820312 195.757812 113.097656 C 196.90625 112.375 198.335938 112.289062 199.566406 112.886719 L 266.59375 145.199219 C 267.878906 145.816406 268.730469 147.089844 268.816406 148.515625 C 268.90625 149.945312 268.214844 151.308594 267.011719 152.082031 L 199.984375 195.164062 C 199.335938 195.578125 198.597656 195.789062 197.855469 195.789062 Z M 201.796875 122.726562 L 201.796875 184.613281 L 256.816406 149.25 Z M 201.796875 122.726562 "/>
</g>
</svg>
