<?xml version="1.0" encoding="UTF-8"?>
<svg xmlns="http://www.w3.org/2000/svg" xmlns:xlink="http://www.w3.org/1999/xlink" width="396pt" height="296.999993pt" viewBox="0 0 396 296.999993" version="1.2">
<defs>
<clipPath id="clip1">
  <path d="M 228 133 L 303.648438 133 L 303.648438 202 L 228 202 Z M 228 133 "/>
</clipPath>
<clipPath id="clip2">
  <path d="M 159 218 L 258 218 L 258 270.804688 L 159 270.804688 Z M 159 218 "/>
</clipPath>
<clipPath id="clip3">
  <path d="M 91.714844 26 L 182 26 L 182 240 L 91.714844 240 Z M 91.714844 26 "/>
</clipPath>
</defs>
<g id="surface1">
<path style=" stroke:none;fill-rule:nonzero;fill:rgb(100%,0%,47.839355%);fill-opacity:1;" d="M 174.828125 81.714844 C 172.183594 81.335938 172.054688 81.207031 173.316406 81.082031 C 175.707031 80.703125 181.25 81.207031 185.152344 82.089844 C 194.21875 84.234375 202.40625 89.78125 211.09375 99.492188 L 213.359375 102.140625 L 216.632812 101.632812 C 230.613281 99.363281 244.96875 101.128906 256.929688 106.679688 C 260.203125 108.191406 265.367188 111.21875 265.996094 111.972656 C 266.25 112.226562 266.625 113.863281 266.878906 115.503906 C 267.761719 121.429688 267.382812 125.84375 265.492188 129.246094 C 264.484375 131.136719 264.484375 131.644531 265.117188 133.28125 C 265.621094 134.542969 267.128906 135.425781 268.515625 135.425781 C 271.539062 135.425781 274.6875 130.632812 276.195312 123.953125 L 276.828125 121.304688 L 277.960938 122.566406 C 284.382812 129.75 289.417969 139.710938 290.175781 146.773438 L 290.425781 148.664062 L 289.292969 147.023438 C 287.40625 144.125 285.640625 142.234375 283.25 140.59375 C 278.96875 137.695312 274.433594 136.8125 262.472656 136.183594 C 251.640625 135.550781 245.472656 134.667969 239.425781 132.652344 C 229.101562 129.246094 223.8125 124.835938 211.597656 108.570312 C 206.183594 101.382812 202.78125 97.472656 199.382812 94.195312 C 191.953125 87.007812 184.523438 83.226562 174.828125 81.714844 Z M 174.828125 81.714844 "/>
<path style=" stroke:none;fill-rule:nonzero;fill:rgb(100%,0%,47.839355%);fill-opacity:1;" d="M 268.640625 97.726562 C 268.894531 92.933594 269.523438 89.78125 270.910156 86.882812 C 271.410156 85.746094 271.914062 84.738281 272.042969 84.738281 C 272.167969 84.738281 271.914062 85.621094 271.539062 86.628906 C 270.53125 89.402344 270.40625 93.3125 271.035156 97.726562 C 271.914062 103.398438 272.292969 104.15625 278.339844 110.335938 C 281.109375 113.234375 284.382812 116.890625 285.640625 118.402344 L 287.78125 121.175781 L 285.640625 119.160156 C 282.996094 116.636719 276.953125 111.847656 275.566406 111.21875 C 274.6875 110.710938 274.558594 110.710938 273.929688 111.34375 C 273.425781 111.847656 273.300781 112.605469 273.300781 116.261719 C 273.175781 121.933594 272.417969 125.464844 270.53125 129.121094 C 269.523438 131.011719 269.398438 130.632812 270.277344 128.492188 C 270.910156 126.851562 271.035156 126.09375 271.035156 120.671875 C 271.035156 109.703125 269.773438 107.054688 262.09375 102.644531 C 260.203125 101.507812 256.929688 99.871094 255.042969 98.988281 C 253.027344 98.105469 251.515625 97.347656 251.640625 97.347656 C 251.894531 97.09375 259.324219 99.238281 262.21875 100.5 C 266.625 102.265625 267.382812 102.390625 267.886719 102.265625 C 268.265625 101.886719 268.515625 100.878906 268.640625 97.726562 Z M 268.640625 97.726562 "/>
<path style=" stroke:none;fill-rule:nonzero;fill:rgb(100%,0%,47.839355%);fill-opacity:1;" d="M 179.988281 116.511719 C 174.699219 109.199219 171.300781 97.851562 172.054688 89.402344 L 172.308594 86.757812 L 173.566406 87.007812 C 175.832031 87.386719 179.738281 88.898438 181.625 90.035156 C 186.664062 93.0625 188.929688 97.222656 191.070312 107.558594 C 191.699219 110.585938 192.582031 114.117188 192.960938 115.25 C 193.589844 117.144531 195.980469 121.554688 197.996094 124.328125 C 199.382812 126.347656 198.5 127.355469 195.351562 127.105469 C 190.566406 126.597656 184.144531 122.1875 179.988281 116.511719 Z M 179.988281 116.511719 "/>
<g clip-path="url(#clip1)" clip-rule="nonzero">
<path style=" stroke:none;fill-rule:nonzero;fill:rgb(100%,0%,47.839355%);fill-opacity:1;" d="M 262.21875 171.359375 C 237.285156 161.273438 228.472656 152.574219 228.472656 137.820312 C 228.472656 135.675781 228.597656 133.914062 228.597656 133.914062 C 228.722656 133.914062 229.605469 134.667969 230.738281 135.550781 C 235.773438 139.585938 241.441406 141.351562 257.183594 143.621094 C 266.375 145.007812 271.664062 146.015625 276.449219 147.65625 C 291.6875 152.699219 301.128906 163.039062 303.398438 177.035156 C 304.027344 181.066406 303.648438 188.757812 302.640625 192.792969 C 301.761719 195.945312 299.242188 201.746094 298.613281 201.871094 C 298.484375 201.871094 298.234375 201.242188 298.234375 200.234375 C 297.984375 194.9375 295.339844 189.894531 290.929688 185.984375 C 285.640625 181.445312 278.839844 178.042969 262.21875 171.359375 Z M 262.21875 171.359375 "/>
</g>
<path style=" stroke:none;fill-rule:nonzero;fill:rgb(100%,0%,47.839355%);fill-opacity:1;" d="M 244.589844 175.519531 C 244.335938 173.628906 243.707031 171.234375 243.332031 170.226562 L 242.699219 168.332031 L 243.835938 169.71875 C 245.472656 171.613281 246.730469 173.882812 247.863281 177.035156 C 248.746094 179.429688 248.746094 180.183594 248.746094 184.09375 C 248.746094 187.875 248.621094 188.757812 247.863281 190.902344 C 246.605469 194.308594 245.09375 196.703125 242.574219 199.351562 C 238.042969 204.015625 232.121094 206.539062 223.6875 207.671875 C 222.175781 207.796875 217.894531 208.175781 214.117188 208.429688 C 204.671875 208.933594 198.375 209.941406 192.707031 211.957031 C 191.953125 212.210938 191.195312 212.464844 191.070312 212.335938 C 190.820312 212.085938 194.722656 209.816406 197.871094 208.300781 C 202.277344 206.160156 206.8125 205.023438 216.761719 203.257812 C 221.671875 202.503906 226.707031 201.492188 227.96875 200.988281 C 240.433594 197.082031 246.605469 187.371094 244.589844 175.519531 Z M 244.589844 175.519531 "/>
<path style=" stroke:none;fill-rule:nonzero;fill:rgb(100%,0%,47.839355%);fill-opacity:1;" d="M 256.050781 195.820312 C 252.773438 188.632812 252.019531 181.824219 253.78125 175.394531 C 254.035156 174.765625 254.285156 174.132812 254.539062 174.132812 C 254.789062 174.132812 255.546875 174.511719 256.300781 175.015625 C 257.8125 176.023438 260.960938 177.789062 269.019531 182.203125 C 279.21875 187.75 285.011719 192.039062 289.042969 196.953125 C 292.566406 201.242188 294.707031 206.160156 295.714844 212.210938 C 296.34375 215.617188 295.96875 223.8125 295.085938 227.214844 C 292.316406 237.933594 286.019531 246.507812 276.828125 251.421875 C 275.441406 252.179688 274.308594 252.683594 274.183594 252.683594 C 274.054688 252.683594 274.558594 251.421875 275.316406 249.910156 C 278.339844 243.480469 278.714844 237.300781 276.449219 230.367188 C 275.0625 226.082031 272.167969 220.910156 266.375 212.210938 C 259.449219 202.125 257.8125 199.476562 256.050781 195.820312 Z M 256.050781 195.820312 "/>
<g clip-path="url(#clip2)" clip-rule="nonzero">
<path style=" stroke:none;fill-rule:nonzero;fill:rgb(100%,0%,47.839355%);fill-opacity:1;" d="M 162.234375 234.402344 C 171.550781 226.585938 183.011719 221.035156 193.589844 219.273438 C 198.121094 218.515625 205.679688 218.765625 209.835938 219.902344 C 216.507812 221.667969 222.550781 225.449219 225.699219 230.113281 C 228.722656 234.652344 230.109375 238.5625 231.492188 247.261719 C 231.996094 250.667969 232.625 254.199219 232.753906 254.953125 C 233.761719 259.492188 235.773438 263.023438 238.292969 264.914062 C 242.195312 267.816406 248.996094 267.941406 255.671875 265.417969 C 256.804688 265.039062 257.8125 264.664062 257.8125 264.789062 C 258.0625 265.039062 254.664062 267.308594 252.398438 268.445312 C 249.25 270.085938 246.730469 270.589844 243.332031 270.589844 C 237.285156 270.589844 232.121094 267.4375 227.96875 261.132812 C 227.085938 259.871094 225.324219 256.214844 223.8125 252.808594 C 219.40625 242.597656 217.136719 239.570312 211.976562 236.167969 C 207.441406 233.265625 201.648438 232.636719 197.242188 234.78125 C 191.449219 237.554688 189.9375 244.992188 193.96875 249.53125 C 195.605469 251.421875 198.625 252.9375 201.144531 253.316406 C 205.804688 253.945312 209.835938 250.289062 209.835938 245.625 C 209.835938 242.597656 208.699219 240.832031 205.679688 239.445312 C 201.648438 237.679688 197.242188 239.699219 197.367188 243.605469 C 197.367188 245.246094 198.121094 246.253906 199.761719 247.011719 C 200.765625 247.515625 200.765625 247.515625 200.011719 247.390625 C 196.359375 246.632812 195.476562 242.09375 198.375 239.191406 C 201.902344 235.664062 209.332031 237.175781 211.847656 242.09375 C 212.855469 244.109375 212.980469 248.144531 212.101562 250.667969 C 209.960938 256.214844 203.914062 259.113281 197.746094 257.476562 C 193.589844 256.339844 191.828125 255.207031 186.789062 250.035156 C 177.976562 240.957031 174.574219 239.191406 161.980469 237.300781 L 159.589844 236.921875 Z M 162.234375 234.402344 "/>
</g>
<g clip-path="url(#clip3)" clip-rule="nonzero">
<path style=" stroke:none;fill-rule:evenodd;fill:rgb(100%,0%,47.839355%);fill-opacity:1;" d="M 95.996094 31.53125 C 125.335938 67.214844 170.546875 122.691406 172.8125 125.714844 C 174.699219 128.238281 173.945312 130.632812 170.796875 132.398438 C 169.035156 133.40625 165.382812 134.417969 163.617188 134.417969 C 161.605469 134.417969 159.210938 133.40625 157.574219 131.769531 C 156.441406 130.632812 151.53125 123.445312 140.449219 106.171875 C 132.011719 92.933594 124.832031 81.964844 124.707031 81.839844 C 124.203125 81.585938 124.203125 81.585938 139.566406 109.074219 C 149.261719 126.347656 152.410156 132.523438 152.410156 133.28125 C 152.410156 134.921875 151.90625 135.804688 149.894531 138.074219 C 146.492188 141.855469 144.980469 146.140625 143.847656 155.09375 C 142.589844 165.054688 139.1875 172.117188 129.492188 184.09375 C 123.828125 191.15625 122.945312 192.414062 121.558594 195.316406 C 119.796875 198.847656 119.292969 200.863281 119.042969 205.402344 C 118.789062 210.195312 119.292969 213.21875 120.679688 217.757812 C 121.9375 221.792969 123.324219 224.441406 126.722656 229.609375 C 129.617188 234.148438 131.382812 237.554688 131.382812 238.816406 C 131.382812 239.824219 131.632812 239.824219 136.167969 238.816406 C 146.996094 236.292969 155.9375 232.007812 160.847656 226.710938 C 163.871094 223.433594 164.625 221.667969 164.625 217.128906 C 164.625 214.226562 164.5 213.597656 163.746094 211.832031 C 162.484375 209.058594 160.09375 206.789062 154.929688 203.257812 C 148.128906 198.59375 145.234375 194.8125 144.476562 189.769531 C 143.847656 185.480469 144.605469 182.582031 148.382812 174.636719 C 152.285156 166.441406 153.292969 163.039062 153.921875 154.714844 C 154.300781 149.421875 154.929688 147.277344 156.441406 145.636719 C 158.078125 143.871094 159.464844 143.242188 163.367188 142.738281 C 169.789062 141.855469 173.945312 140.214844 177.21875 137.0625 C 180.117188 134.417969 181.375 131.769531 181.5 127.859375 L 181.625 124.960938 L 179.988281 123.195312 C 174.070312 116.386719 92.09375 26.109375 91.714844 26.109375 C 91.589844 26.109375 93.605469 28.503906 95.996094 31.53125 Z M 134.65625 210.824219 C 136.042969 208.429688 135.285156 205.402344 133.019531 203.890625 C 130.878906 202.503906 127.605469 203.132812 127.605469 205.023438 C 127.605469 205.527344 127.855469 206.03125 128.613281 206.285156 C 129.746094 206.914062 129.871094 207.546875 128.988281 208.933594 C 128.109375 210.320312 128.109375 211.582031 129.242188 212.464844 C 131.003906 213.851562 133.398438 213.09375 134.65625 210.824219 Z M 134.65625 210.824219 "/>
</g>
<path style=" stroke:none;fill-rule:evenodd;fill:rgb(100%,0%,47.839355%);fill-opacity:1;" d="M 185.65625 144.503906 C 182.632812 145.386719 179.738281 148.664062 178.855469 151.941406 C 178.351562 153.960938 178.605469 157.617188 179.484375 158.75 C 180.871094 160.515625 182.128906 161.019531 185.65625 161.019531 C 192.582031 161.019531 198.5 157.996094 199.128906 154.339844 C 199.761719 151.3125 197.117188 147.152344 193.464844 145.261719 C 191.574219 144.25 187.671875 143.871094 185.65625 144.503906 Z M 193.714844 150.808594 C 194.722656 149.292969 194.34375 147.65625 192.457031 146.519531 C 189.054688 144.378906 183.894531 146.140625 183.894531 149.421875 C 183.894531 151.058594 186.539062 152.824219 189.054688 152.824219 C 190.691406 152.824219 192.960938 151.816406 193.714844 150.808594 Z M 193.714844 150.808594 "/>
</g>
</svg>
