<?xml version="1.0" encoding="UTF-8"?>
<svg xmlns="http://www.w3.org/2000/svg" xmlns:xlink="http://www.w3.org/1999/xlink" width="396pt" height="296.999993pt" viewBox="0 0 396 296.999993" version="1.2">
<defs>
<clipPath id="clip1">
  <path d="M 153 224 L 239 224 L 239 274.746094 L 153 274.746094 Z M 153 224 "/>
</clipPath>
</defs>
<g id="surface1">
<g clip-path="url(#clip1)" clip-rule="nonzero">
<path style=" stroke:none;fill-rule:nonzero;fill:rgb(54.899597%,32.159424%,100%);fill-opacity:1;" d="M 233.449219 274.484375 L 159.109375 274.484375 C 156.996094 274.484375 155.085938 273.230469 154.246094 271.285156 C 153.398438 269.320312 153.789062 267.082031 155.234375 265.550781 L 192.402344 225.726562 C 194.410156 223.570312 198.160156 223.570312 200.167969 225.726562 L 237.335938 265.550781 C 238.78125 267.101562 239.164062 269.320312 238.324219 271.285156 C 237.472656 273.230469 235.5625 274.484375 233.449219 274.484375 Z M 171.3125 263.863281 L 221.214844 263.863281 L 196.257812 237.121094 Z M 171.3125 263.863281 "/>
</g>
<path style=" stroke:none;fill-rule:nonzero;fill:rgb(54.899597%,32.159424%,100%);fill-opacity:1;" d="M 84.773438 258.554688 C 82.605469 258.554688 80.566406 257.214844 79.769531 255.058594 C 78.761719 252.296875 80.195312 249.25 82.957031 248.242188 L 316.589844 163.28125 C 319.363281 162.285156 322.390625 163.695312 323.398438 166.46875 C 324.40625 169.230469 322.972656 172.277344 320.222656 173.277344 L 86.589844 258.234375 C 85.984375 258.445312 85.378906 258.554688 84.773438 258.554688 Z M 84.773438 258.554688 "/>
<path style=" stroke:none;fill-rule:nonzero;fill:rgb(54.899597%,32.159424%,100%);fill-opacity:1;" d="M 116.632812 168.285156 C 134.230469 168.285156 148.492188 182.558594 148.492188 200.144531 C 148.492188 217.730469 134.230469 232.003906 116.632812 232.003906 C 99.035156 232.003906 84.773438 217.730469 84.773438 200.144531 C 84.773438 182.558594 99.035156 168.285156 116.632812 168.285156 Z M 116.632812 157.664062 C 93.203125 157.664062 74.152344 176.726562 74.152344 200.144531 C 74.152344 223.5625 93.203125 242.625 116.632812 242.625 C 140.058594 242.625 159.109375 223.5625 159.109375 200.144531 C 159.109375 176.726562 140.058594 157.664062 116.632812 157.664062 Z M 116.632812 157.664062 "/>
<path style=" stroke:none;fill-rule:nonzero;fill:rgb(54.899597%,32.159424%,100%);fill-opacity:1;" d="M 270.617188 40.847656 C 285.253906 40.847656 297.167969 52.753906 297.167969 67.398438 C 297.167969 82.042969 285.253906 93.945312 270.617188 93.945312 C 255.984375 93.945312 244.070312 82.042969 244.070312 67.398438 C 244.070312 52.753906 255.984375 40.847656 270.617188 40.847656 Z M 270.617188 30.226562 C 250.078125 30.226562 233.449219 46.859375 233.449219 67.398438 C 233.449219 87.9375 250.078125 104.566406 270.617188 104.566406 C 291.144531 104.566406 307.789062 87.9375 307.789062 67.398438 C 307.789062 46.859375 291.144531 30.226562 270.617188 30.226562 Z M 270.617188 30.226562 "/>
</g>
</svg>
