<?xml version="1.0" encoding="UTF-8"?>
<svg xmlns="http://www.w3.org/2000/svg" xmlns:xlink="http://www.w3.org/1999/xlink" width="396pt" height="296.999993pt" viewBox="0 0 396 296.999993" version="1.2">
<defs>
<clipPath id="clip1">
  <path d="M 179.597656 150 L 220.800781 150 L 220.800781 196 L 179.597656 196 Z M 179.597656 150 "/>
</clipPath>
<clipPath id="clip2">
  <path d="M 186 143.613281 L 194 143.613281 L 194 154 L 186 154 Z M 186 143.613281 "/>
</clipPath>
<clipPath id="clip3">
  <path d="M 200 143.613281 L 208 143.613281 L 208 154 L 200 154 Z M 200 143.613281 "/>
</clipPath>
<clipPath id="clip4">
  <path d="M 186 191 L 194 191 L 194 202.113281 L 186 202.113281 Z M 186 191 "/>
</clipPath>
<clipPath id="clip5">
  <path d="M 200 191 L 208 191 L 208 202.113281 L 200 202.113281 Z M 200 191 "/>
</clipPath>
</defs>
<g id="surface1">
<path style=" stroke:none;fill-rule:nonzero;fill:rgb(1.179504%,59.609985%,61.959839%);fill-opacity:1;" d="M 111.265625 86.6875 C 123.15625 86.6875 132.789062 77.046875 132.789062 65.15625 C 132.789062 53.273438 123.15625 43.628906 111.265625 43.628906 C 99.375 43.628906 89.742188 53.273438 89.742188 65.15625 C 89.742188 77.046875 99.375 86.6875 111.265625 86.6875 "/>
<path style=" stroke:none;fill-rule:nonzero;fill:rgb(1.179504%,59.609985%,61.959839%);fill-opacity:1;" d="M 210.878906 43.441406 C 219.292969 35.027344 219.292969 21.402344 210.878906 12.988281 C 202.476562 4.585938 188.851562 4.585938 180.4375 12.988281 C 172.035156 21.402344 172.035156 35.027344 180.4375 43.441406 C 188.851562 51.84375 202.476562 51.84375 210.878906 43.441406 "/>
<path style=" stroke:none;fill-rule:nonzero;fill:rgb(1.179504%,59.609985%,61.959839%);fill-opacity:1;" d="M 281.460938 83.289062 C 293.34375 83.289062 302.984375 73.65625 302.984375 61.765625 C 302.984375 49.875 293.34375 40.242188 281.460938 40.242188 C 269.570312 40.242188 259.929688 49.875 259.929688 61.765625 C 259.929688 73.65625 269.570312 83.289062 281.460938 83.289062 "/>
<path style=" stroke:none;fill-rule:nonzero;fill:rgb(1.179504%,59.609985%,61.959839%);fill-opacity:1;" d="M 333.628906 130.9375 C 325.214844 122.535156 311.589844 122.535156 303.175781 130.9375 C 294.773438 139.351562 294.773438 152.976562 303.175781 161.378906 C 311.589844 169.792969 325.214844 169.792969 333.628906 161.378906 C 342.03125 152.976562 342.03125 139.351562 333.628906 130.9375 "/>
<path style=" stroke:none;fill-rule:nonzero;fill:rgb(1.179504%,59.609985%,61.959839%);fill-opacity:1;" d="M 284.851562 210.429688 C 272.957031 210.429688 263.324219 220.070312 263.324219 231.960938 C 263.324219 243.84375 272.957031 253.484375 284.851562 253.484375 C 296.742188 253.484375 306.375 243.84375 306.375 231.960938 C 306.375 220.070312 296.742188 210.429688 284.851562 210.429688 "/>
<path style=" stroke:none;fill-rule:nonzero;fill:rgb(1.179504%,59.609985%,61.959839%);fill-opacity:1;" d="M 185.234375 253.675781 C 176.824219 262.089844 176.824219 275.714844 185.234375 284.128906 C 193.640625 292.53125 207.265625 292.53125 215.679688 284.128906 C 224.082031 275.714844 224.082031 262.089844 215.679688 253.675781 C 207.265625 245.273438 193.640625 245.273438 185.234375 253.675781 "/>
<path style=" stroke:none;fill-rule:nonzero;fill:rgb(1.179504%,59.609985%,61.959839%);fill-opacity:1;" d="M 114.65625 213.824219 C 102.761719 213.824219 93.128906 223.457031 93.128906 235.351562 C 93.128906 247.242188 102.761719 256.875 114.65625 256.875 C 126.546875 256.875 136.1875 247.242188 136.1875 235.351562 C 136.1875 223.457031 126.546875 213.824219 114.65625 213.824219 "/>
<path style=" stroke:none;fill-rule:nonzero;fill:rgb(1.179504%,59.609985%,61.959839%);fill-opacity:1;" d="M 92.941406 135.734375 C 84.527344 127.324219 70.902344 127.324219 62.488281 135.734375 C 54.085938 144.140625 54.085938 157.765625 62.488281 166.179688 C 70.902344 174.582031 84.527344 174.582031 92.941406 166.179688 C 101.34375 157.765625 101.34375 144.140625 92.941406 135.734375 "/>
<path style=" stroke:none;fill-rule:nonzero;fill:rgb(100%,87.059021%,34.899902%);fill-opacity:1;" d="M 223.097656 132.761719 L 173.019531 132.761719 L 173.019531 102.726562 C 173.019531 100.53125 174.402344 98.605469 176.390625 98.027344 C 190.765625 93.890625 205.351562 93.890625 219.726562 98.027344 C 221.714844 98.605469 223.097656 100.53125 223.097656 102.726562 Z M 237.417969 132.761719 L 234.71875 132.761719 L 234.71875 102.726562 C 234.71875 95.390625 229.882812 88.867188 222.953125 86.859375 C 206.433594 82.105469 189.679688 82.105469 173.164062 86.859375 C 166.234375 88.867188 161.398438 95.390625 161.398438 102.726562 L 161.398438 132.761719 L 158.695312 132.761719 C 150.824219 132.761719 144.457031 139.132812 144.457031 147.003906 L 144.457031 199.574219 C 144.457031 207.445312 150.824219 213.824219 158.695312 213.824219 L 237.417969 213.824219 C 245.289062 213.824219 251.667969 207.445312 251.667969 199.574219 L 251.667969 147.003906 C 251.667969 139.132812 245.289062 132.761719 237.417969 132.761719 "/>
<g clip-path="url(#clip1)" clip-rule="nonzero">
<path style=" stroke:none;fill-rule:nonzero;fill:rgb(0%,0%,0%);fill-opacity:1;" d="M 202.773438 150.5 C 205.175781 150.5 207.234375 150.84375 209.292969 151.1875 C 211.351562 151.53125 212.726562 152.222656 214.097656 152.910156 C 215.472656 153.597656 216.5 154.976562 217.1875 156.351562 C 217.875 157.730469 218.21875 159.449219 218.21875 161.515625 C 218.21875 163.925781 217.53125 165.648438 216.5 167.023438 C 215.472656 168.402344 213.753906 169.777344 211.351562 170.8125 C 214.441406 171.5 216.5 172.875 218.21875 174.941406 C 219.589844 177.007812 220.621094 179.417969 220.621094 182.171875 C 220.621094 184.582031 220.277344 186.300781 219.246094 188.023438 C 218.21875 189.746094 216.84375 191.121094 215.472656 192.15625 C 213.753906 193.1875 212.039062 193.875 209.980469 194.5625 C 207.921875 194.910156 205.863281 195.253906 203.460938 195.253906 L 179.777344 195.253906 L 179.777344 150.5 Z M 201.058594 167.710938 C 203.117188 167.710938 204.488281 167.367188 205.863281 166.335938 C 207.234375 165.648438 207.578125 164.269531 207.578125 162.203125 C 207.578125 161.171875 207.234375 160.484375 206.890625 159.792969 C 206.546875 159.105469 205.863281 158.761719 205.175781 158.417969 C 204.488281 158.074219 203.804688 157.730469 202.773438 157.730469 C 202.085938 157.382812 201.058594 157.382812 200.027344 157.382812 L 190.074219 157.382812 L 190.074219 167.710938 Z M 201.742188 188.367188 C 202.773438 188.367188 204.144531 188.367188 205.175781 188.023438 C 206.207031 187.679688 207.234375 187.335938 207.921875 186.992188 C 208.609375 186.644531 209.292969 185.957031 209.980469 184.925781 C 210.324219 184.238281 210.667969 182.859375 210.667969 181.828125 C 210.667969 179.417969 209.980469 177.351562 208.265625 176.320312 C 206.546875 175.285156 204.488281 174.597656 202.085938 174.597656 L 190.074219 174.597656 L 190.074219 188.367188 Z M 201.742188 188.367188 "/>
</g>
<g clip-path="url(#clip2)" clip-rule="nonzero">
<path style=" stroke:none;fill-rule:nonzero;fill:rgb(0%,0%,0%);fill-opacity:1;" d="M 186.644531 143.613281 L 193.507812 143.613281 L 193.507812 153.941406 L 186.644531 153.941406 Z M 186.644531 143.613281 "/>
</g>
<g clip-path="url(#clip3)" clip-rule="nonzero">
<path style=" stroke:none;fill-rule:nonzero;fill:rgb(0%,0%,0%);fill-opacity:1;" d="M 200.371094 143.613281 L 207.234375 143.613281 L 207.234375 153.941406 L 200.371094 153.941406 Z M 200.371094 143.613281 "/>
</g>
<g clip-path="url(#clip4)" clip-rule="nonzero">
<path style=" stroke:none;fill-rule:nonzero;fill:rgb(0%,0%,0%);fill-opacity:1;" d="M 186.644531 191.808594 L 193.507812 191.808594 L 193.507812 202.136719 L 186.644531 202.136719 Z M 186.644531 191.808594 "/>
</g>
<g clip-path="url(#clip5)" clip-rule="nonzero">
<path style=" stroke:none;fill-rule:nonzero;fill:rgb(0%,0%,0%);fill-opacity:1;" d="M 200.371094 191.808594 L 207.234375 191.808594 L 207.234375 202.136719 L 200.371094 202.136719 Z M 200.371094 191.808594 "/>
</g>
</g>
</svg>
