<?xml version="1.0" encoding="UTF-8"?>
<svg xmlns="http://www.w3.org/2000/svg" xmlns:xlink="http://www.w3.org/1999/xlink" width="396pt" height="296.999993pt" viewBox="0 0 396 296.999993" version="1.2">
<defs>
<clipPath id="clip1">
  <path d="M 98.390625 77.949219 L 297.890625 77.949219 L 297.890625 192.78125 L 98.390625 192.78125 Z M 98.390625 77.949219 "/>
</clipPath>
<clipPath id="clip2">
  <path d="M 265.195312 97.003906 C 246.800781 86.332031 224.496094 80.996094 198.269531 80.996094 C 172.046875 80.996094 149.730469 86.332031 131.339844 97.003906 C 125.507812 100.355469 120.613281 103.914062 116.648438 107.671875 C 109.597656 114.304688 105.382812 121.585938 104.007812 129.515625 C 103.667969 131.425781 103.496094 133.371094 103.496094 135.367188 C 103.496094 136.042969 103.496094 136.808594 103.496094 137.652344 C 104.355469 151.707031 113.550781 163.8125 131.089844 173.980469 C 149.652344 184.644531 172.046875 189.894531 198.269531 189.726562 C 224.496094 189.894531 246.800781 184.644531 265.195312 173.980469 C 282.898438 163.8125 292.1875 151.707031 293.035156 137.652344 C 293.035156 136.808594 293.035156 136.042969 293.035156 135.367188 C 293.035156 120.457031 283.757812 107.671875 265.195312 97.003906 Z M 297.890625 137.652344 C 297.035156 152.550781 287.328125 165.339844 268.765625 176.015625 C 249.351562 187.1875 225.859375 192.78125 198.269531 192.78125 C 170.679688 192.78125 147.179688 187.1875 127.765625 176.015625 C 109.203125 165.339844 99.496094 152.550781 98.648438 137.652344 C 98.480469 136.808594 98.390625 136.042969 98.390625 135.367188 C 98.390625 119.613281 108.183594 106.152344 127.765625 94.972656 C 147.179688 83.792969 170.679688 78.117188 198.269531 77.949219 C 225.859375 78.117188 249.351562 83.792969 268.765625 94.972656 C 288.355469 106.152344 298.152344 119.613281 298.152344 135.367188 C 298.152344 136.042969 298.0625 136.808594 297.890625 137.652344 "/>
</clipPath>
<linearGradient id="linear0" gradientUnits="userSpaceOnUse" x1="-0.0000000235567" y1="0" x2="0.999994" y2="0" gradientTransform="matrix(199.501165,0,0,198.413785,98.390261,135.364837)">
<stop offset="0" style="stop-color:rgb(90.99884%,42.698669%,9.799194%);stop-opacity:1;"/>
<stop offset="0.25" style="stop-color:rgb(90.99884%,42.698669%,9.799194%);stop-opacity:1;"/>
<stop offset="0.375" style="stop-color:rgb(90.99884%,42.698669%,9.799194%);stop-opacity:1;"/>
<stop offset="0.4375" style="stop-color:rgb(90.99884%,42.698669%,9.799194%);stop-opacity:1;"/>
<stop offset="0.453125" style="stop-color:rgb(90.803528%,42.698669%,9.799194%);stop-opacity:1;"/>
<stop offset="0.460938" style="stop-color:rgb(90.415955%,42.698669%,9.799194%);stop-opacity:1;"/>
<stop offset="0.46875" style="stop-color:rgb(90.029907%,42.698669%,9.799194%);stop-opacity:1;"/>
<stop offset="0.476562" style="stop-color:rgb(89.816284%,42.698669%,9.799194%);stop-opacity:1;"/>
<stop offset="0.480469" style="stop-color:rgb(89.602661%,42.698669%,9.799194%);stop-opacity:1;"/>
<stop offset="0.484375" style="stop-color:rgb(89.405823%,42.698669%,9.799194%);stop-opacity:1;"/>
<stop offset="0.5" style="stop-color:rgb(89.402771%,42.549133%,9.799194%);stop-opacity:1;"/>
<stop offset="0.515625" style="stop-color:rgb(89.21051%,42.399597%,9.988403%);stop-opacity:1;"/>
<stop offset="0.519531" style="stop-color:rgb(88.812256%,42.399597%,10.188293%);stop-opacity:1;"/>
<stop offset="0.523438" style="stop-color:rgb(88.604736%,42.399597%,10.198975%);stop-opacity:1;"/>
<stop offset="0.53125" style="stop-color:rgb(88.601685%,42.399597%,10.198975%);stop-opacity:1;"/>
<stop offset="0.539063" style="stop-color:rgb(88.41095%,42.210388%,10.198975%);stop-opacity:1;"/>
<stop offset="0.546875" style="stop-color:rgb(88.21106%,42.010498%,10.198975%);stop-opacity:1;"/>
<stop offset="0.5625" style="stop-color:rgb(88.024902%,41.999817%,10.198975%);stop-opacity:1;"/>
<stop offset="0.59375" style="stop-color:rgb(87.683105%,41.999817%,10.198975%);stop-opacity:1;"/>
<stop offset="0.601563" style="stop-color:rgb(87.333679%,41.825867%,10.198975%);stop-opacity:1;"/>
<stop offset="0.605469" style="stop-color:rgb(86.932373%,41.624451%,10.391235%);stop-opacity:1;"/>
<stop offset="0.609375" style="stop-color:rgb(86.712646%,41.598511%,10.585022%);stop-opacity:1;"/>
<stop offset="0.625" style="stop-color:rgb(86.705017%,41.598511%,10.591125%);stop-opacity:1;"/>
<stop offset="0.640625" style="stop-color:rgb(86.51123%,41.598511%,10.598755%);stop-opacity:1;"/>
<stop offset="0.648438" style="stop-color:rgb(86.221313%,41.508484%,10.598755%);stop-opacity:1;"/>
<stop offset="0.65625" style="stop-color:rgb(86.013794%,41.313171%,10.598755%);stop-opacity:1;"/>
<stop offset="0.671875" style="stop-color:rgb(85.714722%,41.203308%,10.598755%);stop-opacity:1;"/>
<stop offset="0.6875" style="stop-color:rgb(85.339355%,41.19873%,10.598755%);stop-opacity:1;"/>
<stop offset="0.703125" style="stop-color:rgb(85.128784%,41.00647%,10.598755%);stop-opacity:1;"/>
<stop offset="0.71875" style="stop-color:rgb(84.910583%,40.80658%,10.598755%);stop-opacity:1;"/>
<stop offset="0.726563" style="stop-color:rgb(84.619141%,40.79895%,10.690308%);stop-opacity:1;"/>
<stop offset="0.734375" style="stop-color:rgb(84.413147%,40.79895%,10.88562%);stop-opacity:1;"/>
<stop offset="0.742188" style="stop-color:rgb(84.117126%,40.79895%,10.993958%);stop-opacity:1;"/>
<stop offset="0.75" style="stop-color:rgb(83.912659%,40.79895%,10.998535%);stop-opacity:1;"/>
<stop offset="0.757812" style="stop-color:rgb(83.721924%,40.79895%,10.998535%);stop-opacity:1;"/>
<stop offset="0.765625" style="stop-color:rgb(83.522034%,40.628052%,10.998535%);stop-opacity:1;"/>
<stop offset="0.773437" style="stop-color:rgb(83.308411%,40.428162%,10.998535%);stop-opacity:1;"/>
<stop offset="0.777344" style="stop-color:rgb(82.922363%,40.39917%,10.998535%);stop-opacity:1;"/>
<stop offset="0.78125" style="stop-color:rgb(82.725525%,40.39917%,10.998535%);stop-opacity:1;"/>
<stop offset="0.796875" style="stop-color:rgb(82.711792%,40.39917%,10.998535%);stop-opacity:1;"/>
<stop offset="0.804687" style="stop-color:rgb(82.569885%,40.226746%,10.998535%);stop-opacity:1;"/>
<stop offset="0.8125" style="stop-color:rgb(82.252502%,40.026855%,10.998535%);stop-opacity:1;"/>
<stop offset="0.828125" style="stop-color:rgb(82.03125%,39.99939%,10.998535%);stop-opacity:1;"/>
<stop offset="0.835937" style="stop-color:rgb(81.820679%,39.99939%,10.998535%);stop-opacity:1;"/>
<stop offset="0.84375" style="stop-color:rgb(81.620789%,39.826965%,10.998535%);stop-opacity:1;"/>
<stop offset="0.851562" style="stop-color:rgb(81.43158%,39.627075%,11.166382%);stop-opacity:1;"/>
<stop offset="0.859375" style="stop-color:rgb(81.231689%,39.599609%,11.366272%);stop-opacity:1;"/>
<stop offset="0.875" style="stop-color:rgb(81.010437%,39.599609%,11.399841%);stop-opacity:1;"/>
<stop offset="0.890625" style="stop-color:rgb(80.625916%,39.599609%,11.399841%);stop-opacity:1;"/>
<stop offset="0.894531" style="stop-color:rgb(80.227661%,39.411926%,11.399841%);stop-opacity:1;"/>
<stop offset="0.898437" style="stop-color:rgb(80.026245%,39.225769%,11.399841%);stop-opacity:1;"/>
<stop offset="0.90625" style="stop-color:rgb(80.012512%,39.212036%,11.399841%);stop-opacity:1;"/>
<stop offset="0.914062" style="stop-color:rgb(79.820251%,39.199829%,11.399841%);stop-opacity:1;"/>
<stop offset="0.921875" style="stop-color:rgb(79.620361%,39.025879%,11.399841%);stop-opacity:1;"/>
<stop offset="0.9375" style="stop-color:rgb(79.434204%,38.824463%,11.399841%);stop-opacity:1;"/>
<stop offset="0.945312" style="stop-color:rgb(79.150391%,38.798523%,11.399841%);stop-opacity:1;"/>
<stop offset="0.953125" style="stop-color:rgb(78.924561%,38.798523%,11.399841%);stop-opacity:1;"/>
<stop offset="0.96875" style="stop-color:rgb(78.640747%,38.62915%,11.399841%);stop-opacity:1;"/>
<stop offset="0.976562" style="stop-color:rgb(78.430176%,38.42926%,11.399841%);stop-opacity:1;"/>
<stop offset="0.984375" style="stop-color:rgb(78.216553%,38.398743%,11.399841%);stop-opacity:1;"/>
<stop offset="1" style="stop-color:rgb(77.841187%,38.398743%,11.399841%);stop-opacity:1;"/>
</linearGradient>
<clipPath id="clip3">
  <path d="M 98.390625 137.652344 L 297.890625 137.652344 L 297.890625 218.695312 L 98.390625 218.695312 Z M 98.390625 137.652344 "/>
</clipPath>
<clipPath id="clip4">
  <path d="M 210.019531 197.601562 L 210.019531 213.097656 C 210.019531 213.613281 210.183594 213.953125 210.53125 214.121094 C 210.871094 214.457031 211.207031 214.625 211.558594 214.625 C 211.894531 214.625 212.144531 214.457031 212.316406 214.121094 C 212.65625 213.953125 212.832031 213.613281 212.832031 213.097656 L 212.832031 197.601562 C 212.832031 197.265625 212.65625 196.925781 212.316406 196.589844 C 212.144531 196.253906 211.894531 196.082031 211.558594 196.082031 C 211.207031 196.082031 210.871094 196.253906 210.53125 196.589844 C 210.183594 196.925781 210.019531 197.265625 210.019531 197.601562 Z M 239.136719 192.523438 C 238.800781 192.859375 238.628906 193.199219 238.628906 193.535156 L 238.628906 209.039062 C 238.628906 209.546875 238.800781 209.882812 239.136719 210.054688 C 239.308594 210.390625 239.566406 210.558594 239.90625 210.558594 C 240.246094 210.558594 240.585938 210.390625 240.925781 210.054688 C 241.273438 209.882812 241.441406 209.546875 241.441406 209.039062 L 241.441406 193.535156 C 241.441406 193.199219 241.273438 192.859375 240.925781 192.523438 C 240.585938 192.183594 240.246094 192.015625 239.90625 192.015625 C 239.566406 192.015625 239.308594 192.183594 239.136719 192.523438 Z M 186.519531 196.589844 C 186.179688 196.253906 185.832031 196.082031 185.492188 196.082031 C 185.152344 196.082031 184.8125 196.253906 184.476562 196.589844 C 184.304688 196.925781 184.214844 197.265625 184.214844 197.601562 L 184.214844 213.097656 C 184.214844 213.613281 184.304688 213.953125 184.476562 214.121094 C 184.8125 214.457031 185.152344 214.625 185.492188 214.625 C 185.832031 214.625 186.179688 214.457031 186.519531 214.121094 C 186.6875 213.953125 186.769531 213.613281 186.769531 213.097656 L 186.769531 197.601562 C 186.769531 197.265625 186.6875 196.925781 186.519531 196.589844 Z M 156.125 192.523438 C 155.777344 192.859375 155.609375 193.199219 155.609375 193.535156 L 155.609375 209.039062 C 155.609375 209.546875 155.777344 209.882812 156.125 210.054688 C 156.296875 210.390625 156.546875 210.558594 156.882812 210.558594 C 157.222656 210.558594 157.570312 210.390625 157.910156 210.054688 C 158.082031 209.882812 158.160156 209.546875 158.160156 209.039062 L 158.160156 193.535156 C 158.160156 193.199219 158.082031 192.859375 157.910156 192.523438 C 157.570312 192.183594 157.222656 192.015625 156.882812 192.015625 C 156.546875 192.015625 156.296875 192.183594 156.125 192.523438 Z M 263.65625 183.128906 C 263.316406 183.464844 263.148438 183.800781 263.148438 184.140625 L 263.148438 199.636719 C 263.148438 199.972656 263.316406 200.3125 263.65625 200.648438 C 263.828125 200.996094 264.085938 201.164062 264.425781 201.164062 C 264.765625 201.164062 265.105469 200.996094 265.453125 200.648438 C 265.613281 200.3125 265.703125 199.972656 265.703125 199.636719 L 265.703125 184.140625 C 265.703125 183.800781 265.613281 183.464844 265.453125 183.128906 C 265.105469 182.78125 264.765625 182.613281 264.425781 182.613281 C 264.085938 182.613281 263.828125 182.78125 263.65625 183.128906 Z M 279.496094 173.21875 L 279.496094 188.714844 C 279.496094 189.21875 279.667969 189.558594 280.007812 189.726562 C 280.175781 190.070312 280.433594 190.242188 280.773438 190.242188 C 281.121094 190.242188 281.460938 190.070312 281.792969 189.726562 C 281.960938 189.558594 282.050781 189.21875 282.050781 188.714844 L 282.050781 173.21875 C 282.050781 172.878906 281.960938 172.542969 281.792969 172.203125 C 281.460938 172.027344 281.121094 171.945312 280.773438 171.945312 C 280.433594 171.945312 280.175781 172.027344 280.007812 172.203125 C 279.667969 172.542969 279.496094 172.878906 279.496094 173.21875 Z M 292.773438 161.53125 C 292.445312 161.191406 292.097656 161.023438 291.757812 161.023438 C 291.417969 161.023438 291.078125 161.191406 290.738281 161.53125 C 290.570312 161.699219 290.480469 162.035156 290.480469 162.542969 L 290.480469 178.046875 C 290.480469 178.386719 290.570312 178.722656 290.738281 179.058594 C 291.078125 179.398438 291.417969 179.566406 291.757812 179.566406 C 292.097656 179.566406 292.445312 179.398438 292.773438 179.058594 C 292.945312 178.722656 293.035156 178.386719 293.035156 178.046875 L 293.035156 162.542969 C 293.035156 162.035156 292.945312 161.699219 292.773438 161.53125 Z M 133.382812 183.128906 C 133.042969 182.78125 132.703125 182.613281 132.363281 182.613281 C 132.027344 182.613281 131.765625 182.78125 131.597656 183.128906 C 131.257812 183.464844 131.089844 183.800781 131.089844 184.140625 L 131.089844 199.636719 C 131.089844 199.972656 131.257812 200.3125 131.597656 200.648438 C 131.765625 200.996094 132.027344 201.164062 132.363281 201.164062 C 132.703125 201.164062 133.042969 200.996094 133.382812 200.648438 C 133.554688 200.3125 133.640625 199.972656 133.640625 199.636719 L 133.640625 184.140625 C 133.640625 183.800781 133.554688 183.464844 133.382812 183.128906 Z M 115.25 172.203125 C 114.910156 172.542969 114.738281 172.878906 114.738281 173.21875 L 114.738281 188.714844 C 114.738281 189.21875 114.910156 189.558594 115.25 189.726562 C 115.417969 190.070312 115.675781 190.242188 116.015625 190.242188 C 116.355469 190.242188 116.695312 190.070312 117.042969 189.726562 C 117.210938 189.558594 117.292969 189.21875 117.292969 188.714844 L 117.292969 173.21875 C 117.292969 172.878906 117.210938 172.542969 117.042969 172.203125 C 116.695312 172.027344 116.355469 171.945312 116.015625 171.945312 C 115.675781 171.945312 115.417969 172.027344 115.25 172.203125 Z M 106.050781 161.53125 C 105.882812 161.191406 105.632812 161.023438 105.285156 161.023438 C 104.945312 161.023438 104.605469 161.191406 104.265625 161.53125 C 104.097656 161.699219 104.007812 162.035156 104.007812 162.542969 L 104.007812 178.046875 C 104.007812 178.386719 104.097656 178.722656 104.265625 179.058594 C 104.605469 179.398438 104.945312 179.566406 105.285156 179.566406 C 105.632812 179.566406 105.882812 179.398438 106.050781 179.058594 C 106.390625 178.722656 106.558594 178.386719 106.558594 178.046875 L 106.558594 162.542969 C 106.558594 162.035156 106.390625 161.699219 106.050781 161.53125 Z M 98.648438 137.652344 C 99.496094 152.550781 109.203125 165.339844 127.765625 176.015625 C 147.179688 187.1875 170.679688 192.78125 198.269531 192.78125 C 225.859375 192.78125 249.351562 187.1875 268.765625 176.015625 C 287.328125 165.339844 297.035156 152.550781 297.890625 137.652344 L 297.890625 159.238281 C 298.0625 159.921875 298.152344 160.597656 298.152344 161.273438 C 298.152344 162.125 298.0625 162.890625 297.890625 163.5625 L 297.890625 164.070312 C 296.863281 178.804688 287.160156 191.421875 268.765625 201.917969 C 249.351562 213.097656 225.859375 218.695312 198.269531 218.695312 C 170.679688 218.695312 147.179688 213.097656 127.765625 201.917969 C 109.371094 191.421875 99.667969 178.804688 98.648438 164.070312 L 98.648438 163.5625 C 98.480469 162.890625 98.390625 162.125 98.390625 161.273438 C 98.390625 160.597656 98.480469 159.921875 98.648438 159.238281 L 98.648438 137.652344 "/>
</clipPath>
<linearGradient id="linear1" gradientUnits="userSpaceOnUse" x1="-0.0000000235567" y1="0" x2="0.999994" y2="0" gradientTransform="matrix(199.501165,0,0,198.413785,98.390261,178.17243)">
<stop offset="0" style="stop-color:rgb(97.599792%,73.298645%,3.49884%);stop-opacity:1;"/>
<stop offset="0.25" style="stop-color:rgb(97.599792%,73.298645%,3.49884%);stop-opacity:1;"/>
<stop offset="0.375" style="stop-color:rgb(97.599792%,73.298645%,3.49884%);stop-opacity:1;"/>
<stop offset="0.4375" style="stop-color:rgb(97.599792%,73.298645%,3.49884%);stop-opacity:1;"/>
<stop offset="0.441406" style="stop-color:rgb(97.799683%,73.098755%,3.69873%);stop-opacity:1;"/>
<stop offset="0.445312" style="stop-color:rgb(97.999573%,72.898865%,3.898621%);stop-opacity:1;"/>
<stop offset="0.449219" style="stop-color:rgb(97.999573%,72.698975%,3.898621%);stop-opacity:1;"/>
<stop offset="0.453125" style="stop-color:rgb(97.999573%,72.499084%,3.898621%);stop-opacity:1;"/>
<stop offset="0.460938" style="stop-color:rgb(97.999573%,72.348022%,3.898621%);stop-opacity:1;"/>
<stop offset="0.464844" style="stop-color:rgb(97.999573%,71.833801%,3.898621%);stop-opacity:1;"/>
<stop offset="0.46875" style="stop-color:rgb(97.999573%,71.470642%,3.898621%);stop-opacity:1;"/>
<stop offset="0.476562" style="stop-color:rgb(97.999573%,71.434021%,3.898621%);stop-opacity:1;"/>
<stop offset="0.480469" style="stop-color:rgb(97.999573%,71.003723%,3.898621%);stop-opacity:1;"/>
<stop offset="0.484375" style="stop-color:rgb(97.999573%,70.610046%,3.898621%);stop-opacity:1;"/>
<stop offset="0.492188" style="stop-color:rgb(97.999573%,70.603943%,3.898621%);stop-opacity:1;"/>
<stop offset="0.496094" style="stop-color:rgb(97.999573%,70.223999%,4.098511%);stop-opacity:1;"/>
<stop offset="0.5" style="stop-color:rgb(97.999573%,69.850159%,4.299927%);stop-opacity:1;"/>
<stop offset="0.503906" style="stop-color:rgb(97.999573%,69.624329%,4.299927%);stop-opacity:1;"/>
<stop offset="0.507812" style="stop-color:rgb(97.999573%,69.398499%,4.299927%);stop-opacity:1;"/>
<stop offset="0.515625" style="stop-color:rgb(97.821045%,69.398499%,4.299927%);stop-opacity:1;"/>
<stop offset="0.519531" style="stop-color:rgb(97.621155%,69.004822%,4.299927%);stop-opacity:1;"/>
<stop offset="0.523438" style="stop-color:rgb(97.599792%,68.611145%,4.299927%);stop-opacity:1;"/>
<stop offset="0.53125" style="stop-color:rgb(97.599792%,68.418884%,4.299927%);stop-opacity:1;"/>
<stop offset="0.539063" style="stop-color:rgb(97.599792%,68.212891%,4.48761%);stop-opacity:1;"/>
<stop offset="0.546875" style="stop-color:rgb(97.599792%,68.016052%,4.6875%);stop-opacity:1;"/>
<stop offset="0.550781" style="stop-color:rgb(97.599792%,67.50946%,4.699707%);stop-opacity:1;"/>
<stop offset="0.554688" style="stop-color:rgb(97.599792%,67.185974%,4.699707%);stop-opacity:1;"/>
<stop offset="0.5625" style="stop-color:rgb(97.599792%,66.995239%,4.699707%);stop-opacity:1;"/>
<stop offset="0.570313" style="stop-color:rgb(97.599792%,66.752625%,4.699707%);stop-opacity:1;"/>
<stop offset="0.574219" style="stop-color:rgb(97.599792%,66.322327%,4.699707%);stop-opacity:1;"/>
<stop offset="0.578125" style="stop-color:rgb(97.599792%,65.945435%,4.699707%);stop-opacity:1;"/>
<stop offset="0.585938" style="stop-color:rgb(97.599792%,65.7547%,4.866028%);stop-opacity:1;"/>
<stop offset="0.59375" style="stop-color:rgb(97.599792%,65.531921%,5.065918%);stop-opacity:1;"/>
<stop offset="0.597656" style="stop-color:rgb(97.599792%,65.151978%,5.099487%);stop-opacity:1;"/>
<stop offset="0.601563" style="stop-color:rgb(97.599792%,64.804077%,5.099487%);stop-opacity:1;"/>
<stop offset="0.605469" style="stop-color:rgb(97.454834%,64.558411%,5.099487%);stop-opacity:1;"/>
<stop offset="0.609375" style="stop-color:rgb(97.309875%,64.312744%,5.099487%);stop-opacity:1;"/>
<stop offset="0.617188" style="stop-color:rgb(97.303772%,64.305115%,5.099487%);stop-opacity:1;"/>
<stop offset="0.621094" style="stop-color:rgb(97.299194%,63.929749%,5.099487%);stop-opacity:1;"/>
<stop offset="0.625" style="stop-color:rgb(97.299194%,63.562012%,5.099487%);stop-opacity:1;"/>
<stop offset="0.628906" style="stop-color:rgb(97.299194%,63.371277%,5.299377%);stop-opacity:1;"/>
<stop offset="0.632813" style="stop-color:rgb(97.299194%,63.182068%,5.499268%);stop-opacity:1;"/>
<stop offset="0.640625" style="stop-color:rgb(97.299194%,63.140869%,5.499268%);stop-opacity:1;"/>
<stop offset="0.644531" style="stop-color:rgb(97.299194%,62.89978%,5.499268%);stop-opacity:1;"/>
<stop offset="0.648438" style="stop-color:rgb(97.299194%,62.69989%,5.499268%);stop-opacity:1;"/>
<stop offset="0.652344" style="stop-color:rgb(97.299194%,62.3703%,5.499268%);stop-opacity:1;"/>
<stop offset="0.65625" style="stop-color:rgb(97.299194%,62.04071%,5.499268%);stop-opacity:1;"/>
<stop offset="0.664063" style="stop-color:rgb(97.299194%,62.019348%,5.499268%);stop-opacity:1;"/>
<stop offset="0.667969" style="stop-color:rgb(97.299194%,61.639404%,5.499268%);stop-opacity:1;"/>
<stop offset="0.671875" style="stop-color:rgb(97.299194%,61.279297%,5.499268%);stop-opacity:1;"/>
<stop offset="0.675781" style="stop-color:rgb(97.299194%,61.088562%,5.699158%);stop-opacity:1;"/>
<stop offset="0.679688" style="stop-color:rgb(97.299194%,60.899353%,5.899048%);stop-opacity:1;"/>
<stop offset="0.683594" style="stop-color:rgb(97.299194%,60.649109%,5.899048%);stop-opacity:1;"/>
<stop offset="0.6875" style="stop-color:rgb(97.299194%,60.398865%,5.899048%);stop-opacity:1;"/>
<stop offset="0.691406" style="stop-color:rgb(97.117615%,60.198975%,5.899048%);stop-opacity:1;"/>
<stop offset="0.695313" style="stop-color:rgb(96.937561%,59.999084%,5.899048%);stop-opacity:1;"/>
<stop offset="0.703125" style="stop-color:rgb(96.917725%,59.812927%,5.899048%);stop-opacity:1;"/>
<stop offset="0.71875" style="stop-color:rgb(96.899414%,59.437561%,5.899048%);stop-opacity:1;"/>
<stop offset="0.722656" style="stop-color:rgb(96.899414%,58.882141%,6.040955%);stop-opacity:1;"/>
<stop offset="0.726563" style="stop-color:rgb(96.899414%,58.51593%,6.182861%);stop-opacity:1;"/>
<stop offset="0.730469" style="stop-color:rgb(96.899414%,58.274841%,6.240845%);stop-opacity:1;"/>
<stop offset="0.734375" style="stop-color:rgb(96.899414%,58.035278%,6.298828%);stop-opacity:1;"/>
<stop offset="0.742188" style="stop-color:rgb(96.899414%,57.844543%,6.298828%);stop-opacity:1;"/>
<stop offset="0.75" style="stop-color:rgb(96.899414%,57.505798%,6.298828%);stop-opacity:1;"/>
<stop offset="0.757812" style="stop-color:rgb(96.899414%,57.327271%,6.298828%);stop-opacity:1;"/>
<stop offset="0.761719" style="stop-color:rgb(96.899414%,56.956482%,6.298828%);stop-opacity:1;"/>
<stop offset="0.765625" style="stop-color:rgb(96.899414%,56.613159%,6.298828%);stop-opacity:1;"/>
<stop offset="0.769531" style="stop-color:rgb(96.899414%,56.378174%,6.498718%);stop-opacity:1;"/>
<stop offset="0.773437" style="stop-color:rgb(96.899414%,56.144714%,6.698608%);stop-opacity:1;"/>
<stop offset="0.78125" style="stop-color:rgb(96.899414%,56.121826%,6.698608%);stop-opacity:1;"/>
<stop offset="0.785156" style="stop-color:rgb(96.736145%,55.735779%,6.698608%);stop-opacity:1;"/>
<stop offset="0.789062" style="stop-color:rgb(96.572876%,55.37262%,6.698608%);stop-opacity:1;"/>
<stop offset="0.792969" style="stop-color:rgb(96.536255%,55.136108%,6.698608%);stop-opacity:1;"/>
<stop offset="0.796875" style="stop-color:rgb(96.499634%,54.899597%,6.698608%);stop-opacity:1;"/>
<stop offset="0.804687" style="stop-color:rgb(96.499634%,54.899597%,6.698608%);stop-opacity:1;"/>
<stop offset="0.808594" style="stop-color:rgb(96.499634%,54.56543%,6.698608%);stop-opacity:1;"/>
<stop offset="0.8125" style="stop-color:rgb(96.499634%,54.231262%,6.698608%);stop-opacity:1;"/>
<stop offset="0.816406" style="stop-color:rgb(96.499634%,53.990173%,6.898499%);stop-opacity:1;"/>
<stop offset="0.820312" style="stop-color:rgb(96.499634%,53.75061%,7.099915%);stop-opacity:1;"/>
<stop offset="0.828125" style="stop-color:rgb(96.499634%,53.72467%,7.099915%);stop-opacity:1;"/>
<stop offset="0.832031" style="stop-color:rgb(96.499634%,53.29895%,7.099915%);stop-opacity:1;"/>
<stop offset="0.835937" style="stop-color:rgb(96.499634%,52.89917%,7.099915%);stop-opacity:1;"/>
<stop offset="0.84375" style="stop-color:rgb(96.499634%,52.726746%,7.099915%);stop-opacity:1;"/>
<stop offset="0.851562" style="stop-color:rgb(96.499634%,52.375793%,7.099915%);stop-opacity:1;"/>
<stop offset="0.855469" style="stop-color:rgb(96.499634%,51.998901%,7.275391%);stop-opacity:1;"/>
<stop offset="0.859375" style="stop-color:rgb(96.499634%,51.799011%,7.450867%);stop-opacity:1;"/>
<stop offset="0.863281" style="stop-color:rgb(96.499634%,51.599121%,7.475281%);stop-opacity:1;"/>
<stop offset="0.867187" style="stop-color:rgb(96.499634%,51.399231%,7.499695%);stop-opacity:1;"/>
<stop offset="0.871094" style="stop-color:rgb(96.499634%,51.042175%,7.499695%);stop-opacity:1;"/>
<stop offset="0.875" style="stop-color:rgb(96.499634%,50.686646%,7.499695%);stop-opacity:1;"/>
<stop offset="0.882812" style="stop-color:rgb(96.325684%,50.642395%,7.499695%);stop-opacity:1;"/>
<stop offset="0.890625" style="stop-color:rgb(96.125793%,50.430298%,7.499695%);stop-opacity:1;"/>
<stop offset="0.894531" style="stop-color:rgb(96.099854%,49.861145%,7.499695%);stop-opacity:1;"/>
<stop offset="0.898437" style="stop-color:rgb(96.099854%,49.461365%,7.499695%);stop-opacity:1;"/>
<stop offset="0.90625" style="stop-color:rgb(96.099854%,49.429321%,7.637024%);stop-opacity:1;"/>
<stop offset="0.914062" style="stop-color:rgb(96.099854%,49.220276%,7.78656%);stop-opacity:1;"/>
<stop offset="0.917969" style="stop-color:rgb(96.099854%,48.820496%,7.798767%);stop-opacity:1;"/>
<stop offset="0.921875" style="stop-color:rgb(96.099854%,48.599243%,7.798767%);stop-opacity:1;"/>
<stop offset="0.925781" style="stop-color:rgb(96.099854%,48.399353%,7.798767%);stop-opacity:1;"/>
<stop offset="0.929687" style="stop-color:rgb(96.099854%,48.199463%,7.798767%);stop-opacity:1;"/>
<stop offset="0.9375" style="stop-color:rgb(96.099854%,48.034668%,7.798767%);stop-opacity:1;"/>
<stop offset="0.945312" style="stop-color:rgb(96.099854%,47.698975%,7.798767%);stop-opacity:1;"/>
<stop offset="0.949219" style="stop-color:rgb(96.099854%,47.312927%,7.957458%);stop-opacity:1;"/>
<stop offset="0.953125" style="stop-color:rgb(96.099854%,47.099304%,8.11615%);stop-opacity:1;"/>
<stop offset="0.960937" style="stop-color:rgb(96.099854%,46.925354%,8.157349%);stop-opacity:1;"/>
<stop offset="0.964844" style="stop-color:rgb(96.099854%,46.525574%,8.198547%);stop-opacity:1;"/>
<stop offset="0.96875" style="stop-color:rgb(96.099854%,46.299744%,8.198547%);stop-opacity:1;"/>
<stop offset="0.972656" style="stop-color:rgb(95.898438%,46.099854%,8.198547%);stop-opacity:1;"/>
<stop offset="0.976562" style="stop-color:rgb(95.698547%,45.899963%,8.198547%);stop-opacity:1;"/>
<stop offset="0.980469" style="stop-color:rgb(95.698547%,45.529175%,8.198547%);stop-opacity:1;"/>
<stop offset="0.984375" style="stop-color:rgb(95.698547%,45.159912%,8.198547%);stop-opacity:1;"/>
<stop offset="0.992188" style="stop-color:rgb(95.698547%,44.969177%,8.198547%);stop-opacity:1;"/>
<stop offset="1" style="stop-color:rgb(95.698547%,44.73877%,8.374023%);stop-opacity:1;"/>
</linearGradient>
<clipPath id="clip5">
  <path d="M 124 95 L 266 95 L 266 175.703125 L 124 175.703125 Z M 124 95 "/>
</clipPath>
<clipPath id="clip6">
  <path d="M 187.796875 95.476562 C 206.867188 94.632812 223.984375 97.761719 239.136719 104.882812 C 246.996094 108.65625 253.128906 112.9375 257.53125 117.707031 C 261.578125 122.144531 264.132812 127.019531 265.195312 132.3125 C 267.070312 143.324219 261.871094 153.058594 249.613281 161.53125 C 237.523438 170.003906 221.683594 174.65625 202.101562 175.5 C 182.859375 176.183594 165.742188 172.960938 150.757812 165.847656 C 135.597656 158.734375 127 149.675781 124.953125 138.664062 C 124.925781 138.53125 124.890625 138.40625 124.828125 138.28125 C 124.363281 135.464844 124.363281 132.757812 124.828125 130.15625 C 125.902344 125.148438 128.375 120.496094 132.230469 116.179688 C 134.535156 113.851562 137.304688 111.613281 140.535156 109.457031 C 152.804688 100.984375 168.554688 96.320312 187.796875 95.476562 Z M 188.046875 98.78125 C 170.511719 99.457031 156.125 103.691406 144.882812 111.480469 C 140.097656 114.800781 136.472656 118.320312 134.027344 122.03125 C 130.75 127.117188 129.597656 132.582031 130.578125 138.414062 C 132.453125 148.574219 140.367188 156.957031 154.332031 163.5625 C 168.296875 170.003906 184.136719 172.878906 201.84375 172.203125 C 219.558594 171.519531 234.03125 167.285156 245.273438 159.496094 C 256.503906 151.707031 261.191406 142.730469 259.316406 132.570312 C 257.613281 122.402344 249.78125 113.941406 235.816406 107.164062 C 234.191406 106.402344 232.53125 105.671875 230.835938 105.007812 C 218.109375 99.953125 203.851562 97.886719 188.046875 98.78125 "/>
</clipPath>
<clipPath id="clip7">
  <path d="M 195.707031 53.6875 L 53.308594 135.414062 L 195.726562 217.121094 L 338.132812 135.40625 Z M 195.707031 53.6875 "/>
</clipPath>
<linearGradient id="linear2" gradientUnits="userSpaceOnUse" x1="-0.202089" y1="0" x2="1.210653" y2="0" gradientTransform="matrix(100.515539,57.668857,-116.098279,66.626402,144.445191,106.422527)">
<stop offset="0" style="stop-color:rgb(90.99884%,42.698669%,9.799194%);stop-opacity:1;"/>
<stop offset="0.25" style="stop-color:rgb(90.99884%,42.698669%,9.799194%);stop-opacity:1;"/>
<stop offset="0.375" style="stop-color:rgb(90.99884%,42.698669%,9.799194%);stop-opacity:1;"/>
<stop offset="0.4375" style="stop-color:rgb(90.99884%,42.698669%,9.799194%);stop-opacity:1;"/>
<stop offset="0.453125" style="stop-color:rgb(90.99884%,42.698669%,9.799194%);stop-opacity:1;"/>
<stop offset="0.460938" style="stop-color:rgb(90.837097%,42.698669%,9.799194%);stop-opacity:1;"/>
<stop offset="0.464844" style="stop-color:rgb(90.322876%,42.698669%,9.799194%);stop-opacity:1;"/>
<stop offset="0.46875" style="stop-color:rgb(89.971924%,42.698669%,9.799194%);stop-opacity:1;"/>
<stop offset="0.476562" style="stop-color:rgb(89.884949%,42.698669%,9.799194%);stop-opacity:1;"/>
<stop offset="0.484375" style="stop-color:rgb(89.656067%,42.698669%,9.799194%);stop-opacity:1;"/>
<stop offset="0.5" style="stop-color:rgb(89.456177%,42.549133%,9.799194%);stop-opacity:1;"/>
<stop offset="0.503906" style="stop-color:rgb(89.199829%,42.399597%,9.999084%);stop-opacity:1;"/>
<stop offset="0.507812" style="stop-color:rgb(88.999939%,42.399597%,10.198975%);stop-opacity:1;"/>
<stop offset="0.515625" style="stop-color:rgb(88.848877%,42.399597%,10.198975%);stop-opacity:1;"/>
<stop offset="0.519531" style="stop-color:rgb(88.482666%,42.233276%,10.198975%);stop-opacity:1;"/>
<stop offset="0.523438" style="stop-color:rgb(88.267517%,42.066956%,10.198975%);stop-opacity:1;"/>
<stop offset="0.53125" style="stop-color:rgb(88.232422%,42.033386%,10.198975%);stop-opacity:1;"/>
<stop offset="0.535156" style="stop-color:rgb(87.998962%,41.999817%,10.198975%);stop-opacity:1;"/>
<stop offset="0.539062" style="stop-color:rgb(87.799072%,41.999817%,10.198975%);stop-opacity:1;"/>
<stop offset="0.546875" style="stop-color:rgb(87.799072%,41.999817%,10.198975%);stop-opacity:1;"/>
<stop offset="0.554687" style="stop-color:rgb(87.687683%,41.999817%,10.198975%);stop-opacity:1;"/>
<stop offset="0.5625" style="stop-color:rgb(87.393188%,41.999817%,10.198975%);stop-opacity:1;"/>
<stop offset="0.566406" style="stop-color:rgb(87.155151%,41.798401%,10.398865%);stop-opacity:1;"/>
<stop offset="0.570313" style="stop-color:rgb(87.098694%,41.598511%,10.598755%);stop-opacity:1;"/>
<stop offset="0.578125" style="stop-color:rgb(86.940002%,41.598511%,10.598755%);stop-opacity:1;"/>
<stop offset="0.59375" style="stop-color:rgb(86.593628%,41.598511%,10.598755%);stop-opacity:1;"/>
<stop offset="0.601562" style="stop-color:rgb(86.26709%,41.598511%,10.598755%);stop-opacity:1;"/>
<stop offset="0.609375" style="stop-color:rgb(86.013794%,41.441345%,10.598755%);stop-opacity:1;"/>
<stop offset="0.617187" style="stop-color:rgb(85.742188%,41.241455%,10.598755%);stop-opacity:1;"/>
<stop offset="0.625" style="stop-color:rgb(85.542297%,41.19873%,10.598755%);stop-opacity:1;"/>
<stop offset="0.628906" style="stop-color:rgb(85.299683%,40.99884%,10.598755%);stop-opacity:1;"/>
<stop offset="0.632813" style="stop-color:rgb(85.099792%,40.79895%,10.598755%);stop-opacity:1;"/>
<stop offset="0.640625" style="stop-color:rgb(84.957886%,40.79895%,10.598755%);stop-opacity:1;"/>
<stop offset="0.648438" style="stop-color:rgb(84.757996%,40.79895%,10.598755%);stop-opacity:1;"/>
<stop offset="0.65625" style="stop-color:rgb(84.542847%,40.79895%,10.754395%);stop-opacity:1;"/>
<stop offset="0.664062" style="stop-color:rgb(84.19342%,40.79895%,10.954285%);stop-opacity:1;"/>
<stop offset="0.671875" style="stop-color:rgb(83.94928%,40.79895%,10.998535%);stop-opacity:1;"/>
<stop offset="0.679688" style="stop-color:rgb(83.758545%,40.79895%,10.998535%);stop-opacity:1;"/>
<stop offset="0.683594" style="stop-color:rgb(83.358765%,40.59906%,10.998535%);stop-opacity:1;"/>
<stop offset="0.6875" style="stop-color:rgb(83.099365%,40.39917%,10.998535%);stop-opacity:1;"/>
<stop offset="0.703125" style="stop-color:rgb(82.949829%,40.39917%,10.998535%);stop-opacity:1;"/>
<stop offset="0.710937" style="stop-color:rgb(82.643127%,40.255737%,10.998535%);stop-opacity:1;"/>
<stop offset="0.714844" style="stop-color:rgb(82.241821%,40.055847%,10.998535%);stop-opacity:1;"/>
<stop offset="0.71875" style="stop-color:rgb(81.999207%,39.99939%,10.998535%);stop-opacity:1;"/>
<stop offset="0.734375" style="stop-color:rgb(81.82373%,39.99939%,10.998535%);stop-opacity:1;"/>
<stop offset="0.742188" style="stop-color:rgb(81.62384%,39.851379%,10.998535%);stop-opacity:1;"/>
<stop offset="0.746094" style="stop-color:rgb(81.314087%,39.651489%,11.198425%);stop-opacity:1;"/>
<stop offset="0.75" style="stop-color:rgb(81.030273%,39.599609%,11.399841%);stop-opacity:1;"/>
<stop offset="0.757812" style="stop-color:rgb(80.914307%,39.599609%,11.399841%);stop-opacity:1;"/>
<stop offset="0.765625" style="stop-color:rgb(80.667114%,39.599609%,11.399841%);stop-opacity:1;"/>
<stop offset="0.773437" style="stop-color:rgb(80.467224%,39.599609%,11.399841%);stop-opacity:1;"/>
<stop offset="0.777344" style="stop-color:rgb(80.107117%,39.399719%,11.399841%);stop-opacity:1;"/>
<stop offset="0.78125" style="stop-color:rgb(79.815674%,39.199829%,11.399841%);stop-opacity:1;"/>
<stop offset="0.796875" style="stop-color:rgb(79.707336%,39.064026%,11.399841%);stop-opacity:1;"/>
<stop offset="0.804688" style="stop-color:rgb(79.469299%,38.86261%,11.399841%);stop-opacity:1;"/>
<stop offset="0.8125" style="stop-color:rgb(79.219055%,38.798523%,11.399841%);stop-opacity:1;"/>
<stop offset="0.820312" style="stop-color:rgb(78.948975%,38.798523%,11.399841%);stop-opacity:1;"/>
<stop offset="0.828125" style="stop-color:rgb(78.659058%,38.659668%,11.399841%);stop-opacity:1;"/>
<stop offset="0.835937" style="stop-color:rgb(78.32489%,38.459778%,11.399841%);stop-opacity:1;"/>
<stop offset="0.84375" style="stop-color:rgb(78.065491%,38.398743%,11.399841%);stop-opacity:1;"/>
<stop offset="0.875" style="stop-color:rgb(77.816772%,38.398743%,11.399841%);stop-opacity:1;"/>
<stop offset="1" style="stop-color:rgb(77.615356%,38.20343%,11.399841%);stop-opacity:1;"/>
</linearGradient>
<clipPath id="clip8">
  <path d="M 237.683594 95 L 242 95 L 242 100 L 237.683594 100 Z M 237.683594 95 "/>
</clipPath>
<clipPath id="clip9">
  <path d="M 297 39.808594 L 303 39.808594 L 303 44 L 297 44 Z M 297 39.808594 "/>
</clipPath>
<clipPath id="clip10">
  <path d="M 289 39.808594 L 295 39.808594 L 295 44 L 289 44 Z M 289 39.808594 "/>
</clipPath>
<clipPath id="clip11">
  <path d="M 295 154 L 300 154 L 300 158.308594 L 295 158.308594 Z M 295 154 "/>
</clipPath>
<clipPath id="clip12">
  <path d="M 251 53 L 357.683594 53 L 357.683594 158 L 251 158 Z M 251 53 "/>
</clipPath>
<clipPath id="clip13">
  <path d="M 41.070312 40 L 155.820312 40 L 155.820312 158 L 41.070312 158 Z M 41.070312 40 "/>
</clipPath>
<clipPath id="clip14">
  <path d="M 135 148.5 L 261 148.5 L 261 267 L 135 267 Z M 135 148.5 "/>
</clipPath>
</defs>
<g id="surface1">
<g clip-path="url(#clip1)" clip-rule="nonzero">
<g clip-path="url(#clip2)" clip-rule="nonzero">
<path style=" stroke:none;fill-rule:nonzero;fill:url(#linear0);" d="M 98.390625 77.949219 L 98.390625 192.78125 L 297.890625 192.78125 L 297.890625 77.949219 Z M 98.390625 77.949219 "/>
</g>
</g>
<path style=" stroke:none;fill-rule:evenodd;fill:rgb(97.648621%,89.019775%,1.959229%);fill-opacity:1;" d="M 182.179688 132.570312 L 167.109375 141.460938 L 179.617188 148.574219 C 181.152344 149.425781 182.859375 150.101562 184.734375 150.609375 C 186.429688 150.777344 187.886719 150.945312 189.074219 151.113281 C 190.777344 150.777344 192.304688 150.4375 193.671875 150.101562 L 197.242188 148.574219 L 198.519531 148.066406 C 201.421875 146.371094 202.78125 144.675781 202.609375 142.988281 C 202.441406 141.460938 200.824219 139.855469 197.753906 138.15625 L 185.242188 131.042969 Z M 201.84375 121.390625 L 189.582031 128.503906 L 200.316406 134.605469 C 200.484375 134.605469 200.65625 134.683594 200.824219 134.855469 C 203.207031 136.210938 205.59375 136.808594 207.976562 136.640625 C 209.851562 136.808594 211.976562 136.292969 214.359375 135.113281 C 214.871094 134.941406 215.378906 134.683594 215.894531 134.347656 C 218.449219 132.828125 219.636719 131.382812 219.46875 130.03125 C 219.46875 128.84375 218.359375 127.492188 216.15625 125.964844 C 215.984375 125.796875 215.808594 125.707031 215.636719 125.707031 L 204.90625 119.613281 Z M 190.351562 116.3125 L 193.414062 114.785156 C 195.457031 113.601562 194.519531 111.90625 190.609375 109.703125 L 194.441406 107.421875 L 205.929688 114.019531 L 214.871094 108.941406 C 215.378906 108.605469 216.066406 108.355469 216.914062 108.1875 C 217.761719 108.355469 218.449219 108.523438 218.957031 108.691406 C 219.636719 109.199219 219.984375 109.625 219.984375 109.960938 C 219.808594 110.46875 219.46875 110.894531 218.957031 111.230469 L 210.019531 116.3125 L 217.683594 120.378906 L 226.359375 115.546875 C 226.878906 115.210938 227.558594 114.953125 228.414062 114.785156 C 229.09375 114.785156 229.691406 114.953125 230.199219 115.289062 L 230.449219 115.289062 C 230.960938 115.636719 231.21875 115.972656 231.21875 116.3125 C 231.21875 116.988281 230.960938 117.492188 230.449219 117.839844 L 221.773438 122.660156 L 222.28125 122.917969 C 224.664062 124.613281 226.789062 125.964844 228.664062 126.976562 C 230.371094 128.503906 231.648438 129.941406 232.496094 131.300781 C 233.011719 132.652344 232.925781 134.097656 232.238281 135.617188 C 231.566406 136.976562 229.941406 138.414062 227.386719 139.933594 C 226.878906 140.269531 226.359375 140.527344 225.859375 140.695312 C 224.835938 141.042969 223.808594 141.292969 222.789062 141.460938 C 221.085938 141.96875 219.378906 142.222656 217.683594 142.222656 C 215.808594 142.222656 214.019531 142.136719 212.316406 141.96875 C 210.78125 141.628906 209.171875 141.125 207.46875 140.449219 C 209.003906 141.628906 210.28125 142.820312 211.296875 144 C 212.484375 145.023438 213.171875 146.292969 213.332031 147.808594 C 213.511719 150.351562 211.808594 152.640625 208.226562 154.675781 C 207.726562 155.011719 207.207031 155.261719 206.699219 155.429688 C 204.65625 156.449219 202.519531 157.214844 200.316406 157.722656 C 197.753906 158.226562 195.039062 158.316406 192.136719 157.96875 C 189.582031 157.800781 186.9375 157.214844 184.214844 156.195312 C 181.324219 155.351562 178.339844 153.992188 175.277344 152.125 L 172.984375 150.855469 L 169.910156 152.382812 L 164.035156 155.6875 L 163.785156 155.945312 C 163.277344 156.113281 162.757812 156.113281 162.25 155.945312 C 161.570312 155.945312 160.972656 155.777344 160.464844 155.429688 L 160.207031 155.429688 C 159.695312 155.09375 159.4375 154.753906 159.4375 154.417969 C 159.4375 154.078125 159.609375 153.742188 159.957031 153.40625 L 165.832031 150.101562 L 168.894531 148.574219 L 161.484375 144.257812 L 158.421875 145.777344 L 152.035156 149.59375 C 151.695312 149.59375 151.347656 149.59375 151.007812 149.59375 C 150.332031 149.59375 149.652344 149.335938 148.972656 148.832031 C 148.457031 148.664062 148.117188 148.316406 147.945312 147.808594 C 147.945312 147.472656 148.117188 147.136719 148.457031 146.796875 L 154.332031 143.496094 L 157.402344 141.96875 L 145.902344 135.367188 L 149.730469 133.078125 C 153.480469 135.28125 156.375 135.875 158.421875 134.855469 Z M 265.195312 97.003906 C 283.757812 107.671875 293.035156 120.457031 293.035156 135.367188 C 293.035156 136.042969 293.035156 136.808594 293.035156 137.652344 C 292.1875 151.707031 282.898438 163.8125 265.195312 173.980469 C 246.800781 184.644531 224.496094 189.894531 198.269531 189.726562 C 172.046875 189.894531 149.652344 184.644531 131.089844 173.980469 C 113.550781 163.8125 104.355469 151.707031 103.496094 137.652344 C 103.496094 136.808594 103.496094 136.042969 103.496094 135.367188 C 103.496094 133.371094 103.667969 131.425781 104.007812 129.515625 C 105.382812 121.585938 109.597656 114.304688 116.648438 107.671875 C 120.613281 103.914062 125.507812 100.355469 131.339844 97.003906 C 149.730469 86.332031 172.046875 80.996094 198.269531 80.996094 C 224.496094 80.996094 246.800781 86.332031 265.195312 97.003906 Z M 187.796875 95.476562 C 168.554688 96.320312 152.804688 100.984375 140.535156 109.457031 C 137.304688 111.613281 134.535156 113.851562 132.230469 116.179688 C 128.375 120.496094 125.902344 125.148438 124.828125 130.15625 C 124.363281 132.757812 124.363281 135.464844 124.828125 138.28125 C 124.890625 138.40625 124.925781 138.53125 124.953125 138.664062 C 127 149.675781 135.597656 158.734375 150.757812 165.847656 C 165.742188 172.960938 182.859375 176.183594 202.101562 175.5 C 221.683594 174.65625 237.523438 170.003906 249.613281 161.53125 C 261.871094 153.058594 267.070312 143.324219 265.195312 132.3125 C 264.132812 127.019531 261.578125 122.144531 257.53125 117.707031 C 253.128906 112.9375 246.996094 108.65625 239.136719 104.882812 C 223.984375 97.761719 206.867188 94.632812 187.796875 95.476562 "/>
<g clip-path="url(#clip3)" clip-rule="nonzero">
<g clip-path="url(#clip4)" clip-rule="nonzero">
<path style=" stroke:none;fill-rule:nonzero;fill:url(#linear1);" d="M 98.390625 137.652344 L 98.390625 218.695312 L 297.890625 218.695312 L 297.890625 137.652344 Z M 98.390625 137.652344 "/>
</g>
</g>
<path style=" stroke:none;fill-rule:evenodd;fill:rgb(86.268616%,43.919373%,10.198975%);fill-opacity:1;" d="M 239.136719 192.523438 C 239.308594 192.183594 239.566406 192.015625 239.90625 192.015625 C 240.246094 192.015625 240.585938 192.183594 240.925781 192.523438 C 241.273438 192.859375 241.441406 193.199219 241.441406 193.535156 L 241.441406 209.039062 C 241.441406 209.546875 241.273438 209.882812 240.925781 210.054688 C 240.585938 210.390625 240.246094 210.558594 239.90625 210.558594 C 239.566406 210.558594 239.308594 210.390625 239.136719 210.054688 C 238.800781 209.882812 238.628906 209.546875 238.628906 209.039062 L 238.628906 193.535156 C 238.628906 193.199219 238.800781 192.859375 239.136719 192.523438 Z M 210.019531 197.601562 C 210.019531 197.265625 210.183594 196.925781 210.53125 196.589844 C 210.871094 196.253906 211.207031 196.082031 211.558594 196.082031 C 211.894531 196.082031 212.144531 196.253906 212.316406 196.589844 C 212.65625 196.925781 212.832031 197.265625 212.832031 197.601562 L 212.832031 213.097656 C 212.832031 213.613281 212.65625 213.953125 212.316406 214.121094 C 212.144531 214.457031 211.894531 214.625 211.558594 214.625 C 211.207031 214.625 210.871094 214.457031 210.53125 214.121094 C 210.183594 213.953125 210.019531 213.613281 210.019531 213.097656 Z M 156.125 192.523438 C 156.296875 192.183594 156.546875 192.015625 156.882812 192.015625 C 157.222656 192.015625 157.570312 192.183594 157.910156 192.523438 C 158.082031 192.859375 158.160156 193.199219 158.160156 193.535156 L 158.160156 209.039062 C 158.160156 209.546875 158.082031 209.882812 157.910156 210.054688 C 157.570312 210.390625 157.222656 210.558594 156.882812 210.558594 C 156.546875 210.558594 156.296875 210.390625 156.125 210.054688 C 155.777344 209.882812 155.609375 209.546875 155.609375 209.039062 L 155.609375 193.535156 C 155.609375 193.199219 155.777344 192.859375 156.125 192.523438 Z M 186.519531 196.589844 C 186.6875 196.925781 186.769531 197.265625 186.769531 197.601562 L 186.769531 213.097656 C 186.769531 213.613281 186.6875 213.953125 186.519531 214.121094 C 186.179688 214.457031 185.832031 214.625 185.492188 214.625 C 185.152344 214.625 184.8125 214.457031 184.476562 214.121094 C 184.304688 213.953125 184.214844 213.613281 184.214844 213.097656 L 184.214844 197.601562 C 184.214844 197.265625 184.304688 196.925781 184.476562 196.589844 C 184.8125 196.253906 185.152344 196.082031 185.492188 196.082031 C 185.832031 196.082031 186.179688 196.253906 186.519531 196.589844 Z M 292.773438 161.53125 C 292.945312 161.699219 293.035156 162.035156 293.035156 162.542969 L 293.035156 178.046875 C 293.035156 178.386719 292.945312 178.722656 292.773438 179.058594 C 292.445312 179.398438 292.097656 179.566406 291.757812 179.566406 C 291.417969 179.566406 291.078125 179.398438 290.738281 179.058594 C 290.570312 178.722656 290.480469 178.386719 290.480469 178.046875 L 290.480469 162.542969 C 290.480469 162.035156 290.570312 161.699219 290.738281 161.53125 C 291.078125 161.191406 291.417969 161.023438 291.757812 161.023438 C 292.097656 161.023438 292.445312 161.191406 292.773438 161.53125 Z M 279.496094 173.21875 C 279.496094 172.878906 279.667969 172.542969 280.007812 172.203125 C 280.175781 172.027344 280.433594 171.945312 280.773438 171.945312 C 281.121094 171.945312 281.460938 172.027344 281.792969 172.203125 C 281.960938 172.542969 282.050781 172.878906 282.050781 173.21875 L 282.050781 188.714844 C 282.050781 189.21875 281.960938 189.558594 281.792969 189.726562 C 281.460938 190.070312 281.121094 190.242188 280.773438 190.242188 C 280.433594 190.242188 280.175781 190.070312 280.007812 189.726562 C 279.667969 189.558594 279.496094 189.21875 279.496094 188.714844 Z M 263.65625 183.128906 C 263.828125 182.78125 264.085938 182.613281 264.425781 182.613281 C 264.765625 182.613281 265.105469 182.78125 265.453125 183.128906 C 265.613281 183.464844 265.703125 183.800781 265.703125 184.140625 L 265.703125 199.636719 C 265.703125 199.972656 265.613281 200.3125 265.453125 200.648438 C 265.105469 200.996094 264.765625 201.164062 264.425781 201.164062 C 264.085938 201.164062 263.828125 200.996094 263.65625 200.648438 C 263.316406 200.3125 263.148438 199.972656 263.148438 199.636719 L 263.148438 184.140625 C 263.148438 183.800781 263.316406 183.464844 263.65625 183.128906 Z M 115.25 172.203125 C 115.417969 172.027344 115.675781 171.945312 116.015625 171.945312 C 116.355469 171.945312 116.695312 172.027344 117.042969 172.203125 C 117.210938 172.542969 117.292969 172.878906 117.292969 173.21875 L 117.292969 188.714844 C 117.292969 189.21875 117.210938 189.558594 117.042969 189.726562 C 116.695312 190.070312 116.355469 190.242188 116.015625 190.242188 C 115.675781 190.242188 115.417969 190.070312 115.25 189.726562 C 114.910156 189.558594 114.738281 189.21875 114.738281 188.714844 L 114.738281 173.21875 C 114.738281 172.878906 114.910156 172.542969 115.25 172.203125 Z M 133.382812 183.128906 C 133.554688 183.464844 133.640625 183.800781 133.640625 184.140625 L 133.640625 199.636719 C 133.640625 199.972656 133.554688 200.3125 133.382812 200.648438 C 133.042969 200.996094 132.703125 201.164062 132.363281 201.164062 C 132.027344 201.164062 131.765625 200.996094 131.597656 200.648438 C 131.257812 200.3125 131.089844 199.972656 131.089844 199.636719 L 131.089844 184.140625 C 131.089844 183.800781 131.257812 183.464844 131.597656 183.128906 C 131.765625 182.78125 132.027344 182.613281 132.363281 182.613281 C 132.703125 182.613281 133.042969 182.78125 133.382812 183.128906 Z M 106.050781 161.53125 C 106.390625 161.699219 106.558594 162.035156 106.558594 162.542969 L 106.558594 178.046875 C 106.558594 178.386719 106.390625 178.722656 106.050781 179.058594 C 105.882812 179.398438 105.632812 179.566406 105.285156 179.566406 C 104.945312 179.566406 104.605469 179.398438 104.265625 179.058594 C 104.097656 178.722656 104.007812 178.386719 104.007812 178.046875 L 104.007812 162.542969 C 104.007812 162.035156 104.097656 161.699219 104.265625 161.53125 C 104.605469 161.191406 104.945312 161.023438 105.285156 161.023438 C 105.632812 161.023438 105.882812 161.191406 106.050781 161.53125 "/>
<path style=" stroke:none;fill-rule:evenodd;fill:rgb(96.469116%,52.549744%,8.239746%);fill-opacity:1;" d="M 214.359375 135.113281 C 211.976562 136.292969 209.851562 136.808594 207.976562 136.640625 C 205.59375 136.808594 203.207031 136.210938 200.824219 134.855469 C 200.65625 134.683594 200.484375 134.605469 200.316406 134.605469 L 189.582031 128.503906 L 201.84375 121.390625 L 212.574219 127.492188 C 212.746094 127.492188 212.914062 127.570312 213.082031 127.742188 C 215.46875 129.097656 216.65625 130.449219 216.65625 131.808594 C 216.832031 132.996094 216.066406 134.097656 214.359375 135.113281 Z M 182.179688 132.570312 L 194.691406 139.683594 C 197.753906 141.382812 199.378906 143.066406 199.546875 144.765625 C 199.546875 145.945312 198.78125 147.214844 197.242188 148.574219 L 193.671875 150.101562 C 192.304688 150.4375 190.777344 150.777344 189.074219 151.113281 C 187.886719 150.945312 186.429688 150.777344 184.734375 150.609375 C 182.859375 150.101562 181.152344 149.425781 179.617188 148.574219 L 167.109375 141.460938 Z M 225.859375 140.695312 C 226.359375 140.527344 226.878906 140.269531 227.386719 139.933594 C 229.941406 138.414062 231.566406 136.976562 232.238281 135.617188 C 232.925781 134.097656 233.011719 132.652344 232.496094 131.300781 C 231.648438 129.941406 230.371094 128.503906 228.664062 126.976562 C 226.789062 125.964844 224.664062 124.613281 222.28125 122.917969 L 221.773438 122.660156 L 230.449219 117.839844 C 230.960938 117.492188 231.21875 116.988281 231.21875 116.3125 C 231.21875 115.972656 230.960938 115.636719 230.449219 115.289062 L 230.199219 115.289062 C 229.691406 114.953125 229.09375 114.785156 228.414062 114.785156 C 227.558594 114.953125 226.878906 115.210938 226.359375 115.546875 L 217.683594 120.378906 L 210.019531 116.3125 L 218.957031 111.230469 C 219.46875 110.894531 219.808594 110.46875 219.984375 109.960938 C 219.984375 109.625 219.636719 109.199219 218.957031 108.691406 C 218.449219 108.523438 217.761719 108.355469 216.914062 108.1875 C 216.066406 108.355469 215.378906 108.605469 214.871094 108.941406 L 205.929688 114.019531 L 194.441406 107.421875 L 190.609375 109.703125 L 187.539062 111.230469 C 191.457031 113.433594 192.394531 115.121094 190.351562 116.3125 L 158.421875 134.855469 C 156.375 135.875 153.480469 135.28125 149.730469 133.078125 L 145.902344 135.367188 L 142.839844 136.886719 L 154.332031 143.496094 L 148.457031 146.796875 L 145.902344 148.316406 C 145.394531 148.664062 145.054688 149.082031 144.882812 149.59375 C 145.054688 150.101562 145.394531 150.4375 145.902344 150.609375 C 146.589844 151.113281 147.269531 151.371094 147.945312 151.371094 C 148.792969 151.203125 149.472656 150.945312 149.992188 150.609375 L 152.035156 149.59375 L 158.421875 145.777344 L 165.832031 150.101562 L 159.957031 153.40625 L 157.402344 154.921875 C 156.882812 155.261719 156.546875 155.6875 156.375 156.195312 C 156.375 156.53125 156.632812 156.867188 157.144531 157.214844 L 157.402344 157.214844 C 157.910156 157.550781 158.507812 157.722656 159.1875 157.722656 C 160.207031 157.722656 160.972656 157.550781 161.484375 157.214844 L 163.785156 155.945312 L 164.035156 155.6875 L 169.910156 152.382812 L 172.214844 153.652344 C 175.277344 155.519531 178.261719 156.957031 181.152344 157.96875 C 183.875 158.992188 186.519531 159.585938 189.074219 159.753906 C 191.964844 160.09375 194.691406 160.003906 197.242188 159.496094 C 199.96875 158.992188 202.699219 157.890625 205.421875 156.195312 C 205.761719 156.023438 206.179688 155.777344 206.699219 155.429688 C 207.207031 155.261719 207.726562 155.011719 208.226562 154.675781 C 211.808594 152.640625 213.511719 150.351562 213.332031 147.808594 C 213.171875 146.292969 212.484375 145.023438 211.296875 144 C 212.484375 144 213.683594 144 214.871094 144 C 216.574219 144 218.191406 143.753906 219.726562 143.238281 C 221.433594 142.898438 222.960938 142.394531 224.324219 141.71875 C 225.003906 141.382812 225.511719 141.042969 225.859375 140.695312 Z M 188.046875 98.78125 C 203.851562 97.886719 218.109375 99.953125 230.835938 105.007812 C 232.53125 105.671875 234.191406 106.402344 235.816406 107.164062 C 249.78125 113.941406 257.613281 122.402344 259.316406 132.570312 C 261.191406 142.730469 256.503906 151.707031 245.273438 159.496094 C 234.03125 167.285156 219.558594 171.519531 201.84375 172.203125 C 184.136719 172.878906 168.296875 170.003906 154.332031 163.5625 C 140.367188 156.957031 132.453125 148.574219 130.578125 138.414062 C 129.597656 132.582031 130.75 127.117188 134.027344 122.03125 C 136.472656 118.320312 140.097656 114.800781 144.882812 111.480469 C 156.125 103.691406 170.511719 99.457031 188.046875 98.78125 "/>
<g clip-path="url(#clip5)" clip-rule="nonzero">
<g clip-path="url(#clip6)" clip-rule="nonzero">
<g clip-path="url(#clip7)" clip-rule="nonzero">
<path style=" stroke:none;fill-rule:nonzero;fill:url(#linear2);" d="M 195.707031 53.691406 L 53.722656 135.175781 L 195.726562 216.644531 L 337.710938 135.164062 Z M 195.707031 53.691406 "/>
</g>
</g>
</g>
<path style=" stroke:none;fill-rule:evenodd;fill:rgb(85.099792%,40.779114%,10.5896%);fill-opacity:1;" d="M 201.84375 121.390625 L 204.90625 119.613281 L 215.636719 125.707031 C 215.808594 125.707031 215.984375 125.796875 216.15625 125.964844 C 218.359375 127.492188 219.46875 128.84375 219.46875 130.03125 C 219.636719 131.382812 218.449219 132.828125 215.894531 134.347656 C 215.378906 134.683594 214.871094 134.941406 214.359375 135.113281 C 216.066406 134.097656 216.832031 132.996094 216.65625 131.808594 C 216.65625 130.449219 215.46875 129.097656 213.082031 127.742188 C 212.914062 127.570312 212.746094 127.492188 212.574219 127.492188 Z M 190.351562 116.3125 C 192.394531 115.121094 191.457031 113.433594 187.539062 111.230469 L 190.609375 109.703125 C 194.519531 111.90625 195.457031 113.601562 193.414062 114.785156 Z M 225.859375 140.695312 C 225.511719 141.042969 225.003906 141.382812 224.324219 141.71875 C 222.960938 142.394531 221.433594 142.898438 219.726562 143.238281 C 218.191406 143.753906 216.574219 144 214.871094 144 C 213.683594 144 212.484375 144 211.296875 144 C 210.28125 142.820312 209.003906 141.628906 207.46875 140.449219 C 209.171875 141.125 210.78125 141.628906 212.316406 141.96875 C 214.019531 142.136719 215.808594 142.222656 217.683594 142.222656 C 219.378906 142.222656 221.085938 141.96875 222.789062 141.460938 C 223.808594 141.292969 224.835938 141.042969 225.859375 140.695312 Z M 169.910156 152.382812 L 172.984375 150.855469 L 175.277344 152.125 C 178.339844 153.992188 181.324219 155.351562 184.214844 156.195312 C 186.9375 157.214844 189.582031 157.800781 192.136719 157.96875 C 195.039062 158.316406 197.753906 158.226562 200.316406 157.722656 C 202.519531 157.214844 204.65625 156.449219 206.699219 155.429688 C 206.179688 155.777344 205.761719 156.023438 205.421875 156.195312 C 202.699219 157.890625 199.96875 158.992188 197.242188 159.496094 C 194.691406 160.003906 191.964844 160.09375 189.074219 159.753906 C 186.519531 159.585938 183.875 158.992188 181.152344 157.96875 C 178.261719 156.957031 175.277344 155.519531 172.214844 153.652344 Z M 165.832031 150.101562 L 158.421875 145.777344 L 161.484375 144.257812 L 168.894531 148.574219 Z M 163.785156 155.945312 L 161.484375 157.214844 C 160.972656 157.550781 160.207031 157.722656 159.1875 157.722656 C 158.507812 157.722656 157.910156 157.550781 157.402344 157.214844 L 157.144531 157.214844 C 156.632812 156.867188 156.375 156.53125 156.375 156.195312 C 156.546875 155.6875 156.882812 155.261719 157.402344 154.921875 L 159.957031 153.40625 C 159.609375 153.742188 159.4375 154.078125 159.4375 154.417969 C 159.4375 154.753906 159.695312 155.09375 160.207031 155.429688 L 160.464844 155.429688 C 160.972656 155.777344 161.570312 155.945312 162.25 155.945312 C 162.757812 156.113281 163.277344 156.113281 163.785156 155.945312 Z M 182.179688 132.570312 L 185.242188 131.042969 L 197.753906 138.15625 C 200.824219 139.855469 202.441406 141.460938 202.609375 142.988281 C 202.78125 144.675781 201.421875 146.371094 198.519531 148.066406 L 197.242188 148.574219 C 198.78125 147.214844 199.546875 145.945312 199.546875 144.765625 C 199.378906 143.066406 197.753906 141.382812 194.691406 139.683594 Z M 152.035156 149.59375 L 149.992188 150.609375 C 149.472656 150.945312 148.792969 151.203125 147.945312 151.371094 C 147.269531 151.371094 146.589844 151.113281 145.902344 150.609375 C 145.394531 150.4375 145.054688 150.101562 144.882812 149.59375 C 145.054688 149.082031 145.394531 148.664062 145.902344 148.316406 L 148.457031 146.796875 C 148.117188 147.136719 147.945312 147.472656 147.945312 147.808594 C 148.117188 148.316406 148.457031 148.664062 148.972656 148.832031 C 149.652344 149.335938 150.332031 149.59375 151.007812 149.59375 C 151.347656 149.59375 151.695312 149.59375 152.035156 149.59375 Z M 145.902344 135.367188 L 157.402344 141.96875 L 154.332031 143.496094 L 142.839844 136.886719 L 145.902344 135.367188 "/>
<path style=" stroke:none;fill-rule:nonzero;fill:rgb(49.409485%,85.099792%,34.118652%);fill-opacity:1;" d="M 323.191406 86.003906 L 325.332031 82.394531 C 325.886719 81.5625 325.609375 80.355469 324.679688 79.894531 C 323.84375 79.339844 322.636719 79.617188 322.171875 80.542969 L 320.035156 84.058594 C 319.476562 84.894531 319.753906 86.097656 320.683594 86.558594 C 320.964844 86.746094 321.335938 86.835938 321.613281 86.835938 C 322.265625 86.835938 322.820312 86.558594 323.191406 86.003906 Z M 323.191406 86.003906 "/>
<path style=" stroke:none;fill-rule:nonzero;fill:rgb(49.409485%,85.099792%,34.118652%);fill-opacity:1;" d="M 326.074219 99.519531 C 326.445312 99.796875 326.816406 99.984375 327.28125 99.984375 C 327.839844 99.984375 328.304688 99.796875 328.675781 99.335938 C 329.328125 98.59375 329.234375 97.390625 328.488281 96.742188 L 325.144531 93.964844 C 324.402344 93.316406 323.191406 93.410156 322.542969 94.152344 C 321.890625 94.890625 321.984375 96.09375 322.730469 96.742188 Z M 326.074219 99.519531 "/>
<path style=" stroke:none;fill-rule:nonzero;fill:rgb(49.409485%,85.099792%,34.118652%);fill-opacity:1;" d="M 334.625 87.949219 C 334.4375 86.929688 333.507812 86.28125 332.484375 86.46875 L 325.421875 87.761719 C 324.402344 87.949219 323.65625 88.875 323.84375 89.894531 C 324.03125 90.820312 324.773438 91.464844 325.703125 91.464844 C 325.796875 91.464844 325.886719 91.464844 326.074219 91.464844 L 333.136719 90.171875 C 334.066406 89.984375 334.808594 88.96875 334.625 87.949219 Z M 334.625 87.949219 "/>
<path style=" stroke:none;fill-rule:nonzero;fill:rgb(49.409485%,85.099792%,34.118652%);fill-opacity:1;" d="M 254.148438 58.324219 C 253.964844 58.507812 253.683594 58.785156 253.5 59.0625 C 252.847656 59.804688 252.847656 61.007812 253.59375 61.65625 C 253.964844 62.027344 254.429688 62.121094 254.800781 62.121094 C 255.265625 62.121094 255.824219 61.933594 256.195312 61.472656 C 256.378906 61.285156 256.566406 61.007812 256.84375 60.824219 C 257.589844 60.082031 257.496094 58.878906 256.753906 58.230469 C 256.101562 57.582031 254.894531 57.582031 254.148438 58.324219 Z M 254.148438 58.324219 "/>
<path style=" stroke:none;fill-rule:nonzero;fill:rgb(49.409485%,85.099792%,34.118652%);fill-opacity:1;" d="M 244.765625 75.726562 C 245.042969 75.820312 245.320312 75.914062 245.601562 75.914062 C 246.25 75.914062 246.996094 75.542969 247.273438 74.894531 C 247.367188 74.617188 247.550781 74.339844 247.644531 74.0625 C 248.109375 73.136719 247.738281 72.023438 246.808594 71.5625 C 245.878906 71.097656 244.765625 71.46875 244.300781 72.394531 C 244.113281 72.671875 244.019531 72.949219 243.835938 73.230469 C 243.464844 74.15625 243.835938 75.265625 244.765625 75.726562 Z M 244.765625 75.726562 "/>
<path style=" stroke:none;fill-rule:nonzero;fill:rgb(49.409485%,85.099792%,34.118652%);fill-opacity:1;" d="M 260.5625 52.492188 C 260.28125 52.675781 260.097656 52.863281 259.820312 53.046875 C 258.980469 53.695312 258.890625 54.898438 259.539062 55.640625 C 259.910156 56.101562 260.46875 56.285156 260.933594 56.285156 C 261.304688 56.285156 261.769531 56.195312 262.140625 55.824219 C 262.328125 55.640625 262.605469 55.453125 262.886719 55.269531 C 263.722656 54.621094 263.8125 53.507812 263.164062 52.675781 C 262.511719 52.027344 261.304688 51.9375 260.5625 52.492188 Z M 260.5625 52.492188 "/>
<path style=" stroke:none;fill-rule:nonzero;fill:rgb(49.409485%,85.099792%,34.118652%);fill-opacity:1;" d="M 240.582031 108.316406 C 241.605469 108.222656 242.347656 107.296875 242.164062 106.277344 C 242.164062 106 242.070312 105.722656 242.070312 105.351562 C 241.976562 104.335938 241.046875 103.59375 240.027344 103.6875 C 239.003906 103.78125 238.261719 104.707031 238.351562 105.722656 C 238.351562 106 238.445312 106.371094 238.445312 106.648438 C 238.539062 107.574219 239.375 108.222656 240.304688 108.222656 C 240.398438 108.316406 240.488281 108.316406 240.582031 108.316406 Z M 240.582031 108.316406 "/>
<path style=" stroke:none;fill-rule:nonzero;fill:rgb(49.409485%,85.099792%,34.118652%);fill-opacity:1;" d="M 267.71875 47.675781 C 267.4375 47.863281 267.160156 47.953125 266.878906 48.140625 C 266.042969 48.695312 265.671875 49.804688 266.230469 50.640625 C 266.601562 51.195312 267.160156 51.566406 267.808594 51.566406 C 268.183594 51.566406 268.460938 51.472656 268.738281 51.289062 C 269.019531 51.101562 269.296875 51.011719 269.484375 50.824219 C 270.410156 50.269531 270.691406 49.160156 270.132812 48.324219 C 269.667969 47.492188 268.554688 47.214844 267.71875 47.675781 Z M 267.71875 47.675781 "/>
<path style=" stroke:none;fill-rule:nonzero;fill:rgb(49.409485%,85.099792%,34.118652%);fill-opacity:1;" d="M 238.910156 88.6875 C 238.816406 88.96875 238.816406 89.335938 238.722656 89.613281 C 238.539062 90.632812 239.28125 91.558594 240.304688 91.746094 C 240.398438 91.746094 240.488281 91.746094 240.582031 91.746094 C 241.511719 91.746094 242.253906 91.097656 242.441406 90.171875 C 242.535156 89.894531 242.535156 89.613281 242.628906 89.246094 C 242.8125 88.226562 242.164062 87.300781 241.140625 87.117188 C 240.027344 86.929688 239.097656 87.671875 238.910156 88.6875 Z M 238.910156 88.6875 "/>
<path style=" stroke:none;fill-rule:nonzero;fill:rgb(49.409485%,85.099792%,34.118652%);fill-opacity:1;" d="M 240.953125 80.355469 C 240.863281 80.636719 240.769531 81.003906 240.675781 81.28125 C 240.398438 82.300781 240.953125 83.320312 241.882812 83.597656 C 242.070312 83.691406 242.253906 83.691406 242.441406 83.691406 C 243.277344 83.691406 243.929688 83.226562 244.207031 82.394531 C 244.300781 82.023438 244.394531 81.746094 244.484375 81.46875 C 244.765625 80.542969 244.300781 79.429688 243.277344 79.152344 C 242.347656 78.785156 241.328125 79.339844 240.953125 80.355469 Z M 240.953125 80.355469 "/>
<g clip-path="url(#clip8)" clip-rule="nonzero">
<path style=" stroke:none;fill-rule:nonzero;fill:rgb(49.409485%,85.099792%,34.118652%);fill-opacity:1;" d="M 237.980469 97.207031 C 237.980469 97.484375 237.980469 97.855469 237.980469 98.132812 C 237.980469 99.152344 238.816406 99.984375 239.839844 99.984375 C 240.863281 99.984375 241.699219 99.152344 241.699219 98.132812 C 241.699219 97.855469 241.699219 97.578125 241.699219 97.207031 C 241.699219 96.1875 240.953125 95.355469 239.933594 95.261719 C 238.910156 95.355469 238.074219 96.1875 237.980469 97.207031 Z M 237.980469 97.207031 "/>
</g>
<g clip-path="url(#clip9)" clip-rule="nonzero">
<path style=" stroke:none;fill-rule:nonzero;fill:rgb(49.409485%,85.099792%,34.118652%);fill-opacity:1;" d="M 299.871094 39.808594 C 298.847656 39.808594 298.011719 40.546875 297.917969 41.566406 C 297.917969 42.585938 298.660156 43.417969 299.683594 43.511719 C 299.960938 43.511719 300.242188 43.511719 300.613281 43.511719 C 300.613281 43.511719 300.707031 43.511719 300.707031 43.511719 C 301.726562 43.511719 302.472656 42.769531 302.5625 41.753906 C 302.65625 40.734375 301.820312 39.902344 300.796875 39.808594 C 300.425781 39.808594 300.148438 39.808594 299.871094 39.808594 Z M 299.871094 39.808594 "/>
</g>
<path style=" stroke:none;fill-rule:nonzero;fill:rgb(49.409485%,85.099792%,34.118652%);fill-opacity:1;" d="M 308.417969 40.734375 C 307.394531 40.546875 306.46875 41.195312 306.28125 42.214844 C 306.003906 43.234375 306.746094 44.25 307.675781 44.4375 C 307.953125 44.53125 308.230469 44.53125 308.605469 44.621094 C 308.695312 44.621094 308.882812 44.621094 308.976562 44.621094 C 309.8125 44.621094 310.648438 43.972656 310.835938 43.140625 C 311.019531 42.121094 310.371094 41.195312 309.347656 40.917969 C 309.070312 40.917969 308.695312 40.828125 308.417969 40.734375 Z M 308.417969 40.734375 "/>
<path style=" stroke:none;fill-rule:nonzero;fill:rgb(49.409485%,85.099792%,34.118652%);fill-opacity:1;" d="M 275.429688 43.972656 C 275.152344 44.066406 274.871094 44.25 274.59375 44.34375 C 273.664062 44.714844 273.199219 45.824219 273.570312 46.75 C 273.851562 47.492188 274.59375 47.863281 275.242188 47.863281 C 275.523438 47.863281 275.707031 47.769531 275.988281 47.675781 C 276.265625 47.585938 276.546875 47.492188 276.824219 47.308594 C 277.753906 46.9375 278.21875 45.824219 277.847656 44.898438 C 277.472656 44.066406 276.359375 43.605469 275.429688 43.972656 Z M 275.429688 43.972656 "/>
<path style=" stroke:none;fill-rule:nonzero;fill:rgb(49.409485%,85.099792%,34.118652%);fill-opacity:1;" d="M 315.574219 46.472656 C 315.851562 46.566406 316.132812 46.660156 316.410156 46.75 C 316.59375 46.84375 316.875 46.84375 317.058594 46.84375 C 317.804688 46.84375 318.546875 46.382812 318.824219 45.640625 C 319.199219 44.714844 318.640625 43.605469 317.710938 43.234375 C 317.433594 43.140625 317.058594 43.046875 316.78125 42.957031 C 315.851562 42.585938 314.738281 43.140625 314.457031 44.066406 C 314.085938 45.085938 314.550781 46.101562 315.574219 46.472656 Z M 315.574219 46.472656 "/>
<path style=" stroke:none;fill-rule:nonzero;fill:rgb(49.409485%,85.099792%,34.118652%);fill-opacity:1;" d="M 283.605469 41.382812 C 283.328125 41.472656 282.957031 41.566406 282.679688 41.566406 C 281.65625 41.84375 281.097656 42.863281 281.378906 43.789062 C 281.5625 44.621094 282.304688 45.175781 283.144531 45.175781 C 283.328125 45.175781 283.421875 45.175781 283.605469 45.085938 C 283.886719 44.992188 284.164062 44.898438 284.445312 44.898438 C 285.464844 44.621094 286.023438 43.695312 285.835938 42.679688 C 285.652344 41.753906 284.628906 41.105469 283.605469 41.382812 Z M 283.605469 41.382812 "/>
<g clip-path="url(#clip10)" clip-rule="nonzero">
<path style=" stroke:none;fill-rule:nonzero;fill:rgb(49.409485%,85.099792%,34.118652%);fill-opacity:1;" d="M 291.226562 40.085938 C 290.203125 40.179688 289.460938 41.105469 289.554688 42.121094 C 289.648438 43.046875 290.484375 43.789062 291.414062 43.789062 C 291.507812 43.789062 291.507812 43.789062 291.597656 43.789062 C 291.878906 43.789062 292.15625 43.695312 292.527344 43.695312 C 293.550781 43.605469 294.292969 42.679688 294.199219 41.660156 C 294.109375 40.640625 293.179688 39.902344 292.15625 39.992188 C 291.878906 39.992188 291.507812 40.085938 291.226562 40.085938 Z M 291.226562 40.085938 "/>
</g>
<g clip-path="url(#clip11)" clip-rule="nonzero">
<path style=" stroke:none;fill-rule:nonzero;fill:rgb(49.409485%,85.099792%,34.118652%);fill-opacity:1;" d="M 298.011719 154.605469 L 297.082031 154.605469 C 296.058594 154.605469 295.222656 155.4375 295.222656 156.457031 C 295.222656 157.476562 296.058594 158.308594 297.082031 158.308594 L 298.011719 158.308594 C 299.03125 158.308594 299.871094 157.476562 299.871094 156.457031 C 299.871094 155.4375 299.03125 154.605469 298.011719 154.605469 Z M 298.011719 154.605469 "/>
</g>
<path style=" stroke:none;fill-rule:nonzero;fill:rgb(49.409485%,85.099792%,34.118652%);fill-opacity:1;" d="M 282.027344 152.476562 C 281.75 152.382812 281.46875 152.289062 281.191406 152.199219 C 280.167969 151.921875 279.148438 152.476562 278.867188 153.402344 C 278.589844 154.417969 279.148438 155.4375 280.074219 155.714844 C 280.355469 155.808594 280.726562 155.902344 281.003906 155.992188 C 281.191406 156.085938 281.378906 156.085938 281.5625 156.085938 C 282.398438 156.085938 283.144531 155.53125 283.328125 154.699219 C 283.605469 153.773438 283.050781 152.753906 282.027344 152.476562 Z M 282.027344 152.476562 "/>
<path style=" stroke:none;fill-rule:nonzero;fill:rgb(49.409485%,85.099792%,34.118652%);fill-opacity:1;" d="M 289.925781 154.140625 C 289.648438 154.140625 289.367188 154.050781 288.996094 154.050781 C 287.976562 153.863281 287.046875 154.605469 286.859375 155.625 C 286.671875 156.640625 287.417969 157.566406 288.4375 157.753906 C 288.71875 157.84375 289.089844 157.84375 289.367188 157.84375 C 289.460938 157.84375 289.554688 157.84375 289.648438 157.84375 C 290.578125 157.84375 291.320312 157.195312 291.507812 156.269531 C 291.691406 155.160156 290.949219 154.234375 289.925781 154.140625 Z M 289.925781 154.140625 "/>
<path style=" stroke:none;fill-rule:nonzero;fill:rgb(49.409485%,85.099792%,34.118652%);fill-opacity:1;" d="M 274.40625 149.699219 C 274.128906 149.605469 273.851562 149.421875 273.570312 149.328125 C 272.640625 148.863281 271.527344 149.328125 271.0625 150.253906 C 270.597656 151.179688 271.0625 152.289062 271.992188 152.753906 C 272.269531 152.847656 272.550781 153.03125 272.828125 153.125 C 273.105469 153.214844 273.292969 153.308594 273.570312 153.308594 C 274.316406 153.308594 274.964844 152.9375 275.242188 152.199219 C 275.800781 151.179688 275.429688 150.070312 274.40625 149.699219 Z M 274.40625 149.699219 "/>
<path style=" stroke:none;fill-rule:nonzero;fill:rgb(49.409485%,85.099792%,34.118652%);fill-opacity:1;" d="M 313.992188 152.105469 C 313.714844 152.199219 313.4375 152.289062 313.15625 152.382812 C 312.136719 152.660156 311.578125 153.679688 311.855469 154.699219 C 312.136719 155.53125 312.878906 155.992188 313.621094 155.992188 C 313.808594 155.992188 313.992188 155.992188 314.179688 155.902344 C 314.457031 155.808594 314.828125 155.714844 315.109375 155.625 C 316.132812 155.34375 316.59375 154.328125 316.316406 153.308594 C 315.945312 152.382812 314.921875 151.828125 313.992188 152.105469 Z M 313.992188 152.105469 "/>
<path style=" stroke:none;fill-rule:nonzero;fill:rgb(49.409485%,85.099792%,34.118652%);fill-opacity:1;" d="M 306.09375 153.957031 C 305.816406 153.957031 305.539062 154.050781 305.164062 154.050781 C 304.144531 154.234375 303.398438 155.160156 303.585938 156.179688 C 303.679688 157.105469 304.515625 157.753906 305.445312 157.753906 C 305.539062 157.753906 305.628906 157.753906 305.722656 157.753906 C 306.003906 157.753906 306.375 157.660156 306.652344 157.566406 C 307.675781 157.382812 308.324219 156.457031 308.230469 155.4375 C 308.046875 154.417969 307.117188 153.773438 306.09375 153.957031 Z M 306.09375 153.957031 "/>
<path style=" stroke:none;fill-rule:nonzero;fill:rgb(49.409485%,85.099792%,34.118652%);fill-opacity:1;" d="M 243.742188 114.148438 C 243.742188 113.871094 243.648438 113.59375 243.554688 113.316406 C 243.277344 112.296875 242.253906 111.742188 241.328125 112.019531 C 240.304688 112.296875 239.746094 113.316406 240.027344 114.242188 C 240.117188 114.519531 240.210938 114.890625 240.304688 115.167969 C 240.488281 116 241.328125 116.554688 242.070312 116.554688 C 242.253906 116.554688 242.441406 116.554688 242.535156 116.460938 C 243.464844 116.183594 244.019531 115.167969 243.742188 114.148438 Z M 243.742188 114.148438 "/>
<path style=" stroke:none;fill-rule:nonzero;fill:rgb(49.409485%,85.099792%,34.118652%);fill-opacity:1;" d="M 267.34375 145.808594 C 267.066406 145.625 266.878906 145.441406 266.601562 145.347656 C 265.765625 144.792969 264.558594 144.976562 264 145.902344 C 263.441406 146.734375 263.628906 147.9375 264.558594 148.496094 C 264.835938 148.679688 265.113281 148.863281 265.394531 149.050781 C 265.671875 149.234375 266.042969 149.328125 266.417969 149.328125 C 267.066406 149.328125 267.625 149.050781 267.996094 148.496094 C 268.460938 147.570312 268.183594 146.367188 267.34375 145.808594 Z M 267.34375 145.808594 "/>
<path style=" stroke:none;fill-rule:nonzero;fill:rgb(49.409485%,85.099792%,34.118652%);fill-opacity:1;" d="M 246.53125 121.738281 C 246.4375 121.460938 246.25 121.183594 246.160156 120.90625 C 245.785156 119.980469 244.671875 119.519531 243.742188 119.886719 C 242.8125 120.257812 242.347656 121.371094 242.71875 122.296875 C 242.8125 122.574219 243 122.851562 243.09375 123.128906 C 243.371094 123.777344 244.113281 124.238281 244.765625 124.238281 C 245.042969 124.238281 245.320312 124.148438 245.507812 124.054688 C 246.53125 123.777344 246.996094 122.664062 246.53125 121.738281 Z M 246.53125 121.738281 "/>
<path style=" stroke:none;fill-rule:nonzero;fill:rgb(49.409485%,85.099792%,34.118652%);fill-opacity:1;" d="M 249.875 128.035156 C 249.316406 127.203125 248.203125 126.925781 247.367188 127.386719 C 246.53125 127.941406 246.25 129.054688 246.714844 129.980469 C 246.902344 130.257812 247.085938 130.535156 247.179688 130.8125 C 247.550781 131.367188 248.109375 131.644531 248.761719 131.644531 C 249.132812 131.644531 249.410156 131.554688 249.78125 131.367188 C 250.617188 130.8125 250.898438 129.703125 250.339844 128.777344 C 250.152344 128.589844 250.0625 128.3125 249.875 128.035156 Z M 249.875 128.035156 "/>
<path style=" stroke:none;fill-rule:nonzero;fill:rgb(49.409485%,85.099792%,34.118652%);fill-opacity:1;" d="M 251.828125 67.117188 C 252.382812 66.285156 252.199219 65.082031 251.363281 64.527344 C 250.527344 63.972656 249.316406 64.15625 248.761719 64.988281 C 248.574219 65.265625 248.390625 65.542969 248.203125 65.730469 C 247.644531 66.5625 247.832031 67.765625 248.667969 68.320312 C 248.945312 68.507812 249.316406 68.601562 249.691406 68.601562 C 250.246094 68.601562 250.898438 68.320312 251.269531 67.765625 C 251.457031 67.582031 251.640625 67.394531 251.828125 67.117188 Z M 251.828125 67.117188 "/>
<path style=" stroke:none;fill-rule:nonzero;fill:rgb(49.409485%,85.099792%,34.118652%);fill-opacity:1;" d="M 254.613281 134.609375 C 253.964844 133.867188 252.757812 133.683594 252.011719 134.332031 C 251.269531 134.976562 251.082031 136.183594 251.734375 136.921875 C 251.917969 137.199219 252.105469 137.386719 252.382812 137.664062 C 252.757812 138.125 253.3125 138.3125 253.777344 138.3125 C 254.242188 138.3125 254.613281 138.125 254.988281 137.847656 C 255.730469 137.199219 255.824219 135.996094 255.171875 135.257812 C 254.988281 135.070312 254.800781 134.792969 254.613281 134.609375 Z M 254.613281 134.609375 "/>
<path style=" stroke:none;fill-rule:nonzero;fill:rgb(49.409485%,85.099792%,34.118652%);fill-opacity:1;" d="M 260.191406 140.441406 C 259.445312 139.792969 258.238281 139.792969 257.589844 140.53125 C 256.9375 141.273438 256.9375 142.476562 257.679688 143.125 C 257.960938 143.308594 258.144531 143.589844 258.425781 143.773438 C 258.796875 144.050781 259.167969 144.234375 259.632812 144.234375 C 260.191406 144.234375 260.65625 144.050781 261.027344 143.589844 C 261.675781 142.847656 261.585938 141.644531 260.839844 140.996094 C 260.65625 140.8125 260.46875 140.625 260.191406 140.441406 Z M 260.191406 140.441406 "/>
<path style=" stroke:none;fill-rule:nonzero;fill:rgb(49.409485%,85.099792%,34.118652%);fill-opacity:1;" d="M 327.375 147.660156 L 320.035156 146.828125 C 319.011719 146.734375 318.082031 147.476562 317.988281 148.496094 C 317.898438 149.511719 318.640625 150.4375 319.664062 150.53125 L 323.84375 150.996094 L 321.335938 154.328125 C 320.683594 155.160156 320.871094 156.269531 321.707031 156.917969 C 322.078125 157.195312 322.449219 157.289062 322.820312 157.289062 C 323.378906 157.289062 323.9375 157.011719 324.308594 156.550781 L 328.769531 150.625 C 329.140625 150.070312 329.234375 149.421875 328.953125 148.773438 C 328.675781 148.21875 328.027344 147.753906 327.375 147.660156 Z M 327.375 147.660156 "/>
<g clip-path="url(#clip12)" clip-rule="nonzero">
<path style=" stroke:none;fill-rule:nonzero;fill:rgb(49.409485%,85.099792%,34.118652%);fill-opacity:1;" d="M 356.183594 154.050781 L 300.519531 112.851562 L 307.117188 104.148438 C 307.675781 104.519531 354.136719 132.109375 354.230469 132.199219 C 355.066406 132.664062 356.273438 132.386719 356.832031 131.554688 C 357.390625 130.628906 357.109375 129.515625 356.183594 129.054688 L 309.441406 101.28125 L 313.621094 95.726562 C 313.902344 95.449219 313.992188 95.078125 313.992188 94.613281 C 313.992188 94.242188 313.902344 93.875 313.714844 93.503906 L 305.816406 81.46875 C 311.484375 66.101562 333.230469 59.0625 333.414062 58.972656 C 334.25 58.695312 334.714844 57.953125 334.714844 57.121094 C 334.714844 56.285156 334.160156 55.546875 333.320312 55.359375 C 305.445312 48.324219 292.527344 65.542969 291.597656 66.839844 L 266.230469 99.984375 C 265.859375 100.445312 265.765625 101.003906 265.953125 101.558594 C 265.953125 101.742188 266.042969 101.929688 266.136719 102.113281 L 271.15625 110.628906 L 269.203125 113.128906 L 260.375 109.796875 C 259.632812 109.519531 258.703125 109.796875 258.238281 110.445312 L 252.292969 118.222656 C 251.269531 119.519531 250.804688 121.183594 251.082031 122.851562 C 251.175781 123.222656 251.269531 123.683594 251.363281 124.054688 C 251.734375 125.164062 252.476562 126.183594 253.5 126.925781 L 272.457031 140.71875 C 273.570312 141.550781 274.78125 141.921875 276.082031 141.921875 C 277.9375 141.921875 279.890625 141.089844 281.097656 139.421875 L 286.582031 132.199219 C 286.953125 131.738281 287.046875 131.089844 286.859375 130.628906 C 286.765625 130.441406 286.765625 130.257812 286.582031 130.070312 L 281.75 122.574219 L 284.351562 119.148438 L 292.25 121.460938 C 292.992188 121.648438 293.828125 121.460938 294.292969 120.8125 L 298.011719 115.816406 C 298.476562 116.183594 353.671875 157.011719 353.765625 157.011719 C 354.601562 157.566406 355.71875 157.476562 356.367188 156.640625 C 357.203125 155.808594 357.019531 154.605469 356.183594 154.050781 Z M 292.527344 83.414062 C 292.15625 83.96875 291.597656 84.246094 290.949219 84.246094 C 290.578125 84.246094 290.203125 84.152344 289.925781 83.96875 L 285.558594 81.003906 L 287.789062 78.042969 L 291.96875 80.820312 C 292.808594 81.46875 293.085938 82.578125 292.527344 83.414062 Z M 292.527344 83.414062 "/>
</g>
<g clip-path="url(#clip13)" clip-rule="nonzero">
<path style=" stroke:none;fill-rule:nonzero;fill:rgb(100%,34.118652%,34.118652%);fill-opacity:1;" d="M 149.976562 45.90625 C 146.9375 47.894531 143.332031 49.269531 140.171875 50.195312 C 134.550781 51.832031 128.855469 52.140625 123.085938 51.117188 C 113.34375 49.417969 106.730469 45.25 102.828125 41.960938 C 102.523438 41.703125 102.199219 41.472656 101.855469 41.273438 C 101.511719 41.074219 101.152344 40.90625 100.777344 40.769531 C 100.40625 40.632812 100.023438 40.53125 99.628906 40.460938 C 99.238281 40.390625 98.84375 40.355469 98.445312 40.355469 C 98.046875 40.355469 97.652344 40.390625 97.257812 40.460938 C 96.867188 40.53125 96.484375 40.632812 96.109375 40.769531 C 95.738281 40.90625 95.378906 41.074219 95.035156 41.273438 C 94.691406 41.472656 94.367188 41.703125 94.0625 41.960938 C 90.160156 45.25 83.546875 49.417969 73.800781 51.117188 C 68.035156 52.140625 62.339844 51.832031 56.714844 50.199219 C 53.554688 49.269531 49.949219 47.894531 46.90625 45.90625 C 46.320312 45.523438 45.675781 45.324219 44.976562 45.304688 C 44.273438 45.285156 43.621094 45.445312 43.011719 45.792969 C 42.402344 46.140625 41.929688 46.621094 41.59375 47.230469 C 41.253906 47.84375 41.101562 48.5 41.132812 49.195312 C 41.726562 62.601562 43.222656 86.769531 46.824219 108.28125 C 47.292969 111.09375 47.992188 113.851562 48.929688 116.546875 C 49.867188 119.242188 51.027344 121.839844 52.40625 124.339844 C 53.785156 126.835938 55.367188 129.203125 57.148438 131.433594 C 58.933594 133.667969 60.890625 135.730469 63.027344 137.632812 C 70.351562 144.132812 80.5 151.621094 92.730469 156.78125 C 94.558594 157.550781 96.464844 157.933594 98.449219 157.933594 C 100.433594 157.933594 102.339844 157.546875 104.167969 156.777344 C 116.390625 151.617188 126.535156 144.132812 133.859375 137.632812 C 135.992188 135.734375 137.953125 133.667969 139.738281 131.433594 C 141.523438 129.199219 143.105469 126.832031 144.484375 124.332031 C 145.863281 121.832031 147.023438 119.234375 147.960938 116.535156 C 148.898438 113.839844 149.597656 111.082031 150.066406 108.265625 C 153.667969 86.757812 155.164062 62.605469 155.753906 49.203125 C 155.785156 48.503906 155.632812 47.847656 155.292969 47.234375 C 154.957031 46.625 154.484375 46.144531 153.875 45.796875 C 153.265625 45.449219 152.609375 45.285156 151.910156 45.304688 C 151.210938 45.324219 150.566406 45.527344 149.976562 45.90625 Z M 123.636719 120.988281 C 123.636719 120.988281 121.269531 132.636719 104.433594 137.585938 C 98.300781 139.386719 91.765625 139.496094 85.644531 137.644531 C 78.367188 135.441406 70.019531 130.109375 68.464844 117.320312 C 67.941406 112.824219 68.339844 108.414062 69.660156 104.085938 C 72.636719 94.09375 81.488281 72.289062 103.398438 64.738281 C 104.050781 64.511719 104.714844 64.472656 105.390625 64.621094 C 106.066406 64.765625 106.65625 65.074219 107.160156 65.546875 C 107.664062 66.015625 108.007812 66.585938 108.195312 67.25 C 108.378906 67.910156 108.382812 68.574219 108.199219 69.238281 C 107.816406 70.609375 107.554688 72.003906 107.410156 73.417969 C 106.726562 80.195312 109.296875 86.882812 114.175781 91.660156 C 119.28125 96.65625 126.90625 107.335938 123.636719 120.988281 Z M 128.96875 84.390625 C 128.425781 85.152344 127.738281 85.75 126.90625 86.179688 C 126.074219 86.609375 125.1875 86.824219 124.25 86.824219 C 122.242188 86.785156 120.652344 85.714844 119.472656 84.460938 C 118.464844 83.367188 117.726562 82.117188 117.257812 80.710938 C 116.789062 79.304688 116.632812 77.863281 116.785156 76.390625 C 117.148438 72.503906 118.816406 69.214844 120.28125 67 C 120.488281 66.695312 120.753906 66.460938 121.085938 66.296875 C 121.417969 66.136719 121.765625 66.070312 122.132812 66.09375 C 122.503906 66.121094 122.839844 66.234375 123.144531 66.441406 C 123.449219 66.648438 123.683594 66.914062 123.84375 67.246094 C 125.164062 69.902344 127.15625 72.4375 128.21875 73.703125 C 129.171875 74.820312 129.847656 76.078125 130.253906 77.488281 C 130.597656 78.671875 130.660156 79.875 130.433594 81.089844 C 130.207031 82.304688 129.71875 83.40625 128.96875 84.390625 Z M 128.96875 84.390625 "/>
</g>
<path style=" stroke:none;fill-rule:nonzero;fill:rgb(100%,34.118652%,34.118652%);fill-opacity:1;" d="M 106.992188 102.644531 C 106.320312 100.445312 103.496094 99.484375 101.402344 100.761719 C 101.132812 100.929688 100.851562 101.082031 100.5625 101.222656 C 98.644531 102.148438 96.277344 101.445312 95.398438 99.648438 C 94.855469 98.542969 94.460938 96.949219 94.652344 94.695312 C 94.839844 92.5 91.867188 91.359375 90.234375 92.992188 C 88.421875 94.777344 86.882812 96.769531 85.609375 98.96875 C 84.335938 101.167969 83.375 103.496094 82.730469 105.953125 C 82.183594 108 81.992188 110.078125 82.160156 112.191406 C 82.324219 114.304688 82.839844 116.332031 83.703125 118.269531 C 85.617188 122.476562 89.542969 126.882812 97.585938 126.339844 C 97.585938 126.339844 109.691406 125.523438 108.464844 110.71875 C 108.265625 107.976562 107.773438 105.28125 106.992188 102.644531 Z M 106.992188 102.644531 "/>
<g clip-path="url(#clip14)" clip-rule="nonzero">
<path style=" stroke:none;fill-rule:nonzero;fill:rgb(85.099792%,85.099792%,85.099792%);fill-opacity:1;" d="M 258.445312 207.410156 C 254.460938 195.277344 243.277344 189.746094 239.777344 188.292969 C 237.832031 180.914062 232.484375 176.9375 228.109375 174.898438 L 228.109375 160.144531 C 228.109375 153.742188 222.859375 148.5 216.441406 148.5 L 179.488281 148.5 C 173.070312 148.5 167.820312 153.742188 167.820312 160.144531 L 167.820312 174.898438 C 163.445312 176.9375 158.097656 180.914062 156.152344 188.292969 C 152.652344 189.746094 141.46875 195.277344 137.484375 207.410156 C 136.023438 209.351562 134.46875 213.523438 137.386719 218.183594 C 137.675781 220.125 139.523438 226.625 149.832031 232.160156 L 160.722656 240.40625 L 162.277344 243.707031 C 162.472656 244.097656 162.863281 244.484375 163.25 244.679688 L 167.917969 246.714844 L 167.917969 255.355469 C 167.917969 261.757812 173.167969 267 179.585938 267 L 216.539062 267 C 222.953125 267 228.207031 261.757812 228.207031 255.355469 L 228.207031 246.714844 L 232.875 244.679688 C 233.261719 244.484375 233.652344 244.191406 233.84375 243.707031 L 235.402344 240.40625 L 246.292969 232.160156 C 256.597656 226.625 258.347656 220.222656 258.738281 218.183594 C 261.460938 213.523438 259.90625 209.253906 258.445312 207.410156 Z M 165.390625 241.28125 L 163.929688 238.175781 C 163.835938 237.882812 163.640625 237.691406 163.347656 237.496094 L 151.972656 228.859375 C 151.875 228.761719 151.777344 228.761719 151.679688 228.664062 C 141.664062 223.421875 141.179688 217.601562 141.179688 217.40625 C 141.179688 217.019531 141.082031 216.726562 140.886719 216.4375 C 138.359375 212.652344 140.496094 209.933594 140.691406 209.640625 C 140.886719 209.449219 140.984375 209.15625 141.082031 208.964844 C 144.96875 196.445312 158.292969 191.6875 158.484375 191.589844 C 159.167969 191.398438 159.652344 190.816406 159.75 190.136719 C 160.917969 184.410156 164.515625 181.109375 167.917969 179.167969 L 167.917969 205.953125 C 162.863281 210.808594 156.734375 210.417969 156.445312 210.417969 C 155.667969 210.320312 154.792969 210.808594 154.5 211.582031 C 154.109375 212.359375 154.304688 213.234375 154.984375 213.816406 C 157.707031 216.339844 160.625 223.714844 161.597656 226.335938 C 161.695312 226.53125 161.792969 226.722656 161.890625 226.917969 C 163.25 228.566406 165.875 230.507812 168.015625 231.964844 L 168.015625 242.445312 Z M 167.820312 211 L 167.820312 227.113281 C 166.652344 226.238281 165.585938 225.363281 165 224.589844 C 164.417969 223.035156 162.472656 217.890625 160.042969 214.011719 C 162.179688 213.71875 165 212.84375 167.820312 211 Z M 208.855469 152.382812 L 208.273438 153.449219 C 207.785156 154.421875 206.328125 155.292969 205.257812 155.292969 L 190.671875 155.292969 C 189.699219 155.292969 188.242188 154.421875 187.65625 153.449219 L 187.074219 152.382812 Z M 224.21875 255.257812 C 224.21875 259.527344 220.71875 263.019531 216.441406 263.019531 L 179.488281 263.019531 C 175.210938 263.019531 171.710938 259.527344 171.710938 255.257812 L 171.710938 160.144531 C 171.710938 155.875 175.210938 152.382812 179.488281 152.382812 L 182.699219 152.382812 L 184.253906 155.292969 C 185.421875 157.527344 188.242188 159.175781 190.671875 159.175781 L 205.355469 159.175781 C 207.785156 159.175781 210.605469 157.527344 211.773438 155.292969 L 213.328125 152.382812 L 216.441406 152.382812 C 220.71875 152.382812 224.21875 155.875 224.21875 160.144531 Z M 228.109375 211 C 230.929688 212.84375 233.75 213.71875 235.984375 214.105469 C 233.457031 217.988281 231.511719 223.132812 231.027344 224.683594 C 230.34375 225.460938 229.273438 226.335938 228.207031 227.207031 L 228.207031 211 Z M 255.140625 216.4375 C 254.945312 216.726562 254.847656 217.117188 254.847656 217.40625 C 254.847656 217.699219 254.363281 223.421875 244.25 228.761719 C 244.152344 228.761719 244.054688 228.859375 243.957031 228.957031 L 232.582031 237.59375 C 232.289062 237.789062 232.09375 237.980469 231.996094 238.273438 L 230.539062 241.28125 L 228.109375 242.347656 L 228.109375 231.867188 C 230.246094 230.410156 232.875 228.46875 234.234375 226.820312 C 234.332031 226.625 234.527344 226.433594 234.527344 226.238281 C 235.402344 223.617188 238.414062 216.242188 241.136719 213.71875 C 241.722656 213.136719 241.917969 212.261719 241.625 211.488281 C 241.234375 210.710938 240.457031 210.226562 239.679688 210.320312 C 239.582031 210.320312 233.359375 210.808594 228.207031 205.859375 L 228.207031 179.167969 C 231.609375 181.109375 235.109375 184.410156 236.375 190.136719 C 236.472656 190.816406 236.957031 191.300781 237.636719 191.589844 C 237.734375 191.589844 251.152344 196.445312 255.042969 208.964844 C 255.140625 209.253906 255.238281 209.449219 255.433594 209.640625 C 255.238281 209.640625 257.667969 212.457031 255.140625 216.4375 Z M 255.140625 216.4375 "/>
</g>
<path style=" stroke:none;fill-rule:nonzero;fill:rgb(85.099792%,85.099792%,85.099792%);fill-opacity:1;" d="M 208.660156 255.257812 L 187.269531 255.257812 C 186.199219 255.257812 185.324219 256.128906 185.324219 257.199219 C 185.324219 258.265625 186.199219 259.140625 187.269531 259.140625 L 208.660156 259.140625 C 209.730469 259.140625 210.605469 258.265625 210.605469 257.199219 C 210.605469 256.128906 209.730469 255.257812 208.660156 255.257812 Z M 208.660156 255.257812 "/>
<path style=" stroke:none;fill-rule:nonzero;fill:rgb(85.099792%,85.099792%,85.099792%);fill-opacity:1;" d="M 187.949219 228.179688 L 210.996094 195.183594 C 211.578125 194.308594 211.382812 193.046875 210.507812 192.464844 C 209.632812 191.882812 208.371094 192.074219 207.785156 192.949219 L 184.742188 225.945312 C 184.15625 226.820312 184.351562 228.082031 185.226562 228.664062 C 185.519531 228.859375 185.90625 229.054688 186.296875 229.054688 C 186.976562 229.054688 187.558594 228.761719 187.949219 228.179688 Z M 187.949219 228.179688 "/>
<path style=" stroke:none;fill-rule:nonzero;fill:rgb(85.099792%,85.099792%,85.099792%);fill-opacity:1;" d="M 212.648438 203.527344 C 211.773438 202.945312 210.507812 203.140625 209.925781 204.011719 L 196.507812 223.421875 C 195.921875 224.296875 196.117188 225.558594 196.992188 226.140625 C 197.285156 226.335938 197.671875 226.53125 198.0625 226.53125 C 198.644531 226.53125 199.324219 226.238281 199.617188 225.65625 L 213.132812 206.34375 C 213.816406 205.371094 213.621094 204.207031 212.648438 203.527344 Z M 212.648438 203.527344 "/>
<path style=" stroke:none;fill-rule:nonzero;fill:rgb(85.099792%,85.099792%,85.099792%);fill-opacity:1;" d="M 185.90625 217.210938 L 199.421875 197.898438 C 200.007812 197.027344 199.8125 195.765625 198.9375 195.183594 C 198.0625 194.597656 196.796875 194.792969 196.214844 195.667969 L 182.796875 214.980469 C 182.210938 215.855469 182.40625 217.117188 183.28125 217.699219 C 183.574219 217.890625 183.960938 218.085938 184.351562 218.085938 C 184.933594 217.988281 185.617188 217.699219 185.90625 217.210938 Z M 185.90625 217.210938 "/>
</g>
</svg>
