<?xml version="1.0" encoding="UTF-8"?>
<svg xmlns="http://www.w3.org/2000/svg" xmlns:xlink="http://www.w3.org/1999/xlink" width="396pt" height="296.999993pt" viewBox="0 0 396 296.999993" version="1.2">
<defs>
<clipPath id="clip1">
  <path d="M 187 240 L 271 240 L 271 279.476562 L 187 279.476562 Z M 187 240 "/>
</clipPath>
</defs>
<g id="surface1">
<path style=" stroke:none;fill-rule:nonzero;fill:rgb(36.079407%,88.238525%,90.19928%);fill-opacity:1;" d="M 198.070312 71.378906 C 182.363281 71.378906 169.515625 84.234375 169.515625 99.941406 C 169.515625 115.652344 182.363281 128.503906 198.070312 128.503906 C 213.777344 128.503906 226.625 115.652344 226.625 99.941406 C 226.625 84.234375 213.777344 71.378906 198.070312 71.378906 Z M 198.070312 120.34375 C 186.851562 120.34375 177.671875 111.164062 177.671875 99.941406 C 177.671875 88.722656 186.851562 79.542969 198.070312 79.542969 C 209.289062 79.542969 218.46875 88.722656 218.46875 99.941406 C 218.46875 111.164062 209.289062 120.34375 198.070312 120.34375 Z M 198.070312 120.34375 "/>
<path style=" stroke:none;fill-rule:nonzero;fill:rgb(36.079407%,88.238525%,90.19928%);fill-opacity:1;" d="M 147.488281 134.625 C 148.097656 134.828125 148.710938 135.03125 149.527344 135.238281 L 155.644531 137.683594 C 160.746094 132.378906 167.882812 129.320312 175.226562 128.707031 C 172.574219 126.667969 170.332031 124.21875 168.496094 121.566406 C 160.335938 123.609375 152.585938 128.097656 147.488281 134.625 Z M 147.488281 134.625 "/>
<path style=" stroke:none;fill-rule:nonzero;fill:rgb(36.079407%,88.238525%,90.19928%);fill-opacity:1;" d="M 239.476562 136.664062 L 246.410156 133.808594 C 246.820312 133.605469 247.023438 133.605469 247.429688 133.402344 C 242.332031 127.484375 235.191406 123.402344 227.644531 121.566406 C 225.605469 124.21875 223.363281 126.667969 220.914062 128.707031 C 227.851562 129.320312 234.582031 131.972656 239.476562 136.664062 Z M 239.476562 136.664062 "/>
<path style=" stroke:none;fill-rule:nonzero;fill:rgb(36.079407%,88.238525%,90.19928%);fill-opacity:1;" d="M 272.925781 62.8125 L 272.316406 62.609375 C 270.070312 62.199219 268.03125 63.628906 267.417969 65.871094 C 267.011719 68.117188 268.4375 70.15625 270.683594 70.769531 L 285.164062 73.625 C 285.367188 73.625 285.777344 73.625 285.980469 73.625 C 287 73.625 288.019531 73.214844 288.835938 72.402344 C 289.855469 71.378906 290.265625 69.953125 289.855469 68.726562 L 287 54.242188 C 286.59375 52 284.347656 50.570312 282.105469 50.980469 C 279.863281 51.386719 278.433594 53.632812 278.839844 55.875 L 279.25 57.710938 C 262.117188 42.207031 240.292969 31.394531 216.019531 27.925781 C 216.222656 28.742188 216.425781 29.558594 216.425781 30.578125 C 216.425781 32.414062 216.019531 34.25 215.203125 35.882812 C 237.027344 39.351562 257.015625 48.9375 272.925781 62.8125 Z M 272.925781 62.8125 "/>
<path style=" stroke:none;fill-rule:nonzero;fill:rgb(36.079407%,88.238525%,90.19928%);fill-opacity:1;" d="M 326.773438 139.316406 C 324.9375 138.09375 322.285156 138.5 321.0625 140.542969 L 320.246094 141.96875 C 318.820312 117.488281 310.253906 94.84375 296.382812 76.277344 C 295.976562 77.09375 295.363281 77.703125 294.75 78.316406 C 293.324219 79.746094 291.691406 80.5625 290.058594 81.171875 C 302.707031 98.105469 310.660156 118.710938 312.089844 141.152344 L 311.679688 140.542969 C 310.457031 138.707031 307.804688 138.09375 305.96875 139.316406 C 304.132812 140.542969 303.523438 143.195312 304.746094 145.03125 L 312.902344 157.269531 C 313.71875 158.496094 314.945312 159.105469 316.371094 159.105469 C 317.800781 159.105469 319.023438 158.496094 319.839844 157.269531 L 327.996094 145.03125 C 329.222656 143.195312 328.609375 140.542969 326.773438 139.316406 Z M 326.773438 139.316406 "/>
<path style=" stroke:none;fill-rule:nonzero;fill:rgb(36.079407%,88.238525%,90.19928%);fill-opacity:1;" d="M 316.371094 167.265625 C 314.535156 167.265625 312.699219 166.859375 311.070312 166.042969 C 307.804688 188.078125 298.21875 207.867188 284.144531 223.984375 L 284.347656 223.371094 C 284.757812 221.125 283.328125 219.085938 281.085938 218.476562 C 278.839844 218.066406 276.800781 219.496094 276.191406 221.738281 L 273.335938 236.222656 C 273.128906 237.652344 273.539062 238.875 274.355469 239.894531 C 275.171875 240.710938 276.191406 241.121094 277.210938 241.121094 C 277.414062 241.121094 277.820312 241.121094 278.027344 241.121094 L 292.507812 238.265625 C 294.75 237.855469 296.179688 235.613281 295.769531 233.367188 C 295.363281 231.125 293.121094 229.695312 290.875 230.101562 L 289.242188 230.511719 C 304.746094 213.171875 315.351562 191.339844 319.023438 167.0625 C 318.207031 167.0625 317.390625 167.265625 316.371094 167.265625 Z M 316.371094 167.265625 "/>
<g clip-path="url(#clip1)" clip-rule="nonzero">
<path style=" stroke:none;fill-rule:nonzero;fill:rgb(36.079407%,88.238525%,90.19928%);fill-opacity:1;" d="M 268.644531 245.609375 C 267.214844 244.179688 266.398438 242.546875 265.789062 240.917969 C 248.859375 253.566406 228.257812 261.523438 205.820312 262.949219 L 206.433594 262.542969 C 208.269531 261.316406 208.878906 258.664062 207.65625 256.828125 C 206.433594 254.992188 203.78125 254.382812 201.945312 255.605469 L 189.707031 263.765625 C 188.484375 264.582031 187.871094 265.804688 187.871094 267.234375 C 187.871094 268.664062 188.484375 269.886719 189.707031 270.703125 L 201.945312 278.863281 C 202.558594 279.269531 203.375 279.476562 204.191406 279.476562 C 205.414062 279.476562 206.839844 278.863281 207.65625 277.640625 C 208.878906 275.800781 208.472656 273.152344 206.433594 271.925781 L 205.003906 271.109375 C 229.480469 269.683594 252.121094 261.113281 270.683594 247.242188 C 270.070312 246.832031 269.460938 246.21875 268.644531 245.609375 Z M 268.644531 245.609375 "/>
</g>
<path style=" stroke:none;fill-rule:nonzero;fill:rgb(36.079407%,88.238525%,90.19928%);fill-opacity:1;" d="M 123.214844 235 L 123.828125 235.203125 C 126.070312 235.613281 128.109375 234.183594 128.722656 231.941406 C 129.128906 229.695312 127.703125 227.65625 125.457031 227.042969 L 110.976562 224.1875 C 109.546875 223.984375 108.324219 224.390625 107.304688 225.207031 C 106.285156 226.226562 105.878906 227.65625 106.285156 228.878906 L 109.140625 243.363281 C 109.546875 245.40625 111.179688 246.628906 113.21875 246.628906 C 113.425781 246.628906 113.832031 246.628906 114.035156 246.628906 C 116.28125 246.21875 117.707031 243.976562 117.300781 241.730469 L 116.890625 239.894531 C 134.230469 255.402344 156.054688 266.214844 180.324219 269.683594 C 180.121094 268.867188 179.917969 267.847656 179.917969 267.03125 C 179.917969 265.195312 180.324219 263.359375 181.140625 261.726562 C 159.113281 258.460938 139.125 248.871094 123.214844 235 Z M 123.214844 235 "/>
<path style=" stroke:none;fill-rule:nonzero;fill:rgb(36.079407%,88.238525%,90.19928%);fill-opacity:1;" d="M 84.054688 156.660156 L 84.460938 157.269531 C 85.277344 158.496094 86.5 159.105469 87.929688 159.105469 C 88.742188 159.105469 89.558594 158.902344 90.171875 158.496094 C 92.007812 157.269531 92.621094 154.617188 91.394531 152.78125 L 83.238281 140.542969 C 82.421875 139.316406 81.195312 138.707031 79.769531 138.707031 C 78.339844 138.707031 77.117188 139.316406 76.300781 140.542969 L 68.144531 152.78125 C 66.917969 154.617188 67.328125 157.269531 69.367188 158.496094 C 71.203125 159.71875 73.855469 159.3125 75.078125 157.269531 L 75.894531 155.84375 C 77.320312 180.324219 85.886719 202.96875 99.757812 221.535156 C 100.167969 220.71875 100.777344 220.105469 101.390625 219.496094 C 102.816406 218.066406 104.449219 217.25 106.082031 216.636719 C 93.640625 199.707031 85.683594 179.101562 84.054688 156.660156 Z M 84.054688 156.660156 "/>
<path style=" stroke:none;fill-rule:nonzero;fill:rgb(36.079407%,88.238525%,90.19928%);fill-opacity:1;" d="M 79.769531 130.542969 C 81.605469 130.542969 83.441406 130.953125 85.074219 131.769531 C 88.335938 109.734375 97.921875 89.945312 111.996094 74.03125 L 111.792969 74.644531 C 111.382812 76.890625 112.8125 78.929688 115.054688 79.542969 C 115.261719 79.542969 115.667969 79.542969 115.871094 79.542969 C 117.707031 79.542969 119.542969 78.113281 119.949219 76.277344 L 122.804688 61.792969 C 123.011719 60.363281 122.601562 59.140625 121.785156 58.121094 C 120.765625 57.101562 119.339844 56.691406 118.117188 57.101562 L 103.632812 59.957031 C 101.390625 60.363281 99.960938 62.609375 100.371094 64.851562 C 100.777344 67.097656 103.023438 68.523438 105.265625 68.117188 L 107.101562 67.707031 C 91.394531 84.84375 80.585938 106.675781 77.117188 130.953125 C 77.933594 130.75 78.75 130.542969 79.769531 130.542969 Z M 79.769531 130.542969 "/>
<path style=" stroke:none;fill-rule:nonzero;fill:rgb(36.079407%,88.238525%,90.19928%);fill-opacity:1;" d="M 127.496094 52.203125 C 128.925781 53.632812 129.742188 55.261719 130.351562 56.894531 C 147.28125 44.246094 167.882812 36.289062 190.320312 34.863281 L 189.707031 35.269531 C 187.871094 36.496094 187.261719 39.144531 188.484375 40.984375 C 189.300781 42.207031 190.523438 42.820312 191.953125 42.820312 C 192.765625 42.820312 193.582031 42.613281 194.195312 42.207031 L 206.433594 34.046875 C 207.65625 33.230469 208.269531 32.007812 208.269531 30.578125 C 208.269531 29.148438 207.65625 27.925781 206.433594 27.109375 L 194.195312 18.949219 C 192.359375 17.726562 189.707031 18.132812 188.484375 20.171875 C 187.261719 22.214844 187.871094 24.660156 189.707031 25.886719 L 191.136719 26.90625 C 166.457031 28.128906 143.816406 36.699219 125.253906 50.570312 C 126.070312 50.980469 126.683594 51.589844 127.496094 52.203125 Z M 127.496094 52.203125 "/>
<path style=" stroke:none;fill-rule:nonzero;fill:rgb(36.079407%,88.238525%,90.19928%);fill-opacity:1;" d="M 146.46875 210.925781 L 190.117188 227.246094 C 192.359375 228.0625 195.214844 228.472656 198.070312 228.472656 C 200.722656 228.472656 203.375 228.0625 205.414062 227.453125 L 249.46875 211.742188 C 253.753906 210.3125 257.222656 205.417969 257.222656 200.929688 L 257.222656 193.175781 C 261.914062 191.75 265.378906 187.871094 265.378906 183.382812 L 265.378906 175.632812 C 265.378906 171.144531 261.914062 167.265625 257.222656 165.839844 L 257.222656 146.457031 C 257.222656 142.988281 255.179688 140.746094 252.324219 140.746094 C 251.511719 140.746094 250.695312 140.949219 249.675781 141.355469 L 205.210938 159.71875 C 202.964844 160.535156 200.109375 161.148438 197.253906 161.148438 C 194.601562 161.148438 191.953125 160.738281 189.910156 159.921875 L 146.261719 142.988281 C 145.445312 142.582031 144.425781 142.378906 143.609375 142.378906 C 140.753906 142.378906 138.511719 144.621094 138.511719 148.089844 L 138.511719 165.839844 C 133.820312 167.265625 130.351562 171.144531 130.351562 175.632812 L 130.351562 183.382812 C 130.351562 187.871094 133.820312 191.75 138.511719 193.175781 L 138.511719 199.910156 C 138.921875 204.398438 142.386719 209.5 146.46875 210.925781 Z M 257.222656 183.382812 C 257.222656 184.199219 255.589844 185.628906 253.140625 185.628906 C 250.695312 185.628906 249.0625 184.199219 249.0625 183.382812 L 249.0625 175.632812 C 249.0625 174.816406 250.695312 173.386719 253.140625 173.386719 C 255.589844 173.386719 257.222656 174.816406 257.222656 175.632812 Z M 208.472656 167.265625 L 249.0625 150.335938 L 249.0625 165.839844 C 244.371094 167.265625 240.902344 171.144531 240.902344 175.632812 L 240.902344 183.382812 C 240.902344 187.871094 244.371094 191.75 249.0625 193.175781 L 249.0625 200.929688 C 249.0625 201.949219 247.839844 203.785156 246.820312 204.195312 L 202.761719 219.902344 C 202.558594 219.902344 202.355469 220.105469 202.148438 220.105469 L 202.148438 169.101562 C 204.394531 168.492188 206.636719 167.878906 208.472656 167.265625 Z M 187.261719 167.472656 C 189.503906 168.289062 191.953125 168.898438 193.992188 169.101562 L 193.992188 220.105469 C 193.582031 220.105469 193.175781 219.902344 192.972656 219.902344 L 149.324219 203.582031 C 148.507812 202.96875 147.078125 201.132812 147.078125 199.910156 L 147.078125 193.175781 C 151.769531 191.75 155.238281 187.871094 155.238281 183.382812 L 155.238281 175.632812 C 155.238281 171.144531 151.769531 167.265625 147.078125 165.839844 L 147.078125 151.964844 Z M 138.921875 175.632812 C 138.921875 174.816406 140.550781 173.386719 143 173.386719 C 145.445312 173.386719 147.078125 174.816406 147.078125 175.632812 L 147.078125 183.382812 C 147.078125 184.199219 145.445312 185.628906 143 185.628906 C 140.550781 185.628906 138.921875 184.199219 138.921875 183.382812 Z M 138.921875 175.632812 "/>
</g>
</svg>
