<?xml version="1.0" encoding="UTF-8"?>
<svg xmlns="http://www.w3.org/2000/svg" xmlns:xlink="http://www.w3.org/1999/xlink" width="396pt" height="296.999993pt" viewBox="0 0 396 296.999993" version="1.2">
<defs>
<clipPath id="clip1">
  <path d="M 108.121094 200.449219 L 278 200.449219 L 278 284.417969 L 108.121094 284.417969 Z M 108.121094 200.449219 "/>
</clipPath>
<clipPath id="clip2">
  <path d="M 54 12.210938 L 160 12.210938 L 160 156 L 54 156 Z M 54 12.210938 "/>
</clipPath>
<clipPath id="clip3">
  <path d="M 236 12.210938 L 341.410156 12.210938 L 341.410156 156 L 236 156 Z M 236 12.210938 "/>
</clipPath>
</defs>
<g id="surface1">
<path style=" stroke:none;fill-rule:nonzero;fill:rgb(32.159424%,44.309998%,100%);fill-opacity:1;" d="M 219.035156 202.398438 C 209.429688 213.800781 192.324219 215.261719 180.921875 205.65625 C 169.507812 196.050781 168.046875 178.96875 177.652344 167.570312 C 187.265625 156.175781 204.363281 154.710938 215.773438 164.308594 C 227.1875 173.914062 228.652344 190.996094 219.035156 202.398438 Z M 223.171875 205.890625 C 223.296875 205.742188 223.445312 205.632812 223.605469 205.546875 C 234.808594 191.816406 232.949219 171.53125 219.347656 160.074219 C 205.59375 148.511719 184.996094 150.269531 173.414062 164.007812 C 164.621094 174.441406 163.527344 188.832031 169.546875 200.214844 C 169.6875 200.324219 169.8125 200.464844 169.90625 200.625 C 169.996094 200.804688 170.042969 200.988281 170.058594 201.175781 C 171.910156 204.394531 174.34375 207.359375 177.347656 209.890625 C 179.589844 211.773438 182.003906 213.296875 184.539062 214.480469 C 184.71875 214.480469 184.894531 214.511719 185.066406 214.589844 C 185.242188 214.667969 185.390625 214.78125 185.515625 214.914062 C 191.757812 217.585938 198.628906 218.1875 205.121094 216.808594 C 205.261719 216.71875 205.410156 216.648438 205.578125 216.609375 C 205.757812 216.570312 205.929688 216.570312 206.097656 216.59375 C 212.421875 215.054688 218.339844 211.617188 222.917969 206.363281 C 222.972656 206.191406 223.058594 206.027344 223.171875 205.890625 "/>
<g clip-path="url(#clip1)" clip-rule="nonzero">
<path style=" stroke:none;fill-rule:nonzero;fill:rgb(32.159424%,44.309998%,100%);fill-opacity:1;" d="M 168.105469 203.15625 C 167.640625 202.382812 167.207031 201.59375 166.804688 200.796875 L 123.160156 224.804688 C 123.429688 225.160156 123.683594 225.542969 123.902344 225.9375 C 124.125 226.339844 124.304688 226.75 124.460938 227.167969 Z M 185.152344 217.683594 C 184.320312 217.34375 183.5 216.980469 182.6875 216.578125 L 162.3125 262.003906 C 162.738281 262.128906 163.164062 262.273438 163.589844 262.460938 C 164 262.648438 164.394531 262.863281 164.777344 263.101562 Z M 207.507812 219.015625 C 206.640625 219.25 205.765625 219.449219 204.882812 219.621094 L 215.984375 268.148438 C 216.402344 267.996094 216.835938 267.855469 217.277344 267.753906 C 217.726562 267.65625 218.167969 267.59375 218.617188 267.554688 Z M 225.34375 207.699219 C 225.046875 208.046875 224.746094 208.382812 224.445312 208.714844 L 262.550781 240.78125 C 262.792969 240.402344 263.046875 240.039062 263.34375 239.683594 C 263.636719 239.332031 263.953125 239.015625 264.289062 238.722656 L 226.179688 206.648438 C 225.902344 207.003906 225.628906 207.351562 225.34375 207.699219 Z M 265.410156 241.421875 C 262.878906 244.417969 263.265625 248.90625 266.261719 251.429688 C 269.261719 253.960938 273.761719 253.574219 276.289062 250.578125 C 278.8125 247.578125 278.425781 243.085938 275.429688 240.5625 C 272.429688 238.042969 267.929688 238.421875 265.410156 241.421875 Z M 121.539062 227.242188 C 120.625 225.578125 119.113281 224.371094 117.285156 223.847656 C 115.464844 223.3125 113.542969 223.527344 111.878906 224.441406 C 110.214844 225.355469 109.003906 226.863281 108.476562 228.691406 C 107.949219 230.519531 108.160156 232.4375 109.074219 234.09375 C 109.996094 235.757812 111.507812 236.964844 113.328125 237.492188 C 115.15625 238.019531 117.078125 237.808594 118.742188 236.894531 C 119.515625 236.460938 120.199219 235.90625 120.757812 235.246094 C 121.382812 234.496094 121.855469 233.613281 122.144531 232.644531 C 122.671875 230.820312 122.453125 228.898438 121.539062 227.242188 Z M 217.882812 270.378906 C 216.03125 270.804688 214.449219 271.925781 213.441406 273.527344 C 212.4375 275.140625 212.109375 277.042969 212.535156 278.894531 C 212.957031 280.742188 214.078125 282.320312 215.683594 283.328125 C 217.292969 284.335938 219.199219 284.660156 221.050781 284.242188 C 222.617188 283.886719 223.941406 283.035156 224.902344 281.894531 C 226.289062 280.246094 226.921875 277.988281 226.402344 275.726562 C 225.976562 273.878906 224.863281 272.296875 223.25 271.292969 C 221.640625 270.285156 219.734375 269.960938 217.882812 270.378906 Z M 166.222656 268.878906 C 166.898438 270.648438 166.84375 272.585938 166.070312 274.320312 C 164.457031 277.886719 160.242188 279.496094 156.664062 277.894531 C 154.929688 277.121094 153.605469 275.710938 152.929688 273.9375 C 152.25 272.167969 152.304688 270.230469 153.085938 268.5 C 154.6875 264.921875 158.902344 263.320312 162.484375 264.921875 C 164.21875 265.695312 165.542969 267.105469 166.222656 268.878906 "/>
</g>
<path style=" stroke:none;fill-rule:nonzero;fill:rgb(32.159424%,44.309998%,100%);fill-opacity:1;" d="M 136.367188 106.050781 C 136.367188 105.484375 136.722656 104.984375 137.25 104.789062 L 152.355469 99.207031 C 152.660156 99.101562 152.992188 99.101562 153.292969 99.207031 L 168.402344 104.789062 C 168.929688 104.984375 169.277344 105.484375 169.277344 106.050781 C 169.277344 106.058594 169.277344 106.058594 169.277344 106.058594 L 169.277344 124.851562 C 169.277344 125.507812 168.8125 126.066406 168.167969 126.183594 L 153.0625 132.863281 C 152.984375 132.878906 152.90625 132.878906 152.820312 132.878906 C 152.746094 132.878906 152.667969 132.878906 152.582031 132.863281 L 137.484375 126.183594 C 136.839844 126.066406 136.367188 125.507812 136.367188 124.851562 Z M 152.828125 138.351562 C 166.253906 138.351562 177.1875 127.429688 177.1875 114.015625 C 177.1875 100.601562 166.253906 89.679688 152.828125 89.679688 C 139.394531 89.679688 128.472656 100.601562 128.472656 114.015625 C 128.472656 127.429688 139.394531 138.351562 152.828125 138.351562 "/>
<path style=" stroke:none;fill-rule:nonzero;fill:rgb(32.159424%,44.309998%,100%);fill-opacity:1;" d="M 166.03125 106.050781 L 152.820312 101.910156 L 139.621094 106.050781 L 152.820312 110.199219 Z M 166.582031 123.722656 L 166.582031 107.992188 L 154.171875 112.574219 L 154.179688 129.679688 Z M 151.472656 112.574219 L 151.480469 129.679688 L 139.070312 123.722656 L 139.070312 107.984375 L 151.472656 112.574219 "/>
<path style=" stroke:none;fill-rule:nonzero;fill:rgb(32.159424%,44.309998%,100%);fill-opacity:1;" d="M 181.890625 177.011719 C 181.890625 176.445312 182.238281 175.941406 182.773438 175.75 L 197.871094 170.167969 C 198.171875 170.054688 198.507812 170.054688 198.808594 170.167969 L 213.914062 175.75 C 214.441406 175.941406 214.800781 176.445312 214.800781 177.011719 C 214.800781 177.011719 214.800781 177.019531 214.800781 177.019531 L 214.800781 195.8125 C 214.800781 196.460938 214.328125 197.027344 213.683594 197.144531 L 198.578125 203.816406 C 198.5 203.832031 198.421875 203.839844 198.34375 203.839844 C 198.265625 203.839844 198.179688 203.832031 198.105469 203.816406 L 182.996094 197.144531 C 182.355469 197.027344 181.890625 196.460938 181.890625 195.8125 Z M 198.34375 209.300781 C 211.777344 209.300781 222.699219 198.390625 222.699219 184.976562 C 222.699219 171.554688 211.777344 160.640625 198.34375 160.640625 C 184.917969 160.640625 173.996094 171.554688 173.996094 184.976562 C 173.996094 198.390625 184.917969 209.300781 198.34375 209.300781 "/>
<path style=" stroke:none;fill-rule:nonzero;fill:rgb(32.159424%,44.309998%,100%);fill-opacity:1;" d="M 211.546875 177.011719 L 198.34375 172.871094 L 185.136719 177.011719 L 198.34375 181.152344 Z M 212.09375 194.683594 L 212.09375 178.945312 L 199.691406 183.527344 L 199.691406 200.632812 Z M 196.988281 183.527344 L 196.996094 200.632812 L 184.585938 194.683594 L 184.585938 178.945312 L 196.988281 183.527344 "/>
<path style=" stroke:none;fill-rule:nonzero;fill:rgb(32.159424%,44.309998%,100%);fill-opacity:1;" d="M 179.882812 114.015625 C 179.882812 128.921875 167.742188 141.042969 152.828125 141.042969 C 137.910156 141.042969 125.777344 128.921875 125.777344 114.015625 C 125.777344 99.109375 137.910156 86.988281 152.828125 86.988281 C 167.742188 86.988281 179.882812 99.109375 179.882812 114.015625 Z M 152.296875 81.460938 C 145.324219 81.578125 138.878906 83.882812 133.625 87.730469 C 133.53125 87.878906 133.421875 88.007812 133.277344 88.117188 C 133.136719 88.21875 132.988281 88.289062 132.835938 88.328125 C 127.589844 92.40625 123.632812 98.039062 121.648438 104.542969 C 121.671875 104.71875 121.664062 104.90625 121.609375 105.089844 C 121.5625 105.277344 121.460938 105.425781 121.351562 105.5625 C 120.625 108.257812 120.238281 111.089844 120.238281 114.015625 C 120.238281 117.941406 120.933594 121.707031 122.214844 125.199219 C 122.34375 125.332031 122.453125 125.484375 122.53125 125.671875 C 122.59375 125.851562 122.625 126.035156 122.617188 126.214844 C 127.457031 138.140625 139.171875 146.578125 152.828125 146.578125 C 170.804688 146.578125 185.421875 131.972656 185.421875 114.015625 C 185.421875 96.238281 171.082031 81.746094 153.355469 81.460938 C 153.195312 81.539062 153.015625 81.578125 152.820312 81.578125 C 152.636719 81.578125 152.457031 81.539062 152.296875 81.460938 "/>
<g clip-path="url(#clip2)" clip-rule="nonzero">
<path style=" stroke:none;fill-rule:nonzero;fill:rgb(32.159424%,44.309998%,100%);fill-opacity:1;" d="M 72.941406 143.296875 C 73.152344 143.683594 73.351562 144.085938 73.515625 144.511719 C 73.683594 144.9375 73.800781 145.378906 73.910156 145.8125 L 120.40625 127.933594 C 120.050781 127.113281 119.734375 126.269531 119.441406 125.417969 Z M 71.390625 89.339844 C 71.332031 89.78125 71.253906 90.222656 71.121094 90.664062 C 70.996094 91.105469 70.835938 91.523438 70.65625 91.933594 L 118.554688 105.625 C 118.765625 104.75 119.011719 103.882812 119.300781 103.03125 Z M 102.675781 45.332031 C 102.355469 45.648438 102.023438 45.949219 101.667969 46.21875 C 101.296875 46.5 100.917969 46.738281 100.519531 46.957031 L 130.527344 86.707031 C 131.222656 86.144531 131.945312 85.601562 132.679688 85.089844 Z M 154.171875 78.789062 L 154.171875 29.007812 C 153.726562 29.070312 153.285156 29.109375 152.828125 29.109375 C 152.363281 29.109375 151.914062 29.070312 151.472656 29.007812 L 151.472656 78.789062 C 151.921875 78.773438 152.371094 78.757812 152.828125 78.757812 C 153.277344 78.757812 153.726562 78.773438 154.171875 78.789062 Z M 159.941406 19.308594 C 159.941406 15.390625 156.75 12.203125 152.828125 12.203125 C 148.902344 12.203125 145.71875 15.390625 145.71875 19.308594 C 145.71875 23.226562 148.902344 26.414062 152.828125 26.414062 C 156.75 26.414062 159.941406 23.226562 159.941406 19.308594 Z M 67.246094 141.539062 C 66.324219 141.128906 65.339844 140.925781 64.367188 140.925781 C 63.496094 140.925781 62.636719 141.082031 61.800781 141.398438 C 60.035156 142.082031 58.632812 143.410156 57.859375 145.144531 C 57.089844 146.886719 57.035156 148.8125 57.71875 150.585938 C 58.398438 152.359375 59.734375 153.761719 61.476562 154.527344 C 63.210938 155.300781 65.140625 155.347656 66.914062 154.664062 C 68.6875 153.984375 70.089844 152.652344 70.859375 150.917969 C 71.632812 149.1875 71.679688 147.25 70.996094 145.476562 C 70.316406 143.714844 68.984375 142.3125 67.246094 141.539062 Z M 102.800781 39.386719 C 103.070312 37.503906 102.582031 35.632812 101.433594 34.117188 C 100.039062 32.265625 97.902344 31.289062 95.75 31.289062 C 94.253906 31.289062 92.75 31.753906 91.472656 32.722656 C 89.953125 33.867188 88.976562 35.53125 88.714844 37.414062 C 88.453125 39.285156 88.929688 41.160156 90.078125 42.675781 C 91.21875 44.191406 92.890625 45.167969 94.773438 45.429688 C 96.648438 45.695312 98.523438 45.214844 100.039062 44.070312 C 101.558594 42.929688 102.535156 41.257812 102.800781 39.386719 Z M 68.527344 89.921875 C 67.449219 93.691406 63.503906 95.871094 59.734375 94.796875 C 57.90625 94.277344 56.394531 93.070312 55.472656 91.414062 C 54.550781 89.75 54.324219 87.832031 54.851562 86.011719 C 55.929688 82.242188 59.871094 80.050781 63.644531 81.128906 C 65.472656 81.65625 66.984375 82.855469 67.90625 84.519531 C 68.835938 86.175781 69.050781 88.09375 68.527344 89.921875 "/>
</g>
<path style=" stroke:none;fill-rule:nonzero;fill:rgb(32.159424%,44.309998%,100%);fill-opacity:1;" d="M 259.609375 124.851562 C 259.609375 125.507812 259.144531 126.066406 258.5 126.183594 L 243.394531 132.863281 C 243.316406 132.878906 243.238281 132.878906 243.152344 132.878906 C 243.074219 132.878906 243 132.878906 242.921875 132.863281 L 227.8125 126.183594 C 227.171875 126.066406 226.699219 125.507812 226.699219 124.851562 L 226.699219 106.058594 C 226.699219 106.058594 226.699219 106.058594 226.699219 106.050781 C 226.699219 105.484375 227.054688 104.984375 227.582031 104.789062 L 242.6875 99.207031 C 242.992188 99.101562 243.324219 99.101562 243.625 99.207031 L 258.734375 104.789062 C 259.257812 104.984375 259.609375 105.484375 259.609375 106.050781 Z M 267.511719 114.015625 C 267.511719 100.601562 256.578125 89.679688 243.152344 89.679688 C 229.71875 89.679688 218.796875 100.601562 218.796875 114.015625 C 218.796875 127.429688 229.71875 138.351562 243.152344 138.351562 C 256.578125 138.351562 267.511719 127.429688 267.511719 114.015625 "/>
<path style=" stroke:none;fill-rule:nonzero;fill:rgb(32.159424%,44.309998%,100%);fill-opacity:1;" d="M 243.152344 110.199219 L 256.363281 106.050781 L 243.152344 101.910156 L 229.953125 106.050781 Z M 241.804688 129.679688 L 241.804688 112.574219 L 229.402344 107.992188 L 229.402344 123.722656 Z M 256.914062 107.984375 L 256.914062 123.722656 L 244.5 129.679688 L 244.507812 112.574219 L 256.914062 107.984375 "/>
<path style=" stroke:none;fill-rule:nonzero;fill:rgb(32.159424%,44.309998%,100%);fill-opacity:1;" d="M 243.152344 86.988281 C 258.066406 86.988281 270.207031 99.109375 270.207031 114.015625 C 270.207031 128.921875 258.066406 141.042969 243.152344 141.042969 C 228.234375 141.042969 216.101562 128.921875 216.101562 114.015625 C 216.101562 99.109375 228.234375 86.988281 243.152344 86.988281 Z M 243.152344 81.578125 C 242.96875 81.578125 242.789062 81.539062 242.625 81.460938 C 224.894531 81.746094 210.5625 96.238281 210.5625 114.015625 C 210.5625 131.972656 225.179688 146.578125 243.152344 146.578125 C 256.8125 146.578125 268.523438 138.140625 273.367188 126.214844 C 273.359375 126.035156 273.382812 125.851562 273.453125 125.671875 C 273.523438 125.484375 273.628906 125.332031 273.761719 125.199219 C 275.039062 121.707031 275.746094 117.941406 275.746094 114.015625 C 275.746094 111.089844 275.351562 108.257812 274.621094 105.5625 C 274.515625 105.425781 274.421875 105.277344 274.367188 105.089844 C 274.320312 104.90625 274.304688 104.71875 274.335938 104.542969 C 272.351562 98.039062 268.386719 92.40625 263.148438 88.328125 C 262.992188 88.289062 262.839844 88.21875 262.699219 88.117188 C 262.558594 88.007812 262.445312 87.878906 262.359375 87.730469 C 257.097656 83.882812 250.660156 81.578125 243.6875 81.460938 C 243.523438 81.539062 243.347656 81.578125 243.152344 81.578125 "/>
<g clip-path="url(#clip3)" clip-rule="nonzero">
<path style=" stroke:none;fill-rule:nonzero;fill:rgb(32.159424%,44.309998%,100%);fill-opacity:1;" d="M 276.542969 125.417969 C 276.25 126.269531 275.929688 127.113281 275.574219 127.933594 L 322.074219 145.8125 C 322.175781 145.378906 322.296875 144.9375 322.460938 144.511719 C 322.625 144.085938 322.824219 143.683594 323.042969 143.296875 Z M 276.683594 103.03125 C 276.960938 103.882812 277.210938 104.75 277.425781 105.625 L 325.328125 91.933594 C 325.140625 91.523438 324.984375 91.105469 324.855469 90.664062 C 324.730469 90.222656 324.644531 89.78125 324.582031 89.339844 Z M 263.296875 85.089844 C 264.039062 85.601562 264.761719 86.144531 265.449219 86.707031 L 295.453125 46.957031 C 295.066406 46.738281 294.679688 46.5 294.316406 46.21875 C 293.953125 45.949219 293.617188 45.648438 293.300781 45.332031 Z M 243.152344 78.757812 C 243.601562 78.757812 244.050781 78.773438 244.507812 78.789062 L 244.507812 29.007812 C 244.058594 29.070312 243.609375 29.109375 243.152344 29.109375 C 242.695312 29.109375 242.246094 29.070312 241.804688 29.007812 L 241.804688 78.789062 C 242.253906 78.773438 242.703125 78.757812 243.152344 78.757812 Z M 243.152344 26.414062 C 247.074219 26.414062 250.265625 23.226562 250.265625 19.308594 C 250.265625 15.390625 247.074219 12.203125 243.152344 12.203125 C 239.234375 12.203125 236.042969 15.390625 236.042969 19.308594 C 236.042969 23.226562 239.234375 26.414062 243.152344 26.414062 Z M 324.976562 145.476562 C 324.296875 147.25 324.351562 149.1875 325.117188 150.917969 C 325.890625 152.652344 327.292969 153.984375 329.0625 154.664062 C 330.835938 155.347656 332.773438 155.300781 334.507812 154.527344 C 336.242188 153.761719 337.574219 152.359375 338.257812 150.585938 C 338.9375 148.8125 338.890625 146.886719 338.125 145.144531 C 337.351562 143.410156 335.949219 142.082031 334.175781 141.398438 C 333.34375 141.082031 332.476562 140.925781 331.617188 140.925781 C 330.632812 140.925781 329.65625 141.128906 328.734375 141.539062 C 326.992188 142.3125 325.667969 143.714844 324.976562 145.476562 Z M 295.941406 44.070312 C 297.460938 45.214844 299.328125 45.695312 301.210938 45.429688 C 303.09375 45.167969 304.757812 44.191406 305.90625 42.675781 C 307.042969 41.160156 307.53125 39.285156 307.269531 37.414062 C 307.003906 35.53125 306.019531 33.867188 304.503906 32.722656 C 303.222656 31.753906 301.722656 31.289062 300.234375 31.289062 C 298.074219 31.289062 295.933594 32.265625 294.539062 34.117188 C 293.402344 35.632812 292.914062 37.503906 293.175781 39.386719 C 293.441406 41.257812 294.421875 42.929688 295.941406 44.070312 Z M 328.070312 84.519531 C 328.992188 82.855469 330.511719 81.65625 332.332031 81.128906 C 336.101562 80.050781 340.046875 82.242188 341.132812 86.011719 C 341.648438 87.832031 341.433594 89.75 340.511719 91.414062 C 339.589844 93.070312 338.070312 94.277344 336.25 94.796875 C 332.476562 95.871094 328.527344 93.691406 327.449219 89.921875 C 326.921875 88.09375 327.148438 86.175781 328.070312 84.519531 "/>
</g>
<path style=" stroke:none;fill-rule:nonzero;fill:rgb(32.159424%,44.309998%,100%);fill-opacity:1;" d="M 169.980469 166.011719 C 169.417969 166.792969 168.882812 167.582031 168.386719 168.40625 L 154.300781 149.261719 C 154.480469 149.261719 154.648438 149.277344 154.828125 149.277344 C 155.757812 149.277344 156.664062 149.230469 157.570312 149.164062 Z M 226.542969 165.136719 C 227.125 165.898438 227.683594 166.664062 228.195312 167.453125 L 241.679688 149.125 C 240.652344 149.023438 239.636719 148.882812 238.636719 148.707031 Z M 187.359375 121.808594 C 187.558594 120.917969 187.730469 120.023438 187.863281 119.109375 L 208.113281 119.109375 C 208.253906 120.023438 208.421875 120.917969 208.625 121.808594 L 187.359375 121.808594 "/>
</g>
</svg>
