<?xml version="1.0" encoding="UTF-8"?>
<svg xmlns="http://www.w3.org/2000/svg" xmlns:xlink="http://www.w3.org/1999/xlink" width="396pt" height="296.999993pt" viewBox="0 0 396 296.999993" version="1.2">
<defs>
<clipPath id="clip1">
  <path d="M 81 73.308594 L 375.03125 73.308594 L 375.03125 224.058594 L 81 224.058594 Z M 81 73.308594 "/>
</clipPath>
<clipPath id="clip2">
  <path d="M 156 217 L 180 217 L 180 224.058594 L 156 224.058594 Z M 156 217 "/>
</clipPath>
<clipPath id="clip3">
  <path d="M 128 217 L 152 217 L 152 224.058594 L 128 224.058594 Z M 128 217 "/>
</clipPath>
<clipPath id="clip4">
  <path d="M 51 73.308594 L 75 73.308594 L 75 81 L 51 81 Z M 51 73.308594 "/>
</clipPath>
<clipPath id="clip5">
  <path d="M 95.546875 46.046875 L 300.296875 46.046875 L 300.296875 250.796875 L 95.546875 250.796875 Z M 95.546875 46.046875 "/>
</clipPath>
</defs>
<g id="surface1">
<g clip-path="url(#clip1)" clip-rule="nonzero">
<path style=" stroke:none;fill-rule:nonzero;fill:rgb(49.409485%,85.099792%,34.118652%);fill-opacity:1;" d="M 371.488281 73.335938 L 85.171875 73.335938 C 83.203125 73.335938 81.625 74.917969 81.625 76.890625 C 81.625 78.835938 83.203125 80.417969 85.171875 80.417969 L 367.972656 80.417969 L 367.972656 217.027344 L 188.296875 217.027344 C 186.332031 217.027344 184.753906 218.636719 184.753906 220.582031 C 184.753906 222.554688 186.332031 224.136719 188.296875 224.136719 L 371.488281 224.136719 C 373.453125 224.136719 375.03125 222.554688 375.03125 220.582031 L 375.03125 76.890625 C 375.03125 74.917969 373.453125 73.335938 371.488281 73.335938 "/>
</g>
<path style=" stroke:none;fill-rule:nonzero;fill:rgb(49.409485%,85.099792%,34.118652%);fill-opacity:1;" d="M 333.671875 194 C 333.671875 189.027344 337.710938 184.972656 342.695312 184.972656 C 344.660156 184.972656 346.238281 183.386719 346.238281 181.445312 L 346.238281 116.03125 C 346.238281 114.058594 344.660156 112.472656 342.695312 112.472656 C 337.710938 112.472656 333.671875 108.445312 333.671875 103.472656 C 333.671875 101.53125 332.121094 99.917969 330.15625 99.917969 L 156.125 99.917969 C 154.160156 99.917969 152.582031 101.53125 152.582031 103.472656 C 152.582031 108.445312 148.542969 112.472656 143.585938 112.472656 C 141.621094 112.472656 140.042969 114.058594 140.042969 116.03125 L 140.042969 130.363281 L 103.46875 130.363281 C 101.503906 130.363281 99.925781 131.972656 99.925781 133.917969 C 99.925781 135.890625 101.503906 137.472656 103.46875 137.472656 L 163.601562 137.472656 C 165.566406 137.472656 167.144531 135.890625 167.144531 133.917969 C 167.144531 131.972656 165.566406 130.363281 163.601562 130.363281 L 147.101562 130.363281 L 147.101562 119.167969 C 153.136719 117.835938 157.898438 113.058594 159.253906 107.03125 L 327 107.03125 C 328.355469 113.058594 333.144531 117.835938 339.179688 119.167969 L 339.179688 178.277344 C 333.144531 179.636719 328.355469 184.386719 327 190.441406 L 159.253906 190.441406 C 157.898438 184.386719 153.136719 179.636719 147.101562 178.277344 L 147.101562 148.722656 C 147.101562 146.777344 145.523438 145.195312 143.585938 145.195312 C 141.621094 145.195312 140.042969 146.777344 140.042969 148.722656 L 140.042969 181.445312 C 140.042969 183.386719 141.621094 184.972656 143.585938 184.972656 C 148.542969 184.972656 152.582031 189.027344 152.582031 194 C 152.582031 195.941406 154.160156 197.527344 156.125 197.527344 L 330.15625 197.527344 C 332.121094 197.527344 333.671875 195.941406 333.671875 194 "/>
<path style=" stroke:none;fill-rule:nonzero;fill:rgb(49.409485%,85.099792%,34.118652%);fill-opacity:1;" d="M 216.230469 148.722656 C 216.230469 133.890625 228.300781 121.835938 243.140625 121.835938 C 257.980469 121.835938 270.050781 133.890625 270.050781 148.722656 C 270.050781 163.554688 257.980469 175.636719 243.140625 175.636719 C 228.300781 175.636719 216.230469 163.554688 216.230469 148.722656 Z M 277.109375 148.722656 C 277.109375 129.972656 261.855469 114.75 243.140625 114.75 C 224.398438 114.75 209.144531 129.972656 209.144531 148.722656 C 209.144531 167.472656 224.398438 182.722656 243.140625 182.722656 C 261.855469 182.722656 277.109375 167.472656 277.109375 148.722656 "/>
<path style=" stroke:none;fill-rule:nonzero;fill:rgb(49.409485%,85.099792%,34.118652%);fill-opacity:1;" d="M 305.542969 148.722656 C 305.542969 147.75 306.316406 146.945312 307.3125 146.945312 C 308.3125 146.945312 309.113281 147.75 309.113281 148.722656 C 309.113281 149.722656 308.3125 150.527344 307.3125 150.527344 C 306.316406 150.527344 305.542969 149.722656 305.542969 148.722656 Z M 312.410156 148.722656 C 312.410156 145.917969 310.136719 143.640625 307.3125 143.640625 C 304.492188 143.640625 302.21875 145.917969 302.21875 148.722656 C 302.21875 151.554688 304.492188 153.832031 307.3125 153.832031 C 310.136719 153.832031 312.410156 151.554688 312.410156 148.722656 "/>
<path style=" stroke:none;fill-rule:nonzero;fill:rgb(49.409485%,85.099792%,34.118652%);fill-opacity:1;" d="M 114.792969 175.636719 L 83.039062 175.636719 C 81.074219 175.636719 79.496094 177.222656 79.496094 179.164062 C 79.496094 181.136719 81.074219 182.722656 83.039062 182.722656 L 114.792969 182.722656 C 116.730469 182.722656 118.308594 181.136719 118.308594 179.164062 C 118.308594 177.222656 116.730469 175.636719 114.792969 175.636719 "/>
<path style=" stroke:none;fill-rule:nonzero;fill:rgb(49.409485%,85.099792%,34.118652%);fill-opacity:1;" d="M 68.226562 175.636719 L 52.585938 175.636719 C 50.648438 175.636719 49.042969 177.222656 49.042969 179.164062 C 49.042969 181.136719 50.648438 182.722656 52.585938 182.722656 L 68.226562 182.722656 C 70.164062 182.722656 71.742188 181.136719 71.742188 179.164062 C 71.742188 177.222656 70.164062 175.636719 68.226562 175.636719 "/>
<path style=" stroke:none;fill-rule:nonzero;fill:rgb(49.409485%,85.099792%,34.118652%);fill-opacity:1;" d="M 39.820312 175.636719 L 24.207031 175.636719 C 22.242188 175.636719 20.664062 177.222656 20.664062 179.164062 C 20.664062 181.136719 22.242188 182.722656 24.207031 182.722656 L 39.820312 182.722656 C 41.789062 182.722656 43.367188 181.136719 43.367188 179.164062 C 43.367188 177.222656 41.789062 175.636719 39.820312 175.636719 "/>
<g clip-path="url(#clip2)" clip-rule="nonzero">
<path style=" stroke:none;fill-rule:nonzero;fill:rgb(49.409485%,85.099792%,34.118652%);fill-opacity:1;" d="M 176.003906 217.027344 L 160.390625 217.027344 C 158.425781 217.027344 156.847656 218.636719 156.847656 220.582031 C 156.847656 222.554688 158.425781 224.136719 160.390625 224.136719 L 176.003906 224.136719 C 177.96875 224.136719 179.546875 222.554688 179.546875 220.582031 C 179.546875 218.636719 177.96875 217.027344 176.003906 217.027344 "/>
</g>
<g clip-path="url(#clip3)" clip-rule="nonzero">
<path style=" stroke:none;fill-rule:nonzero;fill:rgb(49.409485%,85.099792%,34.118652%);fill-opacity:1;" d="M 147.628906 217.027344 L 131.984375 217.027344 C 130.046875 217.027344 128.46875 218.636719 128.46875 220.582031 C 128.46875 222.554688 130.046875 224.136719 131.984375 224.136719 L 147.628906 224.136719 C 149.566406 224.136719 151.144531 222.554688 151.144531 220.582031 C 151.144531 218.636719 149.566406 217.027344 147.628906 217.027344 "/>
</g>
<path style=" stroke:none;fill-rule:nonzero;fill:rgb(49.409485%,85.099792%,34.118652%);fill-opacity:1;" d="M 92.203125 133.917969 C 92.203125 131.972656 90.597656 130.363281 88.660156 130.363281 L 73.015625 130.363281 C 71.078125 130.363281 69.472656 131.972656 69.472656 133.917969 C 69.472656 135.890625 71.078125 137.472656 73.015625 137.472656 L 88.660156 137.472656 C 90.597656 137.472656 92.203125 135.890625 92.203125 133.917969 "/>
<path style=" stroke:none;fill-rule:nonzero;fill:rgb(49.409485%,85.099792%,34.118652%);fill-opacity:1;" d="M 63.796875 133.917969 C 63.796875 131.972656 62.21875 130.363281 60.253906 130.363281 L 44.640625 130.363281 C 42.671875 130.363281 41.09375 131.972656 41.09375 133.917969 C 41.09375 135.890625 42.671875 137.472656 44.640625 137.472656 L 60.253906 137.472656 C 62.21875 137.472656 63.796875 135.890625 63.796875 133.917969 "/>
<g clip-path="url(#clip4)" clip-rule="nonzero">
<path style=" stroke:none;fill-rule:nonzero;fill:rgb(49.409485%,85.099792%,34.118652%);fill-opacity:1;" d="M 55.492188 80.417969 L 71.105469 80.417969 C 73.070312 80.417969 74.648438 78.835938 74.648438 76.890625 C 74.648438 74.917969 73.070312 73.335938 71.105469 73.335938 L 55.492188 73.335938 C 53.527344 73.335938 51.949219 74.917969 51.949219 76.890625 C 51.949219 78.835938 53.527344 80.417969 55.492188 80.417969 "/>
</g>
<g clip-path="url(#clip5)" clip-rule="nonzero">
<path style=" stroke:none;fill-rule:nonzero;fill:rgb(100%,74.119568%,34.899902%);fill-opacity:1;" d="M 192.644531 144.105469 L 300.296875 46.046875 L 151.054688 146.984375 L 116.824219 170.179688 L 181.128906 170.179688 L 95.546875 250.796875 L 221.917969 167.296875 L 256.949219 144.105469 Z M 192.644531 144.105469 "/>
</g>
</g>
</svg>
