<?xml version="1.0" encoding="UTF-8"?>
<svg xmlns="http://www.w3.org/2000/svg" xmlns:xlink="http://www.w3.org/1999/xlink" width="396pt" height="296.999993pt" viewBox="0 0 396 296.999993" version="1.2">
<defs>
<clipPath id="clip1">
  <path d="M 66.921875 29.382812 L 329.421875 29.382812 L 329.421875 267.882812 L 66.921875 267.882812 Z M 66.921875 29.382812 "/>
</clipPath>
</defs>
<g id="surface1">
<g clip-path="url(#clip1)" clip-rule="nonzero">
<path style=" stroke:none;fill-rule:nonzero;fill:rgb(0%,50.19989%,21.569824%);fill-opacity:1;" d="M 90.824219 29.382812 C 77.644531 29.382812 66.972656 40.058594 66.972656 53.234375 L 66.972656 196.335938 C 66.972656 209.511719 77.644531 220.183594 90.824219 220.183594 L 174.316406 220.183594 L 174.316406 244.035156 L 150.464844 244.035156 L 150.464844 267.882812 L 245.882812 267.882812 L 245.882812 244.035156 L 222.027344 244.035156 L 222.027344 220.183594 L 305.519531 220.183594 C 318.699219 220.183594 329.375 209.511719 329.375 196.335938 L 329.375 53.234375 C 329.375 40.058594 318.699219 29.382812 305.519531 29.382812 Z M 90.824219 53.234375 L 305.519531 53.234375 L 305.519531 196.335938 L 90.824219 196.335938 Z M 201.410156 74.917969 L 177.554688 170.316406 L 194.933594 174.648438 L 218.789062 79.25 Z M 152.933594 86.539062 L 114.679688 124.785156 L 152.933594 163.027344 L 164.859375 151.101562 L 138.535156 124.785156 L 164.859375 98.464844 Z M 243.414062 86.539062 L 231.488281 98.464844 L 257.8125 124.785156 L 231.488281 151.101562 L 243.414062 163.027344 L 281.664062 124.785156 Z M 243.414062 86.539062 "/>
</g>
</g>
</svg>
