<?xml version="1.0" encoding="UTF-8"?>
<svg xmlns="http://www.w3.org/2000/svg" xmlns:xlink="http://www.w3.org/1999/xlink" width="396pt" height="296.999993pt" viewBox="0 0 396 296.999993" version="1.2">
<defs>
<clipPath id="clip1">
  <path d="M 55.984375 6.484375 L 340.234375 6.484375 L 340.234375 290.734375 L 55.984375 290.734375 Z M 55.984375 6.484375 "/>
</clipPath>
</defs>
<g id="surface1">
<path style=" stroke:none;fill-rule:nonzero;fill:rgb(54.899597%,32.159424%,100%);fill-opacity:1;" d="M 138.511719 208.210938 L 129.339844 208.210938 L 129.339844 189.871094 L 138.511719 189.871094 C 143.558594 189.871094 147.679688 193.992188 147.679688 199.042969 C 147.679688 204.09375 143.558594 208.210938 138.511719 208.210938 Z M 138.511719 235.71875 L 129.339844 235.71875 L 129.339844 217.382812 L 138.511719 217.382812 C 143.558594 217.382812 147.679688 221.5 147.679688 226.550781 C 147.679688 231.601562 143.558594 235.71875 138.511719 235.71875 Z M 138.511719 180.703125 L 138.511719 171.535156 L 129.339844 171.535156 L 129.339844 180.703125 L 120.171875 180.703125 L 120.171875 244.890625 L 129.339844 244.890625 L 129.339844 254.058594 L 138.511719 254.058594 L 138.511719 244.890625 C 148.628906 244.890625 156.847656 236.667969 156.847656 226.550781 C 156.847656 221.070312 154.429688 216.164062 150.632812 212.796875 C 154.429688 209.429688 156.847656 204.523438 156.847656 199.042969 C 156.847656 188.921875 148.628906 180.703125 138.511719 180.703125 "/>
<path style=" stroke:none;fill-rule:nonzero;fill:rgb(54.899597%,32.159424%,100%);fill-opacity:1;" d="M 304.398438 96.246094 L 303.378906 95.097656 L 296.664062 101.367188 L 297.578125 102.371094 C 299.671875 104.699219 301.570312 107.207031 303.253906 109.820312 L 310.972656 104.878906 C 309.019531 101.832031 306.816406 98.929688 304.398438 96.246094 "/>
<path style=" stroke:none;fill-rule:nonzero;fill:rgb(54.899597%,32.159424%,100%);fill-opacity:1;" d="M 313.855469 109.785156 L 305.761719 114.082031 C 310.308594 122.644531 312.726562 132.3125 312.726562 142.003906 C 312.726562 145.511719 312.421875 149.003906 311.832031 152.40625 L 320.859375 153.984375 C 321.539062 150.0625 321.898438 146.03125 321.898438 142.003906 C 321.898438 130.808594 319.121094 119.652344 313.855469 109.785156 "/>
<g clip-path="url(#clip1)" clip-rule="nonzero">
<path style=" stroke:none;fill-rule:nonzero;fill:rgb(54.899597%,32.159424%,100%);fill-opacity:1;" d="M 313.660156 197.789062 L 306.316406 207.601562 C 305.511719 208.640625 303.558594 208.015625 303.558594 206.6875 L 303.558594 159.804688 C 303.558594 145.585938 298.472656 131.792969 289.214844 121.011719 L 277.699219 107.582031 L 303.503906 81.773438 C 305.0625 83.40625 306.621094 85.050781 308.179688 86.753906 C 322.9375 102.871094 331.066406 123.753906 331.066406 145.585938 C 331.066406 164.28125 324.886719 182.835938 313.660156 197.789062 Z M 236.6875 84.425781 L 280.636719 40.476562 L 306.246094 66.085938 L 262.296875 110.035156 Z M 196.550781 166.609375 C 191.933594 160.339844 186.378906 154.789062 180.113281 150.167969 L 234.789062 95.492188 L 251.226562 111.933594 Z M 172.664062 167.59375 C 163.3125 159.570312 151.492188 154.429688 138.511719 153.429688 L 138.511719 144.257812 C 154.019531 145.296875 168.113281 151.457031 179.128906 161.09375 Z M 193.292969 208.210938 C 192.289062 195.226562 187.152344 183.40625 179.128906 174.058594 L 185.628906 167.59375 C 195.261719 178.609375 201.425781 192.703125 202.460938 208.210938 Z M 179.128906 251.53125 C 187.152344 242.183594 192.289062 230.363281 193.292969 217.382812 L 202.460938 217.382812 C 201.425781 232.890625 195.261719 246.984375 185.628906 258.015625 Z M 138.511719 272.164062 C 151.492188 271.160156 163.3125 266.019531 172.664062 258.015625 L 179.128906 264.480469 C 168.113281 274.132812 154.019531 280.3125 138.511719 281.332031 Z M 95.1875 258.015625 C 104.535156 266.019531 116.355469 271.160156 129.339844 272.164062 L 129.339844 281.332031 C 113.832031 280.3125 99.738281 274.132812 88.707031 264.480469 Z M 74.558594 217.382812 C 75.558594 230.363281 80.699219 242.183594 88.707031 251.53125 L 82.238281 258.015625 C 72.585938 246.984375 66.410156 232.890625 65.386719 217.382812 Z M 88.707031 174.058594 C 80.699219 183.40625 75.558594 195.226562 74.558594 208.210938 L 65.386719 208.210938 C 66.410156 192.703125 72.585938 178.609375 82.238281 167.59375 Z M 129.339844 153.429688 C 116.355469 154.429688 104.535156 159.570312 95.1875 167.59375 L 88.707031 161.09375 C 99.738281 151.457031 113.832031 145.296875 129.339844 144.257812 Z M 184.355469 212.796875 C 184.355469 240.609375 161.738281 263.226562 133.925781 263.226562 C 106.113281 263.226562 83.492188 240.609375 83.492188 212.796875 C 83.492188 184.984375 106.113281 162.363281 133.925781 162.363281 C 161.738281 162.363281 184.355469 184.984375 184.355469 212.796875 Z M 225.707031 57.507812 C 214.925781 48.25 201.136719 43.164062 186.917969 43.164062 L 140.03125 43.164062 C 139.191406 43.164062 138.511719 42.484375 138.511719 41.640625 C 138.511719 41.15625 138.742188 40.691406 139.117188 40.40625 L 148.933594 33.0625 C 163.886719 21.832031 182.441406 15.65625 201.136719 15.65625 C 222.96875 15.65625 243.851562 23.785156 259.96875 38.542969 C 261.667969 40.101562 263.316406 41.660156 264.945312 43.21875 L 239.140625 69.023438 Z M 300.78125 29.5 C 309.449219 30.359375 316.363281 37.269531 317.222656 45.9375 L 308.144531 55.019531 L 291.703125 38.578125 Z M 314.929688 80.558594 C 313.28125 78.75 311.636719 77.011719 310.003906 75.308594 L 319.210938 66.085938 L 314.625 61.5 L 326.480469 49.644531 L 326.480469 47.746094 C 326.480469 32.578125 314.140625 20.238281 298.972656 20.238281 L 297.074219 20.238281 L 285.21875 32.09375 L 280.636719 27.511719 L 271.410156 36.714844 C 269.710938 35.085938 267.972656 33.4375 266.164062 31.789062 C 248.363281 15.476562 225.261719 6.484375 201.136719 6.484375 C 180.46875 6.484375 159.964844 13.308594 143.433594 25.71875 L 133.621094 33.082031 C 130.933594 35.085938 129.339844 38.273438 129.339844 41.640625 C 129.339844 47.53125 134.140625 52.332031 140.03125 52.332031 L 186.917969 52.332031 C 198.953125 52.332031 210.609375 56.648438 219.746094 64.476562 L 232.640625 75.507812 L 223.71875 84.425781 L 228.304688 89.011719 L 172.285156 145.027344 C 160.949219 138.582031 147.875 134.855469 133.925781 134.855469 C 90.945312 134.855469 55.984375 169.816406 55.984375 212.796875 C 55.984375 255.777344 90.945312 290.734375 133.925781 290.734375 C 176.90625 290.734375 211.863281 255.777344 211.863281 212.796875 C 211.863281 198.84375 208.140625 185.773438 201.691406 174.433594 L 257.710938 118.417969 L 262.296875 123 L 271.214844 114.082031 L 282.246094 126.976562 C 290.074219 136.109375 294.390625 147.769531 294.390625 159.804688 L 294.390625 206.6875 C 294.390625 212.582031 299.1875 217.382812 305.082031 217.382812 C 308.449219 217.382812 311.636719 215.785156 313.640625 213.101562 L 321 203.285156 C 333.414062 186.757812 340.234375 166.25 340.234375 145.585938 C 340.234375 121.460938 331.246094 98.359375 314.929688 80.558594 "/>
</g>
<path style=" stroke:none;fill-rule:nonzero;fill:rgb(54.899597%,32.159424%,100%);fill-opacity:1;" d="M 227.769531 48.625 C 231.296875 50.828125 234.679688 53.265625 237.851562 55.878906 L 243.6875 48.785156 C 240.214844 45.9375 236.488281 43.269531 232.640625 40.835938 L 227.769531 48.625 "/>
<path style=" stroke:none;fill-rule:nonzero;fill:rgb(54.899597%,32.159424%,100%);fill-opacity:1;" d="M 194.277344 26.292969 L 192.773438 35.320312 C 203.539062 37.144531 213.851562 40.746094 223.398438 46.046875 L 227.839844 38.023438 C 217.378906 32.222656 206.097656 28.28125 194.277344 26.292969 "/>
</g>
</svg>
