<?xml version="1.0" encoding="UTF-8"?>
<svg xmlns="http://www.w3.org/2000/svg" xmlns:xlink="http://www.w3.org/1999/xlink" width="396pt" height="296.999993pt" viewBox="0 0 396 296.999993" version="1.2">
<defs>
<clipPath id="clip1">
  <path d="M 67.007812 14.835938 L 328.757812 14.835938 L 328.757812 281.835938 L 67.007812 281.835938 Z M 67.007812 14.835938 "/>
</clipPath>
</defs>
<g id="surface1">
<g clip-path="url(#clip1)" clip-rule="nonzero">
<path style=" stroke:none;fill-rule:nonzero;fill:rgb(49.409485%,85.099792%,34.118652%);fill-opacity:1;" d="M 296.003906 85.671875 C 314.039062 85.671875 328.707031 71.007812 328.707031 52.976562 C 328.707031 34.945312 314.039062 20.285156 296.003906 20.285156 C 277.964844 20.285156 263.296875 34.945312 263.296875 52.976562 C 263.296875 57.957031 264.445312 62.667969 266.453125 66.894531 L 193.964844 117.296875 C 188.023438 111.238281 179.765625 107.46875 170.628906 107.46875 C 167.574219 107.46875 164.636719 107.921875 161.832031 108.703125 L 145.679688 74.34375 C 154.15625 68.429688 159.726562 58.625 159.726562 47.527344 C 159.726562 29.5 145.058594 14.835938 127.019531 14.835938 C 108.980469 14.835938 94.3125 29.5 94.3125 47.527344 C 94.3125 65.558594 108.980469 80.222656 127.019531 80.222656 C 130.074219 80.222656 133.011719 79.769531 135.816406 78.984375 L 151.96875 113.347656 C 143.488281 119.257812 137.921875 129.066406 137.921875 140.160156 C 137.921875 147.644531 140.472656 154.519531 144.71875 160.035156 L 117.699219 189.136719 C 112.542969 185.742188 106.386719 183.753906 99.765625 183.753906 C 81.726562 183.753906 67.058594 198.417969 67.058594 216.449219 C 67.058594 234.476562 81.726562 249.140625 99.765625 249.140625 C 117.800781 249.140625 132.472656 234.476562 132.472656 216.449219 C 132.472656 208.964844 129.917969 202.089844 125.671875 196.574219 L 152.695312 167.472656 C 157.84375 170.867188 164.003906 172.855469 170.628906 172.855469 C 173.480469 172.855469 176.226562 172.453125 178.863281 171.765625 L 201.496094 221.988281 C 192.75 227.863281 186.980469 237.839844 186.980469 249.140625 C 186.980469 267.171875 201.648438 281.835938 219.6875 281.835938 C 237.726562 281.835938 252.394531 267.171875 252.394531 249.140625 C 252.394531 231.109375 237.726562 216.449219 219.6875 216.449219 C 216.835938 216.449219 214.089844 216.851562 211.449219 217.535156 L 188.816406 167.3125 C 192.144531 165.078125 195.015625 162.246094 197.328125 158.980469 L 264.582031 191.105469 C 263.765625 193.964844 263.296875 196.976562 263.296875 200.101562 C 263.296875 218.132812 277.964844 232.792969 296.003906 232.792969 C 314.039062 232.792969 328.707031 218.132812 328.707031 200.101562 C 328.707031 182.070312 314.039062 167.40625 296.003906 167.40625 C 284.980469 167.40625 275.226562 172.90625 269.304688 181.28125 L 202.046875 149.15625 C 202.867188 146.296875 203.335938 143.285156 203.335938 140.160156 C 203.335938 135.179688 202.183594 130.472656 200.179688 126.246094 L 272.667969 75.84375 C 278.609375 81.902344 286.867188 85.671875 296.003906 85.671875 Z M 105.214844 47.527344 C 105.214844 35.507812 114.996094 25.734375 127.019531 25.734375 C 139.042969 25.734375 148.824219 35.507812 148.824219 47.527344 C 148.824219 59.550781 139.042969 69.324219 127.019531 69.324219 C 114.996094 69.324219 105.214844 59.550781 105.214844 47.527344 Z M 241.492188 249.140625 C 241.492188 261.160156 231.710938 270.9375 219.6875 270.9375 C 207.664062 270.9375 197.882812 261.160156 197.882812 249.140625 C 197.882812 237.121094 207.664062 227.34375 219.6875 227.34375 C 231.710938 227.34375 241.492188 237.121094 241.492188 249.140625 Z M 296.003906 178.304688 C 308.027344 178.304688 317.804688 188.078125 317.804688 200.101562 C 317.804688 212.121094 308.027344 221.894531 296.003906 221.894531 C 283.976562 221.894531 274.199219 212.121094 274.199219 200.101562 C 274.199219 188.078125 283.976562 178.304688 296.003906 178.304688 Z M 99.765625 238.242188 C 87.738281 238.242188 77.960938 228.46875 77.960938 216.449219 C 77.960938 204.425781 87.738281 194.652344 99.765625 194.652344 C 111.789062 194.652344 121.570312 204.425781 121.570312 216.449219 C 121.570312 228.46875 111.789062 238.242188 99.765625 238.242188 Z M 170.628906 161.957031 C 158.601562 161.957031 148.824219 152.183594 148.824219 140.160156 C 148.824219 128.140625 158.601562 118.367188 170.628906 118.367188 C 182.652344 118.367188 192.433594 128.140625 192.433594 140.160156 C 192.433594 152.183594 182.652344 161.957031 170.628906 161.957031 Z M 296.003906 31.183594 C 308.027344 31.183594 317.804688 40.957031 317.804688 52.976562 C 317.804688 65 308.027344 74.773438 296.003906 74.773438 C 283.976562 74.773438 274.199219 65 274.199219 52.976562 C 274.199219 40.957031 283.976562 31.183594 296.003906 31.183594 Z M 296.003906 31.183594 "/>
</g>
</g>
</svg>
