<?xml version="1.0" encoding="UTF-8"?>
<svg xmlns="http://www.w3.org/2000/svg" xmlns:xlink="http://www.w3.org/1999/xlink" width="396pt" height="296.999993pt" viewBox="0 0 396 296.999993" version="1.2">
<defs>
<clipPath id="clip1">
  <path d="M 242 212 L 298.242188 212 L 298.242188 250 L 242 250 Z M 242 212 "/>
</clipPath>
<clipPath id="clip2">
  <path d="M 242 202 L 298.242188 202 L 298.242188 240 L 242 240 Z M 242 202 "/>
</clipPath>
<clipPath id="clip3">
  <path d="M 242 197 L 298.242188 197 L 298.242188 235 L 242 235 Z M 242 197 "/>
</clipPath>
<clipPath id="clip4">
  <path d="M 242 187 L 298.242188 187 L 298.242188 225 L 242 225 Z M 242 187 "/>
</clipPath>
<clipPath id="clip5">
  <path d="M 200 234 L 257 234 L 257 271.964844 L 200 271.964844 Z M 200 234 "/>
</clipPath>
<clipPath id="clip6">
  <path d="M 197 24.652344 L 246 24.652344 L 246 51 L 197 51 Z M 197 24.652344 "/>
</clipPath>
<clipPath id="clip7">
  <path d="M 197 24.652344 L 246 24.652344 L 246 51 L 197 51 Z M 197 24.652344 "/>
</clipPath>
</defs>
<g id="surface1">
<path style=" stroke:none;fill-rule:nonzero;fill:rgb(29.019165%,78.819275%,68.238831%);fill-opacity:1;" d="M 118.148438 168.226562 L 229.277344 104.40625 L 287.34375 137.3125 L 175.214844 202.132812 Z M 118.148438 168.226562 "/>
<path style=" stroke:none;fill-rule:nonzero;fill:rgb(15.689087%,65.879822%,54.899597%);fill-opacity:1;" d="M 118.148438 168.226562 L 118.148438 219.085938 L 175.214844 251.992188 L 175.214844 202.132812 Z M 118.148438 168.226562 "/>
<path style=" stroke:none;fill-rule:nonzero;fill:rgb(16.859436%,47.839355%,41.178894%);fill-opacity:1;" d="M 175.214844 251.992188 L 287.34375 185.179688 L 287.34375 137.3125 L 175.214844 202.132812 Z M 175.214844 251.992188 "/>
<path style=" stroke:none;fill-rule:nonzero;fill:rgb(100%,100%,100%);fill-opacity:1;" d="M 138.171875 167.230469 L 230.28125 114.378906 L 270.324219 136.316406 L 178.21875 190.167969 Z M 138.171875 167.230469 "/>
<path style=" stroke:none;fill-rule:nonzero;fill:rgb(29.019165%,78.819275%,68.238831%);fill-opacity:1;" d="M 226.796875 152.273438 C 226.796875 159.984375 216.820312 166.234375 204.511719 166.234375 C 192.203125 166.234375 182.222656 159.984375 182.222656 152.273438 C 182.222656 144.5625 192.203125 138.3125 204.511719 138.3125 C 216.820312 138.3125 226.796875 144.5625 226.796875 152.273438 Z M 226.796875 152.273438 "/>
<path style=" stroke:none;fill-rule:nonzero;fill:rgb(29.019165%,78.819275%,68.238831%);fill-opacity:1;" d="M 118.148438 178.199219 L 175.214844 213.101562 L 175.214844 223.074219 L 118.148438 188.171875 Z M 118.148438 178.199219 "/>
<path style=" stroke:none;fill-rule:nonzero;fill:rgb(29.019165%,78.819275%,68.238831%);fill-opacity:1;" d="M 118.148438 198.144531 L 175.214844 233.046875 L 175.214844 243.015625 L 118.148438 208.117188 Z M 118.148438 198.144531 "/>
<path style=" stroke:none;fill-rule:nonzero;fill:rgb(15.689087%,65.879822%,54.899597%);fill-opacity:1;" d="M 175.214844 213.101562 L 287.34375 148.285156 L 287.34375 158.253906 L 175.214844 223.074219 Z M 175.214844 213.101562 "/>
<path style=" stroke:none;fill-rule:nonzero;fill:rgb(15.689087%,65.879822%,54.899597%);fill-opacity:1;" d="M 175.214844 233.046875 L 287.34375 168.226562 L 287.34375 178.199219 L 175.214844 243.015625 Z M 175.214844 233.046875 "/>
<g clip-path="url(#clip1)" clip-rule="nonzero">
<path style=" stroke:none;fill-rule:nonzero;fill:rgb(83.139038%,44.709778%,3.919983%);fill-opacity:1;" d="M 293.832031 221.078125 C 288.832031 216.09375 280.175781 212.601562 270.324219 212.601562 C 260.476562 212.601562 251.820312 216.09375 246.820312 221.078125 L 242.292969 221.078125 L 242.292969 231.382812 C 242.292969 241.664062 254.84375 249.996094 270.324219 249.996094 C 285.808594 249.996094 298.359375 241.664062 298.359375 231.382812 L 298.359375 221.078125 Z M 293.832031 221.078125 "/>
</g>
<g clip-path="url(#clip2)" clip-rule="nonzero">
<path style=" stroke:none;fill-rule:nonzero;fill:rgb(100%,92.939758%,19.219971%);fill-opacity:1;" d="M 298.359375 221.246094 C 298.359375 221.855469 298.3125 222.460938 298.222656 223.070312 C 298.132812 223.675781 298 224.277344 297.820312 224.875 C 297.640625 225.472656 297.417969 226.066406 297.152344 226.648438 C 296.886719 227.230469 296.578125 227.804688 296.226562 228.367188 C 295.875 228.929688 295.480469 229.480469 295.046875 230.019531 C 294.617188 230.558594 294.144531 231.078125 293.632812 231.585938 C 293.125 232.09375 292.578125 232.582031 291.996094 233.054688 C 291.414062 233.523438 290.796875 233.976562 290.148438 234.40625 C 289.5 234.839844 288.820312 235.246094 288.109375 235.632812 C 287.398438 236.019531 286.664062 236.382812 285.898438 236.722656 C 285.136719 237.0625 284.351562 237.375 283.539062 237.660156 C 282.730469 237.949219 281.902344 238.210938 281.054688 238.441406 C 280.207031 238.675781 279.34375 238.882812 278.464844 239.058594 C 277.585938 239.234375 276.695312 239.382812 275.792969 239.5 C 274.894531 239.621094 273.988281 239.710938 273.074219 239.769531 C 272.160156 239.828125 271.242188 239.859375 270.324219 239.859375 C 269.40625 239.859375 268.492188 239.828125 267.578125 239.769531 C 266.664062 239.710938 265.757812 239.621094 264.855469 239.5 C 263.957031 239.382812 263.066406 239.234375 262.1875 239.058594 C 261.308594 238.882812 260.445312 238.675781 259.597656 238.441406 C 258.75 238.210938 257.921875 237.949219 257.109375 237.660156 C 256.300781 237.375 255.515625 237.0625 254.75 236.722656 C 253.988281 236.382812 253.25 236.019531 252.542969 235.632812 C 251.832031 235.246094 251.152344 234.839844 250.503906 234.40625 C 249.855469 233.976562 249.238281 233.523438 248.65625 233.054688 C 248.074219 232.582031 247.527344 232.09375 247.015625 231.585938 C 246.507812 231.078125 246.035156 230.558594 245.601562 230.019531 C 245.171875 229.480469 244.777344 228.929688 244.425781 228.367188 C 244.074219 227.804688 243.765625 227.230469 243.5 226.648438 C 243.234375 226.066406 243.011719 225.472656 242.832031 224.875 C 242.652344 224.277344 242.519531 223.675781 242.425781 223.070312 C 242.335938 222.460938 242.292969 221.855469 242.292969 221.246094 C 242.292969 220.632812 242.335938 220.027344 242.425781 219.417969 C 242.519531 218.8125 242.652344 218.210938 242.832031 217.613281 C 243.011719 217.015625 243.234375 216.425781 243.5 215.839844 C 243.765625 215.257812 244.074219 214.683594 244.425781 214.121094 C 244.777344 213.558594 245.171875 213.007812 245.601562 212.46875 C 246.035156 211.929688 246.507812 211.410156 247.015625 210.902344 C 247.527344 210.394531 248.074219 209.90625 248.65625 209.433594 C 249.238281 208.964844 249.855469 208.511719 250.503906 208.082031 C 251.152344 207.648438 251.832031 207.242188 252.542969 206.855469 C 253.25 206.46875 253.988281 206.105469 254.75 205.765625 C 255.515625 205.425781 256.300781 205.113281 257.109375 204.828125 C 257.921875 204.539062 258.75 204.277344 259.597656 204.046875 C 260.445312 203.8125 261.308594 203.605469 262.1875 203.429688 C 263.066406 203.253906 263.957031 203.105469 264.855469 202.988281 C 265.757812 202.867188 266.664062 202.777344 267.578125 202.71875 C 268.492188 202.660156 269.40625 202.628906 270.324219 202.628906 C 271.242188 202.628906 272.160156 202.660156 273.074219 202.71875 C 273.988281 202.777344 274.894531 202.867188 275.792969 202.988281 C 276.695312 203.105469 277.585938 203.253906 278.464844 203.429688 C 279.34375 203.605469 280.207031 203.8125 281.054688 204.046875 C 281.902344 204.277344 282.730469 204.539062 283.539062 204.828125 C 284.351562 205.113281 285.136719 205.425781 285.898438 205.765625 C 286.664062 206.105469 287.398438 206.46875 288.109375 206.855469 C 288.820312 207.242188 289.5 207.648438 290.148438 208.082031 C 290.796875 208.511719 291.414062 208.964844 291.996094 209.433594 C 292.578125 209.90625 293.125 210.394531 293.632812 210.902344 C 294.144531 211.410156 294.617188 211.929688 295.046875 212.46875 C 295.480469 213.007812 295.875 213.558594 296.226562 214.121094 C 296.578125 214.683594 296.886719 215.257812 297.152344 215.839844 C 297.417969 216.425781 297.640625 217.015625 297.820312 217.613281 C 298 218.210938 298.132812 218.8125 298.222656 219.417969 C 298.3125 220.027344 298.359375 220.632812 298.359375 221.246094 Z M 298.359375 221.246094 "/>
</g>
<path style=" stroke:none;fill-rule:nonzero;fill:rgb(92.939758%,67.449951%,0.389099%);fill-opacity:1;" d="M 292.875 220.082031 C 292.875 220.539062 292.839844 220.996094 292.765625 221.449219 C 292.695312 221.90625 292.589844 222.355469 292.445312 222.804688 C 292.304688 223.253906 292.125 223.695312 291.914062 224.132812 C 291.703125 224.570312 291.457031 225 291.175781 225.425781 C 290.898438 225.847656 290.585938 226.257812 290.242188 226.664062 C 289.898438 227.066406 289.523438 227.457031 289.117188 227.835938 C 288.710938 228.21875 288.277344 228.585938 287.816406 228.9375 C 287.351562 229.292969 286.863281 229.628906 286.347656 229.953125 C 285.832031 230.277344 285.289062 230.582031 284.726562 230.875 C 284.160156 231.164062 283.574219 231.433594 282.96875 231.6875 C 282.363281 231.941406 281.738281 232.179688 281.09375 232.394531 C 280.449219 232.609375 279.789062 232.804688 279.117188 232.980469 C 278.441406 233.15625 277.753906 233.308594 277.058594 233.441406 C 276.359375 233.574219 275.652344 233.683594 274.933594 233.773438 C 274.21875 233.863281 273.5 233.929688 272.773438 233.976562 C 272.046875 234.019531 271.316406 234.042969 270.585938 234.042969 C 269.855469 234.042969 269.128906 234.019531 268.402344 233.976562 C 267.675781 233.929688 266.957031 233.863281 266.238281 233.773438 C 265.523438 233.683594 264.816406 233.574219 264.117188 233.441406 C 263.417969 233.308594 262.734375 233.15625 262.058594 232.980469 C 261.382812 232.804688 260.726562 232.609375 260.082031 232.394531 C 259.4375 232.179688 258.8125 231.941406 258.207031 231.6875 C 257.597656 231.433594 257.011719 231.164062 256.449219 230.875 C 255.882812 230.582031 255.34375 230.277344 254.828125 229.953125 C 254.3125 229.628906 253.824219 229.292969 253.359375 228.9375 C 252.894531 228.585938 252.460938 228.21875 252.054688 227.835938 C 251.652344 227.457031 251.277344 227.066406 250.933594 226.664062 C 250.585938 226.257812 250.277344 225.847656 249.996094 225.425781 C 249.71875 225 249.472656 224.570312 249.261719 224.132812 C 249.046875 223.695312 248.871094 223.253906 248.730469 222.804688 C 248.585938 222.355469 248.480469 221.90625 248.40625 221.449219 C 248.335938 220.996094 248.300781 220.539062 248.300781 220.082031 C 248.300781 219.625 248.335938 219.167969 248.40625 218.714844 C 248.480469 218.257812 248.585938 217.808594 248.730469 217.359375 C 248.871094 216.910156 249.046875 216.46875 249.261719 216.03125 C 249.472656 215.59375 249.71875 215.164062 249.996094 214.738281 C 250.277344 214.316406 250.585938 213.90625 250.933594 213.5 C 251.277344 213.097656 251.652344 212.707031 252.054688 212.328125 C 252.460938 211.945312 252.894531 211.578125 253.359375 211.226562 C 253.824219 210.871094 254.3125 210.535156 254.828125 210.210938 C 255.34375 209.886719 255.882812 209.582031 256.449219 209.289062 C 257.011719 209 257.597656 208.730469 258.207031 208.476562 C 258.8125 208.222656 259.4375 207.984375 260.082031 207.769531 C 260.726562 207.554688 261.382812 207.359375 262.058594 207.183594 C 262.734375 207.011719 263.417969 206.855469 264.117188 206.722656 C 264.816406 206.589844 265.523438 206.480469 266.238281 206.390625 C 266.957031 206.300781 267.675781 206.234375 268.402344 206.1875 C 269.128906 206.144531 269.855469 206.121094 270.585938 206.121094 C 271.316406 206.121094 272.046875 206.144531 272.773438 206.1875 C 273.5 206.234375 274.21875 206.300781 274.933594 206.390625 C 275.652344 206.480469 276.359375 206.589844 277.058594 206.722656 C 277.753906 206.855469 278.441406 207.011719 279.117188 207.183594 C 279.789062 207.359375 280.449219 207.554688 281.09375 207.769531 C 281.738281 207.984375 282.363281 208.222656 282.96875 208.476562 C 283.574219 208.730469 284.160156 209 284.726562 209.289062 C 285.289062 209.582031 285.832031 209.886719 286.347656 210.210938 C 286.863281 210.535156 287.351562 210.871094 287.816406 211.226562 C 288.277344 211.578125 288.710938 211.945312 289.117188 212.328125 C 289.523438 212.707031 289.898438 213.097656 290.242188 213.5 C 290.585938 213.90625 290.898438 214.316406 291.175781 214.738281 C 291.457031 215.164062 291.703125 215.59375 291.914062 216.03125 C 292.125 216.46875 292.304688 216.910156 292.445312 217.359375 C 292.589844 217.808594 292.695312 218.257812 292.765625 218.714844 C 292.839844 219.167969 292.875 219.625 292.875 220.082031 Z M 292.875 220.082031 "/>
<g clip-path="url(#clip3)" clip-rule="nonzero">
<path style=" stroke:none;fill-rule:nonzero;fill:rgb(83.139038%,44.709778%,3.919983%);fill-opacity:1;" d="M 293.832031 206.121094 C 288.832031 201.132812 280.175781 197.644531 270.324219 197.644531 C 260.476562 197.644531 251.820312 201.136719 246.820312 206.121094 L 242.292969 206.121094 L 242.292969 215.925781 C 242.292969 226.207031 254.84375 234.542969 270.324219 234.542969 C 285.808594 234.542969 298.359375 226.207031 298.359375 215.925781 L 298.359375 206.121094 Z M 293.832031 206.121094 "/>
</g>
<g clip-path="url(#clip4)" clip-rule="nonzero">
<path style=" stroke:none;fill-rule:nonzero;fill:rgb(100%,92.939758%,19.219971%);fill-opacity:1;" d="M 298.359375 205.789062 C 298.359375 206.398438 298.3125 207.007812 298.222656 207.613281 C 298.132812 208.21875 298 208.824219 297.820312 209.421875 C 297.640625 210.019531 297.417969 210.609375 297.152344 211.191406 C 296.886719 211.777344 296.578125 212.347656 296.226562 212.914062 C 295.875 213.476562 295.480469 214.027344 295.046875 214.5625 C 294.617188 215.101562 294.144531 215.625 293.632812 216.128906 C 293.125 216.636719 292.578125 217.125 291.996094 217.597656 C 291.414062 218.070312 290.796875 218.519531 290.148438 218.949219 C 289.5 219.382812 288.820312 219.792969 288.109375 220.179688 C 287.398438 220.566406 286.664062 220.925781 285.898438 221.265625 C 285.136719 221.605469 284.351562 221.917969 283.539062 222.203125 C 282.730469 222.492188 281.902344 222.753906 281.054688 222.984375 C 280.207031 223.21875 279.34375 223.425781 278.464844 223.601562 C 277.585938 223.777344 276.695312 223.925781 275.792969 224.046875 C 274.894531 224.164062 273.988281 224.253906 273.074219 224.3125 C 272.160156 224.375 271.242188 224.402344 270.324219 224.402344 C 269.40625 224.402344 268.492188 224.375 267.578125 224.3125 C 266.664062 224.253906 265.757812 224.164062 264.855469 224.046875 C 263.957031 223.925781 263.066406 223.777344 262.1875 223.601562 C 261.308594 223.425781 260.445312 223.21875 259.597656 222.984375 C 258.75 222.753906 257.921875 222.492188 257.109375 222.203125 C 256.300781 221.917969 255.515625 221.605469 254.75 221.265625 C 253.988281 220.925781 253.25 220.566406 252.542969 220.179688 C 251.832031 219.792969 251.152344 219.382812 250.503906 218.949219 C 249.855469 218.519531 249.238281 218.070312 248.65625 217.597656 C 248.074219 217.125 247.527344 216.636719 247.015625 216.128906 C 246.507812 215.625 246.035156 215.101562 245.601562 214.5625 C 245.171875 214.027344 244.777344 213.476562 244.425781 212.914062 C 244.074219 212.347656 243.765625 211.777344 243.5 211.191406 C 243.234375 210.609375 243.011719 210.019531 242.832031 209.421875 C 242.652344 208.824219 242.519531 208.21875 242.425781 207.613281 C 242.335938 207.007812 242.292969 206.398438 242.292969 205.789062 C 242.292969 205.179688 242.335938 204.570312 242.425781 203.964844 C 242.519531 203.359375 242.652344 202.753906 242.832031 202.15625 C 243.011719 201.558594 243.234375 200.96875 243.5 200.386719 C 243.765625 199.800781 244.074219 199.230469 244.425781 198.664062 C 244.777344 198.101562 245.171875 197.550781 245.601562 197.015625 C 246.035156 196.476562 246.507812 195.953125 247.015625 195.449219 C 247.527344 194.941406 248.074219 194.453125 248.65625 193.980469 C 249.238281 193.507812 249.855469 193.058594 250.503906 192.628906 C 251.152344 192.195312 251.832031 191.785156 252.542969 191.398438 C 253.25 191.011719 253.988281 190.652344 254.75 190.3125 C 255.515625 189.972656 256.300781 189.660156 257.109375 189.371094 C 257.921875 189.085938 258.75 188.824219 259.597656 188.59375 C 260.445312 188.359375 261.308594 188.152344 262.1875 187.976562 C 263.066406 187.800781 263.957031 187.652344 264.855469 187.53125 C 265.757812 187.414062 266.664062 187.324219 267.578125 187.265625 C 268.492188 187.203125 269.40625 187.175781 270.324219 187.175781 C 271.242188 187.175781 272.160156 187.203125 273.074219 187.265625 C 273.988281 187.324219 274.894531 187.414062 275.792969 187.53125 C 276.695312 187.652344 277.585938 187.800781 278.464844 187.976562 C 279.34375 188.152344 280.207031 188.359375 281.054688 188.59375 C 281.902344 188.824219 282.730469 189.085938 283.539062 189.371094 C 284.351562 189.660156 285.136719 189.972656 285.898438 190.3125 C 286.664062 190.652344 287.398438 191.011719 288.109375 191.398438 C 288.820312 191.785156 289.5 192.195312 290.148438 192.628906 C 290.796875 193.058594 291.414062 193.507812 291.996094 193.980469 C 292.578125 194.453125 293.125 194.941406 293.632812 195.449219 C 294.144531 195.953125 294.617188 196.476562 295.046875 197.015625 C 295.480469 197.550781 295.875 198.101562 296.226562 198.664062 C 296.578125 199.230469 296.886719 199.800781 297.152344 200.386719 C 297.417969 200.96875 297.640625 201.558594 297.820312 202.15625 C 298 202.753906 298.132812 203.359375 298.222656 203.964844 C 298.3125 204.570312 298.359375 205.179688 298.359375 205.789062 Z M 298.359375 205.789062 "/>
</g>
<path style=" stroke:none;fill-rule:nonzero;fill:rgb(92.939758%,67.449951%,0.389099%);fill-opacity:1;" d="M 289.609375 204.625 C 289.609375 205.015625 289.578125 205.40625 289.519531 205.792969 C 289.457031 206.183594 289.367188 206.566406 289.242188 206.949219 C 289.121094 207.332031 288.972656 207.710938 288.789062 208.085938 C 288.609375 208.457031 288.398438 208.824219 288.160156 209.1875 C 287.921875 209.546875 287.65625 209.898438 287.363281 210.242188 C 287.070312 210.585938 286.75 210.921875 286.402344 211.246094 C 286.058594 211.570312 285.6875 211.882812 285.292969 212.183594 C 284.898438 212.488281 284.480469 212.777344 284.039062 213.050781 C 283.597656 213.328125 283.136719 213.589844 282.65625 213.835938 C 282.171875 214.085938 281.671875 214.316406 281.15625 214.535156 C 280.636719 214.75 280.105469 214.949219 279.554688 215.136719 C 279.003906 215.320312 278.441406 215.484375 277.867188 215.636719 C 277.292969 215.785156 276.707031 215.914062 276.109375 216.027344 C 275.511719 216.140625 274.910156 216.238281 274.296875 216.3125 C 273.6875 216.390625 273.070312 216.445312 272.453125 216.484375 C 271.832031 216.523438 271.210938 216.542969 270.585938 216.542969 C 269.964844 216.542969 269.34375 216.523438 268.722656 216.484375 C 268.101562 216.445312 267.488281 216.390625 266.875 216.3125 C 266.265625 216.238281 265.660156 216.140625 265.066406 216.027344 C 264.46875 215.914062 263.882812 215.785156 263.308594 215.636719 C 262.734375 215.484375 262.171875 215.320312 261.621094 215.136719 C 261.070312 214.949219 260.539062 214.75 260.019531 214.535156 C 259.5 214.316406 259 214.085938 258.519531 213.835938 C 258.039062 213.589844 257.578125 213.328125 257.136719 213.050781 C 256.695312 212.777344 256.277344 212.488281 255.882812 212.183594 C 255.488281 211.882812 255.117188 211.570312 254.769531 211.246094 C 254.425781 210.921875 254.105469 210.585938 253.8125 210.242188 C 253.519531 209.898438 253.253906 209.546875 253.011719 209.1875 C 252.773438 208.824219 252.566406 208.457031 252.382812 208.085938 C 252.203125 207.710938 252.050781 207.332031 251.929688 206.949219 C 251.808594 206.566406 251.71875 206.183594 251.65625 205.792969 C 251.597656 205.40625 251.566406 205.015625 251.566406 204.625 C 251.566406 204.234375 251.597656 203.847656 251.65625 203.457031 C 251.71875 203.070312 251.808594 202.683594 251.929688 202.300781 C 252.050781 201.917969 252.203125 201.539062 252.382812 201.167969 C 252.566406 200.792969 252.773438 200.425781 253.011719 200.066406 C 253.253906 199.707031 253.519531 199.355469 253.8125 199.007812 C 254.105469 198.664062 254.425781 198.332031 254.769531 198.007812 C 255.117188 197.683594 255.488281 197.367188 255.882812 197.066406 C 256.277344 196.765625 256.695312 196.476562 257.136719 196.199219 C 257.578125 195.925781 258.039062 195.664062 258.519531 195.414062 C 259 195.167969 259.5 194.9375 260.019531 194.71875 C 260.539062 194.503906 261.070312 194.300781 261.621094 194.117188 C 262.171875 193.933594 262.734375 193.765625 263.308594 193.617188 C 263.882812 193.46875 264.46875 193.335938 265.066406 193.222656 C 265.660156 193.109375 266.265625 193.015625 266.875 192.941406 C 267.488281 192.863281 268.101562 192.804688 268.722656 192.769531 C 269.34375 192.730469 269.964844 192.710938 270.585938 192.710938 C 271.210938 192.710938 271.832031 192.730469 272.453125 192.769531 C 273.070312 192.804688 273.6875 192.863281 274.296875 192.941406 C 274.910156 193.015625 275.511719 193.109375 276.109375 193.222656 C 276.707031 193.335938 277.292969 193.46875 277.867188 193.617188 C 278.441406 193.765625 279.003906 193.933594 279.554688 194.117188 C 280.105469 194.300781 280.636719 194.503906 281.15625 194.71875 C 281.671875 194.9375 282.171875 195.167969 282.65625 195.414062 C 283.136719 195.664062 283.597656 195.925781 284.039062 196.199219 C 284.480469 196.476562 284.898438 196.765625 285.292969 197.066406 C 285.6875 197.367188 286.058594 197.683594 286.402344 198.007812 C 286.75 198.332031 287.070312 198.664062 287.363281 199.007812 C 287.65625 199.355469 287.921875 199.707031 288.160156 200.066406 C 288.398438 200.425781 288.609375 200.792969 288.789062 201.167969 C 288.972656 201.539062 289.121094 201.917969 289.242188 202.300781 C 289.367188 202.683594 289.457031 203.070312 289.519531 203.457031 C 289.578125 203.847656 289.609375 204.234375 289.609375 204.625 Z M 289.609375 204.625 "/>
<g clip-path="url(#clip5)" clip-rule="nonzero">
<path style=" stroke:none;fill-rule:nonzero;fill:rgb(83.139038%,44.709778%,3.919983%);fill-opacity:1;" d="M 251.78125 243.015625 C 246.78125 238.03125 238.125 234.539062 228.277344 234.539062 C 218.429688 234.539062 209.773438 238.03125 204.773438 243.015625 L 200.242188 243.015625 L 200.242188 253.324219 C 200.242188 263.601562 212.792969 271.9375 228.277344 271.9375 C 243.757812 271.9375 256.308594 263.601562 256.308594 253.324219 L 256.308594 243.015625 Z M 251.78125 243.015625 "/>
</g>
<path style=" stroke:none;fill-rule:nonzero;fill:rgb(100%,92.939758%,19.219971%);fill-opacity:1;" d="M 256.308594 243.183594 C 256.308594 243.792969 256.265625 244.402344 256.175781 245.007812 C 256.085938 245.617188 255.949219 246.21875 255.769531 246.816406 C 255.59375 247.414062 255.367188 248.003906 255.101562 248.589844 C 254.835938 249.171875 254.527344 249.746094 254.175781 250.308594 C 253.824219 250.871094 253.433594 251.421875 253 251.960938 C 252.566406 252.496094 252.09375 253.019531 251.585938 253.527344 C 251.074219 254.035156 250.527344 254.523438 249.945312 254.996094 C 249.363281 255.464844 248.75 255.917969 248.097656 256.347656 C 247.449219 256.777344 246.769531 257.1875 246.0625 257.574219 C 245.351562 257.960938 244.613281 258.324219 243.851562 258.664062 C 243.085938 259 242.300781 259.316406 241.492188 259.601562 C 240.683594 259.890625 239.851562 260.148438 239.003906 260.382812 C 238.15625 260.617188 237.292969 260.820312 236.414062 261 C 235.535156 261.175781 234.644531 261.324219 233.746094 261.441406 C 232.84375 261.5625 231.9375 261.652344 231.023438 261.710938 C 230.109375 261.769531 229.195312 261.800781 228.277344 261.800781 C 227.359375 261.800781 226.441406 261.769531 225.53125 261.710938 C 224.617188 261.652344 223.707031 261.5625 222.808594 261.441406 C 221.90625 261.324219 221.019531 261.175781 220.140625 261 C 219.261719 260.820312 218.398438 260.617188 217.550781 260.382812 C 216.703125 260.148438 215.871094 259.890625 215.0625 259.601562 C 214.253906 259.316406 213.464844 259 212.703125 258.664062 C 211.941406 258.324219 211.203125 257.960938 210.492188 257.574219 C 209.785156 257.1875 209.105469 256.777344 208.457031 256.347656 C 207.804688 255.917969 207.191406 255.464844 206.609375 254.996094 C 206.023438 254.523438 205.480469 254.035156 204.96875 253.527344 C 204.457031 253.019531 203.988281 252.496094 203.554688 251.960938 C 203.121094 251.421875 202.730469 250.871094 202.378906 250.308594 C 202.027344 249.746094 201.71875 249.171875 201.453125 248.589844 C 201.183594 248.003906 200.960938 247.414062 200.78125 246.816406 C 200.605469 246.21875 200.46875 245.617188 200.378906 245.007812 C 200.289062 244.402344 200.246094 243.792969 200.246094 243.183594 C 200.246094 242.574219 200.289062 241.96875 200.378906 241.359375 C 200.46875 240.753906 200.605469 240.152344 200.78125 239.554688 C 200.960938 238.953125 201.183594 238.363281 201.453125 237.78125 C 201.71875 237.199219 202.027344 236.625 202.378906 236.0625 C 202.730469 235.496094 203.121094 234.945312 203.554688 234.410156 C 203.988281 233.871094 204.457031 233.347656 204.96875 232.84375 C 205.480469 232.335938 206.023438 231.847656 206.609375 231.375 C 207.191406 230.902344 207.804688 230.453125 208.457031 230.023438 C 209.105469 229.589844 209.785156 229.179688 210.492188 228.792969 C 211.203125 228.40625 211.941406 228.046875 212.703125 227.707031 C 213.464844 227.367188 214.253906 227.054688 215.0625 226.765625 C 215.871094 226.480469 216.703125 226.21875 217.550781 225.984375 C 218.398438 225.753906 219.261719 225.546875 220.140625 225.371094 C 221.019531 225.195312 221.90625 225.046875 222.808594 224.925781 C 223.707031 224.808594 224.617188 224.71875 225.53125 224.660156 C 226.441406 224.597656 227.359375 224.570312 228.277344 224.570312 C 229.195312 224.570312 230.109375 224.597656 231.023438 224.660156 C 231.9375 224.71875 232.84375 224.808594 233.746094 224.925781 C 234.644531 225.046875 235.535156 225.195312 236.414062 225.371094 C 237.292969 225.546875 238.15625 225.753906 239.003906 225.984375 C 239.851562 226.21875 240.683594 226.480469 241.492188 226.765625 C 242.300781 227.054688 243.085938 227.367188 243.851562 227.707031 C 244.613281 228.046875 245.351562 228.40625 246.0625 228.792969 C 246.769531 229.179688 247.449219 229.589844 248.097656 230.023438 C 248.75 230.453125 249.363281 230.902344 249.945312 231.375 C 250.527344 231.847656 251.074219 232.335938 251.585938 232.84375 C 252.09375 233.347656 252.566406 233.871094 253 234.410156 C 253.433594 234.945312 253.824219 235.496094 254.175781 236.0625 C 254.527344 236.625 254.835938 237.199219 255.101562 237.78125 C 255.367188 238.363281 255.59375 238.953125 255.769531 239.554688 C 255.949219 240.152344 256.085938 240.753906 256.175781 241.359375 C 256.265625 241.96875 256.308594 242.574219 256.308594 243.183594 Z M 256.308594 243.183594 "/>
<path style=" stroke:none;fill-rule:nonzero;fill:rgb(92.939758%,67.449951%,0.389099%);fill-opacity:1;" d="M 247.558594 242.023438 C 247.558594 242.414062 247.53125 242.800781 247.46875 243.191406 C 247.40625 243.578125 247.316406 243.964844 247.195312 244.347656 C 247.074219 244.730469 246.921875 245.109375 246.742188 245.480469 C 246.5625 245.855469 246.351562 246.222656 246.113281 246.582031 C 245.875 246.941406 245.609375 247.296875 245.3125 247.640625 C 245.019531 247.984375 244.699219 248.316406 244.355469 248.640625 C 244.007812 248.964844 243.636719 249.28125 243.242188 249.582031 C 242.847656 249.882812 242.429688 250.171875 241.988281 250.449219 C 241.546875 250.722656 241.085938 250.984375 240.605469 251.234375 C 240.125 251.480469 239.625 251.710938 239.105469 251.929688 C 238.589844 252.144531 238.054688 252.347656 237.503906 252.53125 C 236.957031 252.714844 236.394531 252.882812 235.816406 253.03125 C 235.242188 253.179688 234.65625 253.3125 234.058594 253.425781 C 233.464844 253.539062 232.859375 253.632812 232.25 253.707031 C 231.636719 253.785156 231.023438 253.84375 230.402344 253.878906 C 229.78125 253.917969 229.160156 253.9375 228.539062 253.9375 C 227.914062 253.9375 227.292969 253.917969 226.675781 253.878906 C 226.054688 253.84375 225.4375 253.785156 224.828125 253.707031 C 224.214844 253.632812 223.613281 253.539062 223.015625 253.425781 C 222.421875 253.3125 221.835938 253.179688 221.257812 253.03125 C 220.683594 252.882812 220.121094 252.714844 219.570312 252.53125 C 219.023438 252.347656 218.488281 252.144531 217.96875 251.929688 C 217.453125 251.710938 216.953125 251.480469 216.472656 251.234375 C 215.988281 250.984375 215.527344 250.722656 215.089844 250.449219 C 214.648438 250.171875 214.230469 249.882812 213.835938 249.582031 C 213.4375 249.28125 213.070312 248.964844 212.722656 248.640625 C 212.375 248.316406 212.054688 247.984375 211.761719 247.640625 C 211.46875 247.296875 211.203125 246.941406 210.964844 246.582031 C 210.726562 246.222656 210.515625 245.855469 210.335938 245.480469 C 210.15625 245.109375 210.003906 244.730469 209.882812 244.347656 C 209.761719 243.964844 209.667969 243.578125 209.609375 243.191406 C 209.546875 242.800781 209.515625 242.414062 209.515625 242.023438 C 209.515625 241.632812 209.546875 241.242188 209.609375 240.855469 C 209.667969 240.464844 209.761719 240.082031 209.882812 239.699219 C 210.003906 239.316406 210.15625 238.9375 210.335938 238.5625 C 210.515625 238.191406 210.726562 237.824219 210.964844 237.460938 C 211.203125 237.101562 211.46875 236.75 211.761719 236.40625 C 212.054688 236.0625 212.375 235.726562 212.722656 235.402344 C 213.070312 235.078125 213.4375 234.765625 213.835938 234.464844 C 214.230469 234.160156 214.648438 233.875 215.089844 233.597656 C 215.527344 233.320312 215.988281 233.058594 216.472656 232.8125 C 216.953125 232.566406 217.453125 232.332031 217.96875 232.117188 C 218.488281 231.898438 219.023438 231.699219 219.570312 231.515625 C 220.121094 231.332031 220.683594 231.164062 221.257812 231.015625 C 221.835938 230.863281 222.421875 230.734375 223.015625 230.621094 C 223.613281 230.507812 224.214844 230.414062 224.828125 230.335938 C 225.4375 230.261719 226.054688 230.203125 226.675781 230.164062 C 227.292969 230.125 227.914062 230.109375 228.539062 230.109375 C 229.160156 230.109375 229.78125 230.125 230.402344 230.164062 C 231.023438 230.203125 231.636719 230.261719 232.25 230.335938 C 232.859375 230.414062 233.464844 230.507812 234.058594 230.621094 C 234.65625 230.734375 235.242188 230.863281 235.816406 231.015625 C 236.394531 231.164062 236.957031 231.332031 237.503906 231.515625 C 238.054688 231.699219 238.589844 231.898438 239.105469 232.117188 C 239.625 232.332031 240.125 232.566406 240.605469 232.8125 C 241.085938 233.058594 241.546875 233.320312 241.988281 233.597656 C 242.429688 233.875 242.847656 234.160156 243.242188 234.464844 C 243.636719 234.765625 244.007812 235.078125 244.355469 235.402344 C 244.699219 235.726562 245.019531 236.0625 245.3125 236.40625 C 245.609375 236.75 245.875 237.101562 246.113281 237.460938 C 246.351562 237.824219 246.5625 238.191406 246.742188 238.5625 C 246.921875 238.9375 247.074219 239.316406 247.195312 239.699219 C 247.316406 240.082031 247.40625 240.464844 247.46875 240.855469 C 247.53125 241.242188 247.558594 241.632812 247.558594 242.023438 Z M 247.558594 242.023438 "/>
<path style=" stroke:none;fill-rule:nonzero;fill:rgb(72.938538%,12.548828%,15.289307%);fill-opacity:1;" d="M 107.136719 148.285156 L 98.125 142.300781 L 147.183594 71.5 L 157.195312 77.484375 Z M 107.136719 148.285156 "/>
<path style=" stroke:none;fill-rule:nonzero;fill:rgb(72.938538%,12.548828%,15.289307%);fill-opacity:1;" d="M 184.226562 94.433594 L 212.257812 54.238281 L 221.785156 60.078125 L 193.234375 100.417969 Z M 184.226562 94.433594 "/>
<path style=" stroke:none;fill-rule:nonzero;fill:rgb(100%,37.249756%,30.979919%);fill-opacity:1;" d="M 206.25 50.558594 L 212.257812 54.238281 L 221.785156 60.078125 L 193.234375 100.417969 L 184.226562 94.433594 L 157.195312 77.484375 L 107.136719 148.285156 L 118.148438 156.261719 L 160.199219 95.433594 L 196.238281 118.367188 L 232.5625 66.683594 L 245.296875 74.492188 L 245.296875 30.617188 Z M 206.25 50.558594 "/>
<g clip-path="url(#clip6)" clip-rule="nonzero">
<path style=" stroke:none;fill-rule:nonzero;fill:rgb(72.938538%,12.548828%,15.289307%);fill-opacity:1;" d="M 206.25 50.558594 L 197.238281 44.574219 L 235.285156 24.632812 L 245.296875 30.617188 Z M 206.25 50.558594 "/>
</g>
<path style=" stroke:none;fill-rule:nonzero;fill:rgb(72.938538%,12.548828%,15.289307%);fill-opacity:1;" d="M 107.136719 148.285156 L 98.125 142.300781 L 147.183594 71.5 L 157.195312 77.484375 Z M 107.136719 148.285156 "/>
<path style=" stroke:none;fill-rule:nonzero;fill:rgb(72.938538%,12.548828%,15.289307%);fill-opacity:1;" d="M 184.226562 94.433594 L 212.257812 54.238281 L 221.785156 60.078125 L 193.234375 100.417969 Z M 184.226562 94.433594 "/>
<path style=" stroke:none;fill-rule:nonzero;fill:rgb(100%,37.249756%,30.979919%);fill-opacity:1;" d="M 206.25 50.558594 L 212.257812 54.238281 L 221.785156 60.078125 L 193.234375 100.417969 L 184.226562 94.433594 L 157.195312 77.484375 L 107.136719 148.285156 L 118.148438 156.261719 L 160.199219 95.433594 L 196.238281 118.367188 L 232.5625 66.683594 L 245.296875 74.492188 L 245.296875 30.617188 Z M 206.25 50.558594 "/>
<g clip-path="url(#clip7)" clip-rule="nonzero">
<path style=" stroke:none;fill-rule:nonzero;fill:rgb(72.938538%,12.548828%,15.289307%);fill-opacity:1;" d="M 206.25 50.558594 L 197.238281 44.574219 L 235.285156 24.632812 L 245.296875 30.617188 Z M 206.25 50.558594 "/>
</g>
</g>
</svg>
