<?xml version="1.0" encoding="UTF-8"?>
<svg xmlns="http://www.w3.org/2000/svg" xmlns:xlink="http://www.w3.org/1999/xlink" width="396pt" height="296.999993pt" viewBox="0 0 396 296.999993" version="1.2">
<defs>
<clipPath id="clip1">
  <path d="M 59.699219 10.199219 L 336.449219 10.199219 L 336.449219 286.949219 L 59.699219 286.949219 Z M 59.699219 10.199219 "/>
</clipPath>
</defs>
<g id="surface1">
<g clip-path="url(#clip1)" clip-rule="nonzero">
<path style=" stroke:none;fill-rule:nonzero;fill:rgb(49.409485%,85.099792%,34.118652%);fill-opacity:1;" d="M 198.074219 10.199219 C 164.90625 10.199219 134.429688 21.957031 110.5625 41.496094 L 162.398438 93.332031 C 163.710938 90.8125 165.179688 88.449219 166.992188 86.359375 C 170.050781 82.816406 173.71875 79.949219 177.964844 77.738281 C 179.945312 76.710938 182.035156 75.902344 184.234375 75.222656 L 184.234375 51.710938 L 211.910156 51.710938 L 211.910156 75.25 C 214.800781 76.148438 217.566406 77.269531 220.097656 78.816406 C 224.210938 81.324219 227.722656 84.574219 230.585938 88.574219 C 233.464844 92.585938 235.683594 97.324219 237.234375 102.789062 C 238.769531 108.171875 239.53125 114.226562 239.558594 120.898438 L 214.097656 120.898438 C 214.058594 112.914062 212.640625 106.882812 209.773438 102.898438 C 206.871094 98.859375 202.972656 96.84375 198.101562 96.84375 C 195.441406 96.84375 193.183594 97.28125 191.289062 98.195312 C 189.378906 99.109375 187.792969 100.386719 186.558594 101.980469 C 185.3125 103.570312 184.398438 105.457031 183.828125 107.628906 C 183.304688 109.578125 183.085938 111.722656 183.046875 113.953125 L 305.152344 236.058594 C 324.675781 212.203125 336.449219 181.742188 336.449219 148.574219 C 336.449219 72.273438 274.371094 10.199219 198.074219 10.199219 Z M 90.996094 61.0625 C 71.457031 84.929688 59.699219 115.40625 59.699219 148.574219 C 59.699219 224.871094 121.773438 286.949219 198.074219 286.949219 C 231.242188 286.949219 261.714844 275.191406 285.585938 255.652344 L 234.964844 205.03125 C 233.550781 207.839844 231.957031 210.476562 229.964844 212.734375 C 226.90625 216.207031 223.242188 218.980469 218.9375 221.085938 C 216.722656 222.164062 214.375 223.054688 211.910156 223.734375 L 211.910156 245.433594 L 184.234375 245.433594 L 184.234375 224.003906 C 181.566406 223.3125 178.929688 222.449219 176.371094 221.300781 C 171.816406 219.265625 167.792969 216.335938 164.261719 212.488281 C 160.734375 208.65625 157.894531 203.832031 155.777344 197.976562 C 153.671875 192.136719 152.640625 184.382812 152.640625 176.246094 L 178.101562 176.246094 C 178.101562 181.0625 178.628906 185.835938 179.722656 189.058594 C 180.800781 192.28125 182.261719 194.851562 184.074219 196.789062 C 185.898438 198.726562 187.976562 200.082031 190.289062 200.867188 C 192.601562 201.65625 194.960938 202.058594 197.371094 202.058594 C 200.125 202.058594 202.550781 201.621094 204.640625 200.734375 C 206.714844 199.847656 208.484375 198.621094 209.882812 197.058594 C 211.308594 195.496094 212.339844 193.648438 213.046875 191.519531 C 213.75 189.371094 214.097656 187.050781 214.097656 184.546875 C 214.097656 184.394531 214.046875 184.292969 214.046875 184.140625 Z M 90.996094 61.0625 "/>
</g>
</g>
</svg>
