<?xml version="1.0" encoding="UTF-8"?>
<svg xmlns="http://www.w3.org/2000/svg" xmlns:xlink="http://www.w3.org/1999/xlink" width="396pt" height="296.999993pt" viewBox="0 0 396 296.999993" version="1.2">
<defs>
<clipPath id="clip1">
  <path d="M 80.976562 29.699219 L 314.976562 29.699219 L 314.976562 263.699219 L 80.976562 263.699219 Z M 80.976562 29.699219 "/>
</clipPath>
</defs>
<g id="surface1">
<g clip-path="url(#clip1)" clip-rule="nonzero">
<path style=" stroke:none;fill-rule:nonzero;fill:rgb(49.409485%,85.099792%,34.118652%);fill-opacity:1;" d="M 197.976562 29.699219 C 169.929688 29.699219 144.164062 39.640625 123.984375 56.160156 L 167.8125 99.992188 C 168.921875 97.863281 170.164062 95.863281 171.695312 94.09375 C 174.28125 91.101562 177.382812 88.679688 180.972656 86.804688 C 182.648438 85.941406 184.414062 85.253906 186.277344 84.679688 L 186.277344 64.800781 L 209.675781 64.800781 L 209.675781 84.703125 C 212.121094 85.464844 214.460938 86.410156 216.601562 87.71875 C 220.074219 89.835938 223.042969 92.589844 225.464844 95.96875 C 227.898438 99.363281 229.777344 103.367188 231.089844 107.988281 C 232.386719 112.539062 233.03125 117.660156 233.054688 123.300781 L 211.527344 123.300781 C 211.492188 116.550781 210.292969 111.449219 207.871094 108.082031 C 205.414062 104.664062 202.117188 102.960938 198 102.960938 C 195.753906 102.960938 193.84375 103.332031 192.242188 104.105469 C 190.625 104.875 189.28125 105.957031 188.242188 107.304688 C 187.1875 108.648438 186.414062 110.242188 185.933594 112.078125 C 185.488281 113.730469 185.304688 115.542969 185.269531 117.425781 L 288.515625 220.671875 C 305.023438 200.5 314.976562 174.746094 314.976562 146.699219 C 314.976562 82.1875 262.488281 29.699219 197.976562 29.699219 Z M 107.4375 72.707031 C 90.917969 92.890625 80.976562 118.65625 80.976562 146.699219 C 80.976562 211.214844 133.460938 263.699219 197.976562 263.699219 C 226.019531 263.699219 251.785156 253.757812 271.96875 237.238281 L 229.167969 194.4375 C 227.976562 196.8125 226.625 199.042969 224.941406 200.949219 C 222.355469 203.886719 219.257812 206.230469 215.617188 208.011719 C 213.746094 208.921875 211.757812 209.675781 209.675781 210.25 L 209.675781 228.601562 L 186.277344 228.601562 L 186.277344 210.480469 C 184.019531 209.894531 181.789062 209.164062 179.625 208.195312 C 175.777344 206.472656 172.371094 203.996094 169.390625 200.742188 C 166.40625 197.503906 164.003906 193.421875 162.214844 188.472656 C 160.433594 183.535156 159.5625 176.980469 159.5625 170.101562 L 181.089844 170.101562 C 181.089844 174.171875 181.535156 178.207031 182.460938 180.929688 C 183.371094 183.65625 184.605469 185.828125 186.140625 187.46875 C 187.683594 189.105469 189.441406 190.25 191.394531 190.917969 C 193.347656 191.585938 195.347656 191.921875 197.382812 191.921875 C 199.710938 191.921875 201.761719 191.550781 203.527344 190.804688 C 205.285156 190.054688 206.78125 189.019531 207.960938 187.695312 C 209.167969 186.375 210.039062 184.8125 210.636719 183.011719 C 211.234375 181.199219 211.527344 179.234375 211.527344 177.117188 C 211.527344 176.988281 211.480469 176.902344 211.480469 176.773438 Z M 107.4375 72.707031 "/>
</g>
</g>
</svg>
