<?xml version="1.0" encoding="UTF-8"?>
<svg xmlns="http://www.w3.org/2000/svg" xmlns:xlink="http://www.w3.org/1999/xlink" width="396pt" height="296.999993pt" viewBox="0 0 396 296.999993" version="1.2">
<defs>
<clipPath id="clip1">
  <path d="M 61.332031 11.832031 L 334.332031 11.832031 L 334.332031 284.832031 L 61.332031 284.832031 Z M 61.332031 11.832031 "/>
</clipPath>
</defs>
<g id="surface1">
<path style=" stroke:none;fill-rule:nonzero;fill:rgb(100%,74.119568%,34.899902%);fill-opacity:1;" d="M 167.789062 62.664062 C 161.953125 64.835938 158.773438 71.070312 160.683594 76.609375 C 162.613281 82.121094 168.90625 84.863281 174.746094 82.691406 C 180.589844 80.503906 183.792969 74.269531 181.875 68.753906 C 179.964844 63.207031 173.652344 60.476562 167.789062 62.664062 "/>
<g clip-path="url(#clip1)" clip-rule="nonzero">
<path style=" stroke:none;fill-rule:nonzero;fill:rgb(100%,74.119568%,34.899902%);fill-opacity:1;" d="M 242.558594 243.976562 C 237.429688 252.136719 236.488281 251.941406 232.152344 249.710938 L 214.226562 244.667969 L 218.507812 239.476562 L 214.398438 233.445312 L 216.878906 223.835938 L 207.363281 218.316406 L 206.527344 213.058594 L 203.03125 208.332031 L 203.972656 202.585938 L 198.9375 197.441406 L 201.863281 188.640625 L 196.769531 182.613281 L 195.941406 176.511719 L 187.675781 171.804688 C 187.675781 171.804688 187.496094 165.421875 180.988281 166.976562 C 174.496094 168.503906 173.761719 162.558594 175.335938 155.707031 C 176.9375 148.84375 170.917969 143.617188 168.285156 143.890625 L 168.464844 143.832031 C 151.175781 141.273438 136.214844 130.066406 130.328125 113.058594 C 121.5 87.679688 136.171875 58.972656 163.046875 48.992188 C 189.945312 38.984375 218.890625 51.46875 227.714844 76.859375 C 233.878906 94.691406 228.511719 114.132812 215.449219 127.609375 C 214.335938 129.519531 213.726562 132.855469 218.257812 136.933594 C 225.566406 143.472656 226.304688 148.046875 222.492188 152.710938 C 218.757812 157.363281 221.371094 161.230469 223.007812 165.941406 C 224.652344 170.648438 244.777344 229.03125 244.777344 229.03125 C 244.777344 229.03125 247.699219 235.820312 242.558594 243.976562 Z M 197.785156 11.792969 C 122.402344 11.792969 61.292969 72.902344 61.292969 148.285156 C 61.292969 223.667969 122.402344 284.777344 197.785156 284.777344 C 273.167969 284.777344 334.277344 223.667969 334.277344 148.285156 C 334.277344 72.902344 273.167969 11.792969 197.785156 11.792969 "/>
</g>
</g>
</svg>
