<?xml version="1.0" encoding="UTF-8"?>
<svg xmlns="http://www.w3.org/2000/svg" xmlns:xlink="http://www.w3.org/1999/xlink" width="396pt" height="296.999993pt" viewBox="0 0 396 296.999993" version="1.2">
<defs>
<clipPath id="clip1">
  <path d="M 62.152344 35 L 333.652344 35 L 333.652344 262 L 62.152344 262 Z M 62.152344 35 "/>
</clipPath>
</defs>
<g id="surface1">
<g clip-path="url(#clip1)" clip-rule="nonzero">
<path style=" stroke:none;fill-rule:evenodd;fill:rgb(36.079407%,88.238525%,90.19928%);fill-opacity:1;" d="M 276.183594 146.832031 C 307.894531 146.832031 333.605469 172.5625 333.605469 204.320312 C 333.605469 236.066406 307.894531 261.8125 276.183594 261.8125 C 244.476562 261.8125 218.761719 236.066406 218.761719 204.320312 C 218.761719 172.5625 244.476562 146.832031 276.183594 146.832031 Z M 201.828125 60.894531 L 201.828125 99.867188 C 212.652344 100.085938 223.019531 101.207031 232.628906 103.070312 C 230.761719 96.527344 228.496094 90.515625 225.90625 85.191406 C 219.417969 71.828125 210.996094 62.917969 201.828125 60.894531 Z M 197.839844 52.464844 C 224.367188 52.464844 248.386719 63.230469 265.769531 80.632812 C 281.507812 96.398438 291.808594 117.605469 293.621094 141.191406 C 290.328125 140.285156 286.933594 139.632812 283.464844 139.238281 C 279.726562 132.179688 271.894531 125.742188 261.210938 120.542969 C 255.894531 117.949219 249.902344 115.691406 243.367188 113.816406 C 245.222656 123.433594 246.335938 133.816406 246.558594 144.648438 L 249.210938 144.648438 C 244.488281 146.800781 240.0625 149.484375 236.019531 152.644531 L 201.828125 152.644531 L 201.828125 189.429688 C 205.488281 189.351562 209.085938 189.171875 212.613281 188.886719 C 211.976562 191.53125 211.5 194.242188 211.1875 197.007812 C 208.117188 197.222656 204.988281 197.359375 201.828125 197.425781 L 201.828125 236.398438 C 206.546875 235.355469 211.078125 232.484375 215.242188 228.125 C 217.113281 232.929688 219.542969 237.464844 222.449219 241.644531 C 214.59375 243.722656 206.347656 244.832031 197.839844 244.832031 C 171.308594 244.832031 147.296875 234.0625 129.910156 216.660156 C 114.136719 200.867188 103.828125 179.605469 102.050781 155.957031 C 105.316406 156.863281 108.691406 157.527344 112.144531 157.917969 C 115.855469 165.035156 123.71875 171.519531 134.460938 176.746094 C 139.78125 179.34375 145.773438 181.605469 152.316406 183.476562 C 150.453125 173.855469 149.339844 163.476562 149.117188 152.644531 L 146.292969 152.644531 C 151.054688 150.507812 155.511719 147.8125 159.585938 144.648438 L 193.847656 144.648438 L 193.847656 107.859375 C 190.207031 107.941406 186.625 108.121094 183.109375 108.402344 C 183.761719 105.753906 184.238281 103.042969 184.550781 100.285156 C 187.605469 100.070312 190.707031 99.933594 193.847656 99.867188 L 193.847656 60.894531 C 189.15625 61.929688 184.664062 64.761719 180.519531 69.082031 C 178.65625 64.292969 176.246094 59.78125 173.359375 55.613281 C 181.175781 53.558594 189.378906 52.464844 197.839844 52.464844 Z M 260.121094 86.289062 C 249.382812 75.535156 235.882812 67.546875 220.789062 63.480469 C 225.390625 68.25 229.53125 74.425781 233.082031 81.730469 C 236.402344 88.5625 239.210938 96.414062 241.402344 105.03125 C 250.003906 107.226562 257.847656 110.039062 264.671875 113.363281 C 271.96875 116.910156 278.136719 121.0625 282.902344 125.671875 C 278.835938 110.550781 270.859375 97.039062 260.121094 86.289062 Z M 112.773438 171.621094 C 116.839844 186.746094 124.816406 200.25 135.554688 211.003906 C 146.289062 221.753906 159.789062 229.75 174.890625 233.816406 C 170.285156 229.039062 166.140625 222.863281 162.597656 215.5625 C 159.277344 208.730469 156.460938 200.875 154.277344 192.261719 C 145.667969 190.070312 137.828125 187.253906 131.003906 183.929688 C 123.707031 180.386719 117.539062 176.230469 112.773438 171.621094 Z M 193.847656 236.398438 L 193.847656 197.425781 C 183.023438 197.207031 172.65625 196.089844 163.046875 194.21875 C 164.917969 200.769531 167.179688 206.777344 169.769531 212.097656 C 176.257812 225.464844 184.679688 234.371094 193.847656 236.398438 Z M 157.101562 152.644531 C 157.347656 164.378906 158.679688 175.515625 160.890625 185.632812 C 171 187.847656 182.128906 189.183594 193.847656 189.429688 L 193.847656 152.644531 Z M 238.574219 144.648438 C 238.328125 132.914062 236.996094 121.78125 234.785156 111.65625 C 224.675781 109.445312 213.550781 108.113281 201.828125 107.859375 L 201.828125 144.648438 Z M 119.570312 35.371094 C 151.285156 35.371094 176.992188 61.109375 176.992188 92.863281 C 176.992188 124.609375 151.285156 150.34375 119.570312 150.34375 C 87.859375 150.34375 62.152344 124.609375 62.152344 92.863281 C 62.152344 61.109375 87.859375 35.371094 119.570312 35.371094 Z M 129.835938 92.648438 L 129.835938 93.273438 C 145.8125 96.398438 158.59375 106.582031 158.59375 120.484375 L 158.59375 128.246094 L 83.292969 128.246094 L 83.292969 120.484375 C 83.292969 106.582031 96.074219 96.398438 112.046875 93.273438 L 112.046875 92.648438 C 102.757812 88.332031 97.5625 78.0625 97.5625 67.96875 C 97.5625 54.679688 106.816406 41.300781 120.941406 41.300781 C 135.070312 41.300781 144.328125 54.679688 144.328125 67.96875 C 144.328125 78.0625 139.128906 88.332031 129.835938 92.648438 Z M 286.453125 204.109375 L 286.453125 204.726562 C 302.425781 207.855469 315.207031 218.03125 315.207031 231.9375 L 315.207031 239.699219 L 239.898438 239.699219 L 239.898438 231.9375 C 239.898438 218.03125 252.691406 207.855469 268.65625 204.726562 L 268.65625 204.109375 C 259.375 199.789062 254.167969 189.519531 254.167969 179.429688 C 254.167969 166.132812 263.421875 152.75 277.554688 152.75 C 291.679688 152.75 300.9375 166.132812 300.9375 179.429688 C 300.9375 189.519531 295.738281 199.789062 286.453125 204.109375 Z M 286.453125 204.109375 "/>
</g>
</g>
</svg>
