<?xml version="1.0" encoding="UTF-8"?>
<svg xmlns="http://www.w3.org/2000/svg" xmlns:xlink="http://www.w3.org/1999/xlink" width="396pt" height="296.999993pt" viewBox="0 0 396 296.999993" version="1.2">
<defs>
<clipPath id="clip1">
  <path d="M 186 124 L 277.054688 124 L 277.054688 198.636719 L 186 198.636719 Z M 186 124 "/>
</clipPath>
<clipPath id="clip2">
  <path d="M 136.054688 99 L 227 99 L 227 174 L 136.054688 174 Z M 136.054688 99 "/>
</clipPath>
<clipPath id="clip3">
  <path d="M 14 81 L 122 81 L 122 225.722656 L 14 225.722656 Z M 14 81 "/>
</clipPath>
<clipPath id="clip4">
  <path d="M 305 76.324219 L 377.996094 76.324219 L 377.996094 220 L 305 220 Z M 305 76.324219 "/>
</clipPath>
<clipPath id="clip5">
  <path d="M 304.496094 76.324219 L 377.996094 76.324219 L 377.996094 220 L 304.496094 220 Z M 304.496094 76.324219 "/>
</clipPath>
</defs>
<g id="surface1">
<g clip-path="url(#clip1)" clip-rule="nonzero">
<path style=" stroke:none;fill-rule:nonzero;fill:rgb(36.079407%,88.238525%,90.19928%);fill-opacity:1;" d="M 276.699219 163.089844 C 276.761719 162.9375 276.800781 162.777344 276.84375 162.621094 C 276.882812 162.484375 276.9375 162.359375 276.964844 162.21875 C 277.023438 161.917969 277.054688 161.609375 277.054688 161.304688 L 277.054688 161.292969 C 277.054688 160.992188 277.023438 160.6875 276.964844 160.390625 C 276.933594 160.246094 276.882812 160.109375 276.835938 159.964844 C 276.789062 159.816406 276.757812 159.664062 276.699219 159.523438 C 276.628906 159.351562 276.53125 159.195312 276.441406 159.039062 C 276.382812 158.929688 276.335938 158.816406 276.269531 158.71875 C 276.09375 158.457031 275.898438 158.214844 275.675781 157.996094 L 243.253906 125.730469 C 241.421875 123.90625 238.453125 123.90625 236.617188 125.730469 C 234.789062 127.550781 234.789062 130.507812 236.617188 132.332031 L 261.042969 156.636719 L 191.230469 156.636719 C 188.640625 156.636719 186.539062 158.726562 186.539062 161.304688 C 186.539062 163.878906 188.640625 165.972656 191.230469 165.972656 L 261.042969 165.972656 L 236.613281 190.277344 C 234.785156 192.097656 234.785156 195.054688 236.613281 196.875 C 237.53125 197.789062 238.730469 198.242188 239.933594 198.242188 C 241.132812 198.242188 242.332031 197.789062 243.25 196.875 L 275.675781 164.609375 C 275.898438 164.390625 276.09375 164.148438 276.269531 163.890625 C 276.339844 163.78125 276.390625 163.660156 276.453125 163.546875 C 276.539062 163.398438 276.628906 163.25 276.699219 163.089844 Z M 276.699219 163.089844 "/>
</g>
<g clip-path="url(#clip2)" clip-rule="nonzero">
<path style=" stroke:none;fill-rule:nonzero;fill:rgb(36.079407%,88.238525%,90.19928%);fill-opacity:1;" d="M 152.070312 140.835938 L 221.882812 140.835938 C 224.472656 140.835938 226.574219 138.742188 226.574219 136.167969 C 226.574219 133.589844 224.472656 131.5 221.882812 131.5 L 152.074219 131.5 L 176.5 107.195312 C 178.328125 105.371094 178.328125 102.417969 176.5 100.59375 C 174.667969 98.773438 171.699219 98.773438 169.863281 100.59375 L 137.4375 132.859375 C 137.214844 133.078125 137.019531 133.320312 136.84375 133.578125 C 136.773438 133.691406 136.722656 133.808594 136.660156 133.921875 C 136.574219 134.070312 136.484375 134.222656 136.414062 134.378906 C 136.351562 134.53125 136.3125 134.691406 136.269531 134.851562 C 136.230469 134.984375 136.175781 135.113281 136.148438 135.25 C 136.089844 135.554688 136.054688 135.859375 136.054688 136.167969 C 136.054688 136.472656 136.089844 136.777344 136.148438 137.082031 C 136.175781 137.222656 136.230469 137.347656 136.269531 137.484375 C 136.316406 137.640625 136.351562 137.800781 136.414062 137.953125 C 136.480469 138.113281 136.574219 138.261719 136.660156 138.410156 C 136.722656 138.527344 136.773438 138.644531 136.84375 138.753906 C 137.019531 139.011719 137.214844 139.253906 137.4375 139.472656 L 169.863281 171.738281 C 170.777344 172.652344 171.976562 173.105469 173.179688 173.105469 C 174.378906 173.105469 175.578125 172.652344 176.496094 171.738281 C 178.328125 169.917969 178.328125 166.960938 176.496094 165.140625 Z M 152.070312 140.835938 "/>
</g>
<path style=" stroke:none;fill-rule:nonzero;fill:rgb(85.099792%,85.099792%,85.099792%);fill-opacity:1;" d="M 70.867188 112.226562 C 81.042969 111.316406 89.019531 101.351562 88.007812 89.992188 C 87.007812 78.625 76.632812 71.230469 65.519531 73.441406 C 54.382812 75.65625 47.40625 85.511719 49.339844 95.574219 C 51.300781 105.640625 60.664062 113.136719 70.867188 112.226562 "/>
<path style="fill:none;stroke-width:30;stroke-linecap:round;stroke-linejoin:round;stroke:rgb(13.729858%,12.159729%,12.548828%);stroke-opacity:1;stroke-miterlimit:10;" d="M 1774.021142 2835.576573 C 1969.77969 2853.143475 2123.230344 3045.474659 2103.76721 3264.721655 C 2084.529518 3484.119439 1884.938461 3626.841091 1671.144577 3584.167845 C 1456.89981 3541.419204 1322.686848 3351.199063 1359.884729 3156.983018 C 1397.608641 2962.691578 1577.736564 2818.009671 1774.021142 2835.576573 Z M 1774.021142 2835.576573 " transform="matrix(0.0519813,0,0,-0.0518109,-21.348715,259.140218)"/>
<path style=" stroke:none;fill-rule:nonzero;fill:rgb(85.099792%,85.099792%,85.099792%);fill-opacity:1;" d="M 92.84375 130.441406 C 101.289062 120.730469 109.933594 110.441406 118.726562 99.53125 C 122.183594 95.25 122.042969 88.457031 118.160156 84.652344 C 114.285156 80.839844 108.269531 81.480469 104.960938 85.769531 C 96.5 96.71875 88.167969 107.035156 80.027344 116.765625 C 79.617188 117.257812 79.273438 117.777344 78.984375 118.328125 C 73.203125 118.804688 67.421875 119.277344 61.636719 119.753906 C 61.273438 119.277344 60.855469 118.839844 60.378906 118.449219 C 50.890625 110.632812 40.621094 103.4375 29.636719 96.929688 C 25.316406 94.378906 19.40625 95.671875 16.652344 99.515625 C 13.886719 103.367188 15.207031 108.363281 19.390625 110.964844 C 30.082031 117.558594 40.039062 124.832031 49.207031 132.691406 C 49.660156 133.082031 50.136719 133.410156 50.632812 133.6875 C 50.972656 134.164062 51.359375 134.589844 51.777344 134.976562 C 51.570312 145.078125 51.050781 155.128906 50.199219 165.121094 C 50.222656 166.261719 50.390625 167.367188 50.671875 168.425781 C 48.386719 181.136719 45.707031 193.636719 42.660156 205.929688 C 41.480469 210.796875 43.988281 216.367188 48.234375 218.476562 C 52.484375 220.582031 57.21875 218.242188 58.832031 213.136719 C 62.394531 201.621094 65.625 189.886719 68.535156 177.949219 C 70.242188 178.0625 71.953125 178.175781 73.660156 178.289062 C 74.632812 190.644531 74.828125 203.144531 74.203125 215.707031 C 73.957031 221.238281 77.363281 225.382812 82.128906 224.890625 C 86.890625 224.40625 91.429688 219.269531 91.957031 213.492188 C 93.234375 199.035156 93.484375 184.609375 92.742188 170.335938 C 93.175781 169.164062 93.476562 167.910156 93.621094 166.597656 C 93.351562 155.238281 92.492188 143.949219 91.0625 132.769531 C 91.390625 132.324219 91.683594 131.839844 91.941406 131.320312 C 92.253906 131.054688 92.558594 130.765625 92.84375 130.441406 "/>
<g clip-path="url(#clip3)" clip-rule="nonzero">
<path style="fill:none;stroke-width:30;stroke-linecap:round;stroke-linejoin:round;stroke:rgb(13.729858%,12.159729%,12.548828%);stroke-opacity:1;stroke-miterlimit:10;" d="M 2196.799487 2484.012357 C 2359.26781 2671.442904 2525.568641 2870.031826 2694.725068 3080.608463 C 2761.230371 3163.240755 2758.52507 3294.351665 2683.828719 3367.785838 C 2609.282661 3441.370799 2493.555919 3429.006113 2429.906211 3346.223031 C 2267.1373 3134.892451 2106.848247 2935.775767 1950.241409 2747.968248 C 1942.350949 2738.46855 1935.737992 2728.441091 1930.177097 2717.810477 C 1818.959189 2708.612357 1707.741281 2699.489631 1596.448226 2690.291511 C 1589.459533 2699.489631 1581.418779 2707.933807 1572.250816 2715.47325 C 1389.718182 2866.337499 1192.1561 3005.214035 980.842075 3130.821152 C 897.729233 3180.053713 784.031466 3155.098157 731.052665 3080.91004 C 677.848423 3006.571135 703.248188 2910.141662 783.730877 2859.928973 C 989.40886 2732.663179 1180.959162 2592.278755 1357.329723 2440.585167 C 1366.046803 2433.045724 1375.214765 2426.712592 1384.758464 2421.359588 C 1391.296274 2412.161467 1398.73585 2403.943475 1406.776604 2396.479427 C 1402.793801 2201.509437 1392.799218 2007.519574 1376.417121 1814.660629 C 1376.868004 1792.645456 1380.099336 1771.308833 1385.509936 1750.876943 C 1341.548804 1505.543475 1289.997801 1264.281307 1231.382957 1027.015043 C 1208.688492 933.073586 1256.933017 825.561133 1338.618062 784.848142 C 1420.378254 744.210545 1511.456703 789.371807 1542.492511 887.912324 C 1611.026789 1110.175097 1673.173553 1336.659957 1729.158243 1567.065328 C 1761.997585 1564.87889 1794.912074 1562.692451 1827.751416 1560.506013 C 1846.463077 1322.033439 1850.220439 1080.77127 1838.196881 838.302791 C 1833.462605 731.544281 1898.990994 651.550794 1990.670621 661.050492 C 2082.275101 670.399401 2169.596188 769.543073 2179.741065 881.051431 C 2204.314211 1160.086208 2209.123634 1438.517829 2194.845659 1714.009068 C 2203.187002 1736.627396 2208.97334 1760.829007 2211.753787 1786.161535 C 2206.568628 2005.40853 2190.036236 2223.298426 2162.532348 2439.077278 C 2168.844716 2447.672243 2174.480759 2457.021152 2179.440476 2467.048611 C 2185.452255 2472.175432 2191.313739 2477.754619 2196.799487 2484.012357 Z M 2196.799487 2484.012357 " transform="matrix(0.0519813,0,0,-0.0518109,-21.348715,259.140218)"/>
</g>
<path style=" stroke:none;fill-rule:nonzero;fill:rgb(45.098877%,45.098877%,45.098877%);fill-opacity:1;" d="M 350.90625 124.503906 C 360.367188 124.503906 368.039062 116.878906 368.039062 107.46875 C 368.039062 98.0625 360.367188 90.433594 350.90625 90.433594 C 341.441406 90.433594 333.773438 98.0625 333.773438 107.46875 C 333.773438 116.878906 341.441406 124.503906 350.90625 124.503906 "/>
<path style=" stroke:none;fill-rule:nonzero;fill:rgb(100%,87.059021%,34.899902%);fill-opacity:1;" d="M 350.90625 124.503906 L 350.90625 125.054688 C 360.675781 125.054688 368.589844 117.179688 368.589844 107.46875 C 368.589844 97.757812 360.675781 89.882812 350.90625 89.882812 C 341.136719 89.882812 333.21875 97.757812 333.21875 107.46875 C 333.21875 117.179688 341.136719 125.054688 350.90625 125.054688 L 350.90625 123.953125 C 346.324219 123.953125 342.183594 122.109375 339.183594 119.125 C 336.183594 116.140625 334.328125 112.023438 334.328125 107.46875 C 334.328125 102.914062 336.183594 98.796875 339.183594 95.8125 C 342.183594 92.828125 346.324219 90.984375 350.90625 90.984375 C 355.484375 90.984375 359.625 92.828125 362.628906 95.8125 C 365.628906 98.796875 367.484375 102.914062 367.484375 107.46875 C 367.484375 112.023438 365.628906 116.140625 362.628906 119.125 C 359.625 122.109375 355.484375 123.953125 350.90625 123.953125 L 350.90625 124.503906 "/>
<g clip-path="url(#clip4)" clip-rule="nonzero">
<path style=" stroke:none;fill-rule:nonzero;fill:rgb(45.098877%,45.098877%,45.098877%);fill-opacity:1;" d="M 374.148438 150.511719 L 353.0625 129.527344 C 351.664062 128.066406 349.507812 126.703125 347.589844 126.359375 C 347.230469 126.160156 346.851562 125.984375 346.453125 125.835938 L 332.300781 120.574219 C 332.148438 120.519531 331.996094 120.464844 331.839844 120.417969 L 332.863281 84.636719 C 332.984375 80.449219 330.121094 76.972656 326.46875 76.871094 C 322.8125 76.765625 319.753906 80.078125 319.632812 84.261719 L 318.464844 125.117188 C 318.464844 127.816406 318.574219 129.742188 318.78125 131.089844 L 305.804688 165.609375 C 305.160156 167.316406 304.992188 169.070312 305.226562 170.71875 C 305.226562 170.761719 305.222656 170.804688 305.222656 170.847656 L 305.222656 211.714844 C 305.222656 215.90625 308.183594 219.300781 311.839844 219.300781 C 315.496094 219.300781 318.457031 215.90625 318.457031 211.714844 L 318.457031 180.71875 L 324.914062 183.117188 C 325.066406 183.175781 325.21875 183.226562 325.375 183.273438 L 341.15625 214.832031 C 343.03125 218.582031 347.203125 220.3125 350.476562 218.695312 C 353.75 217.078125 354.886719 212.722656 353.007812 208.972656 L 336.882812 176.726562 L 350.503906 140.5 L 361.652344 152.128906 L 354.609375 151.847656 C 351.375 151.773438 348.695312 153.972656 348.628906 156.765625 C 348.558594 159.558594 351.128906 161.886719 354.367188 161.964844 L 375.792969 162.476562 C 376.792969 162.34375 377.527344 159.75 377.339844 157.148438 C 377.207031 153.191406 374.148438 150.511719 374.148438 150.511719 "/>
</g>
<g clip-path="url(#clip5)" clip-rule="nonzero">
<path style=" stroke:none;fill-rule:nonzero;fill:rgb(100%,87.059021%,34.899902%);fill-opacity:1;" d="M 374.148438 150.511719 L 374.539062 150.121094 L 353.457031 129.136719 L 353.0625 129.527344 L 353.464844 129.148438 C 352.726562 128.375 351.804688 127.644531 350.804688 127.050781 C 349.804688 126.460938 348.734375 126.007812 347.6875 125.820312 L 347.589844 126.359375 L 347.859375 125.878906 C 347.476562 125.667969 347.074219 125.480469 346.648438 125.320312 L 332.496094 120.058594 C 332.332031 120 332.167969 119.945312 332.003906 119.894531 L 331.839844 120.417969 L 332.394531 120.433594 L 333.417969 84.652344 C 333.421875 84.558594 333.421875 84.46875 333.421875 84.382812 C 333.421875 82.21875 332.675781 80.242188 331.433594 78.78125 C 330.195312 77.320312 328.445312 76.371094 326.484375 76.320312 C 326.425781 76.316406 326.363281 76.316406 326.300781 76.316406 C 324.335938 76.3125 322.550781 77.214844 321.257812 78.648438 C 319.960938 80.085938 319.144531 82.058594 319.078125 84.246094 L 317.910156 125.101562 L 317.910156 125.148438 C 317.910156 127.847656 318.019531 129.78125 318.234375 131.175781 L 318.78125 131.089844 L 318.265625 130.898438 L 305.285156 165.414062 C 304.800781 166.699219 304.570312 168.011719 304.570312 169.289062 C 304.570312 169.796875 304.609375 170.300781 304.679688 170.792969 L 305.226562 170.71875 L 304.675781 170.707031 C 304.675781 170.714844 304.667969 170.761719 304.667969 170.847656 L 304.667969 211.714844 C 304.667969 213.941406 305.453125 215.964844 306.742188 217.441406 C 308.027344 218.917969 309.835938 219.855469 311.839844 219.851562 C 313.847656 219.855469 315.652344 218.917969 316.9375 217.441406 C 318.226562 215.964844 319.011719 213.941406 319.011719 211.714844 L 319.011719 181.515625 L 324.722656 183.636719 C 324.882812 183.695312 325.046875 183.75 325.210938 183.800781 L 325.375 183.273438 L 324.878906 183.519531 L 340.65625 215.078125 C 342.144531 218.042969 344.988281 219.847656 347.855469 219.851562 C 348.832031 219.851562 349.8125 219.640625 350.722656 219.1875 C 351.929688 218.59375 352.871094 217.652344 353.503906 216.527344 C 354.140625 215.402344 354.46875 214.09375 354.46875 212.730469 C 354.46875 211.40625 354.15625 210.027344 353.503906 208.726562 L 337.488281 176.695312 L 350.714844 141.519531 L 360.304688 151.523438 L 354.632812 151.296875 L 354.625 151.296875 C 354.566406 151.296875 354.507812 151.296875 354.449219 151.296875 C 352.738281 151.296875 351.175781 151.882812 350.019531 152.855469 C 348.863281 153.828125 348.109375 155.207031 348.074219 156.753906 C 348.074219 156.792969 348.074219 156.832031 348.074219 156.875 C 348.070312 158.417969 348.792969 159.820312 349.929688 160.828125 C 351.066406 161.839844 352.628906 162.472656 354.351562 162.515625 L 375.78125 163.027344 L 375.867188 163.023438 C 376.082031 162.996094 376.273438 162.910156 376.4375 162.792969 C 376.722656 162.59375 376.929688 162.316406 377.109375 161.992188 C 377.371094 161.507812 377.570312 160.90625 377.707031 160.21875 C 377.847656 159.535156 377.921875 158.773438 377.921875 157.984375 C 377.921875 157.695312 377.914062 157.402344 377.890625 157.113281 L 377.339844 157.148438 L 377.890625 157.132812 C 377.820312 155.015625 376.972656 153.261719 376.15625 152.039062 C 375.335938 150.820312 374.539062 150.121094 374.515625 150.097656 L 374.148438 150.511719 L 374.539062 150.121094 L 374.148438 150.511719 L 373.78125 150.925781 L 373.796875 150.90625 L 373.78125 150.925781 L 373.796875 150.90625 L 373.78125 150.925781 C 373.804688 150.941406 374.535156 151.597656 375.269531 152.703125 C 376 153.808594 376.726562 155.355469 376.785156 157.167969 L 376.785156 157.191406 C 376.804688 157.457031 376.816406 157.722656 376.816406 157.984375 C 376.816406 159.074219 376.648438 160.121094 376.390625 160.867188 C 376.265625 161.238281 376.113281 161.535156 375.976562 161.714844 C 375.90625 161.800781 375.84375 161.859375 375.796875 161.894531 C 375.753906 161.925781 375.726562 161.929688 375.71875 161.929688 L 375.792969 162.476562 L 375.804688 161.925781 L 354.378906 161.414062 C 352.910156 161.375 351.601562 160.835938 350.667969 160.007812 C 349.734375 159.175781 349.179688 158.074219 349.179688 156.875 L 349.179688 156.777344 C 349.210938 155.578125 349.789062 154.496094 350.734375 153.695312 C 351.683594 152.898438 352.992188 152.398438 354.449219 152.398438 C 354.496094 152.398438 354.546875 152.398438 354.597656 152.398438 L 354.609375 151.847656 L 354.589844 152.398438 L 361.628906 152.679688 C 361.851562 152.691406 362.0625 152.5625 362.15625 152.359375 C 362.25 152.152344 362.207031 151.914062 362.050781 151.75 L 350.90625 140.121094 C 350.773438 139.984375 350.582031 139.921875 350.394531 139.960938 C 350.207031 140 350.054688 140.132812 349.988281 140.308594 L 336.363281 176.53125 C 336.308594 176.675781 336.320312 176.832031 336.386719 176.96875 L 352.511719 209.21875 C 353.089844 210.367188 353.359375 211.578125 353.359375 212.730469 C 353.359375 213.917969 353.074219 215.042969 352.539062 215.992188 C 352.003906 216.9375 351.226562 217.707031 350.230469 218.203125 C 349.476562 218.574219 348.671875 218.75 347.855469 218.75 C 345.46875 218.753906 342.960938 217.214844 341.652344 214.585938 L 325.871094 183.03125 C 325.804688 182.894531 325.683594 182.792969 325.539062 182.746094 C 325.394531 182.703125 325.25 182.65625 325.109375 182.605469 L 318.652344 180.203125 C 318.484375 180.140625 318.292969 180.164062 318.144531 180.265625 C 317.992188 180.371094 317.90625 180.539062 317.90625 180.71875 L 317.90625 211.714844 C 317.90625 213.683594 317.210938 215.453125 316.101562 216.71875 C 314.992188 217.988281 313.492188 218.75 311.839844 218.75 C 310.1875 218.75 308.6875 217.988281 307.578125 216.71875 C 306.472656 215.453125 305.777344 213.683594 305.777344 211.714844 L 305.777344 170.847656 C 305.777344 170.84375 305.78125 170.804688 305.78125 170.726562 L 305.777344 170.640625 C 305.714844 170.195312 305.679688 169.746094 305.679688 169.289062 C 305.679688 168.140625 305.886719 166.960938 306.324219 165.800781 L 319.300781 131.285156 C 319.335938 131.195312 319.34375 131.097656 319.332031 131.007812 C 319.128906 129.710938 319.015625 127.816406 319.015625 125.148438 L 319.015625 125.117188 L 318.464844 125.117188 L 319.015625 125.132812 L 320.1875 84.277344 C 320.242188 82.34375 320.964844 80.617188 322.082031 79.386719 C 323.195312 78.152344 324.683594 77.417969 326.300781 77.417969 C 326.347656 77.417969 326.398438 77.417969 326.449219 77.417969 C 328.070312 77.464844 329.519531 78.238281 330.585938 79.492188 C 331.652344 80.742188 332.316406 82.472656 332.3125 84.382812 C 332.3125 84.460938 332.3125 84.539062 332.3125 84.621094 L 331.289062 120.40625 C 331.277344 120.652344 331.4375 120.871094 331.675781 120.945312 C 331.820312 120.988281 331.964844 121.039062 332.109375 121.09375 L 346.261719 126.351562 C 346.628906 126.488281 346.980469 126.65625 347.320312 126.84375 C 347.375 126.871094 347.429688 126.894531 347.492188 126.902344 C 348.359375 127.058594 349.328125 127.457031 350.238281 127.996094 C 351.148438 128.539062 352.003906 129.21875 352.664062 129.90625 L 352.671875 129.914062 L 373.757812 150.898438 L 373.78125 150.925781 L 374.148438 150.511719 "/>
</g>
<path style=" stroke:none;fill-rule:nonzero;fill:rgb(96.859741%,57.649231%,10.198975%);fill-opacity:1;" d="M 233.253906 104.941406 C 229.566406 119.691406 214.613281 128.703125 199.800781 125.015625 C 185.050781 121.328125 176.039062 106.378906 179.726562 91.5625 C 183.414062 76.816406 198.363281 67.800781 213.179688 71.488281 C 227.925781 75.175781 236.941406 90.128906 233.253906 104.941406 Z M 233.253906 104.941406 "/>
<path style=" stroke:none;fill-rule:nonzero;fill:rgb(100%,100%,100%);fill-opacity:1;" d="M 218.640625 94.292969 C 219.1875 90.605469 216.390625 88.625 212.566406 87.328125 L 213.792969 82.347656 L 210.789062 81.597656 L 209.5625 86.445312 C 208.742188 86.238281 207.925781 86.035156 207.105469 85.898438 L 208.332031 81.050781 L 205.328125 80.300781 L 204.101562 85.28125 C 203.417969 85.144531 202.804688 85.007812 202.191406 84.804688 L 198.027344 83.78125 L 197.207031 86.988281 L 199.390625 87.535156 C 200.621094 87.808594 200.824219 88.628906 200.824219 89.3125 L 199.390625 94.976562 C 199.457031 94.976562 199.59375 95.046875 199.730469 95.046875 C 199.660156 95.046875 199.523438 94.976562 199.390625 94.976562 L 197.410156 102.894531 C 197.273438 103.238281 196.863281 103.84375 196.042969 103.644531 C 196.042969 103.714844 193.859375 103.097656 193.859375 103.097656 L 192.355469 106.582031 L 196.316406 107.53125 C 197.066406 107.734375 197.75 107.941406 198.5 108.078125 L 197.273438 113.128906 L 200.277344 113.878906 L 201.503906 108.898438 L 203.902344 109.519531 L 202.675781 114.503906 L 205.679688 115.253906 L 206.90625 110.203125 C 212.09375 111.148438 215.917969 110.816406 217.558594 106.105469 C 218.855469 102.351562 217.488281 100.15625 214.757812 98.734375 C 216.808594 98.324219 218.242188 97.027344 218.648438 94.296875 Z M 211.746094 104.054688 C 210.796875 107.808594 204.511719 105.761719 202.460938 105.285156 L 204.101562 98.59375 C 206.148438 99.070312 212.703125 100.09375 211.746094 104.054688 Z M 212.695312 94.292969 C 211.875 97.707031 206.550781 96 204.84375 95.519531 L 206.34375 89.445312 C 208.050781 89.921875 213.582031 90.671875 212.695312 94.292969 Z M 212.695312 94.292969 "/>
<path style=" stroke:none;fill-rule:nonzero;fill:rgb(96.859741%,57.649231%,10.198975%);fill-opacity:1;" d="M 233.253906 205.671875 C 229.566406 220.417969 214.613281 229.433594 199.800781 225.746094 C 185.050781 222.058594 176.039062 207.105469 179.726562 192.292969 C 183.414062 177.542969 198.363281 168.53125 213.179688 172.21875 C 227.925781 175.90625 236.941406 190.855469 233.253906 205.671875 Z M 233.253906 205.671875 "/>
<path style=" stroke:none;fill-rule:nonzero;fill:rgb(100%,100%,100%);fill-opacity:1;" d="M 218.640625 195.023438 C 219.1875 191.335938 216.390625 189.355469 212.566406 188.058594 L 213.792969 183.074219 L 210.789062 182.324219 L 209.5625 187.171875 C 208.742188 186.96875 207.925781 186.761719 207.105469 186.625 L 208.332031 181.777344 L 205.328125 181.027344 L 204.101562 186.011719 C 203.417969 185.875 202.804688 185.738281 202.191406 185.535156 L 198.027344 184.507812 L 197.207031 187.71875 L 199.390625 188.265625 C 200.621094 188.539062 200.824219 189.359375 200.824219 190.042969 L 199.390625 195.707031 C 199.457031 195.707031 199.59375 195.773438 199.730469 195.773438 C 199.660156 195.773438 199.523438 195.707031 199.390625 195.707031 L 197.410156 203.625 C 197.273438 203.964844 196.863281 204.574219 196.042969 204.375 C 196.042969 204.445312 193.859375 203.828125 193.859375 203.828125 L 192.355469 207.3125 L 196.316406 208.261719 C 197.066406 208.464844 197.75 208.667969 198.5 208.808594 L 197.273438 213.859375 L 200.277344 214.609375 L 201.503906 209.625 L 203.902344 210.25 L 202.675781 215.234375 L 205.679688 215.984375 L 206.90625 210.929688 C 212.09375 211.878906 215.917969 211.546875 217.558594 206.835938 C 218.855469 203.082031 217.488281 200.886719 214.757812 199.460938 C 216.808594 199.050781 218.242188 197.753906 218.648438 195.023438 Z M 211.746094 204.785156 C 210.796875 208.539062 204.511719 206.492188 202.460938 206.011719 L 204.101562 199.320312 C 206.148438 199.800781 212.703125 200.824219 211.746094 204.785156 Z M 212.695312 195.019531 C 211.875 198.433594 206.550781 196.726562 204.84375 196.25 L 206.34375 190.171875 C 208.050781 190.652344 213.582031 191.402344 212.695312 195.019531 Z M 212.695312 195.019531 "/>
</g>
</svg>
