<?xml version="1.0" encoding="UTF-8"?>
<svg xmlns="http://www.w3.org/2000/svg" xmlns:xlink="http://www.w3.org/1999/xlink" width="396pt" height="296.999993pt" viewBox="0 0 396 296.999993" version="1.2">
<defs>
<clipPath id="clip1">
  <path d="M 84.625 35.125 L 311.125 35.125 L 311.125 261.625 L 84.625 261.625 Z M 84.625 35.125 "/>
</clipPath>
</defs>
<g id="surface1">
<path style=" stroke:none;fill-rule:nonzero;fill:rgb(100%,74.119568%,34.899902%);fill-opacity:1;" d="M 172.949219 77.296875 C 168.105469 79.101562 165.46875 84.273438 167.054688 88.867188 C 168.65625 93.441406 173.878906 95.714844 178.722656 93.917969 C 183.570312 92.101562 186.230469 86.925781 184.636719 82.351562 C 183.050781 77.75 177.816406 75.484375 172.949219 77.296875 "/>
<g clip-path="url(#clip1)" clip-rule="nonzero">
<path style=" stroke:none;fill-rule:nonzero;fill:rgb(100%,74.119568%,34.899902%);fill-opacity:1;" d="M 234.984375 227.726562 C 230.730469 234.5 229.945312 234.339844 226.347656 232.484375 L 211.476562 228.300781 L 215.03125 223.996094 L 211.621094 218.992188 L 213.679688 211.019531 L 205.78125 206.441406 L 205.089844 202.078125 L 202.191406 198.15625 L 202.972656 193.390625 L 198.792969 189.121094 L 201.222656 181.816406 L 196.992188 176.820312 L 196.308594 171.757812 L 189.449219 167.851562 C 189.449219 167.851562 189.300781 162.554688 183.898438 163.84375 C 178.511719 165.109375 177.902344 160.179688 179.210938 154.496094 C 180.539062 148.800781 175.542969 144.464844 173.359375 144.691406 L 173.507812 144.644531 C 159.164062 142.519531 146.753906 133.222656 141.871094 119.109375 C 134.546875 98.054688 146.71875 74.234375 169.015625 65.957031 C 191.332031 57.652344 215.347656 68.011719 222.667969 89.074219 C 227.785156 103.871094 223.332031 120.003906 212.492188 131.183594 C 211.570312 132.769531 211.0625 135.535156 214.824219 138.917969 C 220.886719 144.34375 221.5 148.140625 218.335938 152.007812 C 215.234375 155.871094 217.40625 159.074219 218.765625 162.984375 C 220.125 166.890625 236.824219 215.332031 236.824219 215.332031 C 236.824219 215.332031 239.246094 220.960938 234.984375 227.726562 Z M 197.835938 35.09375 C 135.292969 35.09375 84.59375 85.792969 84.59375 148.335938 C 84.59375 210.878906 135.292969 261.582031 197.835938 261.582031 C 260.378906 261.582031 311.082031 210.878906 311.082031 148.335938 C 311.082031 85.792969 260.378906 35.09375 197.835938 35.09375 "/>
</g>
</g>
</svg>
