<?xml version="1.0" encoding="UTF-8"?>
<svg xmlns="http://www.w3.org/2000/svg" xmlns:xlink="http://www.w3.org/1999/xlink" width="396pt" height="296.999993pt" viewBox="0 0 396 296.999993" version="1.2">
<defs>
<clipPath id="clip1">
  <path d="M 70.277344 20.777344 L 326.027344 20.777344 L 326.027344 276.527344 L 70.277344 276.527344 Z M 70.277344 20.777344 "/>
</clipPath>
</defs>
<g id="surface1">
<g clip-path="url(#clip1)" clip-rule="nonzero">
<path style=" stroke:none;fill-rule:nonzero;fill:rgb(32.159424%,44.309998%,100%);fill-opacity:1;" d="M 209.777344 20.777344 C 209.011719 20.777344 208.257812 20.851562 207.507812 21 C 206.757812 21.148438 206.03125 21.367188 205.328125 21.660156 C 204.621094 21.953125 203.953125 22.3125 203.316406 22.734375 C 202.683594 23.160156 202.097656 23.640625 201.554688 24.179688 C 201.015625 24.722656 200.535156 25.308594 200.109375 25.941406 C 199.6875 26.578125 199.328125 27.246094 199.035156 27.953125 C 198.742188 28.65625 198.523438 29.382812 198.375 30.132812 C 198.226562 30.882812 198.152344 31.636719 198.152344 32.402344 L 198.152344 78.902344 L 93.527344 78.902344 C 80.679688 78.902344 70.277344 89.304688 70.277344 102.152344 L 70.277344 195.152344 C 70.277344 207.996094 80.679688 218.402344 93.527344 218.402344 L 198.152344 218.402344 L 198.152344 264.902344 C 198.152344 265.664062 198.226562 266.421875 198.375 267.167969 C 198.523438 267.917969 198.742188 268.644531 199.035156 269.351562 C 199.328125 270.054688 199.6875 270.726562 200.109375 271.359375 C 200.535156 271.996094 201.015625 272.582031 201.554688 273.121094 C 202.097656 273.660156 202.683594 274.144531 203.316406 274.566406 C 203.953125 274.992188 204.621094 275.347656 205.328125 275.640625 C 206.03125 275.933594 206.757812 276.152344 207.507812 276.304688 C 208.257812 276.453125 209.011719 276.527344 209.777344 276.527344 C 210.695312 276.523438 211.597656 276.414062 212.492188 276.199219 C 213.382812 275.984375 214.238281 275.667969 215.054688 275.25 C 215.871094 274.832031 216.628906 274.320312 217.324219 273.726562 C 218.019531 273.128906 218.636719 272.457031 219.175781 271.710938 L 321.347656 157.960938 C 322.074219 157.417969 322.726562 156.804688 323.308594 156.109375 C 323.890625 155.417969 324.382812 154.667969 324.789062 153.859375 C 325.195312 153.050781 325.503906 152.207031 325.710938 151.328125 C 325.921875 150.449219 326.023438 149.554688 326.027344 148.652344 C 326.027344 147.058594 325.714844 145.53125 325.085938 144.070312 C 324.460938 142.605469 323.570312 141.324219 322.417969 140.226562 L 219.222656 25.65625 C 218.683594 24.90625 218.066406 24.226562 217.371094 23.621094 C 216.671875 23.011719 215.910156 22.5 215.089844 22.074219 C 214.269531 21.648438 213.410156 21.328125 212.511719 21.109375 C 211.613281 20.890625 210.699219 20.777344 209.777344 20.777344 Z M 217.246094 106.304688 C 220.222656 106.304688 223.199219 107.445312 225.464844 109.710938 C 230 114.246094 230 121.617188 225.464844 126.152344 L 171.609375 180.007812 C 167.003906 184.609375 159.546875 184.609375 154.945312 180.007812 L 132.464844 157.527344 C 127.933594 152.996094 127.933594 145.625 132.464844 141.089844 C 137 136.554688 144.371094 136.554688 148.902344 141.089844 L 163.277344 155.460938 L 209.027344 109.710938 C 211.292969 107.445312 214.269531 106.304688 217.246094 106.304688 Z M 217.246094 106.304688 "/>
</g>
</g>
</svg>
