<?xml version="1.0" encoding="UTF-8"?>
<svg xmlns="http://www.w3.org/2000/svg" xmlns:xlink="http://www.w3.org/1999/xlink" width="396pt" height="296.999993pt" viewBox="0 0 396 296.999993" version="1.2">
<defs>
<clipPath id="clip1">
  <path d="M 47 42.390625 L 176 42.390625 L 176 119 L 47 119 Z M 47 42.390625 "/>
</clipPath>
<clipPath id="clip2">
  <path d="M 220 42.390625 L 349 42.390625 L 349 119 L 220 119 Z M 220 42.390625 "/>
</clipPath>
<clipPath id="clip3">
  <path d="M 87 248 L 136 248 L 136 254.640625 L 87 254.640625 Z M 87 248 "/>
</clipPath>
<clipPath id="clip4">
  <path d="M 261 248 L 309 248 L 309 254.640625 L 261 254.640625 Z M 261 248 "/>
</clipPath>
<clipPath id="clip5">
  <path d="M 22.976562 77 L 55 77 L 55 206 L 22.976562 206 Z M 22.976562 77 "/>
</clipPath>
<clipPath id="clip6">
  <path d="M 342 77 L 373.226562 77 L 373.226562 206 L 342 206 Z M 342 77 "/>
</clipPath>
</defs>
<g id="surface1">
<g clip-path="url(#clip1)" clip-rule="nonzero">
<path style=" stroke:none;fill-rule:nonzero;fill:rgb(49.409485%,85.099792%,34.118652%);fill-opacity:1;" d="M 54.152344 112.15625 L 168.886719 112.15625 L 168.886719 48.8125 L 54.152344 48.8125 Z M 172.097656 118.578125 L 50.9375 118.578125 C 49.164062 118.578125 47.726562 117.140625 47.726562 115.363281 L 47.726562 45.601562 C 47.726562 43.828125 49.164062 42.390625 50.9375 42.390625 L 172.097656 42.390625 C 173.871094 42.390625 175.308594 43.828125 175.308594 45.601562 L 175.308594 115.363281 C 175.308594 117.140625 173.871094 118.578125 172.097656 118.578125 "/>
</g>
<path style=" stroke:none;fill-rule:nonzero;fill:rgb(49.409485%,85.099792%,34.118652%);fill-opacity:1;" d="M 131.925781 133.511719 L 91.109375 133.511719 C 89.335938 133.511719 87.898438 132.074219 87.898438 130.300781 C 87.898438 128.527344 89.335938 127.089844 91.109375 127.089844 L 131.925781 127.089844 C 133.699219 127.089844 135.140625 128.527344 135.140625 130.300781 C 135.140625 132.074219 133.699219 133.511719 131.925781 133.511719 "/>
<path style=" stroke:none;fill-rule:nonzero;fill:rgb(49.409485%,85.099792%,34.118652%);fill-opacity:1;" d="M 114.730469 130.300781 L 108.304688 130.300781 L 108.304688 115.363281 L 114.730469 115.363281 L 114.730469 130.300781 "/>
<path style=" stroke:none;fill-rule:nonzero;fill:rgb(49.409485%,85.099792%,34.118652%);fill-opacity:1;" d="M 111.519531 63.296875 C 102.039062 63.296875 94.324219 71.003906 94.324219 80.484375 C 94.324219 89.960938 102.039062 97.671875 111.519531 97.671875 C 121 97.671875 128.714844 89.960938 128.714844 80.484375 C 128.714844 71.003906 121 63.296875 111.519531 63.296875 Z M 111.519531 104.09375 C 98.496094 104.09375 87.898438 93.5 87.898438 80.484375 C 87.898438 67.464844 98.496094 56.875 111.519531 56.875 C 124.542969 56.875 135.140625 67.464844 135.140625 80.484375 C 135.140625 93.5 124.542969 104.09375 111.519531 104.09375 "/>
<path style=" stroke:none;fill-rule:nonzero;fill:rgb(49.409485%,85.099792%,34.118652%);fill-opacity:1;" d="M 108.707031 93.3125 C 107.710938 93.3125 106.769531 92.855469 106.160156 92.0625 L 100.542969 84.761719 C 99.460938 83.355469 99.722656 81.339844 101.128906 80.257812 C 102.535156 79.175781 104.550781 79.441406 105.632812 80.84375 L 108.433594 84.480469 L 117.226562 70.429688 C 118.164062 68.921875 120.148438 68.46875 121.652344 69.40625 C 123.15625 70.347656 123.613281 72.328125 122.675781 73.832031 L 111.429688 91.804688 C 110.871094 92.695312 109.914062 93.261719 108.863281 93.308594 C 108.808594 93.3125 108.757812 93.3125 108.707031 93.3125 "/>
<g clip-path="url(#clip2)" clip-rule="nonzero">
<path style=" stroke:none;fill-rule:nonzero;fill:rgb(49.409485%,85.099792%,34.118652%);fill-opacity:1;" d="M 227.328125 112.15625 L 342.0625 112.15625 L 342.0625 48.8125 L 227.328125 48.8125 Z M 345.273438 118.578125 L 224.113281 118.578125 C 222.339844 118.578125 220.902344 117.140625 220.902344 115.367188 L 220.902344 45.601562 C 220.902344 43.828125 222.339844 42.390625 224.113281 42.390625 L 345.273438 42.390625 C 347.046875 42.390625 348.484375 43.828125 348.484375 45.601562 L 348.484375 115.367188 C 348.484375 117.140625 347.046875 118.578125 345.273438 118.578125 "/>
</g>
<path style=" stroke:none;fill-rule:nonzero;fill:rgb(49.409485%,85.099792%,34.118652%);fill-opacity:1;" d="M 305.101562 133.511719 L 264.289062 133.511719 C 262.515625 133.511719 261.078125 132.074219 261.078125 130.300781 C 261.078125 128.527344 262.515625 127.089844 264.289062 127.089844 L 305.101562 127.089844 C 306.878906 127.089844 308.316406 128.527344 308.316406 130.300781 C 308.316406 132.074219 306.878906 133.511719 305.101562 133.511719 "/>
<path style=" stroke:none;fill-rule:nonzero;fill:rgb(49.409485%,85.099792%,34.118652%);fill-opacity:1;" d="M 287.910156 130.300781 L 281.480469 130.300781 L 281.480469 115.363281 L 287.910156 115.363281 L 287.910156 130.300781 "/>
<path style=" stroke:none;fill-rule:nonzero;fill:rgb(49.409485%,85.099792%,34.118652%);fill-opacity:1;" d="M 284.695312 63.296875 C 275.214844 63.296875 267.5 71.003906 267.5 80.484375 C 267.5 89.960938 275.214844 97.671875 284.695312 97.671875 C 294.179688 97.671875 301.890625 89.960938 301.890625 80.484375 C 301.890625 71.003906 294.179688 63.296875 284.695312 63.296875 Z M 284.695312 104.09375 C 271.671875 104.09375 261.078125 93.5 261.078125 80.484375 C 261.078125 67.464844 271.671875 56.875 284.695312 56.875 C 297.71875 56.875 308.316406 67.464844 308.316406 80.484375 C 308.316406 93.5 297.71875 104.09375 284.695312 104.09375 "/>
<path style=" stroke:none;fill-rule:nonzero;fill:rgb(49.409485%,85.099792%,34.118652%);fill-opacity:1;" d="M 281.882812 93.3125 C 280.886719 93.3125 279.949219 92.855469 279.339844 92.0625 L 273.71875 84.761719 C 272.636719 83.355469 272.898438 81.339844 274.304688 80.257812 C 275.710938 79.175781 277.726562 79.441406 278.8125 80.84375 L 281.609375 84.480469 L 290.402344 70.429688 C 291.34375 68.921875 293.324219 68.46875 294.828125 69.40625 C 296.335938 70.347656 296.792969 72.328125 295.851562 73.832031 L 284.609375 91.804688 C 284.046875 92.695312 283.089844 93.261719 282.039062 93.308594 C 281.988281 93.3125 281.933594 93.3125 281.882812 93.3125 "/>
<path style=" stroke:none;fill-rule:nonzero;fill:rgb(49.409485%,85.099792%,34.118652%);fill-opacity:1;" d="M 54.152344 233.277344 L 168.886719 233.277344 L 168.886719 169.9375 L 54.152344 169.9375 Z M 172.097656 239.699219 L 50.9375 239.699219 C 49.164062 239.699219 47.726562 238.261719 47.726562 236.492188 L 47.726562 166.726562 C 47.726562 164.953125 49.164062 163.515625 50.9375 163.515625 L 172.097656 163.515625 C 173.871094 163.515625 175.308594 164.953125 175.308594 166.726562 L 175.308594 236.492188 C 175.308594 238.261719 173.871094 239.699219 172.097656 239.699219 "/>
<g clip-path="url(#clip3)" clip-rule="nonzero">
<path style=" stroke:none;fill-rule:nonzero;fill:rgb(49.409485%,85.099792%,34.118652%);fill-opacity:1;" d="M 131.925781 254.636719 L 91.109375 254.636719 C 89.335938 254.636719 87.898438 253.199219 87.898438 251.425781 C 87.898438 249.652344 89.335938 248.214844 91.109375 248.214844 L 131.925781 248.214844 C 133.699219 248.214844 135.140625 249.652344 135.140625 251.425781 C 135.140625 253.199219 133.699219 254.636719 131.925781 254.636719 "/>
</g>
<path style=" stroke:none;fill-rule:nonzero;fill:rgb(49.409485%,85.099792%,34.118652%);fill-opacity:1;" d="M 114.730469 251.425781 L 108.304688 251.425781 L 108.304688 236.492188 L 114.730469 236.492188 L 114.730469 251.425781 "/>
<path style=" stroke:none;fill-rule:nonzero;fill:rgb(49.409485%,85.099792%,34.118652%);fill-opacity:1;" d="M 111.519531 184.421875 C 102.039062 184.421875 94.324219 192.132812 94.324219 201.609375 C 94.324219 211.085938 102.039062 218.796875 111.519531 218.796875 C 121 218.796875 128.714844 211.085938 128.714844 201.609375 C 128.714844 192.132812 121 184.421875 111.519531 184.421875 Z M 111.519531 225.21875 C 98.496094 225.21875 87.898438 214.625 87.898438 201.609375 C 87.898438 188.589844 98.496094 178 111.519531 178 C 124.542969 178 135.140625 188.589844 135.140625 201.609375 C 135.140625 214.625 124.542969 225.21875 111.519531 225.21875 "/>
<path style=" stroke:none;fill-rule:nonzero;fill:rgb(49.409485%,85.099792%,34.118652%);fill-opacity:1;" d="M 108.707031 214.4375 C 107.710938 214.4375 106.769531 213.976562 106.160156 213.183594 L 100.542969 205.882812 C 99.460938 204.480469 99.722656 202.464844 101.128906 201.378906 C 102.535156 200.300781 104.554688 200.5625 105.632812 201.96875 L 108.433594 205.609375 L 117.226562 191.550781 C 118.164062 190.050781 120.148438 189.589844 121.652344 190.535156 C 123.15625 191.472656 123.613281 193.457031 122.675781 194.957031 L 111.429688 212.933594 C 110.871094 213.824219 109.914062 214.382812 108.863281 214.4375 C 108.808594 214.4375 108.757812 214.4375 108.707031 214.4375 "/>
<path style=" stroke:none;fill-rule:nonzero;fill:rgb(49.409485%,85.099792%,34.118652%);fill-opacity:1;" d="M 227.328125 233.28125 L 342.0625 233.28125 L 342.0625 169.9375 L 227.328125 169.9375 Z M 345.273438 239.699219 L 224.113281 239.699219 C 222.339844 239.699219 220.902344 238.265625 220.902344 236.492188 L 220.902344 166.726562 C 220.902344 164.957031 222.339844 163.515625 224.113281 163.515625 L 345.273438 163.515625 C 347.046875 163.515625 348.484375 164.957031 348.484375 166.726562 L 348.484375 236.492188 C 348.484375 238.265625 347.046875 239.699219 345.273438 239.699219 "/>
<g clip-path="url(#clip4)" clip-rule="nonzero">
<path style=" stroke:none;fill-rule:nonzero;fill:rgb(49.409485%,85.099792%,34.118652%);fill-opacity:1;" d="M 305.101562 254.636719 L 264.289062 254.636719 C 262.515625 254.636719 261.078125 253.199219 261.078125 251.425781 C 261.078125 249.652344 262.515625 248.214844 264.289062 248.214844 L 305.101562 248.214844 C 306.878906 248.214844 308.316406 249.652344 308.316406 251.425781 C 308.316406 253.199219 306.878906 254.636719 305.101562 254.636719 "/>
</g>
<path style=" stroke:none;fill-rule:nonzero;fill:rgb(49.409485%,85.099792%,34.118652%);fill-opacity:1;" d="M 287.910156 251.425781 L 281.480469 251.425781 L 281.480469 236.492188 L 287.910156 236.492188 L 287.910156 251.425781 "/>
<path style=" stroke:none;fill-rule:nonzero;fill:rgb(49.409485%,85.099792%,34.118652%);fill-opacity:1;" d="M 284.695312 184.421875 C 275.214844 184.421875 267.5 192.132812 267.5 201.609375 C 267.5 211.085938 275.214844 218.796875 284.695312 218.796875 C 294.179688 218.796875 301.890625 211.085938 301.890625 201.609375 C 301.890625 192.132812 294.179688 184.421875 284.695312 184.421875 Z M 284.695312 225.21875 C 271.671875 225.21875 261.078125 214.625 261.078125 201.609375 C 261.078125 188.589844 271.671875 178 284.695312 178 C 297.71875 178 308.316406 188.589844 308.316406 201.609375 C 308.316406 214.625 297.71875 225.21875 284.695312 225.21875 "/>
<path style=" stroke:none;fill-rule:nonzero;fill:rgb(49.409485%,85.099792%,34.118652%);fill-opacity:1;" d="M 281.882812 214.4375 C 280.886719 214.4375 279.949219 213.976562 279.339844 213.183594 L 273.71875 205.882812 C 272.636719 204.480469 272.898438 202.464844 274.304688 201.378906 C 275.710938 200.300781 277.730469 200.5625 278.8125 201.96875 L 281.609375 205.609375 L 290.402344 191.550781 C 291.34375 190.050781 293.324219 189.589844 294.828125 190.535156 C 296.335938 191.472656 296.792969 193.457031 295.851562 194.957031 L 284.609375 212.933594 C 284.046875 213.824219 283.089844 214.382812 282.039062 214.4375 C 281.988281 214.4375 281.933594 214.4375 281.882812 214.4375 "/>
<path style=" stroke:none;fill-rule:nonzero;fill:rgb(49.409485%,85.099792%,34.118652%);fill-opacity:1;" d="M 224.117188 84.328125 L 172.097656 84.328125 C 170.324219 84.328125 168.886719 82.890625 168.886719 81.117188 C 168.886719 79.34375 170.324219 77.90625 172.097656 77.90625 L 224.117188 77.90625 C 225.890625 77.90625 227.328125 79.34375 227.328125 81.117188 C 227.328125 82.890625 225.890625 84.328125 224.117188 84.328125 "/>
<path style=" stroke:none;fill-rule:nonzero;fill:rgb(49.409485%,85.099792%,34.118652%);fill-opacity:1;" d="M 224.117188 205.453125 L 172.097656 205.453125 C 170.324219 205.453125 168.886719 204.015625 168.886719 202.242188 C 168.886719 200.46875 170.324219 199.03125 172.097656 199.03125 L 224.117188 199.03125 C 225.890625 199.03125 227.328125 200.46875 227.328125 202.242188 C 227.328125 204.015625 225.890625 205.453125 224.117188 205.453125 "/>
<g clip-path="url(#clip5)" clip-rule="nonzero">
<path style=" stroke:none;fill-rule:nonzero;fill:rgb(49.409485%,85.099792%,34.118652%);fill-opacity:1;" d="M 50.9375 205.453125 L 26.195312 205.453125 C 24.421875 205.453125 22.984375 204.015625 22.984375 202.242188 L 22.984375 81.117188 C 22.984375 79.34375 24.421875 77.90625 26.195312 77.90625 L 50.9375 77.90625 C 52.714844 77.90625 54.152344 79.34375 54.152344 81.117188 C 54.152344 82.890625 52.714844 84.328125 50.9375 84.328125 L 29.410156 84.328125 L 29.410156 199.03125 L 50.9375 199.03125 C 52.714844 199.03125 54.152344 200.46875 54.152344 202.242188 C 54.152344 204.015625 52.714844 205.453125 50.9375 205.453125 "/>
</g>
<g clip-path="url(#clip6)" clip-rule="nonzero">
<path style=" stroke:none;fill-rule:nonzero;fill:rgb(49.409485%,85.099792%,34.118652%);fill-opacity:1;" d="M 370.015625 205.453125 L 345.273438 205.453125 C 343.5 205.453125 342.0625 204.015625 342.0625 202.242188 C 342.0625 200.46875 343.5 199.03125 345.273438 199.03125 L 366.800781 199.03125 L 366.800781 84.328125 L 345.273438 84.328125 C 343.5 84.328125 342.0625 82.890625 342.0625 81.117188 C 342.0625 79.34375 343.5 77.90625 345.273438 77.90625 L 370.015625 77.90625 C 371.789062 77.90625 373.226562 79.34375 373.226562 81.117188 L 373.226562 202.242188 C 373.226562 204.015625 371.789062 205.453125 370.015625 205.453125 "/>
</g>
</g>
</svg>
