<?xml version="1.0" encoding="UTF-8"?>
<svg xmlns="http://www.w3.org/2000/svg" xmlns:xlink="http://www.w3.org/1999/xlink" width="396pt" height="296.999993pt" viewBox="0 0 396 296.999993" version="1.2">
<defs>
<clipPath id="clip1">
  <path d="M 74.546875 25.046875 L 321.296875 25.046875 L 321.296875 271.796875 L 74.546875 271.796875 Z M 74.546875 25.046875 "/>
</clipPath>
</defs>
<g id="surface1">
<path style=" stroke:none;fill-rule:nonzero;fill:rgb(54.899597%,32.159424%,100%);fill-opacity:1;" d="M 146.1875 200.160156 L 138.226562 200.160156 L 138.226562 184.242188 L 146.1875 184.242188 C 150.570312 184.242188 154.144531 187.816406 154.144531 192.203125 C 154.144531 196.585938 150.570312 200.160156 146.1875 200.160156 Z M 146.1875 224.039062 L 138.226562 224.039062 L 138.226562 208.121094 L 146.1875 208.121094 C 150.570312 208.121094 154.144531 211.695312 154.144531 216.082031 C 154.144531 220.464844 150.570312 224.039062 146.1875 224.039062 Z M 146.1875 176.28125 L 146.1875 168.324219 L 138.226562 168.324219 L 138.226562 176.28125 L 130.265625 176.28125 L 130.265625 232 L 138.226562 232 L 138.226562 239.960938 L 146.1875 239.960938 L 146.1875 232 C 154.96875 232 162.105469 224.863281 162.105469 216.082031 C 162.105469 211.324219 160.007812 207.0625 156.710938 204.140625 C 160.007812 201.21875 162.105469 196.957031 162.105469 192.203125 C 162.105469 183.417969 154.96875 176.28125 146.1875 176.28125 "/>
<path style=" stroke:none;fill-rule:nonzero;fill:rgb(54.899597%,32.159424%,100%);fill-opacity:1;" d="M 290.191406 102.964844 L 289.304688 101.972656 L 283.472656 107.414062 L 284.265625 108.28125 C 286.085938 110.304688 287.734375 112.480469 289.195312 114.75 L 295.894531 110.460938 C 294.203125 107.816406 292.289062 105.296875 290.191406 102.964844 "/>
<path style=" stroke:none;fill-rule:nonzero;fill:rgb(54.899597%,32.159424%,100%);fill-opacity:1;" d="M 298.398438 114.71875 L 291.371094 118.449219 C 295.320312 125.882812 297.417969 134.277344 297.417969 142.6875 C 297.417969 145.734375 297.15625 148.765625 296.640625 151.71875 L 304.476562 153.085938 C 305.066406 149.683594 305.378906 146.183594 305.378906 142.6875 C 305.378906 132.96875 302.96875 123.285156 298.398438 114.71875 "/>
<g clip-path="url(#clip1)" clip-rule="nonzero">
<path style=" stroke:none;fill-rule:nonzero;fill:rgb(54.899597%,32.159424%,100%);fill-opacity:1;" d="M 298.226562 191.113281 L 291.855469 199.632812 C 291.15625 200.535156 289.460938 199.992188 289.460938 198.839844 L 289.460938 158.140625 C 289.460938 145.796875 285.042969 133.824219 277.007812 124.464844 L 267.011719 112.808594 L 289.414062 90.40625 C 290.765625 91.820312 292.117188 93.25 293.472656 94.726562 C 306.28125 108.71875 313.339844 126.84375 313.339844 145.796875 C 313.339844 162.027344 307.976562 178.132812 298.226562 191.113281 Z M 231.410156 92.707031 L 269.5625 54.554688 L 291.792969 76.785156 L 253.640625 114.9375 Z M 196.570312 164.046875 C 192.558594 158.605469 187.742188 153.785156 182.300781 149.777344 L 229.761719 102.3125 L 244.035156 116.585938 Z M 175.832031 164.902344 C 167.71875 157.9375 157.457031 153.476562 146.1875 152.605469 L 146.1875 144.644531 C 159.648438 145.546875 171.882812 150.894531 181.445312 159.257812 Z M 193.742188 200.160156 C 192.871094 188.890625 188.410156 178.628906 181.445312 170.515625 L 187.085938 164.902344 C 195.453125 174.464844 200.800781 186.699219 201.703125 200.160156 Z M 181.445312 237.769531 C 188.410156 229.652344 192.871094 219.390625 193.742188 208.121094 L 201.703125 208.121094 C 200.800781 221.585938 195.453125 233.820312 187.085938 243.394531 Z M 146.1875 255.675781 C 157.457031 254.804688 167.71875 250.34375 175.832031 243.394531 L 181.445312 249.007812 C 171.882812 257.386719 159.648438 262.75 146.1875 263.636719 Z M 108.578125 243.394531 C 116.695312 250.34375 126.953125 254.804688 138.226562 255.675781 L 138.226562 263.636719 C 124.761719 262.75 112.527344 257.386719 102.953125 249.007812 Z M 90.671875 208.121094 C 91.539062 219.390625 96.003906 229.652344 102.953125 237.769531 L 97.339844 243.394531 C 88.960938 233.820312 83.597656 221.585938 82.710938 208.121094 Z M 102.953125 170.515625 C 96.003906 178.628906 91.539062 188.890625 90.671875 200.160156 L 82.710938 200.160156 C 83.597656 186.699219 88.960938 174.464844 97.339844 164.902344 Z M 138.226562 152.605469 C 126.953125 153.476562 116.695312 157.9375 108.578125 164.902344 L 102.953125 159.257812 C 112.527344 150.894531 124.761719 145.546875 138.226562 144.644531 Z M 185.984375 204.140625 C 185.984375 228.285156 166.347656 247.917969 142.207031 247.917969 C 118.0625 247.917969 98.425781 228.285156 98.425781 204.140625 C 98.425781 179.996094 118.0625 160.363281 142.207031 160.363281 C 166.347656 160.363281 185.984375 179.996094 185.984375 204.140625 Z M 221.878906 69.339844 C 212.519531 61.300781 200.550781 56.886719 188.207031 56.886719 L 147.507812 56.886719 C 146.777344 56.886719 146.1875 56.296875 146.1875 55.566406 C 146.1875 55.144531 146.386719 54.742188 146.714844 54.492188 L 155.234375 48.121094 C 168.214844 38.371094 184.320312 33.007812 200.550781 33.007812 C 219.5 33.007812 237.628906 40.066406 251.621094 52.875 C 253.097656 54.230469 254.527344 55.582031 255.941406 56.933594 L 233.539062 79.335938 Z M 287.050781 45.027344 C 294.574219 45.773438 300.574219 51.773438 301.320312 59.296875 L 293.441406 67.179688 L 279.167969 52.90625 Z M 299.332031 89.347656 C 297.902344 87.777344 296.472656 86.269531 295.054688 84.792969 L 303.046875 76.785156 L 299.066406 72.804688 L 309.359375 62.515625 L 309.359375 60.867188 C 309.359375 47.699219 298.648438 36.988281 285.480469 36.988281 L 283.832031 36.988281 L 273.539062 47.28125 L 269.5625 43.300781 L 261.554688 51.289062 C 260.078125 49.875 258.570312 48.445312 257 47.015625 C 241.546875 32.851562 221.492188 25.046875 200.550781 25.046875 C 182.609375 25.046875 164.808594 30.972656 150.460938 41.746094 L 141.941406 48.132812 C 139.609375 49.875 138.226562 52.644531 138.226562 55.566406 C 138.226562 60.679688 142.390625 64.847656 147.507812 64.847656 L 188.207031 64.847656 C 198.652344 64.847656 208.773438 68.59375 216.703125 75.386719 L 227.898438 84.964844 L 220.15625 92.707031 L 224.132812 96.6875 L 175.507812 145.3125 C 165.664062 139.71875 154.316406 136.484375 142.207031 136.484375 C 104.894531 136.484375 74.546875 166.832031 74.546875 204.140625 C 74.546875 241.453125 104.894531 271.796875 142.207031 271.796875 C 179.515625 271.796875 209.863281 241.453125 209.863281 204.140625 C 209.863281 192.03125 206.628906 180.683594 201.03125 170.839844 L 249.660156 122.210938 L 253.640625 126.191406 L 261.382812 118.449219 L 270.960938 129.644531 C 277.753906 137.574219 281.5 147.691406 281.5 158.140625 L 281.5 198.839844 C 281.5 203.953125 285.667969 208.121094 290.78125 208.121094 C 293.703125 208.121094 296.472656 206.738281 298.210938 204.40625 L 304.601562 195.886719 C 315.375 181.535156 321.296875 163.738281 321.296875 145.796875 C 321.296875 124.855469 313.496094 104.800781 299.332031 89.347656 "/>
</g>
<path style=" stroke:none;fill-rule:nonzero;fill:rgb(54.899597%,32.159424%,100%);fill-opacity:1;" d="M 223.667969 61.628906 C 226.730469 63.542969 229.667969 65.65625 232.421875 67.925781 L 237.488281 61.769531 C 234.472656 59.296875 231.238281 56.980469 227.898438 54.867188 L 223.667969 61.628906 "/>
<path style=" stroke:none;fill-rule:nonzero;fill:rgb(54.899597%,32.159424%,100%);fill-opacity:1;" d="M 194.597656 42.242188 L 193.289062 50.078125 C 202.632812 51.664062 211.589844 54.789062 219.875 59.390625 L 223.730469 52.425781 C 214.652344 47.386719 204.855469 43.96875 194.597656 42.242188 "/>
</g>
</svg>
