<?xml version="1.0" encoding="UTF-8"?>
<svg xmlns="http://www.w3.org/2000/svg" xmlns:xlink="http://www.w3.org/1999/xlink" width="396pt" height="296.999993pt" viewBox="0 0 396 296.999993" version="1.2">
<defs>
<clipPath id="clip1">
  <path d="M 57.039062 7.539062 L 339.039062 7.539062 L 339.039062 289.539062 L 57.039062 289.539062 Z M 57.039062 7.539062 "/>
</clipPath>
</defs>
<g id="surface1">
<path style=" stroke:none;fill-rule:nonzero;fill:rgb(36.079407%,88.238525%,90.19928%);fill-opacity:1;" d="M 268.539062 68.636719 L 301.4375 87.4375 L 334.335938 68.636719 L 301.4375 49.835938 L 268.539062 68.636719 "/>
<path style=" stroke:none;fill-rule:nonzero;fill:rgb(0%,76.078796%,79.60968%);fill-opacity:1;" d="M 268.539062 68.636719 L 268.539062 106.238281 L 301.4375 125.039062 L 301.4375 87.4375 L 268.539062 68.636719 "/>
<path style=" stroke:none;fill-rule:nonzero;fill:rgb(21.958923%,71.369934%,100%);fill-opacity:1;" d="M 301.4375 125.039062 L 334.335938 106.238281 L 334.335938 68.636719 L 301.4375 87.4375 L 301.4375 125.039062 "/>
<path style=" stroke:none;fill-rule:nonzero;fill:rgb(21.958923%,71.369934%,100%);fill-opacity:1;" d="M 198.039062 87.4375 L 230.9375 68.636719 L 230.9375 31.039062 L 198.039062 49.835938 L 198.039062 87.4375 "/>
<path style=" stroke:none;fill-rule:nonzero;fill:rgb(36.079407%,88.238525%,90.19928%);fill-opacity:1;" d="M 230.9375 31.039062 L 198.039062 12.238281 L 165.136719 31.039062 L 198.039062 49.835938 L 230.9375 31.039062 "/>
<path style=" stroke:none;fill-rule:nonzero;fill:rgb(0%,76.078796%,79.60968%);fill-opacity:1;" d="M 198.039062 49.835938 L 165.136719 31.039062 L 165.136719 68.636719 L 198.039062 87.4375 L 198.039062 49.835938 "/>
<path style=" stroke:none;fill-rule:nonzero;fill:rgb(0%,76.078796%,79.60968%);fill-opacity:1;" d="M 61.738281 68.636719 L 61.738281 106.238281 L 94.636719 125.039062 L 94.636719 87.4375 L 61.738281 68.636719 "/>
<path style=" stroke:none;fill-rule:nonzero;fill:rgb(36.079407%,88.238525%,90.19928%);fill-opacity:1;" d="M 127.539062 68.636719 L 94.636719 49.835938 L 61.738281 68.636719 L 94.636719 87.4375 L 127.539062 68.636719 "/>
<path style=" stroke:none;fill-rule:nonzero;fill:rgb(21.958923%,71.369934%,100%);fill-opacity:1;" d="M 127.539062 87.4375 L 127.539062 68.636719 L 94.636719 87.4375 L 94.636719 125.039062 L 127.539062 106.238281 L 127.539062 87.4375 "/>
<path style=" stroke:none;fill-rule:nonzero;fill:rgb(36.079407%,88.238525%,90.19928%);fill-opacity:1;" d="M 198.039062 148.539062 L 230.9375 129.738281 L 198.039062 110.9375 L 165.136719 129.738281 L 198.039062 148.539062 "/>
<path style=" stroke:none;fill-rule:nonzero;fill:rgb(21.958923%,71.369934%,100%);fill-opacity:1;" d="M 198.039062 186.136719 L 230.9375 167.335938 L 230.9375 129.738281 L 198.039062 148.539062 L 198.039062 186.136719 "/>
<path style=" stroke:none;fill-rule:nonzero;fill:rgb(0%,76.078796%,79.60968%);fill-opacity:1;" d="M 165.136719 129.738281 L 165.136719 167.335938 L 198.039062 186.136719 L 198.039062 148.539062 L 165.136719 129.738281 "/>
<path style=" stroke:none;fill-rule:nonzero;fill:rgb(21.958923%,71.369934%,100%);fill-opacity:1;" d="M 301.4375 247.238281 L 334.335938 228.4375 L 334.335938 190.835938 L 301.4375 209.636719 L 301.4375 247.238281 "/>
<path style=" stroke:none;fill-rule:nonzero;fill:rgb(36.079407%,88.238525%,90.19928%);fill-opacity:1;" d="M 301.4375 209.636719 L 334.335938 190.835938 L 301.4375 172.039062 L 268.539062 190.835938 L 301.4375 209.636719 "/>
<path style=" stroke:none;fill-rule:nonzero;fill:rgb(0%,76.078796%,79.60968%);fill-opacity:1;" d="M 268.539062 190.835938 L 268.539062 228.4375 L 301.4375 247.238281 L 301.4375 209.636719 L 268.539062 190.835938 "/>
<path style=" stroke:none;fill-rule:nonzero;fill:rgb(36.079407%,88.238525%,90.19928%);fill-opacity:1;" d="M 198.039062 247.238281 L 230.9375 228.4375 L 198.039062 209.636719 L 165.136719 228.4375 L 198.039062 247.238281 "/>
<path style=" stroke:none;fill-rule:nonzero;fill:rgb(21.958923%,71.369934%,100%);fill-opacity:1;" d="M 198.039062 247.238281 L 198.039062 284.835938 L 230.9375 266.039062 L 230.9375 228.4375 L 198.039062 247.238281 "/>
<path style=" stroke:none;fill-rule:nonzero;fill:rgb(0%,76.078796%,79.60968%);fill-opacity:1;" d="M 165.136719 228.4375 L 165.136719 266.039062 L 198.039062 284.835938 L 198.039062 247.238281 L 165.136719 228.4375 "/>
<path style=" stroke:none;fill-rule:nonzero;fill:rgb(36.079407%,88.238525%,90.19928%);fill-opacity:1;" d="M 127.539062 190.835938 L 94.636719 172.039062 L 61.738281 190.835938 L 94.636719 209.636719 L 127.539062 190.835938 "/>
<path style=" stroke:none;fill-rule:nonzero;fill:rgb(0%,76.078796%,79.60968%);fill-opacity:1;" d="M 61.738281 190.835938 L 61.738281 228.4375 L 94.636719 247.238281 L 94.636719 209.636719 L 61.738281 190.835938 "/>
<path style=" stroke:none;fill-rule:nonzero;fill:rgb(21.958923%,71.369934%,100%);fill-opacity:1;" d="M 94.636719 209.636719 L 94.636719 247.238281 L 127.539062 228.4375 L 127.539062 190.835938 L 94.636719 209.636719 "/>
<g clip-path="url(#clip1)" clip-rule="nonzero">
<path style=" stroke:none;fill-rule:nonzero;fill:rgb(0%,29.019165%,67.83905%);fill-opacity:1;" d="M 306.136719 239.140625 L 306.136719 212.375 L 329.636719 198.933594 L 329.636719 225.703125 Z M 273.238281 198.933594 L 296.738281 212.375 L 296.738281 239.140625 L 273.238281 225.703125 Z M 233.269531 224.363281 L 202.738281 206.902344 L 202.738281 188.875 L 233.269531 171.414062 C 234.738281 170.585938 235.636719 169.027344 235.636719 167.335938 L 235.636719 129.738281 C 235.636719 128.046875 234.738281 126.488281 233.269531 125.660156 L 202.738281 108.203125 L 202.738281 90.171875 L 231.085938 73.960938 L 263.835938 90.339844 L 263.835938 106.238281 C 263.835938 107.925781 264.738281 109.488281 266.207031 110.3125 L 296.738281 127.773438 L 296.738281 169.300781 L 266.207031 186.761719 C 264.738281 187.589844 263.835938 189.148438 263.835938 190.835938 L 263.835938 225.832031 L 235.636719 243.457031 L 235.636719 228.4375 C 235.636719 226.75 234.738281 225.1875 233.269531 224.363281 Z M 202.738281 276.742188 L 202.738281 249.972656 L 226.238281 236.535156 L 226.238281 263.300781 Z M 169.835938 236.535156 L 193.335938 249.972656 L 193.335938 276.742188 L 169.835938 263.300781 Z M 132.238281 225.832031 L 132.238281 190.835938 C 132.238281 189.148438 131.339844 187.589844 129.871094 186.761719 L 99.335938 169.300781 L 99.335938 127.773438 L 129.871094 110.3125 C 131.339844 109.488281 132.238281 107.925781 132.238281 106.238281 L 132.238281 90.339844 L 164.992188 73.960938 L 193.335938 90.171875 L 193.335938 108.203125 L 162.804688 125.660156 C 161.335938 126.488281 160.4375 128.046875 160.4375 129.738281 L 160.4375 167.335938 C 160.4375 169.027344 161.335938 170.585938 162.804688 171.414062 L 193.335938 188.875 L 193.335938 206.902344 L 162.804688 224.363281 C 161.335938 225.1875 160.4375 226.75 160.4375 228.4375 L 160.4375 243.457031 Z M 99.335938 239.140625 L 99.335938 212.375 L 122.835938 198.933594 L 122.835938 225.703125 Z M 66.4375 198.933594 L 89.9375 212.375 L 89.9375 239.140625 L 66.4375 225.703125 Z M 94.636719 204.222656 L 71.210938 190.835938 L 94.636719 177.453125 L 118.0625 190.835938 Z M 66.4375 76.734375 L 89.9375 90.171875 L 89.9375 116.941406 L 66.4375 103.503906 Z M 94.636719 55.253906 L 118.0625 68.636719 L 94.636719 82.023438 L 71.210938 68.636719 Z M 99.335938 90.171875 L 122.835938 76.734375 L 122.835938 103.503906 L 99.335938 116.941406 Z M 198.039062 17.652344 L 221.464844 31.039062 L 198.039062 44.421875 L 174.609375 31.039062 Z M 202.738281 52.574219 L 226.238281 39.132812 L 226.238281 65.902344 L 202.738281 79.339844 Z M 169.835938 39.132812 L 193.335938 52.574219 L 193.335938 79.339844 L 169.835938 65.902344 Z M 198.039062 143.121094 L 174.609375 129.738281 L 198.039062 116.355469 L 221.464844 129.738281 Z M 202.738281 151.273438 L 226.238281 137.835938 L 226.238281 164.601562 L 202.738281 178.042969 Z M 169.835938 137.835938 L 193.335938 151.273438 L 193.335938 178.042969 L 169.835938 164.601562 Z M 198.039062 241.820312 L 174.609375 228.4375 L 198.039062 215.054688 L 221.464844 228.4375 Z M 301.4375 55.253906 L 324.863281 68.636719 L 301.4375 82.023438 L 278.011719 68.636719 Z M 273.238281 76.734375 L 296.738281 90.171875 L 296.738281 116.941406 L 273.238281 103.503906 Z M 301.4375 204.222656 L 278.011719 190.835938 L 301.4375 177.453125 L 324.863281 190.835938 Z M 306.136719 116.941406 L 306.136719 90.171875 L 329.636719 76.734375 L 329.636719 103.503906 Z M 336.667969 110.3125 C 338.136719 109.488281 339.039062 107.925781 339.039062 106.238281 L 339.039062 68.636719 C 339.039062 66.949219 338.136719 65.386719 336.667969 64.5625 L 303.769531 45.761719 C 302.335938 44.9375 300.539062 44.9375 299.105469 45.761719 L 266.207031 64.5625 C 264.738281 65.386719 263.835938 66.949219 263.835938 68.636719 L 263.835938 79.835938 L 235.636719 65.738281 L 235.636719 31.039062 C 235.636719 29.347656 234.738281 27.789062 233.269531 26.960938 L 200.371094 8.160156 C 198.9375 7.335938 197.136719 7.335938 195.707031 8.160156 L 162.804688 26.960938 C 161.335938 27.789062 160.4375 29.347656 160.4375 31.039062 L 160.4375 65.738281 L 132.238281 79.835938 L 132.238281 68.636719 C 132.238281 66.949219 131.339844 65.386719 129.871094 64.5625 L 96.96875 45.761719 C 95.539062 44.9375 93.757812 44.9375 92.304688 45.761719 L 59.40625 64.5625 C 57.9375 65.386719 57.039062 66.949219 57.039062 68.636719 L 57.039062 106.238281 C 57.039062 107.925781 57.9375 109.488281 59.40625 110.3125 L 89.9375 127.773438 L 89.9375 169.300781 L 59.40625 186.761719 C 57.9375 187.589844 57.039062 189.148438 57.039062 190.835938 L 57.039062 228.4375 C 57.039062 230.125 57.9375 231.6875 59.40625 232.511719 L 92.304688 251.3125 C 93.023438 251.734375 93.828125 251.9375 94.636719 251.9375 C 95.445312 251.9375 96.253906 251.734375 96.96875 251.3125 L 127.425781 233.910156 L 160.4375 254.542969 L 160.4375 266.039062 C 160.4375 267.726562 161.335938 269.289062 162.804688 270.113281 L 195.707031 288.914062 C 196.421875 289.335938 197.230469 289.539062 198.039062 289.539062 C 198.84375 289.539062 199.652344 289.335938 200.371094 288.914062 L 233.269531 270.113281 C 234.738281 269.289062 235.636719 267.726562 235.636719 266.039062 L 235.636719 254.542969 L 268.648438 233.910156 L 299.105469 251.3125 C 299.820312 251.734375 300.628906 251.9375 301.4375 251.9375 C 302.246094 251.9375 303.054688 251.734375 303.769531 251.3125 L 336.667969 232.511719 C 338.136719 231.6875 339.039062 230.125 339.039062 228.4375 L 339.039062 190.835938 C 339.039062 189.148438 338.136719 187.589844 336.667969 186.761719 L 306.136719 169.300781 L 306.136719 127.773438 L 336.667969 110.3125 "/>
</g>
</g>
</svg>
