<?xml version="1.0" encoding="UTF-8"?>
<svg xmlns="http://www.w3.org/2000/svg" xmlns:xlink="http://www.w3.org/1999/xlink" width="396pt" height="296.999993pt" viewBox="0 0 396 296.999993" version="1.2">
<g id="surface1">
<path style=" stroke:none;fill-rule:nonzero;fill:rgb(100%,43.139648%,43.139648%);fill-opacity:1;" d="M 358.847656 51.578125 C 357.210938 49.753906 354.835938 48.617188 353.246094 47.039062 C 350.597656 44.386719 348.320312 44.472656 345.511719 45.792969 C 328.503906 53.773438 312.027344 62.75 296.117188 72.75 C 294.007812 74.070312 292.015625 75.5625 289.984375 76.992188 C 288.9375 77.730469 289.109375 78.421875 289.539062 79.679688 C 290.414062 82.28125 292.914062 82.972656 294.488281 84.6875 C 297.382812 87.832031 298.195312 87.78125 302.101562 85.476562 C 309.453125 81.148438 316.890625 76.941406 324.503906 73.082031 C 325.648438 72.503906 326.683594 71.441406 328.28125 71.800781 C 327.335938 73.207031 326.460938 74.5 325.585938 75.785156 C 315.746094 90.160156 306.347656 104.8125 298.011719 120.113281 C 295.128906 125.417969 292.101562 130.683594 290.117188 136.429688 C 289.292969 136.886719 289.207031 137.664062 289.183594 138.476562 C 287.371094 141.015625 286.335938 143.890625 285.476562 146.847656 C 284.6875 147.28125 284.5625 148.007812 284.636719 148.808594 C 284.007812 149.265625 283.691406 149.871094 283.824219 150.660156 C 278.023438 163.125 274.625 176.394531 271.054688 190.664062 C 268.566406 183.042969 267.25 176.222656 265.980469 169.402344 C 263.457031 155.800781 262.496094 142.015625 261.621094 128.242188 C 261.363281 124.121094 259.34375 121.632812 256.226562 119.84375 C 253.691406 118.386719 250.820312 117.511719 248.074219 116.414062 C 246.804688 115.910156 245.660156 116.265625 244.613281 117.082031 C 239.761719 125.578125 235.070312 134.171875 229.636719 142.324219 C 229.6875 143.136719 229.328125 143.730469 228.628906 144.125 C 228.738281 144.617188 228.640625 145 228.085938 145.148438 C 227.925781 145.417969 227.765625 145.703125 227.617188 145.972656 C 227.742188 146.492188 227.59375 146.863281 227.039062 147.007812 C 226.621094 148.699219 225.609375 150.09375 224.738281 151.546875 C 223.824219 153.914062 222.789062 156.222656 221.226562 158.230469 C 221.261719 158.539062 221.175781 158.796875 220.957031 159.007812 C 220.636719 160.117188 220.363281 161.238281 219.378906 161.992188 C 219.417969 162.289062 219.328125 162.546875 219.121094 162.757812 C 218.8125 163.878906 218.566406 165.027344 217.558594 165.789062 C 217.59375 166.085938 217.496094 166.332031 217.273438 166.53125 C 216.054688 169.824219 214.847656 173.113281 212.875 176.050781 C 212.851562 177.074219 212.382812 177.910156 211.757812 178.6875 C 211.878906 179.503906 211.511719 180.082031 210.90625 180.550781 C 210.992188 181.363281 210.785156 182.042969 210.042969 182.5 C 208.675781 187.0625 206.730469 191.378906 204.390625 195.507812 C 204.464844 196.308594 204.269531 197 203.53125 197.433594 C 203.566406 198.257812 203.417969 199.011719 202.628906 199.46875 C 199.625 207.890625 195.648438 215.855469 191.917969 224.03125 C 190.425781 222.984375 190.070312 221.578125 189.453125 220.34375 C 186.632812 214.632812 184.195312 208.765625 181.988281 202.796875 C 177.0625 189.390625 173.285156 175.617188 169.332031 161.917969 C 167.570312 155.800781 163.800781 152.867188 157.667969 152.535156 C 156.707031 151.078125 155.179688 152.054688 153.960938 151.660156 L 153.898438 151.621094 C 153.332031 150.734375 152.71875 150.660156 152.039062 151.496094 C 151.261719 151.484375 150.535156 151.570312 150.070312 152.3125 C 149.453125 152.347656 149.144531 152.707031 149.082031 153.296875 C 145.722656 157.480469 143.738281 162.386719 141.757812 167.292969 C 141.015625 167.75 140.796875 168.464844 140.808594 169.28125 C 139.773438 170.265625 139.355469 171.585938 138.921875 172.894531 C 138.445312 173.128906 138.183594 173.484375 138.269531 174.039062 C 138.035156 174.199219 137.925781 174.433594 137.964844 174.71875 C 137.433594 174.953125 137.1875 175.347656 137.261719 175.925781 L 137.238281 175.988281 C 136.546875 176.371094 136.175781 176.9375 136.226562 177.75 C 135.449219 178.097656 135.179688 178.738281 135.167969 179.527344 C 134.625 179.675781 134.429688 180.058594 134.515625 180.601562 C 134.292969 180.746094 134.195312 180.957031 134.207031 181.230469 C 133.628906 181.4375 133.429688 181.871094 133.480469 182.449219 L 133.492188 182.523438 C 132.878906 182.96875 132.457031 183.523438 132.519531 184.335938 C 128.589844 191.539062 124.910156 198.851562 122.175781 206.605469 C 122.113281 206.765625 122.039062 206.914062 121.976562 207.074219 C 118.664062 214.757812 115.363281 222.453125 112.050781 230.136719 C 111.277344 230.851562 110.625 231.320312 110.019531 229.886719 C 108.875 227.175781 107.59375 224.535156 106.425781 221.835938 C 100.523438 208.183594 95.648438 194.152344 90.597656 180.179688 C 88.925781 175.53125 86.335938 172.460938 81.203125 172.105469 C 78.0625 171.4375 74.921875 170.316406 71.78125 172.078125 C 71.78125 172.066406 71.792969 172.066406 71.792969 172.054688 C 71.214844 172.140625 70.917969 172.5 70.871094 173.066406 C 69.835938 173.707031 69.21875 174.65625 68.925781 175.828125 C 67.519531 177.085938 66.597656 178.640625 66.015625 180.425781 C 64.6875 181.757812 63.75 183.324219 63.210938 185.113281 L 63.222656 185.113281 C 57.003906 193.757812 51.3125 202.722656 46.757812 212.378906 C 45.757812 213.449219 45.03125 214.660156 44.824219 216.125 C 42.039062 220.515625 40.019531 225.25 38.285156 230.136719 C 36.535156 232.316406 36.089844 235.078125 34.972656 237.546875 C 34.230469 239.160156 34.882812 240.40625 36.472656 241.148438 C 37.949219 241.898438 38.984375 241.023438 40.03125 240.171875 C 40.722656 240.519531 41.410156 240.863281 42.101562 241.222656 C 43.875 242.417969 45.378906 241.960938 46.460938 240.296875 C 47.296875 239.011719 47.9375 237.582031 48.589844 236.175781 C 56.425781 219.285156 66.128906 203.476562 76.597656 188.121094 L 78.480469 188.011719 L 78.480469 188.023438 C 79.171875 193.894531 81.757812 199.183594 83.503906 204.734375 C 84.046875 206.433594 84.292969 208.320312 85.820312 209.578125 C 88.875 217.890625 92.421875 226.003906 96.078125 234.054688 C 97.496094 237.175781 99.144531 240.160156 101.128906 242.960938 C 102.433594 244.796875 104.082031 246.460938 106.3125 246.546875 C 107.9375 246.609375 109.171875 247.226562 110.585938 247.695312 C 112.617188 248.386719 114.722656 248.828125 116.941406 248.828125 C 120.277344 248.816406 122.617188 247.496094 124.035156 244.527344 C 125.03125 242.429688 126.03125 240.320312 126.941406 238.175781 C 135.636719 217.742188 144.824219 197.53125 154.882812 177.726562 C 155.574219 176.371094 155.917969 174.78125 157.335938 173.84375 C 163.195312 191.527344 170.585938 208.554688 178.332031 225.4375 C 177.777344 228.953125 180.4375 231.144531 181.832031 233.847656 C 182.359375 234.871094 183.136719 236.003906 184.664062 235.832031 C 185.167969 236.191406 185.660156 236.558594 186.191406 236.894531 C 194.648438 242.085938 200.769531 240.417969 205.09375 231.6875 C 210.191406 221.40625 214.996094 210.984375 219.367188 200.367188 C 226.695312 182.574219 234.402344 164.976562 244.257812 148.390625 C 245.054688 147.058594 245.5 145.382812 247.273438 144.417969 C 248.394531 154.320312 250.019531 163.804688 251.976562 173.226562 C 254.132812 183.570312 256.484375 193.84375 260.917969 203.5 C 263.429688 208.988281 269.023438 211.972656 275.265625 211.367188 C 278.371094 212.761719 278.371094 212.761719 279.882812 209.503906 C 281.742188 207.246094 282.078125 204.410156 282.789062 201.75 C 285.820312 190.339844 288.542969 178.875 292.605469 167.75 C 302.570312 140.523438 317.175781 115.835938 333.628906 92.148438 C 333.886719 91.777344 334.207031 91.40625 334.910156 91.59375 C 334.871094 92.296875 334.859375 93.046875 334.773438 93.789062 C 333.875 101.839844 333.566406 109.878906 333.910156 118.007812 C 334.183594 124.492188 338.371094 127.761719 342.679688 131.039062 C 345.214844 132.976562 346.078125 132.308594 346.261719 129.164062 C 346.988281 116.710938 348.863281 104.429688 351.484375 92.234375 C 353.761719 81.578125 356.71875 71.097656 360.636719 60.949219 C 362.0625 57.199219 361.324219 54.339844 358.847656 51.578125 Z M 56.902344 206.804688 C 56.917969 206.792969 56.917969 206.765625 56.929688 206.753906 L 56.929688 206.765625 C 56.929688 206.78125 56.917969 206.792969 56.902344 206.804688 Z M 42.914062 235.769531 C 42.925781 235.769531 42.925781 235.78125 42.925781 235.78125 Z M 71.832031 182.460938 C 71.425781 182.3125 71.226562 182.054688 71.128906 181.746094 C 71.03125 181.4375 71.03125 181.082031 70.980469 180.746094 C 70.992188 180.636719 71.003906 180.539062 71.03125 180.425781 C 71.054688 180.21875 71.089844 180.019531 71.117188 179.8125 C 71.65625 179.589844 72.027344 179.144531 72.359375 178.664062 C 72.398438 178.613281 72.433594 178.566406 72.46875 178.515625 C 72.964844 177.824219 73.445312 177.121094 74.402344 177.011719 C 75.191406 177.9375 74.578125 178.75 74.257812 179.578125 C 73.445312 180.527344 72.644531 181.5 71.832031 182.460938 Z M 151.25 158.28125 C 149.664062 161.363281 148.0625 164.433594 146.472656 167.515625 C 145.894531 169.328125 145.03125 170.992188 143.886719 172.5 C 143.835938 173.238281 143.605469 173.867188 142.902344 174.226562 C 142.9375 174.507812 142.851562 174.753906 142.644531 174.953125 C 142.308594 175.828125 141.976562 176.714844 141.644531 177.589844 C 141.609375 177.738281 141.558594 177.835938 141.484375 177.898438 C 141.535156 177.800781 141.597656 177.691406 141.644531 177.589844 C 141.546875 177.601562 141.449219 177.628906 141.351562 177.664062 C 141.214844 177.714844 141.078125 177.789062 140.96875 177.898438 C 140.929688 178.195312 140.945312 178.492188 141.015625 178.773438 C 140.277344 179.664062 140.230469 180.996094 139.15625 181.683594 C 139.171875 181.96875 139.132812 182.238281 139.082031 182.511719 C 138.863281 182.597656 138.640625 182.648438 138.417969 182.695312 C 138.394531 182.695312 138.382812 182.707031 138.371094 182.707031 C 138.308594 183.25 138.246094 183.804688 138.171875 184.347656 C 137.765625 185.1875 137.371094 186.039062 136.964844 186.875 C 136.683594 186.863281 136.421875 186.949219 136.191406 187.125 C 136.214844 187.269531 136.226562 187.40625 136.25 187.554688 C 136.277344 187.738281 136.300781 187.925781 136.324219 188.097656 C 135.945312 188.703125 135.5625 189.304688 135.179688 189.910156 C 134.847656 191.292969 134.257812 192.550781 133.394531 193.671875 C 131.449219 198.320312 129.195312 202.808594 126.152344 206.851562 C 126.003906 208.371094 124.945312 209.355469 124.109375 210.492188 C 123.886719 210.269531 123.664062 210.046875 123.429688 209.824219 L 123.417969 209.8125 L 123.050781 209.441406 C 123.085938 209.246094 123.074219 209.035156 123.0625 208.839844 C 123.050781 208.765625 123.050781 208.679688 123.035156 208.605469 C 123.628906 207.554688 124.21875 206.496094 124.808594 205.449219 C 126.867188 199.996094 129.722656 194.941406 132.484375 189.835938 C 132.484375 189.835938 132.9375 189.886719 132.9375 189.886719 C 132.9375 189.886719 133.394531 189.800781 133.394531 189.800781 L 133.46875 189.726562 L 134.28125 188.835938 C 134.28125 188.8125 134.292969 188.800781 134.292969 188.777344 C 134.332031 188.085938 134.664062 187.578125 135.21875 187.210938 C 135.242188 187.183594 135.265625 187.171875 135.289062 187.148438 C 135.769531 185.335938 136.644531 183.730469 137.828125 182.289062 C 137.839844 182.277344 137.839844 182.265625 137.851562 182.253906 C 137.914062 181.808594 137.964844 181.363281 138.011719 180.921875 C 138.023438 180.808594 138.035156 180.6875 138.0625 180.574219 L 138.257812 180.6875 C 138.269531 180.675781 138.269531 180.660156 138.285156 180.660156 L 138.429688 179.738281 L 138.429688 179.722656 C 138.703125 179.613281 138.835938 179.441406 138.910156 179.230469 C 138.960938 179.070312 138.972656 178.898438 138.9375 178.699219 C 139.332031 178.097656 139.722656 177.503906 140.117188 176.902344 C 140.585938 175.878906 140.832031 174.730469 141.804688 174.003906 C 141.792969 173.707031 141.878906 173.449219 142.078125 173.226562 C 142.335938 172.660156 142.605469 172.089844 142.863281 171.523438 C 142.828125 171.488281 142.789062 171.460938 142.753906 171.425781 C 142.828125 171.386719 142.902344 171.339844 142.964844 171.300781 C 142.976562 171.277344 142.976562 171.265625 142.988281 171.242188 C 142.988281 171.242188 142.617188 171.300781 142.617188 171.300781 C 142.816406 171.117188 142.914062 170.894531 142.902344 170.625 C 143.40625 170.363281 143.589844 169.933594 143.578125 169.390625 C 144.230469 168.429688 144.871094 167.46875 145.523438 166.503906 C 145.808594 165.65625 146.105469 164.804688 146.386719 163.953125 C 146.410156 163.890625 146.4375 163.828125 146.449219 163.753906 L 146.472656 163.71875 C 147.164062 163.3125 147.421875 162.671875 147.410156 161.90625 L 147.421875 161.882812 C 148.136719 161.472656 148.355469 160.820312 148.382812 160.054688 C 149.121094 159.671875 149.304688 158.996094 149.378906 158.242188 C 149.871094 158.058594 150.082031 157.699219 150.03125 157.183594 L 150.289062 157.28125 C 150.242188 156.996094 150.242188 156.714844 150.277344 156.429688 C 150.785156 156.246094 151.015625 155.863281 151.089844 155.34375 L 151.128906 155.296875 C 152.445312 155.40625 152.125 156.457031 152.238281 157.257812 C 151.929688 157.601562 151.582031 157.933594 151.25 158.28125 Z M 335.09375 82.566406 C 335.460938 82.613281 335.683594 82.75 335.671875 83.058594 C 335.671875 83.144531 335.660156 83.230469 335.609375 83.332031 L 335.15625 83.257812 L 334.722656 83.390625 C 334.824219 83.109375 334.945312 82.824219 335.09375 82.566406 Z M 289.15625 168.390625 C 288.617188 168.132812 288.503906 167.703125 288.515625 167.234375 C 288.515625 167.097656 288.53125 166.960938 288.554688 166.824219 C 288.601562 166.875 288.652344 166.925781 288.703125 166.960938 L 288.875 167.132812 C 289.035156 167.28125 289.183594 167.441406 289.34375 167.589844 C 289.378906 167.875 289.316406 168.144531 289.15625 168.390625 Z M 290.15625 165.617188 C 289.957031 165.40625 289.761719 165.210938 289.5625 165 C 289.417969 164.851562 289.28125 164.703125 289.132812 164.558594 C 289.109375 164.273438 289.195312 164.039062 289.390625 163.828125 C 289.550781 164.003906 289.699219 164.175781 289.859375 164.335938 C 290.007812 164.496094 290.15625 164.65625 290.304688 164.816406 C 290.351562 165.113281 290.304688 165.371094 290.15625 165.617188 Z M 291.953125 160.929688 C 291.78125 160.734375 291.609375 160.535156 291.421875 160.339844 C 291.3125 160.214844 291.203125 160.09375 291.089844 159.957031 C 291.042969 159.671875 291.117188 159.414062 291.300781 159.179688 C 291.449219 159.339844 291.597656 159.511719 291.742188 159.671875 C 291.878906 159.820312 292.015625 159.96875 292.148438 160.128906 C 292.199219 160.425781 292.136719 160.683594 291.953125 160.929688 Z M 299.578125 144.199219 C 298.875 144.617188 298.640625 145.269531 298.675781 146.046875 L 298.664062 146.097656 C 298.441406 146.085938 298.222656 146.070312 298 146.070312 C 297.914062 146.070312 297.828125 146.058594 297.753906 146.058594 C 297.765625 146.097656 297.765625 146.121094 297.777344 146.160156 C 297.804688 146.257812 297.839844 146.355469 297.851562 146.453125 C 297.890625 146.847656 297.777344 147.230469 297.605469 147.589844 C 297.554688 147.699219 297.496094 147.824219 297.433594 147.933594 L 297.644531 147.796875 L 297.890625 147.796875 C 296.988281 148.601562 297.148438 150.105469 295.941406 150.707031 C 295.855469 151.003906 295.769531 151.300781 295.671875 151.597656 C 295.328125 152.507812 294.984375 153.421875 294.636719 154.320312 C 294.488281 154.136719 294.34375 153.953125 294.183594 153.765625 C 294.097656 153.65625 293.996094 153.546875 293.910156 153.433594 C 293.921875 152.65625 294.167969 152.003906 294.910156 151.621094 C 294.945312 151.324219 294.984375 151.015625 295.019531 150.722656 C 295.253906 149.636719 295.535156 148.5625 296.449219 147.8125 C 296.71875 147.121094 296.496094 146.097656 297.605469 145.972656 C 297.59375 145.355469 297.59375 144.742188 297.582031 144.136719 C 297.816406 144.023438 297.902344 143.839844 297.828125 143.59375 C 298.394531 143.308594 298.53125 142.828125 298.480469 142.25 L 298.714844 142.359375 C 298.996094 142.667969 299.28125 142.976562 299.5625 143.285156 C 299.578125 143.59375 299.578125 143.890625 299.578125 144.199219 Z M 302.519531 137.230469 C 302.382812 137.648438 302.25 138.070312 302.101562 138.476562 C 301.828125 138.117188 301.546875 137.773438 301.277344 137.414062 L 301.277344 137.378906 C 301.289062 137.144531 301.277344 136.910156 301.214844 136.6875 C 301.4375 136.476562 301.523438 136.230469 301.507812 135.9375 C 301.792969 135.863281 302.050781 135.738281 302.273438 135.566406 L 302.273438 135.554688 C 302.25 135.292969 302.222656 135.035156 302.175781 134.765625 L 302.433594 134.851562 L 303.355469 135.847656 C 303.296875 136.441406 303.011719 136.898438 302.519531 137.230469 Z M 318.011719 109.582031 C 317.703125 110.398438 317.554688 111.324219 316.523438 111.582031 C 316.609375 112.714844 315.820312 113.417969 315.253906 114.234375 C 314.699219 115.664062 314.183594 117.117188 312.839844 118.054688 C 312.691406 118.351562 312.53125 118.648438 312.382812 118.941406 C 311.816406 120.347656 311.238281 121.753906 310.03125 122.765625 C 309.945312 123.53125 309.882812 124.308594 308.960938 124.578125 C 308.863281 124.875 308.777344 125.183594 308.675781 125.480469 C 308.355469 126.09375 308.035156 126.722656 307.703125 127.339844 C 307.101562 128.5625 306.496094 129.792969 305.882812 131.015625 C 305.609375 130.707031 305.351562 130.386719 305.082031 130.078125 C 305.09375 130.042969 305.082031 129.992188 305.09375 129.957031 C 305.117188 129.707031 305.117188 129.460938 305.082031 129.214844 C 305.636719 128.574219 306.203125 127.921875 306.757812 127.277344 C 306.890625 126.527344 306.941406 125.738281 307.851562 125.464844 C 307.949219 125.171875 308.050781 124.863281 308.148438 124.566406 C 308.480469 123.9375 308.824219 123.320312 309.15625 122.691406 C 309.773438 121.296875 310.265625 119.84375 311.621094 118.941406 C 311.683594 118.648438 311.757812 118.351562 311.816406 118.066406 C 312.359375 116.613281 312.914062 115.167969 314.292969 114.246094 C 314.648438 113.097656 315.03125 111.953125 316.261719 111.394531 C 316.175781 110.546875 316.398438 109.890625 317.296875 109.621094 C 317.347656 109.324219 317.394531 109.042969 317.445312 108.746094 C 317.863281 108.734375 318.28125 108.707031 318.703125 108.695312 C 318.492188 108.980469 318.257812 109.289062 318.011719 109.582031 Z M 319.96875 106.734375 C 319.613281 106.746094 319.257812 106.746094 318.886719 106.761719 C 319.023438 106.476562 319.15625 106.203125 319.292969 105.921875 C 319.664062 105.910156 320.019531 105.910156 320.390625 105.898438 C 320.242188 106.167969 320.105469 106.453125 319.96875 106.734375 Z M 321.792969 103.921875 L 320.609375 103.960938 C 320.78125 103.675781 320.957031 103.394531 321.128906 103.109375 C 321.472656 103.097656 321.816406 103.097656 322.175781 103.085938 C 322.125 103.394531 322.003906 103.675781 321.792969 103.921875 Z M 327.371094 95.5 C 326.964844 95.511719 326.546875 95.539062 326.140625 95.550781 C 326.335938 95.265625 326.535156 94.972656 326.730469 94.6875 C 327.074219 94.675781 327.421875 94.675781 327.765625 94.664062 C 327.714844 94.984375 327.59375 95.265625 327.371094 95.5 Z M 329.269531 92.703125 C 328.886719 92.714844 328.503906 92.726562 328.109375 92.738281 C 328.28125 92.457031 328.457031 92.171875 328.640625 91.886719 C 329.007812 91.875 329.367188 91.875 329.734375 91.863281 C 329.574219 92.148438 329.417969 92.429688 329.269531 92.703125 Z M 331.175781 89.914062 C 330.820312 89.925781 330.460938 89.925781 330.117188 89.941406 C 330.265625 89.65625 330.414062 89.386719 330.550781 89.101562 C 330.96875 89.089844 331.375 89.0625 331.792969 89.050781 C 331.582031 89.347656 331.386719 89.632812 331.175781 89.914062 Z M 333.898438 86.152344 C 333.46875 86.179688 333.050781 86.191406 332.617188 86.214844 C 332.828125 85.917969 333.035156 85.625 333.257812 85.339844 L 334.328125 85.339844 C 334.183594 85.613281 334.046875 85.882812 333.898438 86.152344 Z M 333.898438 86.152344 "/>
<path style=" stroke:none;fill-rule:nonzero;fill:rgb(44.709778%,77.648926%,30.589294%);fill-opacity:1;" d="M 358.847656 245.414062 C 357.210938 247.238281 354.835938 248.375 353.246094 249.953125 C 350.597656 252.601562 348.320312 252.515625 345.511719 251.199219 C 328.503906 243.21875 312.027344 234.242188 296.117188 224.242188 C 294.007812 222.921875 292.015625 221.429688 289.984375 220 C 288.9375 219.257812 289.109375 218.570312 289.539062 217.3125 C 290.414062 214.710938 292.914062 214.019531 294.488281 212.304688 C 297.382812 209.160156 298.195312 209.210938 302.101562 211.515625 C 309.453125 215.84375 316.890625 220.046875 324.503906 223.910156 C 325.648438 224.488281 326.683594 225.546875 328.28125 225.191406 C 327.335938 223.785156 326.460938 222.492188 325.585938 221.207031 C 315.746094 206.828125 306.347656 192.179688 298.011719 176.875 C 295.128906 171.574219 292.101562 166.308594 290.117188 160.5625 C 289.292969 160.105469 289.207031 159.328125 289.183594 158.515625 C 287.371094 155.976562 286.335938 153.101562 285.476562 150.140625 C 284.6875 149.710938 284.5625 148.984375 284.636719 148.179688 C 284.007812 147.726562 283.691406 147.121094 283.824219 146.332031 C 278.023438 133.863281 274.625 120.597656 271.054688 106.328125 C 268.566406 113.949219 267.25 120.769531 265.980469 127.589844 C 263.457031 141.191406 262.496094 154.976562 261.621094 168.75 C 261.363281 172.867188 259.34375 175.359375 256.226562 177.148438 C 253.691406 178.601562 250.820312 179.480469 248.074219 180.574219 C 246.804688 181.082031 245.660156 180.722656 244.613281 179.910156 C 239.761719 171.414062 235.070312 162.820312 229.636719 154.667969 C 229.6875 153.855469 229.328125 153.261719 228.628906 152.867188 C 228.738281 152.375 228.640625 151.992188 228.085938 151.84375 C 227.925781 151.574219 227.765625 151.289062 227.617188 151.019531 C 227.742188 150.5 227.59375 150.128906 227.039062 149.980469 C 226.621094 148.292969 225.609375 146.898438 224.738281 145.445312 C 223.824219 143.078125 222.789062 140.769531 221.226562 138.761719 C 221.261719 138.453125 221.175781 138.191406 220.957031 137.984375 C 220.636719 136.875 220.363281 135.75 219.378906 135 C 219.417969 134.703125 219.328125 134.445312 219.121094 134.234375 C 218.8125 133.113281 218.566406 131.964844 217.558594 131.203125 C 217.59375 130.90625 217.496094 130.660156 217.273438 130.460938 C 216.054688 127.167969 214.847656 123.875 212.875 120.941406 C 212.851562 119.917969 212.382812 119.078125 211.757812 118.300781 C 211.878906 117.488281 211.511719 116.910156 210.90625 116.441406 C 210.992188 115.625 210.785156 114.949219 210.042969 114.492188 C 208.675781 109.929688 206.730469 105.613281 204.390625 101.484375 C 204.464844 100.679688 204.269531 99.992188 203.53125 99.558594 C 203.566406 98.734375 203.417969 97.980469 202.628906 97.523438 C 199.625 89.101562 195.648438 81.136719 191.917969 72.960938 C 190.425781 74.007812 190.070312 75.414062 189.453125 76.648438 C 186.632812 82.355469 184.195312 88.226562 181.988281 94.195312 C 177.0625 107.597656 173.285156 121.375 169.332031 135.074219 C 167.570312 141.191406 163.800781 144.125 157.667969 144.457031 C 156.707031 145.914062 155.179688 144.9375 153.960938 145.332031 L 153.898438 145.371094 C 153.332031 146.257812 152.71875 146.332031 152.039062 145.492188 C 151.261719 145.503906 150.535156 145.417969 150.070312 144.679688 C 149.453125 144.640625 149.144531 144.285156 149.082031 143.691406 C 145.722656 139.511719 143.738281 134.605469 141.757812 129.695312 C 141.015625 129.242188 140.796875 128.527344 140.808594 127.710938 C 139.773438 126.726562 139.355469 125.40625 138.921875 124.097656 C 138.445312 123.863281 138.183594 123.507812 138.269531 122.953125 C 138.035156 122.792969 137.925781 122.558594 137.964844 122.273438 C 137.433594 122.039062 137.1875 121.644531 137.261719 121.066406 L 137.238281 121.003906 C 136.546875 120.621094 136.175781 120.054688 136.226562 119.238281 C 135.449219 118.894531 135.179688 118.253906 135.167969 117.464844 C 134.625 117.316406 134.429688 116.933594 134.515625 116.390625 C 134.292969 116.242188 134.195312 116.035156 134.207031 115.761719 C 133.628906 115.554688 133.429688 115.121094 133.480469 114.542969 L 133.492188 114.46875 C 132.878906 114.023438 132.457031 113.46875 132.519531 112.65625 C 128.589844 105.453125 124.910156 98.140625 122.175781 90.382812 C 122.113281 90.222656 122.039062 90.078125 121.976562 89.914062 C 118.664062 82.234375 115.363281 74.539062 112.050781 66.855469 C 111.277344 66.140625 110.625 65.671875 110.019531 67.101562 C 108.875 69.816406 107.59375 72.453125 106.425781 75.15625 C 100.523438 88.804688 95.648438 102.839844 90.597656 116.8125 C 88.925781 121.460938 86.335938 124.53125 81.203125 124.886719 C 78.0625 125.554688 74.921875 126.675781 71.78125 124.914062 C 71.78125 124.925781 71.792969 124.925781 71.792969 124.9375 C 71.214844 124.851562 70.917969 124.492188 70.871094 123.925781 C 69.835938 123.285156 69.21875 122.335938 68.925781 121.164062 C 67.519531 119.90625 66.597656 118.351562 66.015625 116.5625 C 64.6875 115.230469 63.75 113.667969 63.210938 111.878906 L 63.222656 111.878906 C 57.003906 103.234375 51.3125 94.269531 46.757812 84.613281 C 45.757812 83.539062 45.03125 82.332031 44.824219 80.863281 C 42.039062 76.476562 40.019531 71.738281 38.285156 66.855469 C 36.535156 64.671875 36.089844 61.910156 34.972656 59.445312 C 34.230469 57.828125 34.882812 56.585938 36.472656 55.84375 C 37.949219 55.09375 38.984375 55.96875 40.03125 56.820312 C 40.722656 56.472656 41.410156 56.128906 42.101562 55.769531 C 43.875 54.574219 45.378906 55.03125 46.460938 56.695312 C 47.296875 57.976562 47.9375 59.40625 48.589844 60.8125 C 56.425781 77.707031 66.128906 93.515625 76.597656 108.871094 L 78.480469 108.980469 L 78.480469 108.96875 C 79.171875 103.097656 81.757812 97.808594 83.503906 92.257812 C 84.046875 90.558594 84.292969 88.671875 85.820312 87.414062 C 88.875 79.101562 92.421875 70.988281 96.078125 62.933594 C 97.496094 59.816406 99.144531 56.832031 101.128906 54.03125 C 102.433594 52.195312 104.082031 50.53125 106.3125 50.441406 C 107.9375 50.382812 109.171875 49.765625 110.585938 49.296875 C 112.617188 48.605469 114.722656 48.160156 116.941406 48.160156 C 120.277344 48.175781 122.617188 49.492188 124.035156 52.464844 C 125.03125 54.5625 126.03125 56.671875 126.941406 58.816406 C 135.636719 79.25 144.824219 99.460938 154.882812 119.265625 C 155.574219 120.621094 155.917969 122.210938 157.335938 123.148438 C 163.195312 105.464844 170.585938 88.4375 178.332031 71.554688 C 177.777344 68.039062 180.4375 65.84375 181.832031 63.144531 C 182.359375 62.121094 183.136719 60.988281 184.664062 61.160156 C 185.167969 60.800781 185.660156 60.429688 186.191406 60.097656 C 194.648438 54.90625 200.769531 56.570312 205.09375 65.300781 C 210.191406 75.585938 214.996094 86.007812 219.367188 96.625 C 226.695312 114.417969 234.402344 132.015625 244.257812 148.601562 C 245.054688 149.933594 245.5 151.609375 247.273438 152.570312 C 248.394531 142.667969 250.019531 133.1875 251.976562 123.765625 C 254.132812 113.417969 256.484375 103.148438 260.917969 93.492188 C 263.429688 88.003906 269.023438 85.019531 275.265625 85.625 C 278.371094 84.230469 278.371094 84.230469 279.882812 87.488281 C 281.742188 89.742188 282.078125 92.578125 282.789062 95.242188 C 285.820312 106.648438 288.542969 118.117188 292.605469 129.242188 C 302.570312 156.46875 317.175781 181.15625 333.628906 204.84375 C 333.886719 205.214844 334.207031 205.582031 334.910156 205.398438 C 334.871094 204.695312 334.859375 203.945312 334.773438 203.203125 C 333.875 195.152344 333.566406 187.113281 333.910156 178.984375 C 334.183594 172.5 338.371094 169.230469 342.679688 165.949219 C 345.214844 164.015625 346.078125 164.679688 346.261719 167.824219 C 346.988281 180.28125 348.863281 192.5625 351.484375 204.757812 C 353.761719 215.410156 356.71875 225.894531 360.636719 236.042969 C 362.0625 239.792969 361.324219 242.652344 358.847656 245.414062 Z M 56.902344 90.1875 C 56.917969 90.199219 56.917969 90.222656 56.929688 90.238281 L 56.929688 90.222656 C 56.929688 90.210938 56.917969 90.199219 56.902344 90.1875 Z M 42.914062 61.222656 C 42.925781 61.222656 42.925781 61.207031 42.925781 61.207031 Z M 71.832031 114.527344 C 71.425781 114.675781 71.226562 114.9375 71.128906 115.246094 C 71.03125 115.554688 71.03125 115.910156 70.980469 116.242188 C 70.992188 116.355469 71.003906 116.453125 71.03125 116.5625 C 71.054688 116.773438 71.089844 116.972656 71.117188 117.179688 C 71.65625 117.402344 72.027344 117.847656 72.359375 118.328125 C 72.398438 118.375 72.433594 118.425781 72.46875 118.476562 C 72.964844 119.164062 73.445312 119.867188 74.402344 119.980469 C 75.191406 119.054688 74.578125 118.242188 74.257812 117.414062 C 73.445312 116.464844 72.644531 115.492188 71.832031 114.527344 Z M 151.25 138.710938 C 149.664062 135.628906 148.0625 132.558594 146.472656 129.476562 C 145.894531 127.664062 145.03125 125.996094 143.886719 124.492188 C 143.835938 123.753906 143.605469 123.125 142.902344 122.765625 C 142.9375 122.484375 142.851562 122.238281 142.644531 122.039062 C 142.308594 121.164062 141.976562 120.277344 141.644531 119.398438 C 141.609375 119.253906 141.558594 119.152344 141.484375 119.09375 C 141.535156 119.191406 141.597656 119.300781 141.644531 119.398438 C 141.546875 119.386719 141.449219 119.363281 141.351562 119.328125 C 141.214844 119.277344 141.078125 119.203125 140.96875 119.09375 C 140.929688 118.796875 140.945312 118.5 141.015625 118.214844 C 140.277344 117.328125 140.230469 115.996094 139.15625 115.304688 C 139.171875 115.023438 139.132812 114.75 139.082031 114.480469 C 138.863281 114.394531 138.640625 114.34375 138.417969 114.296875 C 138.394531 114.296875 138.382812 114.28125 138.371094 114.28125 C 138.308594 113.738281 138.246094 113.183594 138.171875 112.644531 C 137.765625 111.804688 137.371094 110.953125 136.964844 110.113281 C 136.683594 110.128906 136.421875 110.039062 136.191406 109.867188 C 136.214844 109.71875 136.226562 109.585938 136.25 109.4375 C 136.277344 109.25 136.300781 109.066406 136.324219 108.894531 C 135.945312 108.289062 135.5625 107.683594 135.179688 107.082031 C 134.847656 105.699219 134.257812 104.441406 133.394531 103.320312 C 131.449219 98.671875 129.195312 94.183594 126.152344 90.136719 C 126.003906 88.621094 124.945312 87.632812 124.109375 86.5 C 123.886719 86.722656 123.664062 86.945312 123.429688 87.164062 L 123.417969 87.179688 L 123.050781 87.546875 C 123.085938 87.746094 123.074219 87.957031 123.0625 88.152344 C 123.050781 88.226562 123.050781 88.3125 123.035156 88.386719 C 123.628906 89.433594 124.21875 90.496094 124.808594 91.542969 C 126.867188 96.992188 129.722656 102.050781 132.484375 107.15625 C 132.484375 107.15625 132.9375 107.105469 132.9375 107.105469 C 132.9375 107.105469 133.394531 107.191406 133.394531 107.191406 L 133.46875 107.265625 L 134.28125 108.152344 C 134.28125 108.179688 134.292969 108.191406 134.292969 108.214844 C 134.332031 108.90625 134.664062 109.410156 135.21875 109.78125 C 135.242188 109.804688 135.265625 109.820312 135.289062 109.84375 C 135.769531 111.65625 136.644531 113.257812 137.828125 114.703125 C 137.839844 114.714844 137.839844 114.726562 137.851562 114.738281 C 137.914062 115.183594 137.964844 115.625 138.011719 116.070312 C 138.023438 116.183594 138.035156 116.304688 138.0625 116.414062 L 138.257812 116.304688 C 138.269531 116.316406 138.269531 116.328125 138.285156 116.328125 L 138.429688 117.253906 L 138.429688 117.265625 C 138.703125 117.378906 138.835938 117.550781 138.910156 117.761719 C 138.960938 117.921875 138.972656 118.09375 138.9375 118.289062 C 139.332031 118.894531 139.722656 119.488281 140.117188 120.089844 C 140.585938 121.113281 140.832031 122.261719 141.804688 122.988281 C 141.792969 123.285156 141.878906 123.542969 142.078125 123.765625 C 142.335938 124.332031 142.605469 124.898438 142.863281 125.46875 C 142.828125 125.503906 142.789062 125.527344 142.753906 125.566406 C 142.828125 125.601562 142.902344 125.652344 142.964844 125.6875 C 142.976562 125.714844 142.976562 125.726562 142.988281 125.75 C 142.988281 125.75 142.617188 125.6875 142.617188 125.6875 C 142.816406 125.875 142.914062 126.097656 142.902344 126.367188 C 143.40625 126.625 143.589844 127.058594 143.578125 127.601562 C 144.230469 128.5625 144.871094 129.523438 145.523438 130.484375 C 145.808594 131.335938 146.105469 132.1875 146.386719 133.039062 C 146.410156 133.101562 146.4375 133.160156 146.449219 133.234375 L 146.472656 133.273438 C 147.164062 133.679688 147.421875 134.320312 147.410156 135.085938 L 147.421875 135.109375 C 148.136719 135.515625 148.355469 136.171875 148.382812 136.933594 C 149.121094 137.316406 149.304688 137.996094 149.378906 138.75 C 149.871094 138.933594 150.082031 139.289062 150.03125 139.808594 L 150.289062 139.710938 C 150.242188 139.992188 150.242188 140.277344 150.277344 140.5625 C 150.785156 140.746094 151.015625 141.128906 151.089844 141.644531 L 151.128906 141.695312 C 152.445312 141.585938 152.125 140.535156 152.238281 139.734375 C 151.929688 139.390625 151.582031 139.054688 151.25 138.710938 Z M 335.09375 214.425781 C 335.460938 214.375 335.683594 214.242188 335.671875 213.933594 C 335.671875 213.847656 335.660156 213.757812 335.609375 213.660156 L 335.15625 213.734375 L 334.722656 213.597656 C 334.824219 213.882812 334.945312 214.167969 335.09375 214.425781 Z M 289.15625 128.597656 C 288.617188 128.859375 288.503906 129.289062 288.515625 129.757812 C 288.515625 129.894531 288.53125 130.03125 288.554688 130.164062 C 288.601562 130.117188 288.652344 130.066406 288.703125 130.03125 L 288.875 129.855469 C 289.035156 129.710938 289.183594 129.550781 289.34375 129.402344 C 289.378906 129.117188 289.316406 128.847656 289.15625 128.597656 Z M 290.15625 131.375 C 289.957031 131.582031 289.761719 131.78125 289.5625 131.992188 C 289.417969 132.136719 289.28125 132.285156 289.132812 132.433594 C 289.109375 132.71875 289.195312 132.953125 289.390625 133.160156 C 289.550781 132.988281 289.699219 132.816406 289.859375 132.65625 C 290.007812 132.496094 290.15625 132.335938 290.304688 132.175781 C 290.351562 131.878906 290.304688 131.621094 290.15625 131.375 Z M 291.953125 136.058594 C 291.78125 136.257812 291.609375 136.453125 291.421875 136.652344 C 291.3125 136.773438 291.203125 136.898438 291.089844 137.035156 C 291.042969 137.316406 291.117188 137.578125 291.300781 137.8125 C 291.449219 137.652344 291.597656 137.476562 291.742188 137.316406 C 291.878906 137.167969 292.015625 137.023438 292.148438 136.863281 C 292.199219 136.566406 292.136719 136.304688 291.953125 136.058594 Z M 299.578125 152.792969 C 298.875 152.375 298.640625 151.71875 298.675781 150.945312 L 298.664062 150.894531 C 298.441406 150.90625 298.222656 150.917969 298 150.917969 C 297.914062 150.917969 297.828125 150.929688 297.753906 150.929688 C 297.765625 150.894531 297.765625 150.871094 297.777344 150.832031 C 297.804688 150.734375 297.839844 150.636719 297.851562 150.535156 C 297.890625 150.140625 297.777344 149.761719 297.605469 149.402344 C 297.554688 149.292969 297.496094 149.167969 297.433594 149.058594 L 297.644531 149.191406 L 297.890625 149.191406 C 296.988281 148.390625 297.148438 146.886719 295.941406 146.28125 C 295.855469 145.988281 295.769531 145.691406 295.671875 145.394531 C 295.328125 144.480469 294.984375 143.570312 294.636719 142.667969 C 294.488281 142.855469 294.34375 143.039062 294.183594 143.222656 C 294.097656 143.335938 293.996094 143.445312 293.910156 143.558594 C 293.921875 144.335938 294.167969 144.988281 294.910156 145.371094 C 294.945312 145.664062 294.984375 145.972656 295.019531 146.269531 C 295.253906 147.355469 295.535156 148.429688 296.449219 149.179688 C 296.71875 149.871094 296.496094 150.894531 297.605469 151.019531 C 297.59375 151.632812 297.59375 152.25 297.582031 152.855469 C 297.816406 152.964844 297.902344 153.152344 297.828125 153.398438 C 298.394531 153.679688 298.53125 154.164062 298.480469 154.742188 L 298.714844 154.628906 C 298.996094 154.324219 299.28125 154.015625 299.5625 153.707031 C 299.578125 153.398438 299.578125 153.101562 299.578125 152.792969 Z M 302.519531 159.761719 C 302.382812 159.339844 302.25 158.921875 302.101562 158.515625 C 301.828125 158.871094 301.546875 159.21875 301.277344 159.574219 L 301.277344 159.613281 C 301.289062 159.847656 301.277344 160.082031 301.214844 160.304688 C 301.4375 160.511719 301.523438 160.757812 301.507812 161.054688 C 301.792969 161.128906 302.050781 161.253906 302.273438 161.425781 L 302.273438 161.4375 C 302.25 161.695312 302.222656 161.957031 302.175781 162.226562 L 302.433594 162.140625 L 303.355469 161.140625 C 303.296875 160.550781 303.011719 160.09375 302.519531 159.761719 Z M 318.011719 187.40625 C 317.703125 186.59375 317.554688 185.667969 316.523438 185.410156 C 316.609375 184.277344 315.820312 183.574219 315.253906 182.757812 C 314.699219 181.328125 314.183594 179.875 312.839844 178.9375 C 312.691406 178.640625 312.53125 178.34375 312.382812 178.046875 C 311.816406 176.640625 311.238281 175.238281 310.03125 174.226562 C 309.945312 173.460938 309.882812 172.683594 308.960938 172.414062 C 308.863281 172.117188 308.777344 171.808594 308.675781 171.511719 C 308.355469 170.894531 308.035156 170.265625 307.703125 169.652344 C 307.101562 168.429688 306.496094 167.195312 305.882812 165.976562 C 305.609375 166.285156 305.351562 166.605469 305.082031 166.914062 C 305.09375 166.949219 305.082031 167 305.09375 167.035156 C 305.117188 167.28125 305.117188 167.53125 305.082031 167.777344 C 305.636719 168.417969 306.203125 169.070312 306.757812 169.710938 C 306.890625 170.464844 306.941406 171.253906 307.851562 171.523438 C 307.949219 171.820312 308.050781 172.128906 308.148438 172.425781 C 308.480469 173.054688 308.824219 173.671875 309.15625 174.300781 C 309.773438 175.691406 310.265625 177.148438 311.621094 178.046875 C 311.683594 178.34375 311.757812 178.640625 311.816406 178.921875 C 312.359375 180.378906 312.914062 181.820312 314.292969 182.746094 C 314.648438 183.894531 315.03125 185.039062 316.261719 185.59375 C 316.175781 186.445312 316.398438 187.097656 317.296875 187.371094 C 317.347656 187.667969 317.394531 187.949219 317.445312 188.246094 C 317.863281 188.257812 318.28125 188.28125 318.703125 188.296875 C 318.492188 188.011719 318.257812 187.703125 318.011719 187.40625 Z M 319.96875 190.257812 C 319.613281 190.242188 319.257812 190.242188 318.886719 190.230469 C 319.023438 190.515625 319.15625 190.785156 319.292969 191.070312 C 319.664062 191.082031 320.019531 191.082031 320.390625 191.09375 C 320.242188 190.824219 320.105469 190.539062 319.96875 190.257812 Z M 321.792969 193.066406 L 320.609375 193.03125 C 320.78125 193.3125 320.957031 193.597656 321.128906 193.882812 C 321.472656 193.894531 321.816406 193.894531 322.175781 193.90625 C 322.125 193.597656 322.003906 193.3125 321.792969 193.066406 Z M 327.371094 201.488281 C 326.964844 201.476562 326.546875 201.453125 326.140625 201.441406 C 326.335938 201.722656 326.535156 202.019531 326.730469 202.304688 C 327.074219 202.316406 327.421875 202.316406 327.765625 202.328125 C 327.714844 202.007812 327.59375 201.722656 327.371094 201.488281 Z M 329.269531 204.289062 C 328.886719 204.277344 328.503906 204.265625 328.109375 204.253906 C 328.28125 204.535156 328.457031 204.820312 328.640625 205.101562 C 329.007812 205.117188 329.367188 205.117188 329.734375 205.128906 C 329.574219 204.84375 329.417969 204.558594 329.269531 204.289062 Z M 331.175781 207.074219 C 330.820312 207.0625 330.460938 207.0625 330.117188 207.050781 C 330.265625 207.335938 330.414062 207.605469 330.550781 207.890625 C 330.96875 207.902344 331.375 207.925781 331.792969 207.9375 C 331.582031 207.644531 331.386719 207.359375 331.175781 207.074219 Z M 333.898438 210.835938 C 333.46875 210.8125 333.050781 210.800781 332.617188 210.777344 C 332.828125 211.070312 333.035156 211.367188 333.257812 211.652344 L 334.328125 211.652344 C 334.183594 211.378906 334.046875 211.109375 333.898438 210.835938 Z M 333.898438 210.835938 "/>
</g>
</svg>
