<?xml version="1.0" encoding="UTF-8"?>
<svg xmlns="http://www.w3.org/2000/svg" xmlns:xlink="http://www.w3.org/1999/xlink" width="396pt" height="296.999993pt" viewBox="0 0 396 296.999993" version="1.2">
<defs>
<clipPath id="clip1">
  <path d="M 32.6875 10 L 363.4375 10 L 363.4375 287 L 32.6875 287 Z M 32.6875 10 "/>
</clipPath>
</defs>
<g id="surface1">
<g clip-path="url(#clip1)" clip-rule="nonzero">
<path style=" stroke:none;fill-rule:evenodd;fill:rgb(36.079407%,88.238525%,90.19928%);fill-opacity:1;" d="M 293.425781 146.492188 C 332.058594 146.492188 363.378906 177.808594 363.378906 216.464844 C 363.378906 255.101562 332.058594 286.4375 293.425781 286.4375 C 254.796875 286.4375 223.472656 255.101562 223.472656 216.464844 C 223.472656 177.808594 254.796875 146.492188 293.425781 146.492188 Z M 202.84375 41.898438 L 202.84375 89.332031 C 216.03125 89.597656 228.660156 90.964844 240.367188 93.234375 C 238.089844 85.269531 235.332031 77.949219 232.179688 71.46875 C 224.273438 55.207031 214.015625 44.363281 202.84375 41.898438 Z M 197.984375 31.640625 C 230.300781 31.640625 259.5625 44.742188 280.738281 65.921875 C 299.910156 85.113281 312.460938 110.921875 314.667969 139.628906 C 310.65625 138.527344 306.523438 137.730469 302.300781 137.253906 C 297.742188 128.660156 288.203125 120.824219 275.1875 114.5 C 268.710938 111.34375 261.410156 108.59375 253.445312 106.308594 C 255.710938 118.015625 257.066406 130.652344 257.335938 143.835938 L 260.566406 143.835938 C 254.8125 146.453125 249.421875 149.722656 244.496094 153.566406 L 202.84375 153.566406 L 202.84375 198.339844 C 207.304688 198.242188 211.6875 198.023438 215.984375 197.675781 C 215.207031 200.898438 214.625 204.199219 214.246094 207.5625 C 210.507812 207.820312 206.695312 207.988281 202.84375 208.070312 L 202.84375 255.503906 C 208.59375 254.234375 214.109375 250.738281 219.183594 245.433594 C 221.464844 251.285156 224.425781 256.800781 227.964844 261.890625 C 218.398438 264.417969 208.347656 265.769531 197.984375 265.769531 C 165.667969 265.769531 136.410156 252.660156 115.230469 231.480469 C 96.015625 212.257812 83.457031 186.382812 81.292969 157.597656 C 85.273438 158.703125 89.382812 159.511719 93.589844 159.984375 C 98.109375 168.648438 107.6875 176.539062 120.773438 182.902344 C 127.253906 186.0625 134.558594 188.816406 142.527344 191.09375 C 140.257812 179.382812 138.902344 166.75 138.628906 153.566406 L 135.1875 153.566406 C 140.992188 150.964844 146.421875 147.6875 151.386719 143.835938 L 193.121094 143.835938 L 193.121094 99.0625 C 188.6875 99.160156 184.320312 99.375 180.042969 99.71875 C 180.835938 96.496094 181.414062 93.195312 181.796875 89.84375 C 185.515625 89.578125 189.296875 89.414062 193.121094 89.332031 L 193.121094 41.898438 C 187.40625 43.15625 181.933594 46.605469 176.886719 51.863281 C 174.617188 46.03125 171.675781 40.542969 168.164062 35.46875 C 177.683594 32.972656 187.675781 31.640625 197.984375 31.640625 Z M 273.859375 72.804688 C 260.777344 59.71875 244.328125 49.992188 225.941406 45.042969 C 231.546875 50.851562 236.59375 58.367188 240.917969 67.257812 C 244.964844 75.574219 248.386719 85.128906 251.050781 95.621094 C 261.535156 98.289062 271.089844 101.710938 279.402344 105.757812 C 288.289062 110.074219 295.808594 115.128906 301.613281 120.738281 C 296.660156 102.332031 286.9375 85.890625 273.859375 72.804688 Z M 94.355469 176.664062 C 99.308594 195.070312 109.027344 211.507812 122.109375 224.597656 C 135.183594 237.683594 151.628906 247.410156 170.027344 252.359375 C 164.417969 246.546875 159.371094 239.03125 155.050781 230.144531 C 151.007812 221.828125 147.578125 212.269531 144.914062 201.785156 C 134.429688 199.117188 124.875 195.691406 116.5625 191.644531 C 107.671875 187.332031 100.160156 182.273438 94.355469 176.664062 Z M 193.121094 255.503906 L 193.121094 208.070312 C 179.933594 207.804688 167.308594 206.445312 155.601562 204.167969 C 157.878906 212.140625 160.636719 219.449219 163.789062 225.925781 C 171.695312 242.195312 181.953125 253.039062 193.121094 255.503906 Z M 148.355469 153.566406 C 148.660156 167.851562 150.277344 181.402344 152.976562 193.714844 C 165.289062 196.414062 178.84375 198.039062 193.121094 198.339844 L 193.121094 153.566406 Z M 247.609375 143.835938 C 247.308594 129.554688 245.6875 116 242.996094 103.679688 C 230.675781 100.988281 217.125 99.367188 202.84375 99.0625 L 202.84375 143.835938 Z M 102.636719 10.832031 C 141.269531 10.832031 172.585938 42.160156 172.585938 80.808594 C 172.585938 119.445312 141.269531 150.769531 102.636719 150.769531 C 64.003906 150.769531 32.6875 119.445312 32.6875 80.808594 C 32.6875 42.160156 64.003906 10.832031 102.636719 10.832031 Z M 115.140625 80.546875 L 115.140625 81.308594 C 134.605469 85.113281 150.175781 97.503906 150.175781 114.425781 L 150.175781 123.875 L 58.4375 123.875 L 58.4375 114.425781 C 58.4375 97.503906 74.011719 85.113281 93.472656 81.308594 L 93.472656 80.546875 C 82.152344 75.292969 75.824219 62.792969 75.824219 50.507812 C 75.824219 34.332031 87.097656 18.046875 104.304688 18.046875 C 121.519531 18.046875 132.796875 34.332031 132.796875 50.507812 C 132.796875 62.792969 126.460938 75.292969 115.140625 80.546875 Z M 305.9375 216.203125 L 305.9375 216.957031 C 325.394531 220.765625 340.964844 233.152344 340.964844 250.078125 L 340.964844 259.523438 L 249.222656 259.523438 L 249.222656 250.078125 C 249.222656 233.152344 264.804688 220.765625 284.257812 216.957031 L 284.257812 216.203125 C 272.949219 210.945312 266.605469 198.445312 266.605469 186.167969 C 266.605469 169.984375 277.878906 153.695312 295.097656 153.695312 C 312.304688 153.695312 323.582031 169.984375 323.582031 186.167969 C 323.582031 198.445312 317.25 210.945312 305.9375 216.203125 Z M 305.9375 216.203125 "/>
</g>
</g>
</svg>
