<?xml version="1.0" encoding="UTF-8"?>
<svg xmlns="http://www.w3.org/2000/svg" xmlns:xlink="http://www.w3.org/1999/xlink" width="396pt" height="296.999993pt" viewBox="0 0 396 296.999993" version="1.2">
<defs>
<clipPath id="clip1">
  <path d="M 152 231 L 182 231 L 182 260.148438 L 152 260.148438 Z M 152 231 "/>
</clipPath>
<clipPath id="clip2">
  <path d="M 136 36.648438 L 260 36.648438 L 260 181 L 136 181 Z M 136 36.648438 "/>
</clipPath>
</defs>
<g id="surface1">
<path style=" stroke:none;fill-rule:nonzero;fill:rgb(100%,74.119568%,34.899902%);fill-opacity:1;" d="M 143.425781 252.546875 C 130.914062 252.550781 122.078125 248.890625 118.007812 241.828125 C 107.894531 224.296875 130.902344 192.753906 172.710938 166.835938 L 176.371094 172.75 C 135.34375 198.191406 117.257812 226.605469 124.03125 238.347656 C 127.832031 244.941406 139.40625 247.175781 155.773438 244.484375 L 156.902344 251.355469 C 152.039062 252.152344 147.53125 252.546875 143.425781 252.546875 Z M 143.425781 252.546875 "/>
<path style=" stroke:none;fill-rule:nonzero;fill:rgb(100%,74.119568%,34.899902%);fill-opacity:1;" d="M 199.316406 237.394531 L 196.363281 231.089844 C 201.929688 228.480469 207.59375 225.523438 213.191406 222.292969 C 228.210938 213.609375 241.71875 203.550781 252.261719 193.203125 C 269.03125 176.757812 276.460938 161.363281 271.652344 153.03125 C 267.441406 145.730469 253.617188 143.816406 234.667969 147.914062 L 233.199219 141.113281 C 255.914062 136.203125 271.703125 139.199219 277.671875 149.550781 C 284.339844 161.105469 276.851562 178.832031 257.128906 198.179688 C 246.175781 208.925781 232.183594 219.351562 216.664062 228.324219 C 210.890625 231.652344 205.054688 234.703125 199.316406 237.394531 Z M 199.316406 237.394531 "/>
<path style=" stroke:none;fill-rule:nonzero;fill:rgb(100%,74.119568%,34.899902%);fill-opacity:1;" d="M 252.257812 252.546875 C 248.363281 252.546875 244.113281 252.191406 239.542969 251.472656 C 221.386719 248.617188 199.894531 240.398438 179.015625 228.320312 C 138.269531 204.78125 111.816406 173.714844 116.125 154.453125 L 122.90625 155.972656 C 119.800781 169.859375 141.242188 198.460938 182.492188 222.296875 C 202.648438 233.949219 223.292969 241.871094 240.621094 244.59375 C 256.597656 247.109375 267.910156 244.832031 271.652344 238.347656 C 278.421875 226.605469 260.332031 198.179688 219.292969 172.734375 L 222.953125 166.816406 C 264.773438 192.746094 287.785156 224.292969 277.675781 241.828125 C 273.605469 248.882812 264.765625 252.546875 252.257812 252.546875 Z M 252.257812 252.546875 "/>
<path style=" stroke:none;fill-rule:nonzero;fill:rgb(100%,74.119568%,34.899902%);fill-opacity:1;" d="M 126 160.796875 C 117.980469 160.796875 111.453125 154.265625 111.453125 146.234375 C 111.453125 138.207031 117.980469 131.675781 126 131.675781 C 134.019531 131.675781 140.546875 138.207031 140.546875 146.234375 C 140.546875 154.265625 134.019531 160.796875 126 160.796875 Z M 126 138.636719 C 121.8125 138.636719 118.40625 142.042969 118.40625 146.234375 C 118.40625 150.425781 121.8125 153.835938 126 153.835938 C 130.1875 153.835938 133.59375 150.425781 133.59375 146.234375 C 133.59375 142.042969 130.1875 138.636719 126 138.636719 Z M 126 138.636719 "/>
<g clip-path="url(#clip1)" clip-rule="nonzero">
<path style=" stroke:none;fill-rule:nonzero;fill:rgb(100%,74.119568%,34.899902%);fill-opacity:1;" d="M 167.164062 260.148438 C 159.140625 260.148438 152.617188 253.617188 152.617188 245.589844 C 152.617188 237.5625 159.140625 231.027344 167.164062 231.027344 C 175.183594 231.027344 181.710938 237.5625 181.710938 245.589844 C 181.710938 253.617188 175.183594 260.148438 167.164062 260.148438 Z M 167.164062 237.988281 C 162.976562 237.988281 159.570312 241.398438 159.570312 245.589844 C 159.570312 249.78125 162.976562 253.1875 167.164062 253.1875 C 171.351562 253.1875 174.757812 249.78125 174.757812 245.589844 C 174.757812 241.398438 171.351562 237.988281 167.164062 237.988281 Z M 167.164062 237.988281 "/>
</g>
<path style=" stroke:none;fill-rule:nonzero;fill:rgb(100%,74.119568%,34.899902%);fill-opacity:1;" d="M 217.140625 176.613281 L 224.09375 176.613281 L 224.09375 201.183594 L 217.140625 201.183594 Z M 217.140625 176.613281 "/>
<path style=" stroke:none;fill-rule:nonzero;fill:rgb(100%,74.119568%,34.899902%);fill-opacity:1;" d="M 171.589844 176.613281 L 178.542969 176.613281 L 178.542969 201.183594 L 171.589844 201.183594 Z M 171.589844 176.613281 "/>
<path style=" stroke:none;fill-rule:nonzero;fill:rgb(100%,74.119568%,34.899902%);fill-opacity:1;" d="M 167.164062 173.132812 L 228.519531 173.132812 L 228.519531 180.09375 L 167.164062 180.09375 Z M 167.164062 173.132812 "/>
<path style=" stroke:none;fill-rule:nonzero;fill:rgb(100%,74.119568%,34.899902%);fill-opacity:1;" d="M 167.164062 185.417969 L 228.519531 185.417969 L 228.519531 192.378906 L 167.164062 192.378906 Z M 167.164062 185.417969 "/>
<path style=" stroke:none;fill-rule:nonzero;fill:rgb(100%,74.119568%,34.899902%);fill-opacity:1;" d="M 167.164062 197.703125 L 228.519531 197.703125 L 228.519531 204.664062 L 167.164062 204.664062 Z M 167.164062 197.703125 "/>
<path style=" stroke:none;fill-rule:nonzero;fill:rgb(100%,74.119568%,34.899902%);fill-opacity:1;" d="M 184.207031 209.984375 L 211.476562 209.984375 L 211.476562 216.945312 L 184.207031 216.945312 Z M 184.207031 209.984375 "/>
<g clip-path="url(#clip2)" clip-rule="nonzero">
<path style=" stroke:none;fill-rule:nonzero;fill:rgb(100%,74.119568%,34.899902%);fill-opacity:1;" d="M 224.085938 180.09375 L 171.582031 180.09375 L 171.582031 176.613281 C 171.582031 164.855469 166.589844 153.554688 157.882812 145.605469 L 157.453125 145.234375 C 157.074219 144.902344 156.703125 144.574219 156.335938 144.269531 L 156.203125 144.15625 C 143.40625 132.441406 136.066406 115.796875 136.066406 98.488281 C 136.066406 64.390625 163.777344 36.648438 197.835938 36.648438 C 231.902344 36.648438 259.617188 64.390625 259.617188 98.488281 C 259.617188 115.789062 252.269531 132.433594 239.464844 144.15625 L 239.34375 144.257812 C 238.945312 144.59375 238.542969 144.957031 238.136719 145.320312 L 237.789062 145.632812 C 229.085938 153.535156 224.085938 164.832031 224.085938 176.613281 Z M 178.410156 173.132812 L 217.257812 173.132812 C 218.15625 160.667969 223.828125 148.914062 233.140625 140.460938 L 233.492188 140.140625 C 233.9375 139.738281 234.382812 139.34375 234.824219 138.96875 C 246.160156 128.5625 252.664062 113.8125 252.664062 98.488281 C 252.664062 68.226562 228.066406 43.609375 197.835938 43.609375 C 167.609375 43.609375 143.019531 68.226562 143.019531 98.488281 C 143.019531 113.820312 149.511719 128.566406 160.835938 138.964844 C 161.230469 139.292969 161.628906 139.644531 162.035156 139.996094 L 162.503906 140.410156 C 171.847656 148.9375 177.511719 160.695312 178.410156 173.132812 Z M 178.410156 173.132812 "/>
</g>
<path style=" stroke:none;fill-rule:nonzero;fill:rgb(100%,74.119568%,34.899902%);fill-opacity:1;" d="M 201.15625 131.234375 L 194.519531 129.15625 L 203.007812 101.96875 L 183.210938 101.96875 L 194.519531 65.742188 L 201.15625 67.816406 L 192.667969 95.003906 L 212.464844 95.003906 Z M 201.15625 131.234375 "/>
</g>
</svg>
