<?xml version="1.0" encoding="UTF-8"?>
<svg xmlns="http://www.w3.org/2000/svg" xmlns:xlink="http://www.w3.org/1999/xlink" width="396pt" height="296.999993pt" viewBox="0 0 396 296.999993" version="1.2">
<defs>
<clipPath id="clip1">
  <path d="M 70.382812 20.882812 L 325.160156 20.882812 L 325.160156 272 L 70.382812 272 Z M 70.382812 20.882812 "/>
</clipPath>
<clipPath id="clip2">
  <path d="M 115 267 L 124 267 L 124 275.660156 L 115 275.660156 Z M 115 267 "/>
</clipPath>
<clipPath id="clip3">
  <path d="M 271 267 L 280 267 L 280 275.660156 L 271 275.660156 Z M 271 267 "/>
</clipPath>
</defs>
<g id="surface1">
<path style=" stroke:none;fill-rule:nonzero;fill:rgb(100%,50.979614%,43.139648%);fill-opacity:1;" d="M 197.613281 123.617188 C 196.664062 109.074219 190.664062 95.925781 181.335938 85.894531 C 176.648438 80.757812 171.109375 76.488281 164.898438 73.199219 C 156.3125 68.671875 146.535156 66.085938 136.132812 66.085938 C 102.101562 66.085938 74.492188 93.695312 74.492188 127.726562 C 74.492188 141.613281 79.101562 154.4375 86.820312 164.710938 C 98.074219 179.671875 115.988281 189.367188 136.132812 189.367188 C 136.871094 189.367188 137.609375 189.367188 138.347656 189.316406 L 138.398438 189.316406 C 145.378906 163.972656 168.222656 145.191406 195.558594 144.210938 C 196.988281 138.980469 197.773438 133.441406 197.773438 127.726562 C 197.773438 126.332031 197.726562 124.980469 197.613281 123.617188 "/>
<path style=" stroke:none;fill-rule:nonzero;fill:rgb(70.588684%,86.669922%,49.798584%);fill-opacity:1;" d="M 230.648438 73.199219 C 239.234375 68.671875 249.011719 66.085938 259.414062 66.085938 C 293.441406 66.085938 321.054688 93.695312 321.054688 127.726562 C 321.054688 141.613281 316.445312 154.4375 308.726562 164.710938 C 297.472656 179.671875 279.558594 189.367188 259.414062 189.367188 C 258.675781 189.367188 257.886719 189.367188 257.148438 189.316406 C 249.957031 163.3125 226.089844 144.164062 197.773438 144.164062 C 197.035156 144.164062 196.296875 144.164062 195.558594 144.210938 C 196.988281 138.980469 197.773438 133.441406 197.773438 127.726562 C 197.773438 111.578125 203.984375 96.859375 214.210938 85.894531 C 218.898438 80.757812 224.4375 76.488281 230.648438 73.199219 "/>
<path style=" stroke:none;fill-rule:nonzero;fill:rgb(98.81897%,84.309387%,43.919373%);fill-opacity:1;" d="M 259.414062 90.742188 L 284.070312 127.726562 L 259.414062 135.945312 Z M 259.414062 90.742188 "/>
<path style=" stroke:none;fill-rule:nonzero;fill:rgb(98.81897%,84.309387%,43.919373%);fill-opacity:1;" d="M 259.414062 135.945312 L 259.414062 164.710938 L 234.757812 127.726562 Z M 259.414062 135.945312 "/>
<path style=" stroke:none;fill-rule:nonzero;fill:rgb(98.81897%,84.309387%,43.919373%);fill-opacity:1;" d="M 284.070312 127.726562 L 259.414062 164.710938 L 259.414062 135.945312 Z M 284.070312 127.726562 "/>
<path style=" stroke:none;fill-rule:nonzero;fill:rgb(98.81897%,84.309387%,43.919373%);fill-opacity:1;" d="M 259.414062 90.742188 L 259.414062 135.945312 L 234.757812 127.726562 Z M 259.414062 90.742188 "/>
<path style=" stroke:none;fill-rule:nonzero;fill:rgb(100%,78.039551%,16.079712%);fill-opacity:1;" d="M 257.148438 189.316406 C 258.625 194.582031 259.414062 200.089844 259.414062 205.804688 C 259.414062 239.832031 231.804688 267.445312 197.773438 267.445312 C 163.742188 267.445312 136.132812 239.832031 136.132812 205.804688 C 136.132812 200.089844 136.921875 194.582031 138.398438 189.316406 C 145.378906 163.972656 168.222656 145.191406 195.558594 144.210938 C 196.296875 144.164062 197.035156 144.164062 197.773438 144.164062 C 226.089844 144.164062 249.957031 163.3125 257.148438 189.316406 "/>
<path style=" stroke:none;fill-rule:nonzero;fill:rgb(98.81897%,84.309387%,43.919373%);fill-opacity:1;" d="M 197.933594 160.601562 C 197.902344 160.601562 197.820312 160.601562 197.773438 160.601562 C 186.761719 160.601562 176.695312 164.550781 168.847656 171.082031 L 163.054688 176.878906 C 156.519531 184.726562 152.570312 194.792969 152.570312 205.804688 C 152.570312 230.75 172.714844 250.925781 197.613281 251.007812 C 197.644531 251.007812 197.726562 251.007812 197.773438 251.007812 C 208.785156 251.007812 218.847656 247.058594 226.699219 240.523438 L 232.492188 234.730469 C 239.027344 226.878906 242.976562 216.816406 242.976562 205.804688 C 242.976562 180.859375 222.832031 160.679688 197.933594 160.601562 "/>
<path style=" stroke:none;fill-rule:nonzero;fill:rgb(0%,0%,0%);fill-opacity:1;" d="M 210.101562 193.476562 C 210.101562 198.003906 206.410156 201.695312 201.882812 201.695312 L 189.554688 201.695312 L 189.554688 185.257812 L 201.882812 185.257812 C 206.410156 185.257812 210.101562 188.949219 210.101562 193.476562 Z M 201.882812 226.351562 L 189.554688 226.351562 L 189.554688 209.914062 L 201.882812 209.914062 C 206.410156 209.914062 210.101562 213.605469 210.101562 218.132812 C 210.101562 222.660156 206.410156 226.351562 201.882812 226.351562 Z M 193.664062 168.820312 L 193.664062 177.039062 L 181.335938 177.039062 L 181.335938 234.570312 L 193.664062 234.570312 L 193.664062 242.789062 L 201.882812 242.789062 L 201.882812 234.570312 C 210.953125 234.570312 218.320312 227.199219 218.320312 218.132812 C 218.320312 213.21875 216.152344 208.820312 212.75 205.804688 C 216.152344 202.785156 218.320312 198.386719 218.320312 193.476562 C 218.320312 184.40625 210.953125 177.039062 201.882812 177.039062 L 201.882812 168.820312 L 193.664062 168.820312 "/>
<g clip-path="url(#clip1)" clip-rule="nonzero">
<path style=" stroke:none;fill-rule:nonzero;fill:rgb(0%,0%,0%);fill-opacity:1;" d="M 260.167969 185.226562 C 252.0625 160.714844 229.925781 142.558594 203.296875 140.34375 C 202.378906 136.21875 201.882812 131.996094 201.882812 127.726562 C 201.882812 96.007812 227.695312 70.195312 259.414062 70.195312 C 291.132812 70.195312 316.945312 96.007812 316.945312 127.726562 C 316.945312 159.1875 291.550781 184.808594 260.167969 185.226562 Z M 197.773438 263.335938 C 166.054688 263.335938 140.242188 237.523438 140.242188 205.804688 C 140.242188 174.085938 166.054688 148.273438 197.773438 148.273438 C 229.492188 148.273438 255.304688 174.085938 255.304688 205.804688 C 255.304688 237.523438 229.492188 263.335938 197.773438 263.335938 Z M 78.8125 131.835938 L 101.6875 131.835938 L 110.195312 114.835938 L 122.90625 165.707031 L 140.371094 122.027344 L 152.28125 149.8125 L 163.324219 127.726562 L 193.664062 127.726562 C 193.664062 131.980469 193.167969 136.21875 192.25 140.328125 C 165.621094 142.558594 143.484375 160.714844 135.378906 185.226562 C 105.394531 184.824219 80.914062 161.386719 78.8125 131.835938 Z M 136.132812 70.195312 C 165.058594 70.195312 188.992188 91.675781 193.003906 119.507812 L 158.253906 119.507812 L 152.859375 130.296875 L 140.113281 100.550781 L 124.703125 139.058594 L 112.777344 91.304688 L 96.613281 123.617188 L 78.8125 123.617188 C 80.929688 93.808594 105.796875 70.195312 136.132812 70.195312 Z M 325.160156 127.726562 C 325.160156 91.464844 295.675781 61.976562 259.414062 61.976562 C 250.695312 61.976562 242.382812 63.726562 234.757812 66.808594 L 234.757812 53.757812 L 226.539062 53.757812 L 226.539062 70.871094 C 223.648438 72.539062 220.902344 74.402344 218.320312 76.488281 L 218.320312 45.539062 L 210.101562 45.539062 L 210.101562 84.386719 C 206.972656 87.933594 204.195312 91.800781 201.882812 95.976562 L 201.882812 20.882812 L 193.664062 20.882812 L 193.664062 95.976562 C 191.351562 91.800781 188.574219 87.933594 185.445312 84.386719 L 185.445312 45.539062 L 177.226562 45.539062 L 177.226562 76.488281 C 174.640625 74.402344 171.898438 72.539062 169.007812 70.871094 L 169.007812 53.757812 L 160.789062 53.757812 L 160.789062 66.808594 C 153.164062 63.726562 144.851562 61.976562 136.132812 61.976562 C 99.871094 61.976562 70.382812 91.464844 70.382812 127.726562 C 70.382812 141.964844 74.992188 155.128906 82.710938 165.914062 L 82.710938 222.242188 L 90.929688 222.242188 L 90.929688 175.351562 C 93.5 177.777344 96.226562 180.039062 99.148438 182.046875 L 99.148438 238.679688 L 107.367188 238.679688 L 107.367188 186.75 C 110.015625 188.050781 112.746094 189.207031 115.585938 190.136719 L 115.585938 259.226562 L 123.804688 259.226562 L 123.804688 192.273438 C 126.871094 192.867188 130.035156 193.1875 133.246094 193.332031 C 132.457031 197.375 132.023438 201.535156 132.023438 205.804688 C 132.023438 242.066406 161.511719 271.554688 197.773438 271.554688 C 234.035156 271.554688 263.523438 242.066406 263.523438 205.804688 C 263.523438 201.535156 263.089844 197.375 262.300781 193.332031 C 265.511719 193.1875 268.675781 192.867188 271.742188 192.273438 L 271.742188 259.226562 L 279.960938 259.226562 L 279.960938 190.136719 C 282.800781 189.207031 285.53125 188.050781 288.179688 186.75 L 288.179688 238.679688 L 296.398438 238.679688 L 296.398438 182.046875 C 299.335938 180.039062 302.046875 177.777344 304.617188 175.351562 L 304.617188 222.242188 L 312.835938 222.242188 L 312.835938 165.914062 C 320.554688 155.128906 325.160156 141.964844 325.160156 127.726562 "/>
</g>
<path style=" stroke:none;fill-rule:nonzero;fill:rgb(0%,0%,0%);fill-opacity:1;" d="M 197.773438 156.492188 C 186.265625 156.492188 175.058594 160.554688 166.230469 167.921875 L 171.480469 174.230469 C 178.847656 168.097656 188.191406 164.710938 197.773438 164.710938 C 220.4375 164.710938 238.867188 183.136719 238.867188 205.804688 C 238.867188 215.386719 235.480469 224.730469 229.347656 232.097656 L 235.65625 237.363281 C 243.023438 228.515625 247.085938 217.3125 247.085938 205.804688 C 247.085938 178.613281 224.964844 156.492188 197.773438 156.492188 "/>
<path style=" stroke:none;fill-rule:nonzero;fill:rgb(0%,0%,0%);fill-opacity:1;" d="M 197.773438 246.898438 C 175.109375 246.898438 156.679688 228.46875 156.679688 205.804688 C 156.679688 196.21875 160.066406 186.878906 166.199219 179.511719 L 159.890625 174.246094 C 152.523438 183.089844 148.460938 194.292969 148.460938 205.804688 C 148.460938 232.996094 170.582031 255.117188 197.773438 255.117188 C 209.28125 255.117188 220.488281 251.054688 229.316406 243.6875 L 224.066406 237.378906 C 216.699219 243.511719 207.355469 246.898438 197.773438 246.898438 "/>
<path style=" stroke:none;fill-rule:nonzero;fill:rgb(0%,0%,0%);fill-opacity:1;" d="M 263.523438 130.246094 L 263.523438 104.308594 L 277.664062 125.527344 Z M 263.523438 138.898438 L 274.003906 135.414062 L 263.523438 151.148438 Z M 255.304688 138.898438 L 255.304688 151.148438 L 244.820312 135.414062 Z M 255.304688 130.246094 L 241.160156 125.527344 L 255.304688 104.308594 Z M 229.8125 127.726562 L 259.414062 172.109375 L 289.011719 127.726562 L 259.414062 83.34375 L 229.8125 127.726562 "/>
<path style=" stroke:none;fill-rule:nonzero;fill:rgb(0%,0%,0%);fill-opacity:1;" d="M 82.710938 238.679688 L 90.929688 238.679688 L 90.929688 230.460938 L 82.710938 230.460938 L 82.710938 238.679688 "/>
<path style=" stroke:none;fill-rule:nonzero;fill:rgb(0%,0%,0%);fill-opacity:1;" d="M 99.148438 255.117188 L 107.367188 255.117188 L 107.367188 246.898438 L 99.148438 246.898438 L 99.148438 255.117188 "/>
<g clip-path="url(#clip2)" clip-rule="nonzero">
<path style=" stroke:none;fill-rule:nonzero;fill:rgb(0%,0%,0%);fill-opacity:1;" d="M 115.585938 275.660156 L 123.804688 275.660156 L 123.804688 267.445312 L 115.585938 267.445312 L 115.585938 275.660156 "/>
</g>
<path style=" stroke:none;fill-rule:nonzero;fill:rgb(0%,0%,0%);fill-opacity:1;" d="M 304.617188 238.679688 L 312.835938 238.679688 L 312.835938 230.460938 L 304.617188 230.460938 L 304.617188 238.679688 "/>
<path style=" stroke:none;fill-rule:nonzero;fill:rgb(0%,0%,0%);fill-opacity:1;" d="M 288.179688 255.117188 L 296.398438 255.117188 L 296.398438 246.898438 L 288.179688 246.898438 L 288.179688 255.117188 "/>
<g clip-path="url(#clip3)" clip-rule="nonzero">
<path style=" stroke:none;fill-rule:nonzero;fill:rgb(0%,0%,0%);fill-opacity:1;" d="M 271.742188 275.660156 L 279.960938 275.660156 L 279.960938 267.445312 L 271.742188 267.445312 L 271.742188 275.660156 "/>
</g>
<path style=" stroke:none;fill-rule:nonzero;fill:rgb(0%,0%,0%);fill-opacity:1;" d="M 185.445312 29.101562 L 177.226562 29.101562 L 177.226562 37.320312 L 185.445312 37.320312 L 185.445312 29.101562 "/>
<path style=" stroke:none;fill-rule:nonzero;fill:rgb(0%,0%,0%);fill-opacity:1;" d="M 218.320312 29.101562 L 210.101562 29.101562 L 210.101562 37.320312 L 218.320312 37.320312 L 218.320312 29.101562 "/>
</g>
</svg>
