<?xml version="1.0" encoding="UTF-8"?>
<svg xmlns="http://www.w3.org/2000/svg" xmlns:xlink="http://www.w3.org/1999/xlink" width="396pt" height="296.999993pt" viewBox="0 0 396 296.999993" version="1.2">
<defs>
<clipPath id="clip1">
  <path d="M 83 67 L 311 67 L 311 262.113281 L 83 262.113281 Z M 83 67 "/>
</clipPath>
<clipPath id="clip2">
  <path d="M 184 34.863281 L 220 34.863281 L 220 71 L 184 71 Z M 184 34.863281 "/>
</clipPath>
</defs>
<g id="surface1">
<g clip-path="url(#clip1)" clip-rule="nonzero">
<path style=" stroke:none;fill-rule:nonzero;fill:rgb(49.409485%,85.099792%,34.118652%);fill-opacity:1;" d="M 292.722656 98.089844 C 292.265625 98.441406 291.847656 98.835938 291.472656 99.273438 C 291.097656 99.714844 290.777344 100.191406 290.503906 100.699219 C 290.230469 101.207031 290.015625 101.738281 289.855469 102.296875 C 289.695312 102.851562 289.597656 103.414062 289.558594 103.992188 C 289.519531 104.566406 289.542969 105.140625 289.625 105.714844 C 289.710938 106.285156 289.855469 106.839844 290.058594 107.382812 C 290.261719 107.921875 290.519531 108.433594 290.832031 108.921875 C 291.144531 109.40625 291.503906 109.855469 291.910156 110.261719 C 292.679688 111.023438 293.269531 111.90625 293.683594 112.90625 C 294.101562 113.902344 294.308594 114.945312 294.308594 116.023438 C 294.304688 116.53125 294.226562 117.027344 294.070312 117.511719 C 293.914062 117.992188 293.6875 118.441406 293.390625 118.855469 C 293.09375 119.265625 292.742188 119.625 292.335938 119.925781 C 291.925781 120.226562 291.480469 120.460938 291 120.625 C 290.519531 120.785156 290.023438 120.871094 289.515625 120.882812 C 289.007812 120.890625 288.511719 120.820312 288.027344 120.675781 C 287.539062 120.527344 287.085938 120.308594 286.667969 120.023438 C 286.25 119.734375 285.886719 119.390625 285.578125 118.988281 C 268.035156 97.683594 238.472656 83.5625 204.972656 83.5625 L 203.914062 83.5625 C 198.832031 83.644531 194.042969 82.511719 189.539062 80.152344 L 182.394531 76.296875 C 176.4375 73.339844 170.222656 71.101562 163.75 69.589844 C 157.273438 68.074219 150.710938 67.320312 144.0625 67.328125 L 133.300781 67.328125 C 132.449219 67.332031 131.613281 67.445312 130.796875 67.671875 C 129.976562 67.902344 129.203125 68.234375 128.472656 68.671875 C 127.742188 69.105469 127.085938 69.632812 126.5 70.25 C 125.914062 70.863281 125.417969 71.546875 125.015625 72.296875 C 124.613281 73.042969 124.320312 73.832031 124.132812 74.660156 C 123.945312 75.488281 123.871094 76.328125 123.910156 77.175781 C 123.949219 78.027344 124.101562 78.855469 124.363281 79.664062 C 124.628906 80.46875 124.992188 81.230469 125.460938 81.9375 L 135.9375 97.683594 C 136.222656 98.113281 136.46875 98.566406 136.671875 99.039062 C 136.875 99.515625 137.03125 100.003906 137.148438 100.507812 C 137.261719 101.007812 137.328125 101.519531 137.351562 102.035156 C 137.375 102.550781 137.351562 103.0625 137.28125 103.574219 C 137.210938 104.085938 137.09375 104.585938 136.933594 105.074219 C 136.773438 105.566406 136.570312 106.039062 136.324219 106.492188 C 136.074219 106.945312 135.792969 107.371094 135.46875 107.773438 C 135.144531 108.175781 134.785156 108.546875 134.394531 108.882812 C 129.136719 113.488281 124.507812 118.65625 120.507812 124.382812 C 119.714844 125.585938 118.785156 126.675781 117.722656 127.648438 C 116.660156 128.625 115.492188 129.453125 114.226562 130.140625 C 112.957031 130.828125 111.625 131.347656 110.230469 131.707031 C 108.832031 132.066406 107.414062 132.25 105.972656 132.257812 L 99.148438 132.257812 C 98.625 132.257812 98.101562 132.28125 97.578125 132.332031 C 97.058594 132.378906 96.539062 132.457031 96.023438 132.558594 C 95.511719 132.660156 95.003906 132.785156 94.5 132.9375 C 94 133.085938 93.503906 133.261719 93.019531 133.464844 C 92.535156 133.664062 92.0625 133.886719 91.597656 134.132812 C 91.136719 134.378906 90.6875 134.648438 90.25 134.9375 C 89.816406 135.230469 89.394531 135.542969 88.988281 135.875 C 88.582031 136.207031 88.195312 136.558594 87.824219 136.929688 C 87.453125 137.296875 87.101562 137.6875 86.769531 138.09375 C 86.4375 138.496094 86.125 138.917969 85.832031 139.351562 C 85.542969 139.789062 85.273438 140.238281 85.027344 140.699219 C 84.78125 141.164062 84.558594 141.636719 84.355469 142.121094 C 84.15625 142.605469 83.980469 143.097656 83.828125 143.601562 C 83.679688 144.101562 83.550781 144.609375 83.449219 145.125 C 83.347656 145.636719 83.273438 146.15625 83.222656 146.675781 C 83.171875 147.199219 83.148438 147.722656 83.148438 148.246094 L 83.148438 162.042969 C 83.144531 162.839844 83.199219 163.636719 83.3125 164.425781 C 83.425781 165.21875 83.59375 165.996094 83.824219 166.761719 C 84.050781 167.527344 84.332031 168.269531 84.671875 168.996094 C 85.007812 169.71875 85.398438 170.414062 85.839844 171.078125 C 86.277344 171.746094 86.765625 172.375 87.300781 172.972656 C 87.832031 173.566406 88.40625 174.117188 89.023438 174.628906 C 89.636719 175.136719 90.285156 175.597656 90.96875 176.011719 C 91.652344 176.425781 92.363281 176.789062 93.097656 177.097656 L 94.398438 177.667969 C 96.65625 178.601562 98.816406 179.71875 100.878906 181.023438 C 102.941406 182.332031 104.878906 183.804688 106.6875 185.441406 C 108.496094 187.082031 110.152344 188.863281 111.65625 190.785156 C 113.15625 192.710938 114.484375 194.75 115.636719 196.902344 C 118.996094 203.1875 123.085938 208.964844 127.898438 214.226562 C 132.707031 219.488281 138.097656 224.074219 144.0625 227.984375 C 144.710938 228.441406 145.292969 228.96875 145.8125 229.566406 C 146.328125 230.167969 146.765625 230.820312 147.117188 231.53125 C 147.472656 232.238281 147.734375 232.980469 147.90625 233.753906 C 148.074219 234.527344 148.148438 235.3125 148.121094 236.101562 L 148.121094 249.941406 C 148.078125 250.683594 148.109375 251.425781 148.210938 252.164062 C 148.3125 252.902344 148.480469 253.621094 148.722656 254.328125 C 148.964844 255.03125 149.269531 255.707031 149.640625 256.351562 C 150.011719 257 150.441406 257.605469 150.929688 258.167969 C 151.417969 258.730469 151.957031 259.242188 152.542969 259.699219 C 153.128906 260.160156 153.753906 260.558594 154.417969 260.894531 C 155.082031 261.234375 155.773438 261.503906 156.492188 261.710938 C 157.207031 261.914062 157.9375 262.050781 158.679688 262.113281 L 175.9375 262.113281 C 177.035156 262.070312 178.101562 261.863281 179.136719 261.492188 C 180.171875 261.117188 181.125 260.597656 181.996094 259.929688 C 182.871094 259.257812 183.621094 258.472656 184.25 257.574219 C 184.878906 256.671875 185.355469 255.695312 185.683594 254.648438 L 187.226562 250.589844 C 187.503906 249.8125 187.898438 249.097656 188.410156 248.449219 C 188.925781 247.800781 189.527344 247.25 190.21875 246.800781 C 190.914062 246.347656 191.660156 246.019531 192.460938 245.8125 C 193.261719 245.609375 194.074219 245.535156 194.902344 245.597656 C 198.230469 245.882812 201.558594 246.042969 204.972656 246.042969 C 211.125 246.050781 217.246094 245.578125 223.324219 244.625 C 223.703125 244.566406 224.082031 244.554688 224.464844 244.578125 C 224.847656 244.605469 225.222656 244.675781 225.585938 244.78125 C 225.953125 244.890625 226.304688 245.039062 226.640625 245.222656 C 226.972656 245.410156 227.285156 245.628906 227.570312 245.882812 C 227.855469 246.136719 228.113281 246.417969 228.335938 246.726562 C 228.5625 247.035156 228.75 247.363281 228.902344 247.714844 C 229.054688 248.066406 229.167969 248.429688 229.242188 248.804688 C 229.3125 249.179688 229.34375 249.558594 229.335938 249.941406 C 229.292969 250.683594 229.324219 251.425781 229.425781 252.164062 C 229.527344 252.902344 229.695312 253.621094 229.9375 254.328125 C 230.179688 255.03125 230.484375 255.707031 230.855469 256.351562 C 231.226562 257 231.65625 257.605469 232.144531 258.167969 C 232.632812 258.730469 233.171875 259.242188 233.757812 259.699219 C 234.34375 260.160156 234.96875 260.558594 235.632812 260.894531 C 236.296875 261.234375 236.988281 261.503906 237.703125 261.710938 C 238.421875 261.914062 239.152344 262.050781 239.894531 262.113281 L 257.152344 262.113281 C 258.25 262.070312 259.316406 261.863281 260.351562 261.492188 C 261.386719 261.117188 262.339844 260.597656 263.210938 259.929688 C 264.082031 259.257812 264.835938 258.472656 265.464844 257.574219 C 266.09375 256.671875 266.570312 255.695312 266.898438 254.648438 L 293.738281 198.242188 C 295.023438 195.851562 296.1875 193.402344 297.230469 190.894531 L 297.433594 190.488281 C 298.851562 187.003906 299.972656 183.429688 300.796875 179.757812 C 301.625 176.089844 302.144531 172.378906 302.359375 168.625 C 302.570312 164.867188 302.476562 161.121094 302.074219 157.382812 C 301.667969 153.640625 300.960938 149.960938 299.953125 146.339844 C 299.640625 145.171875 299.484375 143.984375 299.488281 142.777344 C 299.488281 141.570312 299.648438 140.382812 299.96875 139.214844 C 300.285156 138.050781 300.75 136.949219 301.359375 135.90625 C 301.96875 134.863281 302.703125 133.917969 303.566406 133.070312 C 304.105469 132.519531 304.621094 131.945312 305.105469 131.347656 C 305.59375 130.75 306.050781 130.128906 306.476562 129.488281 C 306.90625 128.847656 307.300781 128.1875 307.667969 127.507812 C 308.03125 126.828125 308.363281 126.132812 308.664062 125.421875 C 308.960938 124.710938 309.226562 123.988281 309.457031 123.25 C 309.6875 122.515625 309.882812 121.769531 310.039062 121.015625 C 310.199219 120.261719 310.324219 119.5 310.410156 118.734375 C 310.496094 117.96875 310.546875 117.203125 310.5625 116.429688 C 310.574219 115.660156 310.554688 114.890625 310.496094 114.121094 C 310.433594 113.351562 310.339844 112.589844 310.207031 111.828125 C 310.074219 111.070312 309.910156 110.316406 309.707031 109.574219 C 309.503906 108.832031 309.265625 108.097656 308.992188 107.375 C 308.71875 106.65625 308.410156 105.949219 308.070312 105.257812 C 307.730469 104.566406 307.359375 103.890625 306.957031 103.234375 C 306.550781 102.578125 306.117188 101.941406 305.652344 101.324219 C 305.1875 100.710938 304.695312 100.117188 304.175781 99.550781 C 303.832031 99.148438 303.453125 98.777344 303.042969 98.445312 C 302.632812 98.113281 302.195312 97.820312 301.730469 97.566406 C 301.261719 97.316406 300.777344 97.109375 300.273438 96.945312 C 299.769531 96.785156 299.257812 96.667969 298.730469 96.601562 C 298.207031 96.535156 297.679688 96.515625 297.152344 96.546875 C 296.625 96.578125 296.101562 96.65625 295.589844 96.785156 C 295.074219 96.910156 294.578125 97.085938 294.09375 97.304688 C 293.613281 97.523438 293.15625 97.785156 292.722656 98.089844 Z M 147.308594 148.207031 C 146.777344 148.207031 146.246094 148.152344 145.726562 148.050781 C 145.203125 147.945312 144.695312 147.792969 144.203125 147.585938 C 143.707031 147.382812 143.242188 147.132812 142.796875 146.835938 C 142.355469 146.542969 141.945312 146.203125 141.566406 145.828125 C 141.1875 145.453125 140.851562 145.042969 140.554688 144.597656 C 140.261719 144.15625 140.011719 143.6875 139.804688 143.195312 C 139.601562 142.703125 139.449219 142.195312 139.34375 141.671875 C 139.238281 141.148438 139.1875 140.621094 139.1875 140.089844 C 139.1875 139.554688 139.238281 139.027344 139.34375 138.507812 C 139.449219 137.984375 139.601562 137.476562 139.804688 136.984375 C 140.011719 136.492188 140.261719 136.023438 140.554688 135.582031 C 140.851562 135.136719 141.1875 134.726562 141.566406 134.351562 C 141.945312 133.972656 142.355469 133.636719 142.796875 133.339844 C 143.242188 133.042969 143.707031 132.792969 144.203125 132.589844 C 144.695312 132.386719 145.203125 132.234375 145.726562 132.128906 C 146.246094 132.023438 146.777344 131.972656 147.308594 131.972656 C 147.84375 131.972656 148.371094 132.023438 148.894531 132.128906 C 149.417969 132.234375 149.925781 132.386719 150.417969 132.589844 C 150.910156 132.792969 151.378906 133.042969 151.820312 133.339844 C 152.265625 133.636719 152.675781 133.972656 153.050781 134.351562 C 153.429688 134.726562 153.765625 135.136719 154.0625 135.582031 C 154.359375 136.023438 154.609375 136.492188 154.8125 136.984375 C 155.015625 137.476562 155.171875 137.984375 155.273438 138.507812 C 155.378906 139.027344 155.429688 139.554688 155.429688 140.089844 C 155.429688 140.621094 155.378906 141.148438 155.273438 141.671875 C 155.171875 142.195312 155.015625 142.703125 154.8125 143.195312 C 154.609375 143.6875 154.359375 144.15625 154.0625 144.597656 C 153.765625 145.042969 153.429688 145.453125 153.050781 145.828125 C 152.675781 146.203125 152.265625 146.542969 151.820312 146.835938 C 151.378906 147.132812 150.910156 147.382812 150.417969 147.585938 C 149.925781 147.792969 149.417969 147.945312 148.894531 148.050781 C 148.371094 148.152344 147.84375 148.207031 147.308594 148.207031 Z M 235.589844 110.953125 C 235.496094 111.402344 235.363281 111.84375 235.191406 112.273438 C 235.023438 112.703125 234.816406 113.113281 234.578125 113.507812 C 234.339844 113.902344 234.066406 114.273438 233.761719 114.621094 C 233.460938 114.96875 233.128906 115.289062 232.773438 115.578125 C 232.414062 115.871094 232.035156 116.128906 231.632812 116.355469 C 231.230469 116.582031 230.8125 116.773438 230.378906 116.929688 C 229.945312 117.085938 229.5 117.203125 229.042969 117.28125 C 228.589844 117.363281 228.132812 117.402344 227.671875 117.40625 C 227.117188 117.46875 226.5625 117.46875 226.003906 117.40625 C 218.996094 115.792969 211.894531 114.933594 204.699219 114.824219 C 197.507812 114.714844 190.382812 115.359375 183.328125 116.753906 C 182.796875 116.90625 182.253906 117 181.703125 117.035156 C 181.152344 117.074219 180.601562 117.058594 180.054688 116.984375 C 179.507812 116.910156 178.972656 116.78125 178.453125 116.601562 C 177.929688 116.417969 177.433594 116.183594 176.957031 115.902344 C 176.484375 115.617188 176.046875 115.289062 175.636719 114.914062 C 175.230469 114.539062 174.867188 114.128906 174.542969 113.679688 C 174.222656 113.234375 173.949219 112.757812 173.722656 112.253906 C 173.496094 111.75 173.324219 111.226562 173.207031 110.6875 C 173.085938 110.148438 173.023438 109.601562 173.015625 109.050781 C 173.007812 108.5 173.054688 107.953125 173.160156 107.410156 C 173.265625 106.867188 173.421875 106.34375 173.632812 105.832031 C 173.847656 105.320312 174.105469 104.839844 174.417969 104.382812 C 174.726562 103.925781 175.082031 103.503906 175.476562 103.121094 C 175.875 102.734375 176.304688 102.394531 176.769531 102.097656 C 177.234375 101.800781 177.726562 101.554688 178.242188 101.355469 C 178.757812 101.160156 179.289062 101.019531 179.835938 100.929688 C 188.007812 99.242188 196.265625 98.433594 204.605469 98.503906 C 212.949219 98.570312 221.191406 99.515625 229.335938 101.335938 C 229.855469 101.445312 230.363281 101.605469 230.851562 101.816406 C 231.339844 102.027344 231.804688 102.28125 232.242188 102.585938 C 232.683594 102.886719 233.089844 103.226562 233.460938 103.609375 C 233.832031 103.992188 234.164062 104.40625 234.453125 104.851562 C 234.742188 105.296875 234.988281 105.769531 235.183594 106.261719 C 235.382812 106.757812 235.53125 107.265625 235.628906 107.789062 C 235.726562 108.3125 235.769531 108.839844 235.765625 109.371094 C 235.757812 109.90625 235.699219 110.433594 235.589844 110.953125 Z M 235.589844 110.953125 "/>
</g>
<g clip-path="url(#clip2)" clip-rule="nonzero">
<path style=" stroke:none;fill-rule:nonzero;fill:rgb(49.409485%,85.099792%,34.118652%);fill-opacity:1;" d="M 219.996094 52.761719 C 219.996094 53.347656 219.96875 53.929688 219.910156 54.515625 C 219.851562 55.097656 219.765625 55.675781 219.652344 56.25 C 219.539062 56.828125 219.394531 57.394531 219.226562 57.957031 C 219.054688 58.515625 218.855469 59.066406 218.632812 59.609375 C 218.410156 60.148438 218.15625 60.679688 217.882812 61.195312 C 217.605469 61.714844 217.304688 62.214844 216.976562 62.703125 C 216.652344 63.191406 216.304688 63.660156 215.929688 64.113281 C 215.558594 64.566406 215.164062 65 214.75 65.414062 C 214.335938 65.828125 213.902344 66.222656 213.449219 66.59375 C 212.996094 66.964844 212.523438 67.316406 212.039062 67.640625 C 211.550781 67.964844 211.046875 68.265625 210.53125 68.542969 C 210.011719 68.820312 209.484375 69.070312 208.941406 69.292969 C 208.398438 69.519531 207.847656 69.714844 207.285156 69.886719 C 206.726562 70.054688 206.15625 70.199219 205.582031 70.3125 C 205.007812 70.425781 204.425781 70.511719 203.84375 70.570312 C 203.257812 70.628906 202.675781 70.65625 202.089844 70.65625 C 201.5 70.65625 200.917969 70.628906 200.332031 70.570312 C 199.75 70.511719 199.167969 70.425781 198.59375 70.3125 C 198.019531 70.199219 197.449219 70.054688 196.890625 69.886719 C 196.328125 69.714844 195.777344 69.519531 195.234375 69.292969 C 194.691406 69.070312 194.164062 68.820312 193.644531 68.542969 C 193.128906 68.265625 192.625 67.964844 192.140625 67.640625 C 191.652344 67.316406 191.179688 66.964844 190.726562 66.59375 C 190.273438 66.222656 189.839844 65.828125 189.425781 65.414062 C 189.011719 65 188.617188 64.566406 188.246094 64.113281 C 187.875 63.660156 187.523438 63.191406 187.199219 62.703125 C 186.871094 62.214844 186.570312 61.714844 186.292969 61.195312 C 186.019531 60.679688 185.769531 60.148438 185.542969 59.609375 C 185.320312 59.066406 185.121094 58.515625 184.953125 57.957031 C 184.78125 57.394531 184.640625 56.828125 184.523438 56.25 C 184.410156 55.675781 184.324219 55.097656 184.265625 54.515625 C 184.210938 53.929688 184.179688 53.347656 184.179688 52.761719 C 184.179688 52.175781 184.210938 51.589844 184.265625 51.007812 C 184.324219 50.421875 184.410156 49.84375 184.523438 49.269531 C 184.640625 48.695312 184.78125 48.125 184.953125 47.566406 C 185.121094 47.003906 185.320312 46.453125 185.542969 45.910156 C 185.769531 45.371094 186.019531 44.839844 186.292969 44.324219 C 186.570312 43.808594 186.871094 43.304688 187.199219 42.816406 C 187.523438 42.332031 187.875 41.859375 188.246094 41.40625 C 188.617188 40.953125 189.011719 40.519531 189.425781 40.105469 C 189.839844 39.691406 190.273438 39.296875 190.726562 38.925781 C 191.179688 38.554688 191.652344 38.207031 192.140625 37.878906 C 192.625 37.554688 193.128906 37.253906 193.644531 36.976562 C 194.164062 36.703125 194.691406 36.449219 195.234375 36.226562 C 195.777344 36.003906 196.328125 35.804688 196.890625 35.636719 C 197.449219 35.464844 198.019531 35.324219 198.59375 35.207031 C 199.167969 35.09375 199.75 35.007812 200.332031 34.949219 C 200.917969 34.894531 201.5 34.863281 202.089844 34.863281 C 202.675781 34.863281 203.257812 34.894531 203.84375 34.949219 C 204.425781 35.007812 205.007812 35.09375 205.582031 35.207031 C 206.15625 35.324219 206.726562 35.464844 207.285156 35.636719 C 207.847656 35.804688 208.398438 36.003906 208.941406 36.226562 C 209.484375 36.449219 210.011719 36.703125 210.53125 36.976562 C 211.046875 37.253906 211.550781 37.554688 212.039062 37.878906 C 212.523438 38.207031 212.996094 38.554688 213.449219 38.925781 C 213.902344 39.296875 214.335938 39.691406 214.75 40.105469 C 215.164062 40.519531 215.558594 40.953125 215.929688 41.40625 C 216.304688 41.859375 216.652344 42.332031 216.976562 42.816406 C 217.304688 43.304688 217.605469 43.808594 217.882812 44.324219 C 218.15625 44.839844 218.410156 45.371094 218.632812 45.910156 C 218.855469 46.453125 219.054688 47.003906 219.226562 47.566406 C 219.394531 48.125 219.539062 48.695312 219.652344 49.269531 C 219.765625 49.84375 219.851562 50.421875 219.910156 51.007812 C 219.96875 51.589844 219.996094 52.175781 219.996094 52.761719 Z M 219.996094 52.761719 "/>
</g>
</g>
</svg>
