<?xml version="1.0" encoding="UTF-8"?>
<svg xmlns="http://www.w3.org/2000/svg" xmlns:xlink="http://www.w3.org/1999/xlink" width="396pt" height="296.999993pt" viewBox="0 0 396 296.999993" version="1.2">
<defs>
<clipPath id="clip1">
  <path d="M 109 244 L 239 244 L 239 281.953125 L 109 281.953125 Z M 109 244 "/>
</clipPath>
<clipPath id="clip2">
  <path d="M 203 174 L 311 174 L 311 281.953125 L 203 281.953125 Z M 203 174 "/>
</clipPath>
</defs>
<g id="surface1">
<path style=" stroke:none;fill-rule:nonzero;fill:rgb(24.708557%,76.858521%,75.689697%);fill-opacity:1;" d="M 76.523438 192.113281 C 76.21875 192.210938 75.914062 192.261719 75.609375 192.261719 C 74.304688 192.261719 73.113281 191.421875 72.699219 190.132812 C 64.234375 163.226562 64.722656 135.117188 73.246094 109.496094 C 74.453125 112.046875 75.828125 114.515625 77.363281 116.859375 C 70.882812 139.792969 71.03125 164.539062 78.507812 188.3125 C 79.019531 189.902344 78.117188 191.613281 76.523438 192.113281 Z M 76.523438 192.113281 "/>
<path style=" stroke:none;fill-rule:nonzero;fill:rgb(24.708557%,76.858521%,75.689697%);fill-opacity:1;" d="M 283.976562 56.53125 L 270.382812 56.726562 C 268.035156 56.761719 266.597656 54.164062 267.886719 52.195312 L 270.296875 48.539062 C 268.023438 46.933594 265.707031 45.402344 263.34375 43.960938 C 233.128906 25.566406 197.710938 21.230469 165.339844 30 C 165.339844 30 165.339844 29.988281 165.332031 30 C 162.992188 28.445312 160.542969 27.050781 158.011719 25.820312 C 193.449219 14.464844 233.042969 18.386719 266.523438 38.785156 C 268.9375 40.253906 271.308594 41.820312 273.636719 43.460938 L 276.265625 39.476562 C 277.558594 37.507812 280.527344 37.785156 281.429688 39.960938 L 286.640625 52.472656 C 287.433594 54.382812 286.046875 56.496094 283.976562 56.53125 Z M 283.976562 56.53125 "/>
<g clip-path="url(#clip1)" clip-rule="nonzero">
<path style=" stroke:none;fill-rule:nonzero;fill:rgb(24.708557%,76.858521%,75.689697%);fill-opacity:1;" d="M 238.597656 275.558594 C 225.480469 279.808594 211.792969 281.960938 198.054688 281.960938 C 174.539062 281.960938 150.875 275.652344 129.660156 262.726562 C 127.261719 261.273438 124.898438 259.703125 122.582031 258.089844 L 120.109375 261.855469 C 118.820312 263.808594 115.847656 263.53125 114.949219 261.371094 L 109.734375 248.84375 C 108.941406 246.9375 110.332031 244.824219 112.402344 244.800781 L 125.992188 244.59375 C 128.34375 244.558594 129.78125 247.167969 128.488281 249.125 L 125.933594 253.011719 C 128.183594 254.589844 130.5 256.121094 132.839844 257.542969 C 153.066406 269.859375 175.632812 275.875 198.054688 275.875 C 209.296875 275.875 220.488281 274.367188 231.339844 271.378906 C 233.652344 272.921875 236.074219 274.320312 238.597656 275.558594 Z M 238.597656 275.558594 "/>
</g>
<path style=" stroke:none;fill-rule:nonzero;fill:rgb(24.708557%,76.858521%,75.689697%);fill-opacity:1;" d="M 323.203125 191.152344 C 321.972656 188.640625 320.574219 186.234375 319.023438 183.925781 C 325.296875 161.195312 325.078125 136.71875 317.671875 113.203125 C 317.164062 111.597656 318.0625 109.898438 319.660156 109.386719 C 321.265625 108.890625 322.96875 109.777344 323.484375 111.378906 C 331.863281 137.984375 331.472656 165.765625 323.203125 191.152344 Z M 323.203125 191.152344 "/>
<path style=" stroke:none;fill-rule:nonzero;fill:rgb(59.999084%,84.709167%,93.728638%);fill-opacity:1;" d="M 317.378906 88.222656 C 317.378906 88.648438 317.335938 89.074219 317.253906 89.496094 C 317.167969 89.914062 317.042969 90.324219 316.878906 90.71875 C 316.714844 91.117188 316.515625 91.492188 316.273438 91.847656 C 316.035156 92.207031 315.765625 92.535156 315.460938 92.839844 C 315.15625 93.140625 314.828125 93.410156 314.46875 93.648438 C 314.113281 93.886719 313.734375 94.089844 313.335938 94.253906 C 312.941406 94.417969 312.53125 94.542969 312.109375 94.625 C 311.6875 94.707031 311.261719 94.75 310.832031 94.75 C 310.402344 94.75 309.976562 94.707031 309.554688 94.625 C 309.136719 94.542969 308.726562 94.417969 308.328125 94.253906 C 307.929688 94.089844 307.554688 93.886719 307.195312 93.648438 C 306.839844 93.410156 306.507812 93.140625 306.207031 92.839844 C 305.902344 92.535156 305.628906 92.207031 305.390625 91.847656 C 305.152344 91.492188 304.949219 91.117188 304.785156 90.71875 C 304.621094 90.324219 304.496094 89.914062 304.414062 89.496094 C 304.328125 89.074219 304.289062 88.648438 304.289062 88.222656 C 304.289062 87.792969 304.328125 87.367188 304.414062 86.949219 C 304.496094 86.527344 304.621094 86.121094 304.785156 85.722656 C 304.949219 85.328125 305.152344 84.949219 305.390625 84.59375 C 305.628906 84.238281 305.902344 83.910156 306.207031 83.605469 C 306.507812 83.300781 306.839844 83.03125 307.195312 82.792969 C 307.554688 82.554688 307.929688 82.355469 308.328125 82.191406 C 308.726562 82.027344 309.136719 81.902344 309.554688 81.820312 C 309.976562 81.734375 310.402344 81.691406 310.832031 81.691406 C 311.261719 81.691406 311.6875 81.734375 312.109375 81.820312 C 312.53125 81.902344 312.941406 82.027344 313.335938 82.191406 C 313.734375 82.355469 314.113281 82.554688 314.46875 82.792969 C 314.828125 83.03125 315.15625 83.300781 315.460938 83.605469 C 315.765625 83.910156 316.035156 84.238281 316.273438 84.59375 C 316.515625 84.949219 316.714844 85.328125 316.878906 85.722656 C 317.042969 86.121094 317.167969 86.527344 317.253906 86.949219 C 317.335938 87.367188 317.378906 87.792969 317.378906 88.222656 Z M 317.378906 88.222656 "/>
<path style=" stroke:none;fill-rule:nonzero;fill:rgb(59.999084%,84.709167%,93.728638%);fill-opacity:1;" d="M 304.789062 67.53125 C 304.789062 67.960938 304.746094 68.386719 304.664062 68.808594 C 304.578125 69.226562 304.453125 69.636719 304.289062 70.03125 C 304.125 70.425781 303.925781 70.804688 303.6875 71.160156 C 303.445312 71.515625 303.175781 71.847656 302.871094 72.148438 C 302.566406 72.453125 302.238281 72.722656 301.878906 72.960938 C 301.523438 73.199219 301.144531 73.402344 300.75 73.566406 C 300.351562 73.730469 299.941406 73.851562 299.519531 73.9375 C 299.097656 74.019531 298.671875 74.0625 298.242188 74.0625 C 297.8125 74.0625 297.386719 74.019531 296.964844 73.9375 C 296.546875 73.851562 296.136719 73.730469 295.738281 73.566406 C 295.34375 73.402344 294.964844 73.199219 294.605469 72.960938 C 294.25 72.722656 293.917969 72.453125 293.617188 72.148438 C 293.3125 71.847656 293.039062 71.515625 292.800781 71.160156 C 292.5625 70.804688 292.359375 70.425781 292.195312 70.03125 C 292.03125 69.636719 291.90625 69.226562 291.824219 68.808594 C 291.742188 68.386719 291.699219 67.960938 291.699219 67.53125 C 291.699219 67.105469 291.742188 66.679688 291.824219 66.257812 C 291.90625 65.839844 292.03125 65.429688 292.195312 65.035156 C 292.359375 64.640625 292.5625 64.261719 292.800781 63.90625 C 293.039062 63.550781 293.3125 63.21875 293.617188 62.917969 C 293.917969 62.613281 294.25 62.34375 294.605469 62.105469 C 294.964844 61.867188 295.34375 61.664062 295.738281 61.5 C 296.136719 61.335938 296.546875 61.214844 296.964844 61.128906 C 297.386719 61.046875 297.8125 61.003906 298.242188 61.003906 C 298.671875 61.003906 299.097656 61.046875 299.519531 61.128906 C 299.941406 61.214844 300.351562 61.335938 300.75 61.5 C 301.144531 61.664062 301.523438 61.867188 301.878906 62.105469 C 302.238281 62.34375 302.566406 62.613281 302.871094 62.917969 C 303.175781 63.21875 303.445312 63.550781 303.6875 63.90625 C 303.925781 64.261719 304.125 64.640625 304.289062 65.035156 C 304.453125 65.429688 304.578125 65.839844 304.664062 66.257812 C 304.746094 66.679688 304.789062 67.105469 304.789062 67.53125 Z M 304.789062 67.53125 "/>
<path style=" stroke:none;fill-rule:nonzero;fill:rgb(59.999084%,84.709167%,93.728638%);fill-opacity:1;" d="M 89.382812 210.675781 C 89.382812 211.101562 89.339844 211.527344 89.253906 211.949219 C 89.171875 212.367188 89.046875 212.777344 88.882812 213.171875 C 88.71875 213.570312 88.515625 213.945312 88.277344 214.300781 C 88.039062 214.65625 87.769531 214.988281 87.464844 215.289062 C 87.160156 215.59375 86.828125 215.863281 86.472656 216.101562 C 86.113281 216.339844 85.738281 216.542969 85.339844 216.707031 C 84.945312 216.871094 84.535156 216.992188 84.113281 217.078125 C 83.691406 217.160156 83.265625 217.203125 82.835938 217.203125 C 82.40625 217.203125 81.980469 217.160156 81.558594 217.078125 C 81.136719 216.992188 80.726562 216.871094 80.332031 216.707031 C 79.933594 216.542969 79.558594 216.339844 79.199219 216.101562 C 78.84375 215.863281 78.511719 215.59375 78.207031 215.289062 C 77.902344 214.988281 77.632812 214.65625 77.394531 214.300781 C 77.15625 213.945312 76.953125 213.570312 76.789062 213.171875 C 76.625 212.777344 76.5 212.367188 76.417969 211.949219 C 76.332031 211.527344 76.289062 211.101562 76.289062 210.675781 C 76.289062 210.246094 76.332031 209.820312 76.417969 209.402344 C 76.5 208.980469 76.625 208.570312 76.789062 208.175781 C 76.953125 207.78125 77.15625 207.402344 77.394531 207.046875 C 77.632812 206.691406 77.902344 206.359375 78.207031 206.058594 C 78.511719 205.753906 78.84375 205.484375 79.199219 205.246094 C 79.558594 205.007812 79.933594 204.808594 80.332031 204.644531 C 80.726562 204.480469 81.136719 204.355469 81.558594 204.269531 C 81.980469 204.1875 82.40625 204.144531 82.835938 204.144531 C 83.265625 204.144531 83.691406 204.1875 84.113281 204.269531 C 84.535156 204.355469 84.945312 204.480469 85.339844 204.644531 C 85.738281 204.808594 86.113281 205.007812 86.472656 205.246094 C 86.828125 205.484375 87.160156 205.753906 87.464844 206.058594 C 87.769531 206.359375 88.039062 206.691406 88.277344 207.046875 C 88.515625 207.402344 88.71875 207.78125 88.882812 208.175781 C 89.046875 208.570312 89.171875 208.980469 89.253906 209.402344 C 89.339844 209.820312 89.382812 210.246094 89.382812 210.675781 Z M 89.382812 210.675781 "/>
<path style=" stroke:none;fill-rule:nonzero;fill:rgb(59.999084%,84.709167%,93.728638%);fill-opacity:1;" d="M 103.15625 232.71875 C 103.15625 233.148438 103.113281 233.574219 103.03125 233.992188 C 102.945312 234.414062 102.824219 234.820312 102.65625 235.21875 C 102.492188 235.613281 102.292969 235.992188 102.054688 236.347656 C 101.8125 236.703125 101.542969 237.03125 101.238281 237.335938 C 100.933594 237.640625 100.605469 237.910156 100.246094 238.148438 C 99.890625 238.386719 99.511719 238.585938 99.117188 238.75 C 98.71875 238.914062 98.308594 239.039062 97.886719 239.121094 C 97.464844 239.207031 97.039062 239.25 96.609375 239.25 C 96.179688 239.25 95.753906 239.207031 95.335938 239.121094 C 94.914062 239.039062 94.503906 238.914062 94.105469 238.75 C 93.710938 238.585938 93.332031 238.386719 92.976562 238.148438 C 92.617188 237.910156 92.285156 237.640625 91.984375 237.335938 C 91.679688 237.03125 91.40625 236.703125 91.167969 236.347656 C 90.929688 235.992188 90.726562 235.613281 90.5625 235.21875 C 90.398438 234.820312 90.277344 234.414062 90.191406 233.992188 C 90.109375 233.574219 90.066406 233.148438 90.066406 232.71875 C 90.066406 232.292969 90.109375 231.867188 90.191406 231.445312 C 90.277344 231.027344 90.398438 230.617188 90.5625 230.222656 C 90.726562 229.824219 90.929688 229.449219 91.167969 229.09375 C 91.40625 228.734375 91.679688 228.40625 91.984375 228.101562 C 92.285156 227.800781 92.617188 227.53125 92.976562 227.292969 C 93.332031 227.054688 93.710938 226.851562 94.105469 226.6875 C 94.503906 226.523438 94.914062 226.398438 95.335938 226.316406 C 95.753906 226.234375 96.179688 226.191406 96.609375 226.191406 C 97.039062 226.191406 97.464844 226.234375 97.886719 226.316406 C 98.308594 226.398438 98.71875 226.523438 99.117188 226.6875 C 99.511719 226.851562 99.890625 227.054688 100.246094 227.292969 C 100.605469 227.53125 100.933594 227.800781 101.238281 228.101562 C 101.542969 228.40625 101.8125 228.734375 102.054688 229.09375 C 102.292969 229.449219 102.492188 229.824219 102.65625 230.222656 C 102.824219 230.617188 102.945312 231.027344 103.03125 231.445312 C 103.113281 231.867188 103.15625 232.292969 103.15625 232.71875 Z M 103.15625 232.71875 "/>
<path style=" stroke:none;fill-rule:nonzero;fill:rgb(100%,65.879822%,0%);fill-opacity:1;" d="M 174.933594 127.628906 C 163.039062 139.335938 147.277344 145.792969 130.527344 145.792969 C 95.636719 145.792969 67.246094 117.476562 67.246094 82.675781 C 67.246094 65.976562 73.710938 50.265625 85.460938 38.378906 Z M 174.933594 127.628906 "/>
<path style=" stroke:none;fill-rule:nonzero;fill:rgb(100%,80.389404%,0%);fill-opacity:1;" d="M 193.804688 82.675781 C 193.804688 99.570312 187.199219 115.441406 175.214844 127.347656 C 175.121094 127.441406 175.027344 127.535156 174.933594 127.628906 L 85.460938 38.378906 C 85.554688 38.277344 85.648438 38.183594 85.75 38.082031 C 97.675781 26.144531 113.585938 19.554688 130.527344 19.554688 C 165.414062 19.558594 193.804688 47.875 193.804688 82.675781 Z M 193.804688 82.675781 "/>
<path style=" stroke:none;fill-rule:nonzero;fill:rgb(100%,92.939758%,39.99939%);fill-opacity:1;" d="M 160.355469 113.085938 C 152.664062 120.601562 142.132812 125.234375 130.527344 125.234375 C 106.960938 125.234375 87.859375 106.179688 87.859375 82.675781 C 87.859375 71.097656 92.507812 60.59375 100.039062 52.921875 Z M 160.355469 113.085938 "/>
<path style=" stroke:none;fill-rule:nonzero;fill:rgb(100%,98.039246%,81.17981%);fill-opacity:1;" d="M 173.191406 82.675781 C 173.191406 94.441406 168.40625 105.09375 160.664062 112.785156 C 160.5625 112.890625 160.460938 112.992188 160.355469 113.085938 L 100.039062 52.921875 C 100.132812 52.816406 100.234375 52.714844 100.339844 52.613281 C 108.046875 44.894531 118.730469 40.117188 130.527344 40.117188 C 154.089844 40.117188 173.191406 59.171875 173.191406 82.675781 Z M 173.191406 82.675781 "/>
<path style=" stroke:none;fill-rule:nonzero;fill:rgb(100%,51.759338%,0%);fill-opacity:1;" d="M 145.726562 90.269531 C 145.726562 84.878906 143.339844 80.761719 131.054688 78.199219 C 124.832031 76.902344 123.339844 75.957031 123.339844 73.75 C 123.339844 71.445312 125.210938 70.222656 128.636719 70.222656 C 132.941406 70.222656 134.414062 71.898438 135.007812 73.566406 C 135.203125 74.125 135.730469 74.5 136.324219 74.5 L 142.847656 74.5 C 143.769531 74.5 144.429688 73.632812 144.207031 72.738281 C 143.308594 69.171875 140.601562 65.613281 134.789062 64.1875 L 135.015625 64.1875 L 135.015625 59.640625 C 135.015625 58.929688 134.441406 58.355469 133.726562 58.355469 L 131.714844 58.355469 C 131.003906 58.355469 130.425781 58.929688 130.425781 59.640625 L 130.425781 63.570312 C 129.929688 63.542969 129.425781 63.523438 128.898438 63.523438 C 128.570312 63.523438 128.257812 63.542969 127.9375 63.554688 L 127.9375 59.640625 C 127.9375 58.929688 127.359375 58.355469 126.648438 58.355469 L 124.636719 58.355469 C 123.925781 58.355469 123.347656 58.929688 123.347656 59.640625 L 123.347656 64.152344 C 117.5625 65.550781 113.960938 69.265625 113.960938 74.746094 C 113.960938 79.722656 116.304688 83.761719 127.917969 86.132812 C 134.59375 87.480469 136.324219 88.671875 136.324219 91.320312 C 136.324219 93.710938 134.710938 95.199219 130.144531 95.199219 C 125.765625 95.199219 123.273438 93.851562 122.179688 91.121094 C 121.96875 90.589844 121.457031 90.238281 120.886719 90.238281 L 114.355469 90.238281 C 113.421875 90.238281 112.765625 91.128906 113.007812 92.027344 C 114.238281 96.558594 117.574219 99.96875 123.347656 101.320312 L 123.347656 105.710938 C 123.347656 106.421875 123.925781 106.996094 124.636719 106.996094 L 126.648438 106.996094 C 127.359375 106.996094 127.9375 106.421875 127.9375 105.710938 L 127.9375 101.925781 C 128.394531 101.945312 128.859375 101.960938 129.339844 101.960938 C 129.714844 101.960938 130.066406 101.945312 130.425781 101.933594 L 130.425781 105.710938 C 130.425781 106.421875 131.003906 106.996094 131.71875 106.996094 L 133.726562 106.996094 C 134.441406 106.996094 135.019531 106.421875 135.019531 105.710938 L 135.019531 101.460938 C 142.269531 100.050781 145.726562 95.792969 145.726562 90.269531 Z M 145.726562 90.269531 "/>
<g clip-path="url(#clip2)" clip-rule="nonzero">
<path style=" stroke:none;fill-rule:nonzero;fill:rgb(100%,65.879822%,0%);fill-opacity:1;" d="M 310.753906 263.785156 C 298.851562 275.496094 283.09375 281.949219 266.34375 281.949219 C 231.453125 281.949219 203.066406 253.632812 203.066406 218.832031 C 203.066406 202.132812 209.53125 186.421875 221.277344 174.535156 Z M 310.753906 263.785156 "/>
</g>
<path style=" stroke:none;fill-rule:nonzero;fill:rgb(100%,80.389404%,0%);fill-opacity:1;" d="M 329.621094 218.832031 C 329.621094 235.730469 323.015625 251.597656 311.03125 263.503906 C 310.941406 263.597656 310.847656 263.691406 310.753906 263.785156 L 221.277344 174.535156 C 221.371094 174.433594 221.464844 174.339844 221.570312 174.238281 C 233.496094 162.300781 249.402344 155.714844 266.34375 155.714844 C 301.234375 155.714844 329.621094 184.03125 329.621094 218.832031 Z M 329.621094 218.832031 "/>
<path style=" stroke:none;fill-rule:nonzero;fill:rgb(100%,92.939758%,39.99939%);fill-opacity:1;" d="M 296.175781 249.242188 C 288.480469 256.753906 277.953125 261.390625 266.34375 261.390625 C 242.78125 261.390625 223.675781 242.335938 223.675781 218.832031 C 223.675781 207.253906 228.324219 196.75 235.855469 189.078125 Z M 296.175781 249.242188 "/>
<path style=" stroke:none;fill-rule:nonzero;fill:rgb(100%,98.039246%,81.17981%);fill-opacity:1;" d="M 309.011719 218.832031 C 309.011719 230.597656 304.222656 241.253906 296.484375 248.945312 C 296.378906 249.046875 296.277344 249.148438 296.175781 249.242188 L 235.855469 189.078125 C 235.949219 188.972656 236.054688 188.871094 236.15625 188.769531 C 243.867188 181.046875 254.546875 176.273438 266.34375 176.273438 C 289.90625 176.273438 309.011719 195.332031 309.011719 218.832031 Z M 309.011719 218.832031 "/>
<path style=" stroke:none;fill-rule:nonzero;fill:rgb(100%,51.759338%,0%);fill-opacity:1;" d="M 279.496094 219.320312 C 278.410156 218.488281 278.375 216.917969 279.339844 215.945312 C 280.789062 214.457031 281.820312 212.320312 281.820312 209.503906 C 281.820312 204.601562 278.410156 200 269.800781 199.636719 L 269.800781 195.078125 C 269.800781 194.355469 269.21875 193.769531 268.488281 193.769531 L 266.558594 193.769531 C 265.835938 193.769531 265.246094 194.355469 265.246094 195.078125 L 265.246094 199.601562 L 261.5 199.601562 L 261.5 195.078125 C 261.5 194.355469 260.917969 193.769531 260.1875 193.769531 L 258.257812 193.769531 C 257.535156 193.769531 256.945312 194.355469 256.945312 195.078125 L 256.945312 199.601562 L 251.914062 199.601562 C 250.667969 199.601562 249.667969 200.601562 249.667969 201.832031 L 249.667969 235.832031 C 249.667969 237.066406 250.667969 238.066406 251.914062 238.066406 L 256.945312 238.066406 L 256.945312 242.589844 C 256.945312 243.308594 257.535156 243.898438 258.257812 243.898438 L 260.1875 243.898438 C 260.917969 243.898438 261.5 243.308594 261.5 242.589844 L 261.5 238.066406 L 265.246094 238.066406 L 265.246094 242.589844 C 265.246094 243.308594 265.835938 243.898438 266.558594 243.898438 L 268.488281 243.898438 C 269.21875 243.898438 269.800781 243.308594 269.800781 242.589844 L 269.800781 238.039062 C 278.128906 237.710938 283.019531 233.046875 283.019531 226.542969 C 283.019531 223.207031 281.464844 220.832031 279.496094 219.320312 Z M 258.78125 208.839844 C 258.78125 207.609375 259.785156 206.609375 261.019531 206.609375 L 267.410156 206.609375 C 270.4375 206.609375 272.507812 207.851562 272.507812 210.5625 C 272.507812 212.933594 271.121094 214.597656 267.289062 214.597656 L 261.019531 214.597656 C 259.785156 214.597656 258.78125 213.597656 258.78125 212.367188 Z M 267.25 231.085938 L 261.019531 231.085938 C 259.785156 231.085938 258.78125 230.074219 258.78125 228.839844 L 258.78125 223.824219 C 258.78125 222.589844 259.785156 221.589844 261.019531 221.589844 L 267.429688 221.589844 C 271.503906 221.589844 273.398438 223.289062 273.398438 226.1875 C 273.398438 229.589844 271.308594 231.085938 267.25 231.085938 Z M 267.25 231.085938 "/>
<path style=" stroke:none;fill-rule:nonzero;fill:rgb(100%,100%,100%);fill-opacity:1;" d="M 273.398438 226.1875 C 273.398438 229.589844 271.308594 231.085938 267.253906 231.085938 L 261.019531 231.085938 C 259.785156 231.085938 258.78125 230.074219 258.78125 228.839844 L 258.78125 223.824219 C 258.78125 222.589844 259.785156 221.589844 261.019531 221.589844 L 267.429688 221.589844 C 271.507812 221.589844 273.398438 223.292969 273.398438 226.1875 Z M 273.398438 226.1875 "/>
<path style=" stroke:none;fill-rule:nonzero;fill:rgb(100%,100%,100%);fill-opacity:1;" d="M 272.507812 210.5625 C 272.507812 212.933594 271.121094 214.597656 267.289062 214.597656 L 261.019531 214.597656 C 259.785156 214.597656 258.78125 213.597656 258.78125 212.367188 L 258.78125 208.839844 C 258.78125 207.609375 259.785156 206.609375 261.019531 206.609375 L 267.410156 206.609375 C 270.4375 206.609375 272.507812 207.851562 272.507812 210.5625 Z M 272.507812 210.5625 "/>
</g>
</svg>
